<?xml version="1.0" standalone="no"?>
<!DOCTYPE svg PUBLIC "-//W3C//DTD SVG 20010904//EN"
 "http://www.w3.org/TR/2001/REC-SVG-20010904/DTD/svg10.dtd">
<svg version="1.0" xmlns="http://www.w3.org/2000/svg"
 width="3696.000000pt" height="3312.000000pt" viewBox="0 0 3696.000000 3312.000000"
 preserveAspectRatio="xMidYMid meet">
<g transform="translate(0.000000,3312.000000) scale(0.100000,-0.100000)"
fill="#000000" stroke="none">
<path d="M18570 30957 c-21 -35 -65 -72 -104 -87 -22 -8 -27 -5 -44 24 l-20
34 -69 -5 c-37 -3 -85 -14 -105 -24 -51 -26 -91 -24 -126 6 -17 14 -35 25 -41
25 -17 0 -41 -63 -41 -108 0 -41 -17 -66 -36 -54 -6 4 -21 26 -33 49 -11 23
-26 45 -33 49 -28 18 -137 -1 -228 -39 -19 -8 -71 -20 -115 -26 -44 -7 -90
-17 -102 -23 -12 -6 -37 -8 -55 -5 -29 4 -36 1 -50 -24 -19 -32 -52 -38 -83
-15 -17 12 -22 12 -44 -5 -13 -10 -38 -19 -56 -19 -18 0 -44 -9 -58 -20 -47
-37 -69 -40 -100 -14 -33 27 -59 31 -77 9 -6 -7 -37 -28 -67 -45 -44 -25 -61
-30 -77 -22 -38 17 -49 4 -27 -32 13 -20 18 -41 14 -55 -6 -25 0 -24 -118 -3
-27 6 -64 16 -82 23 -26 10 -34 10 -47 0 -9 -8 -16 -22 -16 -32 0 -32 -30 -52
-70 -45 -31 5 -41 2 -60 -19 -24 -25 -64 -33 -75 -15 -11 18 -23 10 -59 -40
-42 -58 -104 -100 -158 -108 -37 -4 -55 -19 -84 -68 -10 -18 -13 -17 -48 14
-42 36 -42 36 -76 17 -15 -9 -54 -14 -97 -15 -65 0 -73 -2 -92 -26 -12 -15
-21 -33 -21 -40 0 -7 -13 -22 -30 -34 -18 -13 -33 -36 -40 -61 -12 -42 -30
-49 -64 -24 -49 37 -93 5 -76 -56 6 -19 10 -35 10 -36 0 -9 -42 -1 -66 12 -55
29 -86 20 -128 -35 -49 -65 -62 -71 -115 -59 -47 10 -61 4 -104 -48 -11 -14
-30 -23 -47 -23 -20 0 -39 -11 -62 -35 -18 -19 -43 -45 -55 -57 -12 -13 -36
-34 -53 -47 -18 -13 -37 -37 -42 -53 -6 -15 -13 -28 -18 -28 -4 0 -20 -12 -35
-27 -22 -23 -39 -29 -89 -33 -59 -5 -62 -6 -80 -43 -13 -27 -29 -43 -57 -54
-21 -8 -39 -19 -39 -23 0 -4 -22 -22 -50 -40 -27 -18 -51 -35 -51 -39 -1 -3
-3 -17 -4 -30 -3 -34 -32 -52 -71 -45 -30 5 -33 3 -44 -30 -7 -22 -23 -42 -38
-50 -15 -8 -40 -28 -56 -44 -19 -20 -43 -33 -70 -37 -52 -9 -66 -21 -66 -55 0
-38 -36 -116 -63 -135 -12 -8 -34 -15 -48 -15 -41 0 -59 -10 -59 -32 0 -10
-14 -37 -31 -58 -25 -31 -30 -45 -25 -67 22 -87 17 -105 -30 -123 -14 -6 -24
-21 -28 -43 -7 -38 -57 -79 -109 -91 -19 -5 -33 -17 -42 -39 -7 -18 -27 -49
-44 -71 -17 -21 -31 -42 -31 -47 0 -4 -22 -33 -49 -64 -28 -31 -53 -70 -56
-85 -9 -43 -43 -80 -89 -100 -42 -17 -56 -40 -97 -148 -7 -19 -34 -64 -61
-100 -26 -37 -48 -77 -48 -89 0 -13 -11 -32 -24 -44 -13 -11 -31 -37 -40 -57
-9 -21 -31 -45 -48 -55 -31 -18 -33 -32 -13 -79 4 -11 -1 -23 -16 -35 -53 -42
-67 -62 -74 -101 -4 -23 -20 -58 -36 -78 -16 -20 -29 -44 -29 -53 0 -9 -18
-35 -40 -56 -37 -36 -40 -44 -35 -76 7 -40 -22 -105 -179 -394 -9 -16 -16 -37
-16 -46 0 -8 -11 -30 -25 -48 -20 -28 -23 -41 -18 -76 6 -49 -22 -137 -61
-188 -34 -46 -67 -189 -65 -279 2 -54 -2 -82 -15 -107 -14 -27 -17 -47 -12
-90 5 -48 3 -63 -19 -104 -20 -36 -24 -56 -19 -82 5 -27 0 -46 -20 -85 -15
-29 -26 -66 -26 -90 0 -78 -22 -186 -57 -277 -34 -87 -35 -94 -23 -135 16 -56
17 -86 1 -183 -26 -162 -44 -507 -42 -800 1 -66 -4 -148 -11 -182 -10 -54 -9
-71 6 -118 14 -45 15 -62 5 -97 -7 -26 -9 -72 -5 -115 3 -45 1 -82 -5 -97 -9
-20 -8 -34 5 -66 11 -27 14 -54 10 -80 -4 -22 -1 -75 5 -117 18 -119 34 -300
32 -376 -1 -37 5 -81 13 -100 7 -18 17 -91 20 -163 4 -71 15 -158 23 -194 22
-90 32 -164 43 -317 14 -205 30 -332 50 -405 11 -40 16 -82 13 -106 -4 -28 0
-47 11 -63 20 -30 20 -50 -1 -94 -23 -48 -46 -45 -101 13 -24 26 -59 62 -76
80 -98 105 -245 192 -322 192 -39 0 -121 -39 -139 -66 -8 -13 -22 -24 -29 -24
-15 0 -86 -77 -86 -92 0 -17 19 -6 70 42 29 28 62 50 74 50 12 0 30 6 41 14
32 21 77 25 115 10 19 -8 82 -63 139 -121 120 -122 183 -174 226 -183 29 -6
37 -16 110 -143 9 -16 17 -58 19 -98 3 -57 8 -75 26 -95 13 -13 31 -24 40 -24
20 0 57 26 70 50 9 17 7 18 -26 13 -44 -7 -62 12 -36 40 14 16 14 22 3 50 -27
67 -33 111 -20 155 11 39 10 45 -10 63 -25 23 -26 41 -7 77 7 15 21 45 30 66
17 38 17 39 -8 65 -27 29 -34 67 -14 73 7 3 26 45 44 94 28 82 33 89 55 86 33
-5 59 -30 52 -50 -3 -10 -17 -29 -31 -44 -24 -26 -25 -30 -12 -68 11 -33 11
-48 2 -74 -15 -41 -15 -70 1 -123 15 -51 30 -68 52 -60 29 12 29 37 0 67 l-28
29 44 55 c45 56 87 83 114 72 25 -9 30 -37 12 -67 -10 -19 -14 -41 -10 -64 10
-63 25 -45 59 69 17 58 17 60 -4 97 -15 25 -22 55 -22 88 0 57 -6 63 -46 53
-16 -5 -42 -6 -59 -3 -24 5 -33 15 -47 54 -16 41 -17 58 -7 118 8 54 8 73 -2
85 -19 23 -40 13 -53 -25 -15 -46 -39 -60 -64 -38 -23 21 -46 22 -62 2 -29
-35 -60 -12 -60 44 0 40 70 91 125 91 46 0 65 13 65 47 0 17 -7 24 -27 28 -85
17 -80 9 -71 125 3 31 0 36 -29 45 -44 15 -46 19 -39 60 8 40 99 144 110 126
13 -21 38 3 68 65 17 35 29 65 27 67 -31 21 -84 36 -92 28 -20 -20 -71 -12
-107 17 -19 16 -45 34 -57 41 -33 17 -29 35 16 73 l39 34 -5 62 c-6 67 -8 66
59 76 20 4 39 13 42 21 5 14 0 21 -39 53 -26 22 -17 39 57 99 67 54 102 103
85 119 -3 4 -28 8 -54 11 -26 2 -58 10 -70 19 -31 20 -43 10 -43 -36 0 -35 -4
-40 -47 -65 -91 -51 -137 4 -72 85 23 29 35 55 39 88 4 42 8 47 32 50 24 3 30
-2 44 -38 17 -42 37 -48 42 -13 2 12 -5 27 -16 35 -28 20 -39 47 -43 107 -4
59 1 66 62 76 19 3 44 11 54 19 17 12 17 16 4 47 -8 19 -14 54 -14 79 0 41 -2
45 -32 53 -42 12 -49 34 -22 70 11 16 19 37 16 47 -5 20 11 37 57 60 16 8 35
25 43 36 12 19 12 27 0 57 -22 51 -34 53 -56 9 -21 -42 -74 -92 -96 -92 -16 0
-45 60 -45 93 0 26 51 79 96 99 19 9 24 19 24 48 0 39 -12 55 -45 62 -26 4
-27 41 -2 46 11 2 29 -5 41 -17 18 -17 25 -18 46 -8 19 10 26 22 28 52 2 24
12 50 25 64 l22 23 -22 15 c-13 9 -23 23 -23 32 0 32 41 82 95 116 54 35 75
60 75 90 0 13 -10 15 -52 13 -46 -3 -53 0 -56 17 -2 11 -12 29 -22 40 -43 49
-27 96 37 114 42 12 58 0 47 -34 -3 -11 -8 -33 -11 -48 -5 -27 -4 -28 28 -25
31 3 37 9 67 70 18 36 36 87 41 113 5 25 16 54 26 65 23 25 16 50 -20 70 -40
22 -44 58 -11 98 17 20 26 42 26 65 0 20 5 48 11 63 27 73 -31 102 -87 43 -34
-36 -80 -62 -94 -54 -17 10 -12 91 7 106 22 19 94 114 118 158 19 34 86 82
133 96 15 4 24 2 28 -9 9 -22 -14 -46 -43 -46 -28 0 -87 -53 -80 -73 2 -8 20
-11 54 -9 36 3 53 -1 62 -12 21 -26 31 -19 31 22 0 57 33 142 75 198 54 70 77
128 65 160 -15 37 -12 68 8 103 17 31 17 31 -10 54 -28 22 -28 22 -14 75 8 29
23 67 33 85 34 58 34 63 -8 105 -21 22 -39 49 -39 59 0 40 45 57 74 27 11 -10
16 -34 16 -73 0 -31 6 -65 13 -75 12 -16 14 -16 33 6 25 27 96 182 93 200 -5
24 12 56 36 72 32 21 31 28 -5 69 -16 19 -30 45 -30 57 0 34 40 98 65 104 24
6 35 31 35 84 0 43 25 91 53 101 34 13 86 1 112 -25 29 -29 39 -30 62 -5 10
11 30 22 46 26 53 14 27 67 -49 103 -90 42 -99 48 -102 65 -3 12 8 22 35 32
21 8 55 24 75 35 61 33 119 19 102 -24 -7 -19 -4 -19 30 -7 27 11 100 103 121
155 18 43 38 58 72 54 28 -3 28 -4 26 -66 -2 -61 -1 -64 20 -58 77 21 95 19
127 -12 37 -37 38 -56 4 -87 -43 -40 -89 -34 -135 16 -21 23 -42 38 -48 35
-14 -9 -34 -74 -28 -91 4 -9 35 -15 107 -20 104 -8 150 -27 150 -61 0 -28 47
-64 84 -64 19 0 38 5 41 10 4 6 -3 36 -15 67 -32 86 -13 132 72 168 61 25 80
20 130 -35 65 -71 82 -65 57 20 -18 60 -7 84 50 109 95 40 141 20 141 -64 0
-22 7 -51 16 -63 15 -22 16 -68 0 -102 -5 -13 9 -15 101 -12 65 2 113 8 119
15 7 7 23 34 38 62 23 45 24 51 11 70 -31 41 -39 65 -27 77 8 8 18 7 37 -6 19
-13 37 -15 75 -10 40 5 55 3 82 -14 47 -29 63 -62 50 -100 -8 -23 -7 -35 2
-47 20 -28 50 -14 64 30 16 49 37 67 71 58 48 -12 265 -126 315 -165 26 -21
53 -35 58 -32 5 3 7 23 3 44 -8 46 7 77 41 91 21 7 42 2 110 -27 70 -30 91
-35 125 -30 39 6 44 4 80 -34 44 -46 67 -50 97 -15 23 26 32 28 92 25 43 -2
67 -15 97 -50 13 -16 38 -31 57 -34 19 -4 39 -13 46 -21 7 -8 19 -15 26 -15
20 0 18 70 -3 100 -24 35 -33 40 -75 40 -35 0 -38 2 -38 30 0 17 9 38 22 50
26 24 76 27 84 5 4 -9 20 -15 43 -15 64 0 82 -10 102 -57 l19 -44 72 3 73 3 5
49 c6 63 25 77 74 54 30 -15 36 -15 46 -2 7 7 16 14 21 14 17 0 83 -66 96 -97
9 -22 22 -34 41 -38 15 -4 42 -13 59 -20 43 -19 57 -12 88 40 29 50 31 68 10
85 -22 19 -18 48 11 75 25 23 25 24 9 55 -29 56 7 97 41 45 14 -22 14 -27 0
-56 -23 -47 -12 -133 22 -159 23 -19 26 -19 54 -3 26 16 31 16 55 3 14 -8 35
-27 47 -43 17 -24 19 -32 9 -68 -11 -42 1 -69 32 -69 13 0 134 38 177 55 12 5
30 -6 63 -39 l47 -45 71 1 c51 1 82 -4 106 -16 49 -26 74 -11 100 59 24 65 26
95 6 150 -13 37 -13 41 8 63 31 33 50 42 76 35 20 -5 22 -10 16 -57 -7 -50 -5
-53 40 -111 l47 -60 -4 -90 c-3 -86 -2 -90 19 -93 22 -3 26 4 35 63 2 13 22
29 57 45 61 29 80 57 81 117 0 30 7 50 26 72 23 28 24 33 13 70 -14 47 -8 67
25 83 51 23 76 -41 36 -92 -28 -36 -25 -76 6 -105 15 -14 31 -25 36 -25 5 0
37 -26 70 -57 54 -53 64 -58 106 -59 76 -2 80 -3 118 -36 34 -30 38 -31 62
-17 40 22 48 43 34 82 -17 46 -15 93 4 122 20 31 44 32 72 2 27 -28 29 -82 6
-131 -16 -33 -14 -66 5 -66 5 0 19 12 32 27 86 96 86 96 134 88 36 -5 46 -3
51 9 8 22 -42 64 -93 78 -44 12 -64 41 -45 60 8 8 19 6 38 -7 19 -12 37 -15
63 -11 32 5 39 2 62 -25 l25 -31 43 22 c37 18 47 20 71 10 16 -6 34 -25 40
-41 16 -38 66 -86 98 -94 14 -3 36 -17 49 -31 29 -32 105 -33 163 -3 39 21 42
21 111 5 93 -21 134 -20 188 4 29 14 65 20 112 20 37 0 108 9 156 21 62 14
105 19 145 15 31 -3 115 -1 185 5 70 6 173 12 229 13 88 2 104 6 132 26 23 17
47 24 82 25 35 1 58 8 78 23 76 61 152 83 200 58 49 -25 69 -20 97 25 17 26
40 46 63 55 20 8 50 22 65 30 32 18 37 15 52 -29 5 -17 18 -33 28 -35 28 -6
67 25 67 53 0 33 11 37 63 23 40 -10 47 -9 74 10 16 11 42 24 59 28 57 13 74
31 74 77 0 51 30 87 74 87 23 0 30 -7 47 -47 30 -72 46 -98 63 -101 11 -3 16
8 18 45 3 44 5 48 30 51 31 4 41 -18 36 -78 -3 -32 -1 -35 25 -35 26 0 31 6
45 50 38 112 142 94 142 -25 0 -38 22 -53 67 -48 30 4 44 0 66 -19 19 -15 41
-23 67 -23 67 0 119 -59 134 -151 4 -19 12 -43 19 -53 11 -16 16 -14 49 19 20
20 42 50 48 66 7 16 16 26 21 23 15 -9 10 -68 -8 -94 -16 -23 -16 -24 8 -39
75 -48 95 -95 67 -157 -12 -25 -10 -29 24 -58 20 -17 46 -50 58 -74 21 -39 21
-44 6 -67 -24 -36 -20 -63 16 -95 30 -28 31 -31 20 -63 -17 -47 -15 -59 14
-128 21 -51 24 -70 19 -114 -7 -52 -6 -53 44 -116 28 -35 55 -78 60 -96 5 -17
22 -49 38 -70 16 -21 34 -51 39 -68 13 -41 25 -38 49 13 20 42 50 57 61 28 3
-8 -2 -49 -12 -92 -27 -124 -28 -139 -10 -154 14 -11 21 -11 42 1 35 18 57 2
66 -51 7 -42 -3 -80 -22 -80 -5 0 -21 11 -36 25 -26 24 -28 24 -46 9 -33 -31
-16 -74 29 -74 28 0 53 -44 53 -94 0 -19 3 -42 6 -51 6 -14 9 -14 29 5 27 25
67 19 90 -13 20 -29 19 -49 -5 -80 -21 -26 -29 -117 -11 -117 5 0 23 8 41 18
l31 17 40 -45 c21 -25 42 -57 45 -72 4 -15 13 -29 20 -32 8 -3 23 -26 34 -51
11 -25 24 -45 29 -45 6 0 19 -17 30 -39 11 -21 26 -41 33 -44 8 -2 27 -23 42
-46 26 -38 28 -45 18 -79 -23 -81 -25 -123 -6 -163 13 -30 15 -42 6 -51 -18
-18 -60 27 -72 76 -6 23 -17 56 -25 74 -8 18 -15 47 -15 65 0 48 -12 60 -54
55 -34 -4 -36 -2 -36 24 0 15 -7 46 -16 68 -11 27 -14 54 -10 79 l6 38 -52 7
c-46 6 -54 5 -76 -17 l-24 -24 42 -84 c23 -46 55 -104 71 -129 16 -25 37 -62
46 -82 10 -25 31 -47 59 -63 51 -30 60 -43 69 -106 7 -44 5 -47 -29 -76 -39
-31 -41 -57 -6 -68 22 -7 31 -36 18 -59 -5 -9 -12 -35 -16 -59 -6 -33 -12 -42
-27 -42 -14 0 -24 11 -33 40 -15 46 -32 60 -51 40 -9 -9 -11 -22 -5 -42 4 -15
7 -43 5 -61 -3 -35 -1 -36 55 -15 7 2 18 -3 25 -13 8 -9 35 -38 61 -64 47 -47
65 -86 54 -115 -11 -30 -43 -16 -74 35 -38 62 -62 60 -62 -5 0 -37 -5 -46 -35
-69 -27 -21 -35 -34 -35 -59 0 -33 3 -38 55 -120 26 -42 33 -47 58 -42 36 6
44 -14 23 -59 -17 -37 -19 -57 -10 -105 7 -31 8 -32 45 -26 33 6 42 3 64 -19
18 -18 25 -35 23 -54 -3 -24 -7 -27 -38 -27 -19 1 -45 4 -57 9 -21 7 -23 4
-23 -32 0 -33 -6 -45 -35 -71 -32 -27 -33 -31 -14 -31 12 0 36 -16 53 -35 38
-41 46 -43 46 -11 0 58 37 77 58 30 15 -31 0 -64 -28 -64 -16 0 -18 -5 -13
-34 3 -19 0 -50 -7 -70 -11 -34 -10 -39 29 -97 53 -79 54 -121 2 -104 -19 6
-71 99 -71 127 0 15 -30 48 -43 48 -4 0 -7 -11 -7 -24 0 -13 -7 -43 -15 -66
-20 -57 -20 -57 23 -70 46 -15 61 -33 54 -65 -6 -36 -58 -77 -86 -69 -32 10
-35 15 -39 78 -4 58 -17 79 -47 73 -22 -4 -16 -84 9 -118 12 -15 25 -46 30
-68 5 -22 23 -62 40 -87 31 -48 40 -87 21 -99 -18 -11 -11 -41 15 -65 14 -13
25 -33 25 -46 0 -27 -39 -75 -46 -57 -3 7 -14 23 -24 35 -33 41 -43 13 -30
-83 6 -46 11 -104 10 -129 -1 -62 29 -160 50 -160 39 0 55 -65 26 -106 -20
-28 -56 -138 -56 -169 0 -28 40 -75 64 -75 17 0 32 -42 21 -59 -3 -6 -15 -11
-26 -11 -48 0 -59 -17 -59 -89 0 -56 4 -71 21 -87 19 -17 21 -18 30 -1 8 13
14 15 30 7 28 -15 23 -30 -9 -30 -23 0 -32 -8 -50 -45 -29 -60 -28 -98 1 -122
42 -32 48 -54 37 -135 -5 -40 -14 -89 -20 -108 -8 -27 -6 -56 9 -130 13 -63
20 -135 20 -215 0 -66 3 -160 7 -210 3 -49 6 -125 5 -167 -2 -56 3 -86 15
-110 18 -34 36 -185 34 -289 -1 -30 8 -89 19 -130 25 -91 23 -296 -2 -345 -13
-26 -13 -37 -2 -82 12 -45 12 -59 -1 -104 -17 -55 -15 -104 7 -155 10 -26 11
-42 2 -76 -9 -32 -9 -54 -1 -86 8 -32 8 -60 0 -105 -22 -122 -25 -182 -8 -214
8 -16 18 -58 22 -94 5 -54 3 -69 -14 -98 -14 -21 -19 -43 -15 -60 3 -15 -2
-40 -9 -56 -8 -16 -20 -63 -27 -104 -7 -41 -17 -96 -22 -122 -5 -26 -6 -61 -3
-78 6 -28 9 -30 54 -30 79 0 82 8 74 204 -6 133 -4 169 7 182 23 28 29 131 12
207 -14 60 -14 72 -1 105 13 33 13 42 -1 80 -14 38 -13 45 2 77 21 44 22 113
2 142 -14 19 -13 23 2 38 12 12 17 36 18 79 1 33 5 71 9 84 6 17 1 30 -18 53
-30 35 -30 35 -15 78 10 27 7 38 -15 81 -32 62 -32 65 2 95 27 24 27 24 10 55
-22 39 -23 67 -2 131 16 50 16 51 -17 165 -35 122 -35 152 2 241 12 30 11 35
-9 60 -37 46 -42 69 -47 199 -2 69 -9 151 -16 183 -6 31 -8 88 -5 127 3 38 9
148 15 246 10 189 22 235 76 300 33 39 32 64 -5 83 -18 9 -30 23 -30 35 0 20
16 27 75 32 24 2 29 7 26 23 -2 11 -3 46 -3 78 1 68 20 97 64 97 23 0 28 -4
28 -23 0 -31 -39 -148 -56 -168 -18 -20 -18 -53 1 -69 20 -16 35 -4 35 28 0
35 6 42 61 80 l46 31 6 76 c4 54 14 93 32 132 21 43 26 63 21 93 -8 51 9 86
48 100 65 24 82 37 109 88 32 59 55 74 154 98 65 15 74 15 118 1 61 -21 57 -1
-6 31 -119 59 -208 34 -345 -98 -84 -80 -111 -93 -134 -64 -11 12 -10 39 8
147 18 110 20 148 13 227 -11 119 -4 694 9 735 13 40 14 97 5 171 -6 50 -4 66
10 87 14 22 15 32 6 55 -10 25 -18 215 -26 612 -1 80 -6 165 -9 190 -4 25 -8
119 -10 210 -2 93 -9 178 -15 194 -9 22 -9 42 0 81 9 43 9 63 -5 116 -8 35
-18 111 -20 169 -3 68 -10 116 -20 136 -12 22 -13 39 -7 62 6 19 6 54 0 89 -5
32 -13 90 -18 128 -4 39 -14 82 -21 95 -12 23 -23 99 -49 358 -6 51 -13 97
-16 103 -4 5 -1 32 5 59 13 55 1 107 -46 204 -13 28 -24 59 -24 70 0 12 -23
89 -52 173 l-52 152 22 52 22 52 -40 37 c-31 29 -40 44 -40 71 -1 19 -7 45
-15 59 -8 14 -14 34 -15 45 0 10 -25 70 -56 132 l-57 114 5 83 6 84 -39 38
c-21 20 -41 50 -44 65 -4 16 -16 37 -29 46 -35 29 -73 84 -93 138 -11 28 -35
71 -55 97 -20 26 -73 116 -117 200 -44 85 -92 165 -106 178 -15 14 -33 38 -42
53 -8 16 -30 45 -49 66 -21 24 -38 55 -43 82 -14 68 -46 141 -74 170 -14 15
-46 31 -70 38 -39 9 -47 16 -57 46 -6 19 -10 58 -9 87 3 46 0 54 -19 64 -34
17 -51 45 -52 84 0 52 -22 76 -93 99 -66 22 -121 68 -150 126 -8 17 -27 41
-41 54 -15 14 -26 35 -26 50 0 26 -19 47 -138 147 -29 24 -62 44 -72 44 -34 0
-60 36 -60 83 0 30 -6 50 -20 65 -26 27 -30 27 -74 1 -56 -33 -96 -6 -96 66 0
32 -25 55 -60 55 -25 0 -38 12 -85 76 -37 49 -67 79 -86 86 -22 7 -37 24 -52
57 -13 27 -33 51 -50 59 -15 7 -43 37 -62 67 -37 59 -59 75 -102 75 -44 0 -73
26 -73 64 0 47 -22 61 -94 61 l-61 0 -3 33 c-4 43 -40 59 -140 63 -65 3 -74 1
-88 -19 -17 -25 -56 -29 -73 -8 -7 8 -11 29 -9 48 1 19 -1 38 -5 44 -13 22
-83 63 -115 67 -47 7 -59 21 -65 73 -5 44 -29 85 -43 72 -3 -4 -10 -26 -15
-50 -18 -78 -65 -101 -108 -52 -16 19 -27 23 -44 18 -12 -3 -24 -6 -27 -6 -23
0 -30 7 -41 39 -7 21 -24 50 -38 64 -14 14 -33 37 -42 50 -15 21 -19 22 -51
12 -51 -15 -68 -2 -68 53 0 65 -18 65 -96 -1 -36 -31 -71 -54 -77 -52 -6 2
-15 18 -18 37 -8 37 -23 50 -58 50 -14 0 -37 15 -61 41 l-38 42 -18 -23 c-65
-81 -82 -86 -128 -35 -18 19 -39 35 -48 35 -22 0 -47 32 -60 76 l-10 39 -22
-28 c-32 -40 -61 -35 -86 13 -11 22 -23 40 -26 40 -3 0 -19 -11 -36 -25 -32
-27 -69 -32 -86 -12 -6 7 -12 32 -14 56 -4 57 -22 69 -77 51 -56 -18 -109 2
-132 50 l-16 33 -34 -63 c-44 -82 -61 -93 -89 -57 -16 20 -30 27 -55 27 -27 0
-39 7 -61 35 -30 40 -49 43 -78 16 -38 -35 -58 -31 -75 18 -9 24 -22 46 -29
49 -15 5 -52 -25 -52 -43 0 -7 -9 -20 -19 -29 -18 -17 -20 -16 -38 10 -30 44
-70 84 -85 84 -8 0 -24 -22 -35 -50 -12 -27 -26 -50 -32 -50 -5 0 -18 14 -28
30 -18 31 -53 48 -72 35 -17 -10 -47 12 -70 50 -11 19 -25 35 -31 35 -6 0 -19
-15 -30 -33z m-13 -3259 c6 -7 10 -57 9 -110 -1 -96 -2 -97 -35 -132 -27 -27
-38 -33 -48 -25 -18 15 -16 50 3 99 12 29 15 56 11 92 -4 28 -2 59 4 69 11 22
42 25 56 7z m232 -205 c21 -24 23 -33 17 -87 -7 -65 -23 -97 -61 -122 -37 -24
-55 -12 -55 38 0 30 -8 55 -26 81 -49 72 -15 134 66 123 21 -3 44 -16 59 -33z
m-261 -193 c-3 -58 -10 -86 -31 -121 -23 -40 -26 -50 -16 -77 16 -46 8 -82
-24 -106 -29 -21 -29 -21 -44 -1 -11 15 -13 32 -8 65 4 25 8 83 9 130 2 87 17
134 58 193 20 27 21 28 40 10 18 -16 20 -27 16 -93z m452 -180 c39 -39 19
-140 -33 -166 -39 -21 -47 -11 -66 75 -12 54 -12 63 3 86 20 31 67 34 96 5z
m-5780 -155 c8 -10 10 -27 5 -53 -4 -20 -8 -60 -9 -88 -3 -70 -26 -104 -71
-104 -43 0 -44 14 -15 110 11 36 20 79 20 96 0 49 42 73 70 39z m-282 -676 c4
-21 -73 -113 -113 -135 -30 -16 -38 -16 -75 -4 -55 18 -70 4 -47 -45 9 -19 21
-35 27 -35 37 0 -37 -78 -94 -100 -32 -12 -47 6 -53 63 -4 36 0 49 31 92 20
28 47 66 59 85 19 29 29 35 58 34 18 -1 44 -5 56 -9 17 -5 31 2 65 34 44 42
80 50 86 20z m10721 -152 c6 -8 25 -40 42 -73 17 -32 38 -72 47 -89 8 -16 28
-45 44 -63 15 -18 28 -40 28 -49 0 -9 6 -24 14 -32 8 -9 26 -47 41 -85 24 -60
26 -75 18 -113 -7 -29 -7 -58 0 -88 8 -33 7 -48 -3 -60 -30 -36 -57 -3 -80
100 -6 25 -17 56 -24 68 -8 12 -18 56 -21 97 -6 60 -15 89 -45 145 -20 39 -40
82 -43 96 -4 15 -23 46 -42 69 -40 48 -41 53 -19 74 19 20 28 20 43 3z m399
-782 c18 -14 21 -22 16 -59 -7 -49 5 -78 47 -114 19 -15 29 -33 29 -50 -1 -69
-44 -68 -80 1 -14 26 -39 56 -57 67 -51 31 -68 83 -42 133 22 40 50 47 87 22z
m252 -1907 c13 -21 20 -51 20 -83 0 -41 5 -54 31 -81 35 -36 35 -63 0 -101
-42 -44 -76 -6 -84 93 -2 28 -14 76 -27 107 -23 55 -23 57 -5 77 26 28 42 25
65 -12z m-11845 -265 c11 -11 15 -26 12 -47 -20 -119 -19 -116 -44 -116 -33 0
-73 42 -73 77 0 37 45 103 70 103 10 0 26 -7 35 -17z m11707 -870 c32 -16 60
-34 63 -42 3 -7 -2 -27 -10 -44 -21 -41 -19 -52 11 -74 26 -19 26 -20 10 -51
-9 -17 -16 -38 -16 -46 0 -8 -14 -25 -31 -39 l-31 -24 13 -62 c15 -76 4 -95
-39 -71 -35 20 -40 60 -12 98 21 28 21 30 4 66 -15 30 -16 42 -6 69 7 19 12
50 12 71 0 20 5 46 11 57 12 24 3 59 -17 59 -7 0 -20 -16 -28 -35 -17 -40 -25
-42 -56 -17 l-22 18 29 47 c15 25 35 47 43 47 8 0 41 -12 72 -27z"/>
<path d="M12671 22551 c-19 -12 -53 -203 -44 -249 5 -32 6 -33 30 -17 24 16
26 15 49 -6 35 -32 45 -13 40 74 -4 58 -9 72 -30 92 -30 27 -32 43 -11 71 8
10 15 25 15 32 0 14 -28 16 -49 3z"/>
<path d="M22525 22267 c-8 -12 -15 -29 -15 -38 0 -46 -51 -43 -117 7 -40 30
-48 30 -75 -1 -28 -33 -41 -32 -72 8 -23 28 -28 31 -46 20 -11 -7 -27 -13 -35
-13 -23 0 -29 -26 -12 -51 32 -45 -5 -63 -70 -33 l-34 17 -38 -37 c-20 -20
-47 -36 -59 -36 -13 0 -46 18 -75 39 -82 62 -128 64 -113 6 10 -38 130 -122
209 -146 38 -11 77 -29 88 -40 41 -41 -4 -66 -52 -30 -23 17 -37 20 -64 15
-27 -5 -47 0 -87 21 -60 31 -139 90 -151 111 -14 25 -36 15 -56 -25 -11 -21
-27 -41 -36 -44 -10 -5 -15 -20 -15 -51 0 -36 -4 -46 -20 -51 -31 -10 -58 12
-66 51 -8 44 -40 62 -81 46 -15 -6 -42 -14 -60 -17 -17 -3 -37 -13 -45 -22
-16 -20 -93 -53 -123 -53 -12 0 -38 7 -57 14 -44 19 -74 11 -116 -28 -26 -25
-40 -30 -70 -28 -110 8 -104 10 -117 -27 -15 -44 -42 -54 -135 -48 -51 3 -83
0 -101 -9 -20 -10 -35 -11 -63 -3 -48 13 -122 -10 -161 -51 -23 -24 -37 -30
-72 -30 -34 0 -43 -4 -43 -17 0 -10 -9 -33 -20 -51 -31 -50 -27 -55 38 -48 66
7 105 -8 110 -41 5 -32 -41 -60 -74 -45 -21 10 -30 7 -73 -24 -27 -19 -59 -50
-70 -69 -22 -38 -45 -45 -59 -18 -13 22 0 62 37 124 17 27 31 52 31 55 0 3 -8
17 -19 30 l-18 23 -20 -22 c-11 -12 -30 -39 -42 -59 -26 -44 -53 -49 -77 -13
-19 28 -49 33 -58 9 -7 -19 8 -41 33 -49 21 -6 41 -46 41 -81 0 -27 -36 -104
-54 -116 -6 -4 -20 -8 -32 -8 -28 0 -44 38 -44 106 0 44 -5 62 -27 90 -26 35
-26 35 -9 71 15 32 15 38 3 51 -21 20 -51 8 -100 -41 -38 -38 -47 -42 -110
-49 -80 -8 -101 -21 -92 -56 10 -40 -3 -61 -46 -72 -21 -6 -43 -16 -49 -23 -5
-7 -21 -27 -36 -44 -15 -20 -41 -37 -64 -43 -21 -6 -57 -26 -80 -45 l-42 -35
42 0 c53 0 80 -15 80 -44 0 -29 -10 -33 -102 -42 -55 -4 -85 -2 -121 11 -77
26 -112 2 -64 -43 15 -14 36 -22 59 -22 53 0 90 -16 86 -38 -5 -24 -45 -27
-87 -5 -29 15 -52 18 -113 15 -90 -4 -100 -18 -48 -67 27 -26 32 -27 54 -16
20 11 34 11 75 1 44 -10 54 -17 66 -46 24 -59 79 -58 147 4 44 40 60 38 88
-14 18 -31 21 -32 62 -20 33 10 83 -17 102 -55 8 -16 19 -23 32 -20 10 2 55 4
98 5 65 1 81 4 90 20 6 10 23 34 38 52 22 30 25 39 17 66 -12 43 1 55 44 40
25 -9 52 -8 120 2 48 7 90 16 95 20 4 4 14 35 23 69 16 64 26 72 70 53 24 -10
46 17 54 66 9 55 30 88 56 88 19 0 20 -4 12 -62 -4 -35 -7 -76 -8 -93 0 -28 2
-30 38 -29 25 1 79 21 150 57 62 31 143 63 180 71 38 9 87 27 110 40 23 14 62
29 87 36 25 6 62 18 83 25 30 12 45 13 82 3 37 -10 54 -9 93 2 27 9 87 15 144
15 53 0 100 3 103 7 14 14 -4 38 -42 55 -40 19 -56 56 -29 66 8 3 40 -3 70
-14 39 -13 68 -17 96 -13 39 6 57 -7 25 -20 -23 -9 -19 -53 6 -59 31 -8 49 2
49 29 0 33 37 33 49 0 10 -26 33 -38 55 -30 10 4 14 19 13 46 -3 58 20 71 74
40 49 -29 80 -25 183 20 59 26 78 30 125 25 31 -3 79 -15 106 -28 46 -21 55
-21 118 -11 37 7 81 12 97 12 28 0 29 2 27 43 l-2 42 60 -2 c33 -1 112 -6 175
-12 242 -21 254 -25 266 -88 10 -52 -6 -61 -63 -35 -72 33 -124 41 -183 29
-38 -7 -65 -7 -106 3 -30 7 -57 11 -60 7 -3 -3 12 -17 33 -31 35 -24 45 -26
154 -26 106 0 120 -2 165 -26 48 -25 50 -26 129 -13 44 7 87 12 95 10 25 -4
51 -43 48 -71 -2 -19 6 -36 28 -57 l30 -31 23 40 c17 29 21 49 17 73 -7 38 7
54 56 64 l33 7 -58 42 c-68 51 -83 73 -92 133 -5 35 -3 48 9 58 9 8 16 21 16
31 0 26 -54 68 -95 75 -19 3 -51 7 -70 10 -45 8 -69 41 -60 87 8 45 -41 120
-106 160 -26 16 -64 50 -83 76 -20 26 -53 58 -74 71 -58 38 -82 63 -103 102
-23 46 -44 55 -64 26z m-229 -542 c38 -14 70 -25 71 -25 2 0 3 -9 3 -21 0 -19
-4 -20 -97 -14 -184 11 -204 21 -121 60 29 14 58 25 64 25 6 0 42 -11 80 -25z
m-2489 -276 c18 -11 41 -35 53 -54 17 -28 19 -37 9 -58 -22 -48 -61 -44 -83 8
-13 30 -18 33 -75 39 -62 7 -90 29 -77 61 14 37 116 39 173 4z"/>
<path d="M12711 22208 c-11 -18 -26 -41 -33 -51 -11 -16 -9 -22 20 -45 25 -21
32 -35 33 -62 0 -57 23 -123 54 -157 33 -37 47 -40 65 -18 9 11 22 14 42 10
25 -6 28 -4 28 18 0 50 -62 74 -109 41 -19 -14 -25 -14 -32 -3 -14 23 -10 47
17 105 18 39 24 63 19 82 -7 27 -64 111 -77 112 -3 0 -15 -15 -27 -32z"/>
<path d="M14408 22001 c-107 -62 -120 -89 -163 -326 -9 -46 -30 -60 -88 -57
-52 2 -57 0 -80 -30 -14 -18 -33 -49 -42 -68 -10 -19 -28 -48 -41 -63 -13 -16
-24 -40 -24 -53 0 -29 -13 -55 -50 -104 -33 -42 -84 -193 -75 -221 4 -10 -1
-42 -10 -70 -20 -60 -16 -74 28 -95 20 -10 40 -30 48 -48 13 -28 19 -31 63
-34 l49 -3 -17 27 c-13 18 -16 36 -12 58 4 17 8 47 10 67 5 52 22 77 64 94 20
9 46 24 57 35 11 10 54 35 95 54 59 28 87 36 135 37 33 0 89 8 125 17 54 14
68 23 88 52 44 65 52 60 52 -29 0 -72 -2 -82 -24 -103 -20 -18 -25 -34 -27
-76 -3 -56 7 -72 44 -72 27 0 75 -28 87 -50 16 -29 50 -26 50 4 0 27 14 41 51
50 15 3 34 17 43 31 12 18 25 25 48 25 54 0 138 31 138 51 0 10 -8 22 -17 28
-28 15 0 36 48 36 35 0 45 -6 71 -38 39 -48 64 -62 84 -46 24 19 16 35 -26 52
-45 17 -59 40 -39 63 11 13 25 15 79 10 36 -4 101 -10 145 -15 109 -10 139
-26 143 -74 4 -43 17 -47 56 -16 22 17 35 20 74 14 26 -3 69 -6 97 -6 27 0 75
-9 107 -20 69 -23 88 -24 88 -4 0 18 32 36 48 26 7 -4 11 -18 10 -32 -2 -19 2
-25 24 -27 15 -2 38 4 52 14 16 10 36 14 53 11 86 -17 149 -39 191 -66 72 -46
258 -121 300 -121 21 0 53 -5 72 -10 19 -6 69 -17 110 -25 41 -8 97 -26 125
-39 27 -14 69 -30 93 -36 25 -6 48 -20 58 -35 19 -28 50 -32 81 -10 16 11 28
13 48 5 14 -5 47 -10 72 -10 34 0 55 -7 78 -25 29 -21 36 -23 63 -13 28 11 34
10 56 -11 22 -21 46 -22 46 -2 0 5 -11 25 -26 46 -15 22 -24 48 -22 64 3 26 4
26 82 27 106 0 111 9 61 99 -20 37 -55 92 -76 123 -22 30 -39 61 -39 68 0 8
-11 38 -24 69 -29 64 -56 73 -76 25 -19 -46 -53 -41 -73 11 -13 33 -20 40 -34
34 -42 -18 -57 -11 -80 37 -39 82 -129 128 -247 128 -24 0 -61 6 -82 14 -22 7
-53 11 -70 9 -17 -3 -48 2 -68 11 -24 10 -68 16 -117 16 -61 0 -85 4 -114 21
-31 19 -42 20 -84 12 -28 -6 -58 -6 -72 -1 -51 19 -102 63 -120 105 -18 43
-19 43 -70 43 -33 0 -67 -8 -96 -22 l-43 -22 -36 35 -35 34 -102 0 c-79 1
-110 5 -136 19 -19 10 -50 17 -75 15 -64 -3 -66 -2 -66 36 0 43 -24 56 -103
53 -44 -1 -62 4 -116 35 -35 21 -66 35 -68 33 -3 -3 4 -11 16 -18 12 -7 21
-18 21 -23 0 -13 -16 -14 -134 -14 -98 -1 -127 10 -103 38 8 9 17 21 21 28 8
14 -42 63 -65 63 -9 0 -22 7 -29 16 -8 9 -25 14 -43 12 -29 -3 -47 -30 -98
-141 -17 -37 -45 -53 -65 -36 -21 18 -17 49 11 71 31 24 31 38 2 66 -30 29
-63 28 -102 -2 -62 -48 -124 -31 -94 26 17 31 3 33 -33 6 -18 -14 -54 -34 -80
-46 -56 -24 -82 -59 -72 -97 4 -15 15 -30 25 -32 11 -3 19 -9 19 -13 0 -17
-27 -16 -67 1 -47 20 -56 47 -28 83 8 11 15 31 15 44 0 13 16 42 35 65 35 41
46 77 23 76 -7 0 -34 -12 -60 -28z m270 -309 c2 -13 -5 -35 -15 -50 -10 -14
-29 -49 -43 -77 -17 -35 -35 -54 -57 -64 -18 -8 -35 -23 -39 -33 -4 -13 -13
-18 -27 -16 -17 2 -21 9 -19 28 2 14 3 44 3 67 -1 40 2 44 68 97 38 31 73 61
76 66 12 20 50 7 53 -18z"/>
<path d="M25081 21868 c10 -55 -3 -99 -40 -126 -30 -22 -81 -101 -81 -126 0
-8 12 -32 26 -53 21 -32 24 -45 19 -78 -4 -22 -8 -82 -10 -132 -2 -61 -8 -100
-17 -115 -8 -13 -21 -70 -27 -128 -7 -58 -18 -120 -24 -137 -9 -27 -7 -41 11
-85 12 -30 22 -64 22 -76 0 -13 10 -36 22 -53 l23 -30 -23 -65 c-15 -43 -21
-76 -17 -98 4 -20 1 -47 -9 -71 -9 -21 -16 -66 -16 -104 0 -47 -6 -78 -20
-106 -11 -22 -20 -51 -20 -65 0 -14 -7 -38 -16 -55 -31 -57 -78 -255 -61 -255
6 0 8 -17 4 -42 l-5 -43 14 30 c7 17 45 125 84 242 53 161 72 236 81 309 6 54
19 138 30 187 24 115 24 141 -3 249 -21 87 -21 89 -3 151 23 82 38 208 40 337
1 111 24 243 55 313 25 58 34 139 21 180 -6 19 -24 46 -40 61 l-29 27 9 -43z"/>
<path d="M11580 21336 c0 -18 7 -53 16 -77 28 -80 55 -212 56 -279 1 -36 -4
-110 -10 -165 -6 -55 -13 -146 -16 -202 l-6 -102 71 -208 c39 -114 82 -228 96
-253 13 -25 33 -78 44 -119 28 -108 108 -286 208 -461 92 -161 181 -327 192
-359 12 -33 39 -43 38 -13 0 9 -29 71 -64 137 -36 66 -82 156 -103 200 -21 44
-46 86 -55 94 -9 7 -17 17 -17 22 0 4 -20 50 -45 101 -54 110 -95 213 -95 239
0 10 -9 35 -19 56 -41 82 -71 151 -96 228 -14 44 -32 94 -40 111 -8 18 -12 45
-9 60 4 22 -4 47 -32 99 -37 70 -37 71 -37 190 0 71 7 160 18 220 14 80 16
110 7 152 -13 65 -9 80 40 123 40 34 40 34 70 17 16 -9 47 -20 69 -23 36 -6
39 -5 32 12 -3 11 -21 42 -38 69 -18 28 -40 63 -49 78 -21 34 -71 57 -124 57
-21 0 -47 7 -58 15 -31 23 -44 18 -44 -19z"/>
<path d="M12725 21296 c-8 -19 -46 -63 -85 -97 -72 -65 -85 -93 -50 -104 27
-9 47 9 55 47 9 38 56 61 92 45 19 -8 27 -6 48 13 32 30 32 61 -1 99 -33 39
-42 39 -59 -3z"/>
<path d="M22626 21261 c-35 -36 -54 -39 -90 -10 -14 11 -30 17 -36 14 -18 -11
-10 -35 15 -45 13 -5 31 -23 40 -40 20 -39 38 -38 53 3 10 27 21 36 67 52 53
18 58 18 85 2 32 -19 66 -22 76 -6 10 18 -12 32 -63 40 -27 4 -64 10 -83 14
-31 6 -39 3 -64 -24z"/>
<path d="M23120 21156 c-41 -32 -51 -36 -107 -36 -68 0 -104 -20 -82 -46 21
-26 74 -27 150 -3 41 13 78 26 82 30 5 3 7 25 5 49 l-3 42 -45 -36z"/>
<path d="M12744 21126 c-4 -19 2 -35 27 -66 26 -32 33 -51 36 -93 2 -32 11
-62 23 -79 25 -34 25 -32 -6 -53 -24 -15 -27 -15 -44 0 -20 18 -85 44 -112 45
-24 0 -22 -19 4 -47 12 -13 27 -38 33 -56 9 -28 15 -32 48 -35 33 -3 41 -8 53
-38 10 -23 13 -50 9 -77 -7 -47 6 -91 36 -123 11 -12 22 -39 25 -60 3 -21 11
-61 19 -89 7 -27 20 -75 29 -105 8 -30 20 -86 26 -123 9 -60 8 -73 -9 -111
-18 -41 -18 -45 -1 -72 14 -24 16 -44 11 -119 -4 -49 -3 -104 2 -122 4 -18 3
-58 -4 -95 -15 -80 -15 -107 2 -190 12 -63 12 -68 -11 -110 -22 -42 -22 -49
-12 -119 6 -41 9 -85 5 -97 -8 -33 22 -40 47 -11 24 29 27 121 5 159 -19 33
-19 89 0 110 9 10 27 48 40 85 l25 67 -20 45 c-16 36 -19 61 -16 131 2 48 9
100 15 115 17 44 13 101 -14 179 -35 100 -32 173 10 214 16 16 18 27 15 85 -1
20 4 55 10 78 14 54 7 75 -33 94 -18 9 -37 25 -44 36 -7 10 -26 22 -43 26 -41
9 -45 24 -25 84 23 72 55 113 91 123 37 9 47 28 34 64 -6 14 -10 51 -11 82 0
73 -17 120 -51 145 -22 17 -31 18 -59 8 -38 -13 -76 -14 -83 -3 -3 5 0 26 6
46 12 37 11 39 -22 67 -43 35 -58 36 -66 5z"/>
<path d="M14303 21123 c-13 -2 -35 -18 -50 -34 -19 -20 -51 -37 -98 -51 -66
-19 -105 -41 -105 -59 0 -8 30 -15 112 -24 l57 -6 11 39 c11 35 19 41 78 67
74 32 96 34 123 9 15 -14 22 -15 32 -5 38 38 -70 81 -160 64z"/>
<path d="M20915 21105 c-22 -7 -69 -21 -105 -30 -70 -20 -190 -67 -230 -91
-14 -8 -41 -22 -60 -31 -19 -8 -75 -39 -125 -68 -49 -29 -113 -64 -141 -78
-41 -21 -53 -32 -57 -56 -4 -19 -18 -38 -40 -52 -18 -12 -46 -43 -62 -68 -24
-37 -40 -49 -77 -62 -60 -19 -123 -60 -123 -78 0 -17 17 -26 72 -38 36 -9 45
-7 59 8 25 27 52 24 60 -7 7 -29 -7 -44 -44 -44 -16 0 -31 -13 -51 -47 -16
-27 -39 -64 -51 -83 -12 -19 -29 -69 -37 -110 -20 -97 -62 -177 -114 -213 -43
-30 -50 -60 -16 -81 23 -15 65 9 92 52 11 18 38 61 59 94 31 48 42 76 48 126
10 88 43 137 100 153 55 16 65 24 90 73 11 23 29 50 39 61 10 12 21 38 23 59
6 41 21 66 41 66 7 0 25 12 40 26 16 14 42 31 59 37 30 10 58 31 167 125 55
46 83 53 99 22 9 -17 14 -19 33 -8 12 6 38 14 57 18 37 6 41 18 25 83 -9 35
13 37 45 2 28 -30 60 -32 84 -6 30 33 104 62 149 59 38 -3 41 -1 48 28 5 16
20 41 35 55 21 20 37 24 92 26 37 0 120 4 184 7 109 5 118 4 144 -17 22 -17
42 -22 93 -23 195 -3 345 -42 493 -129 98 -57 177 -131 263 -245 69 -90 81
-100 102 -79 8 8 25 7 62 -6 128 -42 76 31 -169 236 -36 30 -96 74 -135 97
-38 23 -91 58 -118 77 -28 20 -65 37 -92 40 -24 4 -68 22 -97 41 -34 22 -65
34 -88 34 -19 0 -53 5 -75 11 -22 5 -70 12 -106 14 -36 2 -99 11 -140 20 -97
20 -543 20 -604 0z"/>
<path d="M21216 20928 c-3 -7 -7 -33 -10 -58 -3 -29 -12 -51 -26 -62 -20 -16
-24 -16 -61 -2 -38 16 -40 15 -57 -7 -15 -18 -28 -22 -65 -21 -26 1 -67 -6
-96 -17 -31 -13 -62 -18 -83 -15 -33 6 -34 4 -43 -33 -10 -37 -11 -38 -65 -43
-61 -6 -112 -32 -130 -66 -7 -12 -29 -29 -49 -38 -68 -30 -122 -78 -186 -164
-40 -55 -77 -94 -101 -107 -21 -11 -49 -38 -63 -60 -14 -23 -43 -61 -63 -85
-77 -92 -109 -136 -128 -180 -11 -25 -29 -62 -40 -82 -28 -52 -25 -75 10 -93
35 -18 62 -19 78 -3 7 7 38 16 70 19 31 4 92 17 134 28 84 23 83 23 172 -26
24 -13 36 -14 60 -5 31 12 126 6 299 -19 68 -10 81 -10 94 4 13 13 14 19 4 30
-24 29 -114 55 -206 60 -65 3 -102 10 -130 25 -22 11 -62 23 -88 27 -59 9 -77
26 -77 71 0 27 -5 37 -25 46 -26 11 -34 42 -14 53 6 4 10 23 9 44 -3 63 -1 70
33 87 17 9 70 55 117 103 144 145 198 191 224 191 39 0 48 -21 34 -74 -19 -70
0 -177 49 -279 33 -68 56 -98 122 -162 45 -44 103 -93 129 -110 43 -28 52 -30
137 -29 116 1 164 15 221 65 25 22 62 48 82 58 48 25 114 95 142 149 31 63 50
202 37 279 -5 34 -6 78 -3 97 8 43 31 47 87 17 20 -11 54 -24 77 -30 67 -18
243 -122 264 -156 27 -45 23 -86 -17 -143 l-34 -51 31 11 c17 6 50 31 73 55
23 23 46 43 51 43 16 0 88 -41 114 -66 19 -18 43 -25 95 -31 63 -7 71 -11 90
-39 17 -27 28 -32 73 -37 29 -3 68 -15 87 -27 25 -16 43 -20 65 -15 62 14 46
47 -35 71 -73 21 -82 34 -50 73 15 17 24 35 20 41 -8 13 -66 13 -101 0 -23 -9
-33 -7 -55 10 -20 14 -43 20 -81 20 -56 0 -98 20 -98 46 0 8 16 24 35 35 43
26 47 56 8 65 -16 3 -39 10 -52 15 -14 6 -47 14 -75 20 -52 10 -86 32 -86 57
0 8 -9 30 -21 48 -20 33 -23 34 -82 34 -39 0 -78 7 -104 19 -35 16 -43 26 -48
55 -4 19 -12 39 -19 44 -6 6 -69 12 -139 15 -120 4 -131 6 -175 34 -29 18 -68
32 -100 36 -45 5 -55 3 -81 -18 -38 -32 -59 -31 -72 3 -6 15 -17 39 -25 54 -8
14 -14 36 -14 48 0 45 -43 83 -54 48z m332 -543 c13 -29 16 -143 4 -162 -4 -6
-21 -19 -37 -27 -20 -10 -35 -29 -45 -58 -13 -35 -20 -43 -40 -43 -40 0 -38
38 4 80 20 20 36 37 37 38 0 1 4 39 8 84 8 80 21 113 46 113 6 0 17 -11 23
-25z"/>
<path d="M15760 20839 c-41 -5 -118 -14 -170 -20 -52 -6 -120 -17 -150 -24
-158 -36 -214 -41 -264 -20 -16 7 -18 5 -14 -13 8 -29 -31 -62 -108 -91 -81
-31 -106 -44 -211 -109 -72 -45 -105 -74 -155 -135 -34 -43 -82 -102 -106
-130 -53 -63 -75 -104 -68 -123 11 -29 45 -13 92 44 185 221 284 308 410 361
38 16 100 43 138 61 106 49 417 116 574 123 127 6 204 -12 162 -38 -6 -4 -22
-28 -35 -55 -28 -54 -53 -73 -93 -68 -24 3 -28 -2 -40 -44 -16 -58 -42 -70
-78 -37 -27 25 -60 28 -151 14 -42 -6 -58 -4 -78 9 -21 14 -25 14 -25 2 0 -33
-24 -67 -54 -74 -22 -6 -38 -20 -54 -50 -28 -50 -57 -60 -114 -41 -38 12 -40
12 -61 -14 -13 -15 -34 -27 -51 -29 -25 -2 -32 -10 -43 -43 -12 -36 -21 -45
-71 -68 -36 -17 -65 -39 -80 -60 -25 -38 -132 -93 -159 -83 -23 9 -43 -12 -43
-46 0 -29 1 -30 33 -23 57 13 81 11 85 -7 6 -29 -42 -68 -83 -68 -23 0 -48 -9
-69 -25 -20 -15 -54 -28 -87 -32 -38 -6 -54 -13 -54 -23 0 -11 9 -14 35 -12
19 1 61 3 92 3 45 0 66 5 94 24 29 20 44 23 78 19 42 -6 43 -6 74 43 69 107
256 253 325 253 47 0 82 21 157 95 41 40 82 74 90 75 41 6 43 2 35 -62 -13
-99 -10 -189 9 -246 23 -68 103 -190 147 -223 62 -46 163 -96 231 -114 58 -15
79 -16 154 -7 100 13 153 40 224 111 48 49 123 154 133 186 13 41 24 185 18
222 -9 49 -4 71 18 78 26 8 157 -61 201 -106 21 -21 57 -46 81 -54 67 -24 89
-42 89 -73 0 -35 16 -52 51 -52 15 0 32 -7 39 -15 11 -13 4 -34 -45 -130 -44
-85 -56 -118 -48 -126 20 -20 193 -43 307 -42 130 1 150 11 126 66 -7 17 -15
52 -16 77 -2 25 -3 48 -3 51 -1 4 -19 18 -40 30 -40 24 -161 125 -276 229 -33
30 -77 64 -98 74 -20 11 -47 34 -58 53 -20 33 -80 74 -129 88 -14 5 -39 18
-55 31 -17 13 -58 30 -90 39 -41 10 -69 25 -88 45 -23 24 -36 30 -71 30 -23 0
-51 6 -62 14 -19 14 -19 15 5 59 27 50 22 67 -20 67 -26 0 -32 -6 -53 -52 -30
-68 -49 -85 -81 -70 -13 6 -32 24 -41 39 -10 15 -19 30 -21 32 -1 2 -18 -4
-38 -13 -44 -21 -75 -13 -75 18 0 13 11 49 25 80 28 63 28 63 150 69 91 5 114
-1 162 -43 19 -17 42 -30 51 -30 10 0 23 -5 30 -12 6 -6 39 -15 72 -19 36 -4
90 -21 134 -42 61 -29 77 -42 97 -78 20 -36 33 -47 71 -59 27 -9 60 -29 77
-47 23 -25 38 -33 65 -33 29 0 41 -7 73 -47 55 -68 124 -138 156 -158 16 -10
37 -35 48 -56 10 -21 39 -63 63 -92 24 -30 51 -69 60 -86 15 -29 46 -43 46
-21 0 5 -10 40 -22 76 -17 53 -28 71 -52 83 -36 19 -125 107 -149 147 -9 16
-28 45 -42 64 -33 44 -31 86 4 82 13 -1 41 -16 63 -33 57 -46 59 -28 3 33 -63
70 -74 78 -103 78 -14 0 -36 13 -54 33 -17 17 -49 41 -72 53 -22 12 -84 45
-136 73 -52 29 -126 64 -165 78 -38 14 -83 33 -100 43 -16 10 -57 25 -90 35
-33 9 -65 21 -72 26 -6 6 -26 14 -45 20 -45 13 -386 19 -478 8z m1315 -934
c37 -36 32 -59 -19 -89 -58 -34 -130 -36 -147 -5 -10 19 -5 27 41 70 60 56 88
61 125 24z"/>
<path d="M24747 19773 c-19 -37 -47 -277 -52 -458 -1 -40 -9 -72 -22 -95 -13
-21 -23 -63 -27 -105 -4 -38 -11 -86 -16 -105 -4 -19 -13 -63 -19 -97 -7 -34
-27 -109 -46 -167 -19 -57 -35 -113 -35 -123 0 -10 -9 -35 -20 -56 -28 -53
-24 -70 5 -22 24 39 36 34 14 -6 -6 -11 -9 -25 -6 -32 13 -39 147 351 162 472
3 30 15 90 25 135 31 128 49 240 62 384 9 110 9 135 -2 142 -9 6 -12 25 -8 74
5 57 -2 83 -15 59z"/>
<path d="M15352 19727 c-19 -22 13 -57 51 -57 18 0 43 -7 55 -16 l22 -15 -32
-40 c-39 -49 -27 -74 18 -36 16 13 37 26 47 30 9 3 17 13 17 21 0 18 30 36 59
36 29 0 55 -53 40 -81 -16 -31 -3 -66 30 -77 16 -6 31 -8 34 -5 3 2 23 -1 44
-7 49 -15 81 -1 115 50 26 39 58 49 78 25 17 -20 43 -19 63 3 28 31 22 52 -15
52 -61 -1 -121 -18 -137 -38 -46 -58 -122 -65 -161 -15 -23 29 -15 51 24 73
37 19 32 30 -12 30 -22 0 -61 7 -88 15 -27 8 -72 15 -101 15 -39 0 -61 6 -89
25 -42 29 -48 30 -62 12z"/>
<path d="M17015 19506 c-22 -13 -58 -29 -80 -36 -49 -15 -75 -37 -75 -63 0
-15 4 -18 23 -12 73 22 97 14 97 -36 0 -38 18 -37 63 4 l36 32 -6 68 c-3 37
-8 67 -12 67 -3 0 -24 -11 -46 -24z"/>
<path d="M16680 19378 c-19 -12 -71 -36 -115 -54 -44 -17 -97 -39 -117 -48
-20 -9 -58 -15 -85 -15 -54 0 -84 -8 -165 -45 -66 -31 -214 -60 -313 -61 -64
0 -70 2 -81 24 -7 13 -18 28 -26 32 -22 12 -58 -9 -69 -40 -14 -40 -81 -72
-136 -64 -26 3 -43 1 -48 -7 -13 -21 16 -30 95 -30 47 0 86 -6 104 -15 39 -20
62 -19 96 7 21 15 52 24 107 29 43 4 102 14 132 23 30 9 92 18 138 21 46 2 92
9 103 15 10 5 33 10 50 10 40 0 80 19 159 75 35 25 73 45 85 45 40 0 146 41
157 61 13 25 2 59 -19 59 -9 0 -33 -10 -52 -22z"/>
<path d="M20688 19380 c-28 -17 -21 -28 25 -40 23 -6 60 -17 82 -25 22 -7 85
-21 140 -30 55 -9 117 -21 138 -26 20 -5 52 -7 70 -4 21 4 50 0 82 -13 38 -14
89 -21 204 -26 85 -4 165 -12 178 -17 17 -6 33 -4 55 7 20 11 67 17 146 20
124 4 172 11 172 23 0 18 -52 26 -155 24 -352 -6 -497 1 -605 32 -30 9 -89 16
-130 16 -189 0 -207 2 -240 34 -25 24 -40 29 -87 32 -32 2 -66 -1 -75 -7z"/>
<path d="M12966 18961 c-13 -20 -17 -453 -5 -488 6 -20 15 -31 20 -26 17 17
27 103 16 144 -8 34 -6 48 11 87 31 70 36 106 18 141 -21 39 -20 70 1 93 14
16 15 20 2 32 -19 19 -56 29 -63 17z"/>
<path d="M12376 18852 c-14 -24 -7 -64 38 -207 114 -358 141 -425 168 -425 10
0 5 24 -17 80 -7 19 -30 89 -50 155 -20 66 -52 165 -71 221 -19 55 -34 111
-34 125 0 30 -24 67 -34 51z"/>
<path d="M12964 18316 c-3 -13 -1 -42 5 -64 8 -28 8 -54 1 -85 -7 -34 -6 -57
5 -94 8 -28 17 -107 19 -177 5 -128 13 -156 44 -156 12 0 14 11 8 63 -5 52 -3
67 14 95 11 18 23 56 26 85 6 50 4 56 -24 88 l-30 34 24 28 c27 32 31 76 13
154 -11 48 -11 48 -55 50 -38 1 -45 -2 -50 -21z"/>
<path d="M24412 18245 c-7 -33 -17 -79 -22 -102 -12 -53 -13 -200 -1 -207 19
-12 33 28 47 136 17 137 17 149 4 128 -6 -10 -10 4 -12 45 l-3 60 -13 -60z"/>
<path d="M24051 17941 c-11 -7 -12 -17 -2 -54 16 -65 14 -86 -11 -135 -20 -36
-21 -44 -9 -52 10 -5 25 -3 44 7 42 21 54 6 38 -49 -21 -70 -50 -118 -70 -118
-31 0 -53 -36 -60 -101 -6 -48 -13 -65 -32 -79 -21 -17 -22 -22 -12 -52 6 -18
11 -65 12 -104 1 -66 -1 -72 -29 -99 -38 -36 -38 -58 0 -102 41 -47 40 -81 -7
-126 -36 -35 -36 -37 -25 -75 24 -79 13 -122 -29 -122 -38 0 -45 -20 -26 -68
17 -45 7 -83 -28 -102 -30 -16 -31 -27 -8 -75 16 -33 16 -39 0 -81 -15 -41
-15 -50 -1 -105 18 -68 12 -103 -16 -94 -10 3 -21 1 -25 -5 -10 -17 15 -41 36
-35 15 5 19 1 19 -15 0 -48 -47 -110 -137 -180 -9 -7 -9 -18 -1 -40 5 -17 7
-47 3 -67 -7 -39 -53 -93 -80 -93 -16 0 -45 -55 -45 -85 0 -24 16 -18 29 11
10 22 16 25 39 20 15 -4 42 -23 60 -42 26 -27 32 -42 30 -67 -3 -28 -8 -32
-42 -39 -25 -5 -52 -4 -75 3 -48 16 -153 19 -148 5 2 -6 18 -18 36 -27 18 -8
37 -22 42 -30 15 -22 0 -110 -27 -155 -28 -49 -24 -69 31 -179 26 -51 39 -93
47 -156 10 -80 10 -89 -8 -120 -24 -41 -49 -48 -72 -20 -15 18 -20 19 -42 8
-30 -15 -37 -50 -16 -82 9 -13 16 -31 16 -39 0 -23 -27 -44 -52 -39 -27 5 -53
-13 -63 -44 -6 -21 -3 -23 36 -23 25 0 50 7 60 16 10 9 25 14 34 11 24 -10 18
-43 -11 -56 -23 -10 -25 -16 -20 -44 11 -52 7 -80 -13 -107 -16 -22 -25 -25
-72 -22 -48 3 -57 0 -81 -25 -19 -20 -25 -32 -18 -43 7 -12 12 -12 22 -2 17
17 43 15 62 -4 19 -18 21 -73 4 -76 -7 0 -19 -2 -27 -2 -8 -1 -19 -21 -26 -48
-6 -25 -26 -63 -43 -82 -38 -43 -48 -79 -34 -111 8 -18 8 -26 0 -31 -7 -4 -14
-2 -16 4 -2 7 -11 19 -19 28 -12 11 -18 12 -29 3 -19 -15 -18 -29 5 -79 13
-29 29 -47 50 -56 40 -17 43 -59 6 -76 -32 -15 -73 12 -82 52 -3 16 -14 32
-24 35 -18 6 -24 19 -31 70 -4 28 -44 32 -53 6 -3 -12 -12 -21 -18 -20 -21 0
-77 80 -77 109 0 15 -8 34 -18 43 -24 22 -71 22 -79 1 -9 -25 18 -94 38 -94
20 0 89 -91 89 -118 0 -10 -7 -28 -16 -41 -15 -21 -15 -24 11 -51 30 -32 28
-53 -10 -105 -13 -16 -32 -49 -44 -73 -21 -40 -21 -49 -11 -120 7 -42 16 -84
21 -92 29 -48 32 -60 21 -85 -7 -14 -24 -31 -38 -37 -51 -23 -67 37 -33 120
10 24 11 37 3 50 -18 29 -47 21 -56 -15 -6 -24 -19 -38 -48 -53 -39 -20 -40
-22 -40 -74 0 -38 -5 -60 -17 -71 -16 -16 -18 -16 -35 5 -10 12 -22 41 -28 63
-20 80 -26 87 -70 87 -31 0 -43 -5 -56 -25 -16 -24 -15 -28 10 -78 14 -28 32
-70 39 -92 l13 -40 48 3 c44 3 47 2 44 -20 -2 -14 -12 -24 -28 -28 -23 -5 -25
-10 -23 -55 2 -90 15 -136 45 -171 16 -18 28 -41 26 -51 -2 -10 -26 -28 -55
-42 -37 -17 -55 -32 -62 -52 -13 -38 -43 -52 -75 -37 -36 16 -32 35 9 59 22
13 37 31 41 48 2 14 9 43 15 64 11 42 5 70 -21 104 -10 13 -21 51 -25 88 -5
52 -11 69 -31 84 -13 10 -24 26 -24 36 0 53 -52 74 -72 30 -9 -20 -8 -33 7
-67 39 -96 62 -164 58 -175 -3 -9 -10 -9 -29 -1 -22 10 -28 8 -59 -22 -27 -26
-35 -42 -35 -69 0 -20 -7 -45 -15 -56 -11 -13 -13 -32 -9 -65 5 -39 3 -48 -18
-66 -12 -12 -39 -24 -58 -27 -19 -3 -43 -8 -52 -12 -14 -6 -18 -2 -18 18 0 40
18 79 54 117 18 19 37 52 43 72 9 32 8 39 -8 54 -32 28 -25 69 16 93 45 26 48
55 5 46 -24 -5 -35 -1 -55 20 -15 14 -25 31 -22 38 6 19 45 20 72 3 13 -9 27
-16 31 -16 3 0 3 27 -1 60 -6 51 -4 63 13 85 30 38 48 128 33 161 -9 20 -9 45
0 104 7 52 8 84 1 96 -9 16 -10 16 -21 -3 -15 -29 -53 -36 -103 -17 -98 36
-158 49 -176 38 -29 -19 -19 -38 35 -69 51 -30 73 -58 73 -95 0 -10 9 -34 19
-52 16 -28 18 -43 11 -98 -10 -75 -27 -93 -78 -84 -34 7 -34 7 -27 -25 4 -20
2 -37 -5 -46 -24 -29 -49 -17 -87 43 -20 31 -50 69 -66 83 -39 33 -29 49 34
49 35 0 49 4 49 14 0 17 -36 63 -73 95 -21 18 -27 31 -25 53 3 27 -1 31 -54
53 -32 13 -71 33 -87 44 -33 24 -54 26 -101 10 -31 -11 -32 -13 -26 -53 9 -54
18 -61 74 -61 40 0 47 -3 50 -22 2 -13 -5 -27 -19 -36 -26 -19 -19 -31 29 -56
52 -27 84 -64 80 -93 -2 -19 -8 -23 -38 -21 -19 0 -47 4 -61 8 -21 5 -34 0
-60 -23 -19 -17 -52 -33 -73 -37 l-38 -8 8 -51 c11 -78 10 -87 -8 -100 -14 -8
-27 -6 -62 14 -25 13 -48 22 -51 19 -3 -3 8 -24 24 -46 16 -22 37 -55 46 -73
10 -19 39 -57 65 -84 31 -34 50 -63 54 -87 12 -67 53 -73 77 -12 17 46 79 14
79 -40 0 -16 13 -42 34 -64 55 -63 58 -74 31 -119 -15 -24 -24 -55 -25 -80 0
-50 -29 -84 -70 -84 -55 0 -81 75 -37 110 l22 18 -26 29 c-15 15 -34 43 -43
61 -11 21 -32 40 -62 53 -54 26 -74 52 -74 97 0 36 -16 48 -55 38 -32 -8 -31
-21 5 -75 17 -24 30 -53 30 -65 0 -28 24 -94 39 -109 6 -7 33 -19 59 -27 46
-15 47 -16 45 -53 -2 -24 6 -54 22 -84 32 -58 34 -113 5 -113 -16 0 -20 -7
-20 -35 0 -73 -39 -111 -85 -81 -18 12 -25 26 -25 47 0 17 -10 49 -22 70 -25
44 -17 63 32 73 17 3 30 9 30 14 0 4 -18 26 -40 47 -33 32 -44 38 -58 29 -29
-19 -37 -56 -18 -96 18 -37 26 -144 12 -166 -13 -21 -37 -13 -72 22 -25 25
-34 43 -34 68 0 20 -11 51 -27 76 -42 65 -51 61 -49 -21 1 -66 -1 -73 -21 -82
-18 -7 -23 -18 -23 -45 0 -40 7 -54 33 -63 12 -5 17 -15 15 -29 -4 -32 -32
-34 -46 -4 -6 13 -21 27 -34 31 -13 4 -37 23 -54 41 -36 38 -60 43 -69 14 -3
-11 -18 -23 -33 -26 -46 -10 -52 -13 -52 -28 0 -8 11 -27 24 -42 l23 -28 47
24 c43 23 47 24 62 8 23 -23 22 -73 -2 -99 -15 -17 -26 -20 -56 -15 -31 5 -39
2 -52 -16 -21 -30 -21 -33 16 -67 39 -36 30 -53 -38 -70 -48 -12 -47 -13 -110
34 -9 6 -18 5 -26 -3 -11 -11 -8 -17 12 -33 14 -11 40 -34 59 -50 30 -28 34
-29 50 -15 25 23 44 20 74 -12 34 -35 34 -43 -2 -70 -16 -12 -42 -45 -58 -74
-34 -63 -68 -77 -79 -31 -14 59 -30 73 -87 73 -33 0 -74 10 -112 26 -33 14
-67 26 -75 27 -24 3 -22 -29 4 -68 15 -21 26 -42 26 -46 0 -15 40 -10 57 6 30
30 48 14 51 -45 4 -75 -3 -96 -40 -114 -28 -14 -33 -14 -48 -1 -24 22 -53 18
-78 -10 -12 -14 -30 -25 -40 -25 -49 0 -55 -49 -9 -91 l32 -30 -39 -35 c-49
-43 -83 -45 -92 -6 -3 15 -10 48 -16 73 -10 40 -9 51 8 79 20 35 24 38 92 66
51 21 68 45 51 75 -8 16 -16 19 -32 14 -12 -4 -37 -9 -54 -12 -28 -4 -34 -1
-45 22 -11 25 -10 29 11 46 13 11 34 19 46 19 54 0 76 38 35 60 -47 25 -43 88
9 134 29 26 26 43 -8 61 -36 18 -54 12 -69 -21 -9 -19 -19 -24 -46 -24 -29 0
-35 -4 -40 -28 -11 -47 -28 -273 -26 -344 1 -37 -4 -77 -11 -90 -14 -29 -70
-88 -82 -88 -18 0 6 106 36 161 l31 56 -27 37 c-16 20 -41 43 -56 51 -15 7
-45 37 -67 65 -39 52 -54 61 -54 35 0 -31 -31 -65 -59 -65 -19 0 -34 -10 -49
-30 -14 -19 -32 -30 -46 -30 -41 0 -50 -23 -32 -77 9 -25 16 -56 16 -67 0 -39
-37 -120 -65 -142 -26 -20 -27 -24 -16 -54 16 -48 14 -100 -4 -100 -8 0 -15 7
-15 15 0 9 -24 40 -54 69 -50 50 -55 52 -77 40 -32 -18 -56 -17 -63 2 -23 59
21 144 75 144 33 0 40 -11 42 -67 2 -31 6 -39 24 -41 17 -3 23 3 28 30 4 18
16 48 27 65 23 39 17 53 -23 53 -37 0 -85 44 -95 86 -4 16 -18 41 -32 56 -14
15 -28 44 -31 65 -5 30 -11 39 -30 41 -23 4 -23 3 -19 -72 3 -66 7 -79 32
-105 35 -37 31 -81 -8 -81 -48 0 -92 81 -121 222 -4 19 -17 34 -43 47 -33 17
-46 36 -101 146 -45 89 -68 125 -79 123 -25 -5 -25 -26 1 -49 21 -17 27 -37
37 -108 16 -110 30 -137 85 -161 35 -15 47 -28 64 -65 11 -25 29 -59 41 -74
14 -21 20 -45 20 -85 l0 -56 -39 0 c-36 0 -71 19 -71 39 0 5 -21 16 -47 26
-44 17 -47 17 -59 0 -7 -10 -15 -23 -17 -29 -8 -22 -57 39 -74 91 -16 51 -18
53 -51 53 -33 0 -34 -1 -28 -31 3 -17 6 -43 6 -56 0 -18 4 -23 14 -20 25 10
49 -17 43 -49 -3 -16 1 -41 10 -57 19 -38 51 -33 82 16 26 39 35 43 75 27 18
-7 27 -19 31 -47 4 -21 16 -61 27 -90 20 -48 20 -53 5 -77 -10 -14 -28 -26
-44 -28 -21 -2 -29 -10 -35 -35 -5 -18 -17 -37 -27 -42 -10 -6 -26 -28 -34
-49 -21 -52 -40 -67 -68 -52 -20 11 -21 17 -14 73 3 34 11 69 16 78 12 24 12
86 -1 110 -17 31 -38 22 -50 -22 -14 -49 -36 -61 -62 -30 -14 18 -18 40 -18
97 0 62 -4 77 -23 99 -22 26 -24 27 -59 12 -19 -8 -39 -21 -44 -28 -5 -8 -9
-49 -9 -92 0 -58 -4 -80 -15 -87 -23 -15 -27 -13 -47 28 -17 36 -21 37 -86 46
-80 11 -92 4 -76 -42 16 -45 0 -106 -28 -110 -23 -3 -28 5 -38 80 -6 44 -4 49
18 59 18 8 24 19 25 42 0 23 9 39 31 55 29 23 30 25 14 49 -14 21 -15 31 -4
74 11 41 11 53 -1 67 -34 44 -44 41 -52 -12 -10 -62 -26 -82 -55 -66 -46 24
-55 -21 -31 -137 8 -35 11 -65 8 -68 -12 -13 -73 32 -76 56 -6 54 -13 68 -47
88 -19 11 -35 25 -35 30 0 5 11 23 25 39 39 47 30 96 -14 73 -29 -16 -47 -103
-31 -152 7 -22 14 -58 14 -81 1 -40 -1 -44 -45 -68 -70 -38 -79 -48 -79 -91 0
-41 23 -65 65 -69 38 -4 45 0 45 29 0 16 3 36 6 45 7 17 50 21 73 7 10 -6 24
1 49 25 20 19 39 31 43 27 17 -19 27 -89 22 -154 -5 -64 -9 -71 -33 -84 -25
-13 -30 -13 -53 5 -14 11 -29 20 -34 20 -5 0 -27 -18 -48 -40 -49 -51 -78 -51
-85 0 -3 23 -11 36 -22 38 -15 3 -18 -4 -18 -36 0 -55 -35 -87 -86 -79 -32 5
-42 2 -71 -23 -33 -29 -95 -42 -107 -22 -3 5 15 28 39 52 24 24 42 47 39 52
-3 5 -26 6 -51 2 -58 -9 -63 0 -56 93 4 48 1 88 -7 112 -16 49 -6 106 23 133
69 62 102 80 139 74 31 -5 39 -2 53 16 15 22 14 24 -6 41 -30 24 -76 21 -134
-11 -40 -21 -56 -39 -81 -85 -40 -76 -65 -101 -93 -92 -12 4 -21 15 -21 26 0
41 -55 107 -74 89 -4 -4 0 -45 9 -92 27 -126 28 -143 12 -156 -12 -10 -22 -9
-51 5 -66 31 -82 -2 -61 -124 l8 -43 -62 0 c-33 0 -61 3 -61 6 0 4 8 28 17 53
22 64 14 83 -34 79 -35 -3 -39 0 -75 52 -44 63 -47 89 -16 131 18 25 23 44 23
98 0 47 5 75 18 94 25 38 22 74 -9 100 l-26 23 17 59 c10 33 21 69 25 81 5 13
2 39 -6 66 -11 32 -12 51 -5 71 13 34 31 34 63 0 23 -25 25 -36 26 -108 0 -64
5 -91 25 -134 28 -59 27 -69 -19 -124 -23 -27 -33 -77 -16 -77 13 0 37 23 57
55 10 17 33 42 51 58 56 47 58 120 4 131 -31 6 -41 32 -16 42 35 13 27 54 -21
106 -20 21 -24 32 -18 57 8 39 16 43 55 30 39 -14 50 -2 50 51 0 19 2 50 6 68
6 29 4 32 -20 32 -15 0 -30 8 -37 21 -19 36 -32 6 -33 -73 -1 -81 2 -78 -78
-63 -81 16 -109 -13 -124 -126 -8 -63 -15 -80 -59 -134 -46 -58 -65 -99 -65
-143 0 -68 36 -82 69 -27 23 39 67 49 73 18 7 -34 -11 -102 -38 -143 -42 -63
-103 -68 -141 -11 -13 19 -23 45 -23 58 0 12 -9 40 -20 60 -11 21 -20 53 -20
71 0 20 -6 35 -16 39 -37 14 -73 -85 -53 -142 11 -30 10 -44 -10 -106 -24 -76
-23 -99 8 -99 36 0 71 -41 74 -85 2 -39 2 -39 -45 -50 -25 -5 -49 -12 -52 -15
-3 -3 -1 -21 3 -41 11 -47 -2 -79 -32 -79 -59 0 -76 74 -26 113 29 22 31 27
24 67 -6 37 -10 41 -29 36 -65 -19 -72 -18 -84 9 -18 38 -15 48 23 96 19 24
35 48 35 53 0 5 -17 6 -37 3 -26 -5 -51 -21 -85 -54 -48 -47 -62 -49 -70 -8
-2 14 -14 21 -41 26 -56 9 -64 22 -44 64 9 20 17 45 17 57 0 20 -4 20 -67 15
-38 -3 -76 -1 -85 4 -26 14 -23 57 5 70 13 6 27 20 32 32 11 24 75 38 75 17 0
-6 5 -8 10 -5 6 3 10 17 10 30 0 18 -7 25 -30 30 -70 15 -83 115 -15 115 25 0
49 -24 59 -57 4 -13 13 -23 20 -23 23 0 57 46 63 86 3 21 11 42 17 46 6 4 7
10 3 15 -5 4 -12 2 -16 -6 -10 -16 -53 -11 -59 7 -2 7 9 18 26 24 29 11 42 32
42 71 0 14 -9 17 -45 17 -25 0 -45 4 -45 9 0 17 42 61 59 61 10 0 37 14 61 31
40 29 44 30 56 14 33 -44 97 29 92 105 -2 33 -7 45 -18 44 -21 -1 -124 -81
-180 -138 -34 -35 -51 -46 -76 -46 -27 0 -36 -8 -67 -55 -35 -52 -36 -55 -17
-65 13 -7 20 -21 20 -41 0 -24 -12 -42 -55 -84 -50 -47 -55 -57 -55 -95 0 -27
-7 -51 -20 -68 -12 -15 -29 -38 -39 -52 -15 -20 -21 -22 -34 -12 -8 7 -17 29
-21 50 -3 20 -9 51 -12 69 -6 30 0 40 80 125 47 51 86 96 86 101 0 11 -27 9
-88 -9 -67 -19 -78 -30 -87 -91 -8 -52 -44 -93 -81 -93 -19 0 -24 5 -24 28 0
53 22 105 61 143 37 36 54 89 29 89 -17 0 -70 -30 -70 -39 0 -5 -15 -32 -34
-60 -19 -28 -37 -64 -41 -81 -8 -35 -44 -55 -83 -45 -18 4 -22 10 -17 23 34
80 33 89 -9 78 -17 -4 -31 -19 -40 -41 -8 -19 -20 -35 -26 -35 -16 0 -24 30
-11 43 6 6 11 29 11 51 0 33 7 47 36 77 41 42 40 63 -3 73 -29 8 -38 1 -86
-68 -33 -48 -67 -30 -67 36 0 22 -10 38 -36 61 -53 47 -67 81 -60 139 5 39 4
48 -8 48 -18 0 -36 -30 -36 -60 0 -30 -53 -80 -84 -80 -23 0 -26 4 -26 34 0
19 -8 42 -17 51 -9 10 -19 33 -22 53 -8 47 -37 56 -47 15 -25 -106 -61 -144
-122 -128 -72 18 -101 17 -131 -4 -35 -25 -47 -26 -55 -5 -12 31 -6 43 29 54
21 7 42 24 55 44 24 40 47 48 87 31 29 -12 34 -11 79 21 27 19 50 39 52 44 2
6 -18 10 -45 10 -44 0 -53 4 -86 39 -21 22 -46 43 -57 46 -27 8 -25 37 3 63
39 37 74 28 98 -23 12 -26 20 -30 61 -33 38 -2 49 1 57 17 10 17 5 22 -43 44
-33 15 -57 33 -61 46 -4 15 -15 21 -33 21 -49 -1 -99 -34 -151 -100 -41 -51
-51 -71 -49 -95 2 -24 8 -31 31 -33 15 -2 27 -7 27 -11 0 -10 -59 -64 -93 -85
-16 -9 -36 -36 -46 -59 -25 -58 -43 -72 -73 -56 -32 17 -38 28 -38 72 0 32 5
40 31 55 70 38 80 52 73 107 -6 49 -8 51 -46 63 -51 16 -68 4 -68 -49 0 -36
-20 -69 -41 -69 -20 0 -32 47 -20 81 10 29 9 35 -14 59 -16 17 -25 38 -25 58
0 25 -4 32 -19 32 -43 0 -51 10 -51 65 0 36 7 66 25 99 21 39 22 48 10 52 -8
4 -22 3 -31 0 -31 -12 -54 22 -54 78 0 105 -27 127 -46 39 -17 -76 -20 -77
-69 -42 -52 38 -55 44 -61 132 -4 54 -2 67 9 67 8 0 20 -7 27 -15 19 -23 49
-18 56 9 10 39 1 71 -21 74 -11 2 -30 8 -42 14 -25 12 -48 0 -58 -31 -3 -10
-21 -25 -41 -35 -30 -14 -35 -20 -29 -39 24 -73 13 -137 -24 -137 -33 0 -42
74 -14 120 13 23 14 36 5 81 -8 43 -7 61 4 88 8 18 14 37 14 42 0 18 -42 8
-60 -13 -30 -37 -35 -12 -12 53 l22 60 -28 26 -27 25 -6 -37 c-7 -45 -21 -59
-48 -50 -17 5 -21 14 -21 46 0 22 -5 49 -11 60 -10 19 -21 72 -39 194 -9 62
-34 95 -70 95 -9 0 -31 14 -48 30 -53 50 -72 38 -72 -46 0 -49 -24 -119 -50
-147 -16 -17 -17 -17 -39 0 -19 15 -24 31 -27 88 -3 39 -4 90 -3 115 1 25 2
63 3 85 l1 40 -50 10 c-48 11 -50 13 -87 81 l-38 71 25 63 c14 35 34 73 45 85
22 23 27 55 9 55 -6 0 -24 -8 -40 -17 -29 -17 -30 -17 -59 12 -16 17 -32 44
-36 61 -5 26 -2 32 21 42 28 13 25 32 -5 32 -12 0 -20 -8 -22 -22 -3 -20 -8
-23 -38 -20 -48 4 -70 27 -70 74 0 31 4 40 24 48 13 5 27 13 30 18 9 16 -22
107 -44 127 -11 10 -25 35 -30 57 -10 37 -12 38 -56 38 -39 0 -46 3 -54 26 -6
14 -10 46 -10 70 0 51 -11 76 -48 117 -18 18 -28 43 -32 75 -5 44 -7 47 -40
52 -20 4 -41 10 -48 14 -19 11 -14 61 8 81 11 10 20 26 20 36 0 27 -58 89 -84
89 -52 0 -84 56 -56 100 8 13 13 12 40 -4 l32 -18 31 34 c18 19 39 37 47 40
12 4 9 12 -14 36 -28 30 -29 34 -23 102 6 69 5 71 -19 80 -37 15 -54 12 -54
-7 0 -10 -11 -41 -24 -70 -18 -37 -32 -54 -49 -59 -28 -6 -67 10 -68 29 0 7
-2 48 -3 93 -2 84 -21 134 -51 134 -8 0 -15 9 -15 20 0 16 7 20 34 20 33 0 66
21 66 41 0 5 25 34 55 64 30 30 55 62 55 72 0 10 -16 43 -35 73 -19 30 -35 60
-35 68 0 7 -5 22 -10 33 -15 27 -47 9 -67 -38 -18 -44 -11 -75 22 -97 25 -16
34 -58 17 -82 -13 -20 -51 -35 -76 -28 -35 8 -48 28 -48 69 0 30 -3 35 -23 35
-40 0 -45 19 -39 131 7 104 7 105 -25 161 -43 76 -37 100 22 92 61 -9 79 -28
72 -78 -10 -70 48 -137 75 -87 19 37 12 82 -21 119 -29 33 -31 38 -24 88 l6
54 -43 19 c-41 17 -68 51 -68 85 0 8 -11 21 -24 30 -14 8 -28 26 -32 38 -9 31
-23 38 -50 26 -17 -8 -27 -8 -39 2 -22 19 -27 9 -35 -74 -8 -82 -27 -122 -66
-136 -57 -22 -141 -4 -175 36 -13 16 -29 23 -76 38 -19 6 -23 4 -23 -13 0 -25
83 -84 121 -87 15 -1 44 -7 64 -14 39 -13 123 -7 157 11 9 5 25 34 33 64 16
53 37 85 55 85 22 0 44 -55 44 -107 1 -47 -3 -58 -25 -76 -17 -14 -29 -35 -32
-57 -2 -19 -11 -50 -18 -67 -11 -27 -11 -39 -1 -65 7 -18 16 -68 19 -111 5
-70 9 -80 33 -97 31 -22 50 -82 48 -150 -1 -46 21 -98 64 -153 29 -35 32 -135
6 -163 -28 -32 -25 -46 12 -58 43 -15 84 -85 76 -129 -4 -21 0 -33 19 -49 28
-24 31 -44 13 -83 -9 -21 -9 -31 0 -46 7 -10 12 -42 12 -71 0 -29 3 -64 7 -77
5 -21 10 -22 45 -17 48 8 54 -3 40 -81 -8 -45 -7 -64 3 -83 43 -78 67 -144 71
-190 1 -19 3 -38 3 -42 1 -4 11 -10 23 -14 13 -4 40 -21 60 -38 36 -30 38 -33
37 -91 -2 -64 27 -140 56 -152 19 -7 38 -77 31 -111 -4 -15 -2 -40 2 -57 8
-27 12 -30 45 -27 28 3 38 -1 46 -17 12 -22 29 -94 41 -175 5 -35 14 -55 31
-68 46 -34 49 -39 49 -63 0 -13 11 -37 25 -53 14 -17 25 -39 25 -49 0 -11 -19
-49 -41 -84 -128 -196 -336 -591 -394 -744 -39 -103 -72 -157 -121 -194 -24
-18 -114 -100 -200 -181 l-155 -148 -122 -42 c-128 -45 -619 -239 -722 -285
-92 -42 -763 -311 -1105 -444 -95 -38 -357 -132 -715 -257 -132 -47 -269 -95
-305 -109 -133 -50 -733 -236 -1080 -335 -287 -82 -784 -227 -980 -285 -80
-24 -260 -76 -400 -115 -140 -40 -298 -85 -350 -101 -52 -15 -187 -56 -300
-89 -113 -34 -342 -106 -510 -160 -295 -96 -628 -194 -835 -246 -140 -36 -468
-141 -729 -234 -431 -154 -519 -193 -631 -278 -62 -47 -74 -52 -105 -47 -102
18 -115 17 -221 -17 -288 -94 -582 -390 -846 -852 -73 -126 -203 -379 -203
-392 0 -4 -29 -66 -64 -138 -202 -415 -345 -790 -467 -1226 -119 -426 -414
-1342 -549 -1705 -93 -251 -280 -721 -385 -970 -236 -560 -400 -1000 -626
-1680 -228 -686 -379 -1249 -464 -1735 -14 -80 -29 -167 -35 -195 -5 -27 -14
-81 -20 -120 -5 -38 -12 -85 -16 -102 l-6 -33 6825 0 6825 0 6 113 c3 61 10
294 16 517 6 223 15 429 20 458 6 32 6 82 0 127 -6 51 -6 100 2 153 9 63 29
619 27 742 -2 86 -1 132 5 415 8 398 26 927 32 937 19 31 53 -54 64 -162 4
-41 13 -88 19 -105 7 -16 11 -59 10 -95 -1 -38 5 -92 15 -128 19 -68 17 -77
-17 -77 -20 0 -23 -8 -31 -68 -10 -77 -2 -94 46 -99 42 -4 48 -27 9 -34 -38
-8 -52 -24 -53 -62 -1 -39 8 -52 37 -52 44 0 70 -51 46 -89 -7 -11 -16 -8 -45
14 -29 22 -37 24 -42 12 -9 -25 0 -100 14 -105 7 -2 26 11 43 29 30 32 32 33
45 14 24 -33 15 -61 -50 -155 -26 -37 -30 -51 -32 -128 -3 -85 -3 -87 28 -119
l32 -33 -24 -24 c-20 -23 -21 -28 -11 -55 15 -35 8 -150 -11 -180 -11 -18 -10
-26 6 -56 21 -38 36 -45 36 -17 0 10 9 52 19 93 11 41 22 106 26 144 3 39 10
102 15 140 26 194 33 740 12 905 -18 136 -21 151 -88 430 l-57 235 0 236 c0
217 -1 236 -16 232 -41 -11 -43 7 -55 517 -2 101 0 144 11 172 10 26 13 57 9
100 -18 193 -18 274 -3 287 9 7 25 10 37 6 35 -11 50 -55 49 -152 0 -48 0
-107 1 -130 0 -24 1 -64 1 -90 0 -27 -2 -106 -5 -178 -12 -265 -10 -457 5
-432 19 33 47 126 71 234 22 102 23 127 21 448 -1 392 -20 669 -63 965 -33
228 -38 403 -19 654 11 157 5 181 -36 134 l-23 -27 -12 47 c-8 32 -9 85 -4
166 6 113 8 120 37 153 18 20 33 52 38 76 4 23 13 68 20 99 12 55 12 59 -9 85
-31 41 -63 113 -64 148 -4 112 6 495 12 505 22 35 33 16 219 -370 28 -58 69
-136 91 -175 21 -38 44 -92 50 -118 5 -27 21 -63 34 -80 13 -18 28 -48 35 -67
17 -51 39 -80 61 -80 27 0 25 15 -11 80 -17 30 -38 73 -46 95 -9 22 -24 51
-34 65 -30 45 -97 184 -120 250 -21 61 -22 84 -24 395 -3 336 -8 391 -44 483
-12 29 -21 74 -21 100 0 87 -65 442 -121 667 -23 88 -51 220 -65 293 -13 73
-28 149 -33 170 -6 20 -26 136 -46 257 -19 121 -46 283 -59 360 -24 135 -77
487 -117 780 -55 398 -74 757 -50 933 5 37 15 112 21 167 24 205 92 436 216
730 45 109 57 223 30 289 -9 21 -16 64 -16 94 0 31 -7 91 -16 133 -18 84 -15
109 15 109 42 0 105 -104 115 -192 10 -75 50 -136 115 -172 55 -30 76 -55 116
-136 47 -98 63 -122 114 -169 39 -36 51 -54 51 -77 0 -35 27 -81 77 -131 55
-55 96 -111 108 -147 7 -21 19 -33 40 -39 69 -20 79 -30 87 -82 15 -99 21
-109 65 -118 30 -6 52 -20 86 -57 26 -28 47 -59 47 -69 0 -10 5 -33 11 -50 10
-29 15 -32 39 -27 30 6 48 -5 73 -46 9 -14 27 -30 39 -33 37 -12 58 -36 58
-69 0 -46 58 -106 103 -106 33 0 67 -24 67 -47 0 -18 36 -43 62 -43 47 0 58
-10 58 -51 0 -30 5 -41 23 -50 12 -6 30 -20 40 -30 10 -11 27 -19 38 -19 11 0
35 -11 53 -25 18 -14 39 -25 46 -25 6 0 21 -11 31 -24 11 -14 48 -38 83 -55
65 -31 106 -70 106 -102 0 -31 30 -52 66 -46 27 5 34 2 39 -14 4 -10 26 -36
51 -56 24 -21 56 -55 70 -76 14 -21 40 -45 59 -53 18 -7 36 -18 40 -24 3 -5
25 -10 48 -10 28 0 53 -8 78 -26 20 -14 63 -32 96 -40 83 -21 132 -44 138 -65
8 -25 39 -41 68 -34 15 4 35 -2 59 -18 20 -14 47 -28 59 -32 13 -4 40 -16 59
-27 46 -27 133 -57 193 -68 27 -5 67 -20 90 -33 70 -40 177 -56 284 -43 56 7
62 6 72 -12 6 -12 11 -29 11 -39 0 -16 38 -53 77 -77 7 -4 27 1 44 10 28 14
41 14 112 3 73 -12 80 -12 92 5 20 26 4 58 -38 81 -41 22 -47 39 -18 55 51 27
132 4 226 -64 44 -32 51 -35 60 -20 33 54 36 55 105 47 l65 -8 0 -40 0 -40
-50 -3 c-27 -2 -55 -8 -62 -14 -7 -6 -23 -8 -35 -5 -13 3 -32 -1 -42 -9 -25
-18 -65 -18 -90 1 -22 17 -36 11 -36 -15 0 -45 99 -66 177 -38 30 11 39 10 79
-12 39 -20 51 -22 83 -14 20 6 50 7 65 3 38 -10 228 -29 293 -29 33 0 74 8
105 22 44 19 56 20 96 10 62 -14 131 -13 164 4 15 8 51 19 80 25 29 6 71 17
93 25 22 8 85 16 140 17 93 3 105 6 171 40 39 20 83 37 98 37 15 0 42 11 59
24 42 31 104 62 144 70 44 10 57 27 42 59 -14 30 4 65 46 93 24 16 27 15 45
-1 29 -26 25 -50 -16 -87 l-36 -33 27 -22 c14 -13 30 -23 35 -23 5 0 33 21 61
46 41 36 57 45 78 41 34 -7 57 7 76 43 11 21 27 32 55 40 22 6 57 22 77 35 20
14 41 25 48 25 7 0 33 11 59 25 50 26 81 32 91 15 3 -5 18 -10 32 -10 20 0 24
4 18 18 -29 68 -29 70 -11 97 15 23 21 25 60 20 32 -5 45 -3 56 10 18 22 64
45 90 45 11 0 38 9 60 20 22 11 47 20 58 20 20 0 82 59 82 79 0 7 -11 22 -25
33 -54 42 -9 110 51 78 36 -20 46 -43 34 -76 -14 -35 1 -50 57 -57 30 -3 50 0
72 14 34 21 38 34 16 59 -25 27 -72 124 -68 138 5 14 106 62 130 62 11 0 14
-10 11 -37 l-3 -38 53 -9 c29 -5 54 -7 56 -5 2 2 6 25 9 52 l7 47 -33 0 c-60
0 -102 54 -77 100 25 47 120 4 120 -55 0 -45 33 -27 43 23 6 32 15 46 38 58
40 20 81 15 94 -13 6 -13 27 -28 53 -37 l45 -14 34 35 c37 37 38 53 1 36 -27
-12 -96 1 -117 22 -12 12 -12 17 2 37 9 13 29 41 45 63 15 22 40 46 56 53 15
8 32 27 38 43 8 23 16 29 38 29 21 0 30 -7 40 -30 10 -25 15 -28 31 -19 15 8
19 22 20 67 1 71 10 102 32 116 25 16 51 -4 57 -45 8 -52 33 -49 48 7 11 41
10 49 -8 79 -38 61 -19 87 68 95 53 5 56 7 64 37 5 18 20 40 33 49 14 9 25 21
25 26 0 6 15 35 34 66 19 32 37 72 41 89 8 38 12 41 85 68 l55 20 3 60 c3 63
14 85 41 85 9 0 42 17 74 37 52 33 57 39 52 64 -5 24 -1 30 37 51 37 20 45 30
55 72 18 72 65 113 98 86 20 -17 19 -49 -4 -128 -46 -158 -87 -390 -79 -444
l3 -23 18 26 c33 50 143 528 158 689 12 135 22 195 34 193 6 -1 13 -22 17 -45
4 -24 14 -72 22 -108 45 -190 50 -273 50 -810 0 -793 -27 -1111 -138 -1605
-24 -110 -56 -258 -71 -330 -41 -200 -181 -754 -204 -807 -12 -26 -28 -93 -37
-150 -8 -57 -26 -168 -39 -248 -30 -184 -50 -342 -75 -600 -10 -113 -27 -279
-37 -370 -13 -117 -17 -233 -16 -399 2 -212 3 -237 20 -260 34 -45 43 -38 43
32 0 56 4 70 27 97 18 22 24 36 17 45 -44 59 -48 70 -51 139 -2 39 -4 82 -5
96 -1 14 6 59 15 100 16 71 35 197 57 374 12 90 15 98 39 94 21 -3 51 19 51
37 0 6 -9 20 -20 30 -23 20 -26 45 -8 63 19 19 46 14 64 -13 17 -26 44 -34 44
-12 0 7 -9 20 -20 30 -24 21 -25 63 -2 131 30 87 65 86 98 -2 17 -46 22 -165
38 -837 2 -55 6 -203 11 -330 l8 -230 -26 -50 c-13 -27 -44 -67 -67 -87 -63
-57 -34 -78 48 -36 67 36 66 40 82 -307 10 -218 17 -346 50 -905 21 -362 31
-508 40 -625 6 -66 14 -257 20 -425 5 -168 14 -399 20 -515 6 -115 15 -293 20
-395 5 -102 14 -236 19 -298 6 -68 6 -125 0 -144 -7 -25 -4 -41 12 -76 17 -34
20 -54 15 -90 -3 -26 -2 -103 4 -172 6 -69 14 -201 20 -295 5 -93 21 -321 36
-505 15 -184 28 -398 29 -475 1 -77 9 -212 18 -300 9 -88 21 -230 27 -315 6
-85 19 -247 30 -360 10 -113 24 -284 30 -380 6 -96 15 -213 20 -260 5 -47 12
-138 16 -202 l6 -118 6794 0 6794 0 0 365 0 365 -25 10 c-36 14 -35 70 1 99
24 19 25 25 22 88 -5 80 -88 453 -148 668 -23 83 -62 222 -85 310 -40 149
-116 419 -186 665 -99 345 -348 1099 -509 1540 -153 420 -148 394 -170 770
-18 310 -43 436 -151 752 -110 322 -177 541 -219 713 -21 88 -67 277 -103 420
-105 413 -116 474 -148 749 -77 682 -90 750 -256 1261 -121 374 -189 527 -391
890 -176 316 -263 426 -410 520 -109 70 -197 98 -312 99 -101 1 -103 2 -165
52 -54 44 -403 225 -547 284 -130 54 -345 126 -668 224 -118 36 -316 99 -440
141 -795 268 -1334 399 -2520 615 -712 130 -1088 223 -1945 484 -371 114 -930
306 -1310 451 -82 32 -202 77 -265 101 -63 23 -169 64 -235 89 -507 196 -962
358 -1376 489 -199 63 -185 54 -396 251 -76 72 -239 220 -361 330 -127 114
-225 210 -229 223 -10 39 7 124 30 154 71 91 69 85 61 133 -7 49 -10 40 76
215 33 68 43 101 49 164 7 72 10 82 38 105 17 14 38 42 48 61 9 19 27 45 38
58 19 21 20 25 7 55 -8 20 -12 62 -11 112 2 72 5 82 29 106 19 18 31 44 40 90
8 35 21 81 29 101 15 35 14 38 -6 64 -26 33 -27 54 -1 86 27 35 40 72 50 143
7 46 15 64 34 78 21 15 24 22 16 43 -19 50 -12 106 20 154 16 25 30 56 30 70
0 36 28 112 50 135 31 34 30 67 -4 83 -20 9 -24 20 -29 74 -5 48 -3 66 8 74
23 18 45 80 45 128 0 64 19 80 84 70 74 -12 135 -6 182 16 45 22 122 85 114
93 -3 3 -28 -6 -55 -19 -45 -22 -61 -24 -147 -22 -118 4 -138 17 -145 95 -5
50 -4 53 41 91 12 9 14 24 9 57 -3 27 -1 56 7 74 10 25 9 38 -4 77 -23 68 -20
86 19 124 19 19 35 39 35 46 0 6 -14 29 -30 50 -38 47 -37 81 5 104 38 21 42
42 16 79 -31 44 -28 100 9 146 17 21 30 45 31 54 3 43 -5 68 -29 94 -24 26
-27 36 -27 105 l0 77 -38 0 c-26 0 -41 6 -48 18 -11 19 -18 21 -38 8z m-253
-2078 c29 -74 33 -112 18 -169 -21 -79 -41 -91 -76 -47 -17 22 -20 35 -15 63
4 19 7 59 6 89 0 29 4 62 10 72 15 28 45 24 57 -8z m-2061 -2644 c15 -6 53
-15 83 -20 46 -9 62 -17 96 -55 33 -34 49 -44 75 -45 52 -1 131 -33 152 -61
11 -15 19 -44 20 -72 2 -39 -2 -51 -20 -63 -20 -14 -24 -13 -48 11 l-25 25
-16 -32 c-9 -18 -31 -48 -48 -68 -17 -20 -39 -50 -48 -67 -33 -62 -84 -32 -75
43 3 34 0 51 -13 67 l-17 21 -30 -22 c-25 -19 -34 -21 -52 -12 -11 7 -21 19
-21 27 0 8 -32 46 -71 84 -87 83 -89 104 -11 108 28 2 52 6 52 10 0 4 -17 16
-37 27 -49 27 -60 47 -45 79 13 29 49 34 99 15z m1044 -80 c15 -29 5 -71 -32
-135 -42 -73 -62 -72 -79 4 -16 79 -11 102 29 129 42 29 67 29 82 2z m-368
-436 c-5 -83 -22 -113 -64 -113 -17 0 -18 -5 -13 -40 6 -38 4 -43 -37 -81 -46
-43 -83 -49 -103 -17 -12 20 0 61 40 133 24 42 27 44 47 30 22 -16 47 -5 47
21 0 7 14 29 31 49 17 19 29 41 26 48 -6 17 11 60 21 53 5 -3 7 -40 5 -83z
m-7309 -140 c-5 -53 -4 -64 10 -69 24 -9 19 -43 -9 -56 -20 -9 -28 -8 -42 4
-10 9 -31 20 -48 25 -36 11 -44 47 -21 92 9 16 16 44 16 60 0 26 5 32 33 40
27 7 35 5 50 -12 15 -17 17 -31 11 -84z m6936 -145 c25 -30 28 -31 58 -19 17
7 36 10 41 6 6 -3 11 -33 11 -66 0 -54 -2 -60 -25 -69 -16 -6 -35 -5 -55 2
-48 16 -62 -4 -62 -86 0 -51 -5 -69 -20 -82 -16 -15 -20 -16 -33 -3 -12 12
-13 28 -5 89 5 41 14 97 20 124 5 28 8 58 5 67 -9 27 5 69 23 69 8 0 28 -14
42 -32z m-181 -145 c18 -22 31 -49 31 -65 0 -50 -89 -90 -120 -53 -9 11 -9 23
3 57 9 24 18 55 21 71 9 37 29 34 65 -10z m-201 -245 c7 -7 12 -32 12 -56 0
-24 7 -59 16 -78 15 -31 15 -35 -5 -63 -12 -16 -21 -34 -21 -40 0 -19 -81
-131 -91 -125 -14 8 1 134 19 166 14 23 14 33 4 61 -10 28 -9 42 3 77 23 66
40 81 63 58z m-6000 -50 c5 -7 11 -22 13 -33 5 -26 72 -41 116 -25 38 13 74 1
51 -17 -7 -6 -22 -13 -33 -15 -30 -5 -26 -42 5 -46 55 -6 71 -14 82 -38 16
-35 39 -26 52 20 21 74 66 75 85 2 10 -41 13 -45 34 -37 12 4 31 24 42 44 21
39 44 47 65 22 7 -8 23 -15 36 -15 27 0 48 -32 39 -60 -8 -24 -47 -27 -65 -5
-22 27 -48 17 -74 -27 -13 -24 -27 -58 -31 -76 -4 -18 -18 -40 -32 -50 -14 -9
-36 -27 -49 -39 -32 -30 -56 -41 -72 -36 -9 4 -2 15 21 37 27 25 35 41 41 84
4 29 4 57 1 62 -10 16 -37 11 -62 -12 l-23 -21 -60 31 c-61 32 -73 33 -44 1
21 -23 3 -59 -31 -59 -18 0 -26 8 -35 34 -7 23 -21 38 -41 47 -46 19 -63 50
-50 94 9 33 8 38 -10 42 -10 3 -19 13 -19 23 0 10 -3 32 -6 49 -6 28 -4 31 19
31 13 0 29 -6 35 -12z m656 -424 c30 -29 17 -56 -37 -79 -20 -8 -52 -15 -72
-15 -41 0 -44 -9 -12 -37 17 -17 41 -22 118 -28 93 -6 96 -6 102 15 8 30 51
24 55 -7 3 -18 -3 -24 -30 -31 -27 -7 -34 -14 -36 -38 -3 -30 -2 -31 40 -30
36 1 43 -2 46 -20 4 -27 -19 -46 -60 -47 -27 -2 -34 2 -36 21 -4 28 -21 28
-82 -3 -59 -30 -57 -30 -69 -6 -7 13 -7 29 0 51 15 41 2 55 -36 40 -66 -25
-97 9 -100 109 -3 81 16 104 80 96 25 -3 49 1 65 10 32 19 45 18 64 -1z m4025
-58 c4 -23 -24 -46 -56 -46 -21 0 -23 -4 -23 -53 0 -33 7 -67 20 -92 24 -47
27 -113 5 -121 -22 -9 -45 14 -66 63 -13 30 -24 43 -38 43 -32 0 -34 -18 -6
-52 34 -41 33 -101 -3 -106 -37 -5 -72 24 -72 59 0 17 5 39 11 50 8 16 7 25
-5 38 -10 11 -16 36 -16 67 0 27 -4 56 -9 63 -12 18 2 46 25 55 9 4 28 -1 42
-10 23 -15 27 -15 54 0 16 10 40 29 53 42 30 30 78 30 84 0z m804 -51 c-2 -68
-12 -82 -42 -63 -29 18 -50 3 -81 -57 -14 -26 -35 -54 -46 -62 -19 -12 -23
-11 -38 12 -15 22 -15 28 -2 53 8 15 32 42 55 60 23 18 50 51 61 72 23 46 46
61 74 50 18 -7 21 -15 19 -65z m-4541 -254 c13 -5 35 -12 50 -15 33 -7 51 -37
42 -71 -6 -24 -9 -25 -60 -19 -42 5 -62 2 -98 -15 -25 -11 -51 -21 -58 -21
-21 0 -48 33 -48 60 0 35 27 59 87 75 61 17 58 17 85 6z m3224 -19 c7 -4 14
-29 18 -57 3 -27 8 -69 12 -93 10 -66 -24 -139 -81 -175 -54 -34 -85 -30 -85
12 0 32 23 56 62 66 40 10 49 26 38 65 -7 25 -6 41 6 67 16 32 15 34 -6 51
-41 33 -7 93 36 64z m-743 -97 c26 -29 56 -74 66 -98 21 -49 53 -77 89 -77 40
0 62 -18 62 -50 0 -35 0 -35 -46 -15 -55 23 -60 19 -95 -95 -15 -48 -53 -78
-84 -66 -15 5 -17 14 -11 62 3 31 11 64 16 74 15 28 12 110 -6 171 -19 65 -27
76 -71 94 -36 15 -36 30 1 45 11 5 23 9 26 9 3 1 26 -24 53 -54z m-2212 -14
c14 -10 41 -26 62 -35 53 -22 47 -49 -10 -57 -51 -6 -58 -12 -58 -47 0 -17 -5
-27 -15 -27 -10 0 -14 8 -12 27 2 21 -4 31 -28 44 -44 26 -41 76 5 102 27 15
29 15 56 -7z m1979 -113 c44 -22 45 -25 57 -88 18 -104 -5 -180 -56 -180 -47
0 -69 81 -31 115 30 27 25 57 -15 92 -23 21 -35 40 -35 57 0 33 20 34 80 4z
m-1524 -144 c37 -25 61 -34 91 -34 32 0 44 -5 57 -25 20 -31 61 -52 115 -61
23 -4 44 -10 46 -14 10 -16 -7 -39 -37 -49 -71 -25 -140 -2 -163 53 -19 46
-39 60 -64 47 -32 -17 -52 -14 -118 21 -67 35 -80 60 -47 93 22 22 55 13 120
-31z m2242 -185 c2 -42 -1 -61 -13 -73 -23 -23 -88 -37 -134 -30 -32 5 -46 2
-72 -17 -17 -12 -53 -26 -78 -30 -25 -4 -77 -15 -116 -23 -38 -9 -90 -16 -115
-16 -56 0 -146 24 -169 44 -25 23 -58 20 -76 -8 -24 -35 -67 -51 -106 -37 -18
6 -53 11 -78 11 -61 0 -91 21 -91 64 0 29 14 56 31 56 3 0 22 -13 42 -28 31
-25 44 -29 99 -28 63 1 63 1 83 40 26 49 39 54 67 23 13 -13 44 -33 70 -45
l47 -20 52 25 c49 25 53 25 79 9 39 -22 58 -20 102 11 27 18 53 27 86 28 26 1
61 9 77 18 17 9 43 17 58 17 20 0 39 11 60 34 24 25 40 34 62 33 29 -2 30 -3
33 -58z m-5340 -4864 c7 -14 12 -61 12 -105 0 -43 5 -114 12 -157 6 -43 10
-85 10 -93 -1 -8 -3 -44 -5 -79 -3 -48 -8 -67 -22 -78 -17 -11 -22 -11 -39 7
-17 16 -21 38 -26 117 -6 99 4 359 15 394 9 27 30 24 43 -6z m21699 -1627 c4
-7 10 -35 14 -63 11 -78 30 -138 55 -167 16 -19 24 -47 29 -97 8 -80 3 -96
-26 -81 -36 20 -54 61 -61 145 -9 104 -21 175 -36 202 -17 30 -15 73 2 73 8 0
18 -6 23 -12z"/>
<path d="M24380 17839 c0 -13 7 -33 15 -43 8 -11 15 -31 15 -44 0 -13 8 -36
19 -50 25 -37 69 -143 91 -224 10 -37 23 -76 29 -86 13 -24 4 -61 -22 -89
l-20 -23 31 0 c42 0 49 -17 47 -123 l-2 -88 26 6 c14 4 28 9 31 11 18 19 -18
262 -61 409 -25 84 -141 314 -175 346 l-24 22 0 -24z"/>
<path d="M13026 17688 c-24 -42 -25 -46 -23 -250 2 -188 4 -209 21 -225 14
-14 20 -15 23 -5 3 7 16 25 29 40 20 23 25 25 34 12 6 -8 8 -24 5 -35 -17 -59
-18 -88 -4 -83 25 8 39 51 37 108 -3 48 -6 55 -25 58 -12 2 -24 13 -27 25 -3
12 -19 30 -36 39 -33 19 -38 39 -16 57 12 10 20 9 40 -4 23 -15 26 -15 51 1
43 28 47 46 23 103 -14 32 -28 51 -38 50 -67 -6 -84 23 -39 71 33 34 35 43 13
64 -25 25 -41 19 -68 -26z"/>
<path d="M13083 17062 c-28 -29 -33 -43 -33 -83 0 -43 3 -49 20 -49 31 0 35
-26 9 -62 -20 -27 -23 -43 -21 -101 1 -37 7 -77 13 -88 16 -30 51 -20 72 21
18 35 18 44 2 165 -6 42 -4 54 13 75 17 21 22 22 36 11 9 -7 16 -20 16 -28 0
-9 16 -30 37 -49 l36 -33 -26 -40 c-35 -52 -36 -81 -2 -81 45 0 57 34 48 141
l-8 94 -38 18 c-25 12 -43 29 -52 51 -12 28 -71 79 -86 75 -2 -1 -19 -17 -36
-37z"/>
<path d="M19834 16530 c-74 -11 -120 -27 -204 -73 -84 -45 -167 -110 -175
-138 -4 -12 2 -29 14 -45 33 -42 18 -57 -49 -50 -52 6 -60 4 -89 -19 -37 -31
-55 -89 -52 -162 3 -65 -14 -70 -54 -17 -21 27 -33 34 -53 32 -37 -4 -42 -40
-7 -58 18 -9 25 -22 25 -42 0 -38 -19 -36 -70 7 -30 25 -52 35 -76 35 -19 0
-34 -4 -34 -10 0 -5 13 -10 29 -10 32 0 41 -14 41 -66 0 -55 24 -100 69 -128
47 -30 66 -32 75 -10 5 13 15 15 56 9 46 -6 50 -5 50 14 0 11 -7 38 -16 60 -8
21 -14 54 -12 72 3 29 7 33 53 46 102 29 103 29 145 -12 37 -36 39 -41 33 -81
-5 -40 -3 -44 21 -56 23 -10 29 -9 37 3 10 16 3 62 -17 100 -19 38 -1 50 63
42 73 -8 82 -15 60 -52 -11 -18 -17 -50 -17 -87 0 -31 -7 -80 -16 -108 -22
-70 -5 -161 32 -178 33 -15 39 -5 25 43 -11 36 -10 45 10 87 16 33 24 70 27
130 l5 84 33 14 c36 15 41 28 24 66 -6 14 -7 46 -3 83 8 57 10 61 47 78 34 16
37 21 32 45 -4 15 -11 44 -15 66 -13 57 -64 82 -110 53 -14 -9 -45 -26 -68
-37 -29 -14 -43 -27 -43 -41 0 -26 -43 -69 -69 -69 -28 0 -38 43 -21 89 8 22
9 36 3 38 -6 2 -19 10 -29 17 -24 18 -12 32 59 71 l55 29 55 -19 c52 -17 56
-17 97 -1 27 11 54 14 77 10 28 -5 39 -2 61 19 18 16 45 27 77 32 91 13 157
55 86 55 -16 0 -57 9 -92 19 -86 25 -124 30 -185 21z"/>
<path d="M17479 16475 c-72 -52 -94 -64 -131 -70 -21 -4 -38 -10 -38 -14 0
-11 47 -31 70 -31 11 0 43 -9 71 -21 29 -11 80 -22 113 -25 59 -5 63 -4 120
35 69 48 115 53 197 21 58 -21 74 -19 59 11 -25 46 -254 119 -376 119 -39 0
-59 -6 -85 -25z"/>
<path d="M19973 16303 c-23 -9 -14 -32 26 -63 46 -37 55 -61 34 -90 -10 -15
-13 -34 -9 -58 7 -46 0 -57 -47 -77 -55 -23 -54 -53 4 -107 47 -45 61 -47 87
-11 l20 27 38 -26 c22 -14 51 -38 66 -54 15 -16 47 -49 70 -74 24 -25 52 -63
63 -84 27 -53 45 -58 45 -12 0 41 -38 90 -104 135 -32 22 -44 39 -53 73 -9 32
-23 53 -49 73 -45 34 -60 70 -69 162 -7 72 -7 73 24 102 17 16 31 32 31 35 0
4 -24 18 -52 31 -50 23 -97 30 -125 18z"/>
<path d="M17912 16269 c-6 -8 -28 -34 -49 -59 -46 -54 -93 -116 -93 -124 0 -3
11 -6 24 -6 16 0 27 7 31 20 9 28 52 26 98 -5 20 -14 37 -29 37 -34 0 -11 -53
-83 -73 -100 -11 -9 -17 -29 -17 -57 l0 -44 41 21 41 21 39 -31 c21 -17 41
-31 44 -31 4 0 4 18 0 41 -6 33 -3 47 19 79 14 22 26 44 26 49 0 6 18 25 40
43 32 25 40 38 38 58 -3 23 -6 25 -48 21 -25 -2 -65 -4 -90 -5 -49 -1 -47 -4
-66 99 -2 11 -9 28 -17 39 -11 16 -16 16 -25 5z"/>
<path d="M17390 16087 c-61 -30 -67 -37 -100 -100 -19 -38 -49 -81 -67 -95
-53 -46 -55 -102 -3 -102 34 0 45 14 54 63 8 41 90 133 147 162 31 17 61 69
52 92 -7 17 -8 17 -83 -20z"/>
<path d="M20602 15937 c-30 -32 -28 -37 13 -37 21 0 43 -8 54 -19 17 -17 18
-24 8 -52 -7 -17 -22 -38 -34 -46 -20 -13 -29 -13 -87 7 -35 11 -67 28 -70 35
-7 18 -67 56 -78 49 -18 -11 -5 -35 48 -89 50 -52 59 -57 89 -52 22 4 45 -1
69 -14 45 -24 46 -24 46 4 0 33 21 55 55 59 25 2 31 8 33 31 3 28 4 29 53 22
54 -8 62 2 33 43 -23 33 -65 51 -116 49 -32 -1 -52 4 -65 16 -25 22 -25 22
-51 -6z"/>
<path d="M18232 15893 c-17 -12 -26 -13 -34 -5 -22 22 -54 12 -90 -25 -33 -35
-35 -40 -22 -57 23 -32 18 -46 -18 -44 -31 3 -33 1 -45 -46 -6 -26 -20 -54
-29 -61 -16 -11 -14 -15 24 -39 49 -31 87 -34 101 -7 8 14 6 23 -9 36 -36 32
-24 72 53 180 13 18 17 18 56 5 49 -16 62 -8 64 41 2 39 -16 47 -51 22z"/>
<path d="M19904 15875 c-10 -8 -26 -15 -35 -15 -35 0 -75 -69 -49 -85 6 -3 10
-17 10 -29 0 -28 14 -41 53 -50 22 -5 33 -17 45 -47 21 -55 35 -35 21 31 -8
39 -8 67 0 108 16 80 14 102 -7 102 -10 0 -27 -7 -38 -15z"/>
<path d="M17393 15844 c-3 -9 -1 -32 6 -51 10 -28 10 -41 -4 -78 -30 -76 5
-102 60 -45 22 23 29 39 27 64 -1 18 2 45 7 59 14 37 -10 67 -55 67 -23 0 -37
-6 -41 -16z"/>
<path d="M18571 15748 c-5 -13 -12 -31 -15 -40 -3 -9 -17 -25 -32 -34 -26 -17
-27 -17 -43 2 -11 14 -35 23 -71 28 -29 4 -69 14 -89 22 -59 25 -105 -1 -81
-46 6 -10 10 -39 10 -64 0 -42 2 -46 25 -46 13 0 41 11 62 25 46 32 96 31 101
-1 2 -17 -7 -27 -43 -44 -49 -24 -85 -69 -85 -108 0 -29 13 -33 80 -24 l55 7
0 56 c0 41 5 63 18 77 24 27 65 33 99 16 15 -8 56 -14 92 -14 61 0 68 2 93 30
34 38 63 38 92 0 30 -41 44 -29 39 32 -7 64 -17 73 -60 58 -46 -17 -93 6 -103
50 -4 16 -10 30 -13 31 -117 11 -122 11 -131 -13z"/>
<path d="M19066 15733 c-4 -5 -28 -19 -54 -33 -61 -33 -62 -56 -4 -89 57 -31
161 -41 181 -17 20 24 5 66 -41 108 -40 36 -67 46 -82 31z"/>
<path d="M21290 15540 c0 -11 9 -34 20 -52 12 -20 20 -51 20 -78 0 -69 7 -74
97 -76 51 0 89 -7 110 -17 39 -20 53 -21 53 -4 0 7 -18 23 -39 35 -24 14 -49
40 -63 65 -21 38 -27 42 -63 43 -22 0 -45 2 -52 2 -6 1 -25 25 -42 52 -34 55
-41 60 -41 30z"/>
<path d="M21002 15345 c-9 -20 -19 -25 -49 -25 -42 0 -90 -30 -79 -49 5 -8 22
-10 51 -5 40 5 56 0 165 -52 132 -63 155 -64 155 -8 0 21 -10 36 -44 61 -41
32 -45 33 -67 18 -37 -24 -53 -18 -70 25 -22 54 -47 68 -62 35z"/>
<path d="M16083 15314 c-37 -18 -49 -44 -34 -73 18 -33 13 -71 -14 -95 -39
-36 -85 -108 -85 -134 0 -34 31 -24 44 13 6 17 46 66 89 108 70 71 77 81 77
118 0 45 -14 79 -33 79 -7 0 -26 -8 -44 -16z"/>
<path d="M23370 15290 c-8 -5 -29 -10 -46 -10 -22 0 -36 -7 -47 -24 -19 -28
-17 -31 58 -70 28 -14 58 -32 67 -38 25 -18 32 -5 34 68 2 53 -1 66 -16 74
-23 12 -31 12 -50 0z"/>
<path d="M16282 15093 c-5 -10 -12 -38 -15 -62 -4 -35 -14 -52 -42 -78 -41
-37 -42 -30 20 -109 29 -36 30 -41 30 -139 0 -71 4 -107 14 -118 9 -11 11 -28
7 -52 -4 -20 -3 -35 2 -35 5 0 40 12 78 26 37 14 77 23 88 20 24 -6 46 10 46
35 0 34 23 68 53 79 73 25 285 -4 364 -50 18 -11 62 -28 99 -39 55 -18 73 -19
109 -10 36 9 53 8 97 -7 60 -21 233 -25 280 -6 23 10 27 18 30 59 l3 48 85 14
c47 7 119 14 161 15 64 1 81 -2 99 -19 40 -36 43 -53 20 -97 -23 -45 -17 -62
21 -56 23 3 24 7 24 79 0 96 14 115 89 124 39 5 79 -1 171 -24 138 -34 200
-45 340 -61 55 -7 111 -18 125 -25 20 -11 28 -10 49 3 18 12 64 18 190 23 180
7 218 14 358 60 51 17 103 29 115 27 34 -5 49 -44 45 -115 -3 -72 3 -76 71
-47 20 9 73 18 117 21 47 3 117 17 170 33 50 16 131 34 180 40 50 6 116 16
148 21 31 6 109 10 171 10 96 0 119 3 138 19 27 21 139 46 164 36 13 -5 15
-15 10 -59 -6 -46 -4 -56 14 -72 17 -16 24 -17 38 -7 9 7 32 20 50 29 18 9 35
27 38 40 4 16 14 23 29 23 33 0 70 34 89 80 20 52 51 60 114 32 26 -12 63 -25
82 -30 22 -5 39 -17 45 -31 8 -19 15 -22 43 -17 49 7 62 23 62 72 0 38 3 44
21 44 12 0 34 -11 51 -25 63 -53 77 -16 27 73 -27 48 -30 60 -24 103 6 40 3
53 -15 79 -25 36 -43 38 -64 8 -14 -20 -19 -21 -56 -11 -31 8 -42 7 -51 -3
-15 -18 -49 -18 -76 1 -27 19 -43 12 -68 -27 -23 -36 -100 -80 -195 -113 -36
-12 -109 -41 -164 -64 -54 -22 -141 -50 -195 -60 -53 -11 -112 -26 -131 -34
-37 -15 -179 -16 -292 -1 l-57 7 -49 -51 c-37 -38 -58 -52 -88 -57 -21 -3 -67
-15 -102 -26 -81 -25 -107 -24 -126 3 -34 49 -5 98 58 98 49 0 156 22 151 30
-3 5 -29 12 -59 15 -40 5 -61 3 -84 -9 -39 -20 -96 -20 -155 0 -37 13 -54 14
-79 5 -17 -6 -53 -11 -80 -11 -32 0 -58 -7 -76 -19 -20 -15 -56 -22 -142 -30
-63 -5 -139 -17 -169 -25 -45 -13 -77 -14 -190 -6 -210 14 -362 30 -406 41
-22 6 -60 15 -85 22 -59 15 -215 15 -265 0 -22 -7 -114 -16 -205 -21 -154 -7
-168 -10 -205 -34 -35 -23 -196 -68 -243 -68 -9 0 -32 11 -52 25 -44 31 -73
25 -68 -14 3 -28 -7 -51 -23 -51 -5 0 -27 18 -48 39 -27 28 -51 42 -77 46 -22
3 -91 17 -154 31 -63 14 -164 36 -225 49 -182 38 -192 41 -204 77 -6 17 -11
69 -11 115 l0 83 -60 -41 -60 -41 20 -28 c25 -35 26 -71 2 -101 -23 -28 -45
-21 -72 23 -25 41 -25 65 0 103 15 22 20 47 20 98 0 66 -10 84 -28 50z"/>
<path d="M23236 15058 c-9 -12 -16 -27 -16 -33 0 -6 -14 -24 -31 -41 -30 -28
-30 -29 -60 -11 -38 21 -65 22 -73 2 -9 -26 4 -44 42 -56 47 -14 62 -34 62
-81 0 -28 5 -40 21 -49 24 -13 36 -4 41 30 2 19 12 27 36 33 26 7 32 13 27 26
-3 9 -9 29 -12 44 -6 33 18 48 76 48 33 0 49 -7 81 -36 22 -20 44 -34 47 -30
10 9 -15 98 -32 115 -13 13 -17 12 -33 -2 -27 -25 -38 -21 -82 23 -44 45 -72
50 -94 18z"/>
<path d="M16074 14918 c-23 -45 -19 -92 11 -143 l25 -43 -26 -37 c-30 -45 -18
-61 30 -41 27 11 31 17 29 47 -1 19 -2 72 -2 118 0 59 -5 90 -16 107 -21 32
-31 30 -51 -8z"/>
<path d="M21636 14924 c-22 -21 -21 -54 2 -54 14 0 17 -7 14 -43 -4 -47 9 -64
66 -87 35 -14 53 -7 34 12 -7 7 -12 35 -12 64 0 48 -3 54 -40 88 -46 42 -44
41 -64 20z"/>
<path d="M22582 14893 c27 -61 84 -172 96 -185 8 -10 23 -18 32 -18 22 0 32
-36 24 -79 -8 -40 18 -84 49 -79 17 2 21 10 21 43 1 29 6 41 18 43 24 5 40
-31 28 -62 -8 -22 -5 -28 19 -45 l28 -20 7 46 c9 70 7 111 -6 120 -16 10 -93
33 -135 40 -29 5 -34 11 -60 85 -33 93 -53 118 -94 118 -17 0 -29 -3 -27 -7z"/>
<path d="M23075 14701 c-62 -36 -103 -158 -69 -209 9 -14 22 -46 29 -72 12
-48 38 -62 43 -23 2 12 10 27 18 33 8 7 14 30 14 52 0 22 5 48 10 59 18 32 25
146 10 164 -15 18 -17 18 -55 -4z"/>
<path d="M21280 14617 c0 -18 -8 -43 -17 -57 -10 -13 -12 -25 -7 -27 6 -2 35
-19 64 -38 30 -19 64 -38 75 -41 11 -4 39 -22 62 -41 23 -19 63 -43 90 -53 52
-19 70 -38 60 -64 -5 -11 -19 -16 -52 -16 -40 0 -47 -3 -56 -27 -17 -45 -8
-66 32 -78 20 -5 55 -27 78 -47 22 -21 45 -38 50 -38 21 0 28 68 10 102 -9 17
-7 24 16 42 26 21 26 21 13 80 -7 32 -20 62 -28 66 -65 30 -68 44 -9 46 40 1
102 39 96 57 -2 6 -14 14 -28 17 -14 3 -29 18 -37 35 -7 17 -17 37 -23 45 -5
8 -17 27 -27 42 -23 37 -45 35 -81 -8 -22 -28 -35 -35 -51 -31 -14 4 -31 -4
-54 -24 -19 -16 -40 -29 -48 -29 -23 0 -58 30 -58 51 0 21 -42 69 -60 69 -5 0
-10 -15 -10 -33z"/>
<path d="M22640 14331 c-6 -12 -18 -21 -26 -21 -11 0 -7 -9 14 -28 37 -35 47
-68 32 -107 -10 -27 -9 -32 15 -52 14 -13 29 -23 33 -23 15 0 112 100 112 115
0 11 -11 15 -40 15 -38 0 -40 2 -67 58 -30 61 -55 76 -73 43z"/>
<path d="M16107 14274 c-15 -8 -37 -12 -47 -9 -16 5 -23 -2 -39 -37 -22 -51
-41 -127 -41 -167 0 -37 26 -48 58 -24 40 30 45 58 16 93 -45 52 -4 106 57 75
28 -15 33 -15 57 1 41 26 72 56 72 71 0 18 -97 16 -133 -3z"/>
<path d="M15865 14216 c-34 -10 -44 -20 -67 -66 -34 -68 -34 -79 -3 -140 14
-27 25 -60 25 -72 0 -13 7 -32 15 -42 19 -25 19 -50 -2 -104 -16 -42 -15 -44
5 -72 31 -41 28 -67 -10 -91 -25 -15 -43 -18 -74 -14 -32 4 -46 1 -67 -15 -15
-12 -27 -25 -27 -30 0 -5 19 -14 43 -21 23 -6 58 -17 78 -24 19 -8 41 -10 47
-6 6 4 25 34 42 66 40 76 57 91 118 99 61 8 77 24 61 59 -10 23 -14 24 -45 14
-30 -9 -38 -8 -54 9 -50 51 -25 113 55 133 42 11 66 33 51 48 -3 4 -22 -1 -41
-10 -65 -31 -91 -17 -79 42 5 21 1 32 -13 42 -48 34 -56 101 -18 156 13 20 22
40 19 45 -6 10 -7 9 -59 -6z"/>
<path d="M21592 13985 c18 -27 30 -35 53 -35 23 0 41 -11 70 -41 51 -53 83
-66 101 -42 12 17 13 17 26 0 14 -19 28 -16 136 24 30 12 29 53 -4 85 -29 29
-57 27 -104 -8 -24 -18 -36 -20 -77 -13 -26 4 -67 8 -90 9 -24 0 -43 4 -43 7
0 10 -64 49 -79 49 -6 0 -1 -15 11 -35z"/>
<path d="M21540 13834 c-26 -23 -30 -31 -25 -58 10 -48 34 -61 138 -75 92 -13
97 -13 130 8 43 27 70 27 107 0 32 -24 63 -19 58 8 -4 22 -114 41 -131 24 -16
-16 -73 -13 -107 4 -18 9 -33 28 -40 51 -9 26 -21 40 -46 50 -44 19 -47 18
-84 -12z"/>
<path d="M22473 13798 c-6 -7 -13 -21 -16 -31 -6 -16 -14 -20 -55 -33 -8 -2 4
-24 34 -60 45 -57 46 -58 39 -112 -4 -31 -11 -66 -15 -78 -16 -41 23 -47 66
-10 28 23 28 23 17 92 -7 38 -19 90 -27 116 -14 44 -13 48 5 72 25 31 24 42
-3 50 -32 8 -34 8 -45 -6z"/>
<path d="M14856 13753 c-21 -61 -20 -80 4 -110 27 -34 25 -57 -10 -128 -16
-33 -30 -74 -30 -91 0 -31 18 -48 36 -36 17 12 83 155 95 207 6 28 15 60 20
73 23 61 3 102 -51 102 -11 0 -23 7 -26 15 -10 26 -22 17 -38 -32z"/>
<path d="M21464 13574 c-4 -14 -1 -37 7 -52 7 -15 12 -43 10 -62 -3 -40 17
-63 60 -74 21 -4 36 2 72 31 25 20 43 42 40 49 -3 7 -20 18 -38 24 -18 6 -40
21 -48 33 -23 35 -68 77 -83 77 -8 0 -17 -12 -20 -26z"/>
<path d="M19045 13411 c-6 -5 -36 -16 -67 -25 -53 -15 -61 -15 -88 -1 -39 20
-52 12 -44 -30 5 -26 1 -38 -16 -55 -19 -19 -28 -21 -72 -15 l-51 7 6 -37 c3
-20 22 -60 42 -89 26 -38 35 -62 35 -92 0 -32 6 -46 34 -73 35 -34 34 -34 132
-10 34 9 46 7 82 -11 22 -12 51 -20 64 -18 21 3 23 8 23 61 0 70 11 80 82 72
47 -6 53 -4 70 20 10 15 30 41 45 58 25 30 28 31 60 19 19 -6 45 -12 58 -12
22 0 23 2 16 65 -9 88 -11 91 -63 106 -39 10 -50 10 -72 -2 -23 -13 -27 -23
-31 -77 -4 -45 -11 -67 -27 -83 -45 -46 -60 -9 -53 135 2 34 0 38 -12 28 -8
-6 -23 -27 -33 -47 -27 -48 -43 -51 -82 -13 -33 32 -45 80 -23 93 12 7 13 35
2 35 -4 0 -12 -4 -17 -9z m-9 -110 c12 -25 32 -53 44 -63 46 -38 2 -61 -71
-37 -45 15 -66 40 -74 89 -9 51 -1 62 43 58 33 -3 39 -8 58 -47z"/>
<path d="M18520 13321 c-25 -4 -51 -10 -57 -14 -19 -12 -16 -42 8 -63 16 -15
24 -16 39 -6 35 22 57 14 77 -25 20 -41 53 -57 53 -26 0 10 9 33 20 51 28 46
25 61 -15 78 -36 15 -52 15 -125 5z"/>
<path d="M15875 13260 c-50 -8 -190 -55 -212 -72 -31 -25 30 -68 97 -68 36 0
40 3 40 24 0 13 -8 27 -17 30 -13 5 -14 9 -4 19 7 7 48 12 111 12 55 1 102 4
106 8 4 3 4 18 0 32 -7 28 -24 30 -121 15z"/>
<path d="M15256 12994 c-19 -19 -19 -17 -4 -65 9 -31 8 -44 -2 -63 -16 -30 -7
-56 18 -56 25 0 102 56 102 74 0 7 -9 20 -21 27 -19 13 -19 17 -8 43 12 25 11
30 -6 42 -25 19 -60 18 -79 -2z"/>
<path d="M19150 12871 c-5 -11 -10 -28 -10 -38 0 -45 -42 -55 -85 -21 -22 17
-31 19 -44 10 -40 -29 -88 -43 -126 -38 -21 2 -64 -2 -95 -11 -98 -28 -117
-28 -159 0 l-39 26 -45 -25 c-52 -27 -100 -30 -137 -9 -33 19 -74 19 -90 0 -9
-11 -22 -14 -42 -10 -25 6 -34 1 -63 -32 -38 -42 -44 -68 -18 -77 31 -12 167
6 192 26 22 17 26 17 49 2 21 -14 31 -14 63 -5 57 17 299 33 329 22 14 -5 43
-12 65 -14 22 -3 48 -8 57 -12 13 -5 21 0 30 20 11 24 16 26 47 20 51 -10 113
-10 214 -1 72 6 93 12 117 33 17 14 30 29 30 34 0 5 -29 9 -65 9 -63 0 -67 1
-83 31 -43 78 -72 97 -92 60z"/>
<path d="M16013 12858 c-40 -10 -48 -48 -10 -48 27 0 47 -17 47 -40 0 -9 11
-27 25 -40 14 -13 25 -32 25 -42 0 -19 31 -25 64 -12 16 6 22 51 8 69 -7 11
-45 38 -91 66 -14 8 -28 24 -31 35 -4 18 -9 19 -37 12z"/>
<path d="M21272 12830 c-18 -15 -33 -18 -66 -14 -56 8 -69 -7 -54 -66 19 -81
75 -105 104 -45 12 26 26 38 56 47 38 11 39 13 36 52 -3 35 -6 41 -28 43 -14
2 -35 -6 -48 -17z"/>
<path d="M15625 12770 c-48 -20 -125 -120 -125 -163 0 -23 43 -55 92 -68 l48
-13 40 39 c62 60 50 91 -20 55 -39 -20 -43 -20 -66 -5 -13 8 -24 18 -24 21 0
14 25 50 47 67 47 38 53 85 8 67z"/>
<path d="M15874 12554 c-27 -64 -7 -81 65 -59 23 8 24 7 17 -38 -4 -26 -4 -47
1 -47 4 1 25 16 45 34 27 23 39 43 44 72 9 59 -10 74 -92 74 l-65 0 -15 -36z"/>
<path d="M17820 12390 c-64 -8 -95 -22 -110 -50 -13 -23 -8 -26 60 -34 47 -6
64 -3 108 17 65 30 82 45 75 63 -6 15 -40 16 -133 4z"/>
<path d="M16641 12314 c-12 -9 -39 -42 -58 -73 -20 -31 -47 -69 -60 -84 -12
-16 -23 -32 -23 -35 1 -11 72 -42 82 -36 5 3 20 27 33 54 14 27 36 60 50 72
22 21 24 29 19 71 -7 52 -10 54 -43 31z"/>
<path d="M17390 12250 c-6 -11 -22 -23 -36 -26 -35 -9 -44 -33 -33 -83 5 -24
7 -58 3 -76 -5 -27 -1 -38 25 -64 37 -37 41 -38 71 -6 19 20 33 25 71 25 33 0
51 -5 57 -15 10 -20 42 -9 43 14 1 9 0 33 -1 53 -1 32 3 39 32 54 18 9 56 22
83 28 39 9 51 16 53 32 5 32 -33 37 -92 12 -28 -12 -58 -27 -66 -33 -39 -31
-144 -85 -165 -85 -25 0 -55 24 -55 44 0 14 31 44 73 69 35 23 34 31 -9 56
-43 26 -41 26 -54 1z"/>
<path d="M14277 12193 c-20 -36 -1 -211 36 -333 23 -74 282 -486 438 -695 75
-101 178 -197 329 -306 56 -41 146 -106 199 -145 53 -38 139 -99 191 -134 52
-35 124 -87 160 -115 36 -28 119 -90 185 -138 66 -47 158 -114 205 -148 47
-34 144 -101 215 -149 72 -48 159 -112 195 -142 36 -30 97 -77 136 -104 39
-27 109 -77 155 -111 146 -108 192 -138 289 -193 52 -30 111 -67 131 -83 40
-31 166 -97 609 -317 557 -277 561 -279 665 -241 28 10 150 54 272 99 123 45
251 86 285 92 35 6 107 22 160 36 234 59 429 11 602 -147 l79 -72 71 6 c50 4
78 12 96 27 14 11 54 42 90 68 36 26 110 91 165 144 95 93 292 236 450 328 35
20 109 83 175 150 64 63 143 137 175 165 111 92 198 177 257 251 33 41 85 94
116 119 31 24 98 93 147 152 50 59 106 125 125 148 20 22 52 60 72 85 20 25
76 86 124 137 49 50 121 128 159 174 39 45 108 124 155 174 134 144 216 245
330 405 80 113 115 179 135 257 8 32 28 99 44 148 67 212 103 413 67 375 -7
-8 -42 -89 -76 -180 -35 -91 -75 -190 -90 -220 -15 -30 -39 -88 -55 -128 -33
-89 -190 -326 -307 -466 -46 -54 -89 -108 -97 -120 -8 -11 -33 -41 -56 -66
-23 -25 -66 -76 -95 -115 -29 -38 -95 -113 -145 -165 -51 -52 -102 -108 -114
-125 -43 -57 -495 -533 -645 -679 -332 -322 -382 -368 -420 -384 -22 -10 -72
-46 -111 -79 -95 -81 -225 -171 -272 -187 -31 -10 -40 -20 -51 -54 -11 -33
-21 -43 -52 -56 -22 -9 -72 -47 -112 -86 -52 -50 -85 -73 -113 -80 -22 -6 -50
-15 -63 -20 -41 -18 -80 -12 -97 14 -9 14 -41 33 -78 46 -34 13 -78 33 -97 46
-58 39 -308 81 -412 69 -77 -8 -271 -48 -376 -76 -42 -12 -99 -26 -127 -31
-27 -5 -68 -21 -90 -35 -50 -33 -214 -83 -272 -83 -24 0 -57 7 -74 15 -16 9
-52 20 -81 25 -28 6 -63 16 -77 24 -153 83 -292 146 -407 186 -27 10 -81 38
-120 62 -38 25 -115 68 -171 96 -57 29 -133 72 -169 98 -37 25 -94 59 -127 75
-32 17 -77 43 -99 60 -23 16 -46 29 -52 29 -6 0 -47 29 -91 64 -43 36 -108 82
-144 103 -36 21 -79 53 -96 72 -16 19 -60 53 -97 77 -37 24 -85 59 -106 78
-21 19 -72 54 -113 77 -40 23 -89 55 -108 71 -19 17 -64 49 -100 73 -36 23
-114 80 -173 126 -113 88 -203 156 -271 201 -22 15 -52 38 -66 51 -14 13 -64
49 -111 79 -169 109 -403 287 -518 393 -85 79 -229 242 -291 329 -74 104 -199
312 -255 424 -44 87 -89 219 -101 297 -16 96 -33 134 -48 108z"/>
<path d="M16876 12161 c-9 -10 -21 -32 -25 -47 -6 -23 -14 -30 -42 -34 -51 -7
-99 -51 -99 -90 l0 -31 30 16 c16 8 38 15 50 15 35 0 76 27 89 59 7 16 28 44
48 61 33 30 34 33 17 51 -22 24 -46 24 -68 0z"/>
<path d="M19982 12148 c-7 -7 -12 -18 -12 -25 0 -7 -6 -22 -12 -33 -18 -29 -1
-51 59 -75 l50 -20 -5 -40 c-9 -77 -37 -84 -91 -25 -33 35 -52 45 -88 41 -9
-1 -10 -11 -6 -33 7 -34 11 -33 -57 -12 -17 5 -20 2 -20 -24 0 -16 7 -35 15
-42 8 -7 15 -28 15 -47 0 -38 37 -83 69 -83 20 0 41 43 41 87 0 31 37 46 78
31 20 -8 41 -8 63 -2 32 9 34 12 37 59 2 28 10 58 20 68 22 25 29 129 9 145
-11 10 -19 8 -40 -9 -31 -23 -41 -20 -62 22 -16 30 -42 38 -63 17z"/>
<path d="M20568 12139 c-21 -11 -38 -24 -38 -30 0 -26 -33 -20 -60 12 -24 29
-29 32 -35 16 -4 -9 -1 -43 7 -75 12 -50 17 -57 40 -60 19 -2 31 3 40 17 8 13
23 21 40 21 23 0 29 -6 36 -32 8 -31 12 -33 54 -36 33 -2 52 -10 68 -27 27
-29 56 -32 88 -9 38 26 20 78 -19 53 -40 -25 -85 10 -124 98 -30 67 -49 77
-97 52z"/>
<path d="M18537 12030 l-36 -39 -45 16 c-25 10 -49 14 -53 10 -13 -14 22 -121
44 -132 11 -6 28 -17 37 -24 28 -23 46 -6 46 43 0 41 3 47 30 61 40 21 73 74
58 92 -18 23 -45 14 -81 -27z"/>
<path d="M18086 12028 c-8 -13 -22 -53 -32 -91 -13 -54 -14 -70 -4 -82 16 -19
40 -19 67 0 18 13 20 24 19 102 -1 74 -4 88 -18 91 -9 2 -23 -7 -32 -20z"/>
<path d="M20357 11992 c-15 -15 -27 -31 -27 -35 0 -3 12 -27 27 -52 26 -41 30
-45 59 -39 18 3 42 0 54 -6 18 -10 25 -9 37 3 20 19 3 52 -31 61 -14 3 -28 16
-31 29 -7 22 -43 67 -55 67 -3 0 -18 -13 -33 -28z"/>
<path d="M19591 11946 c-20 -23 -3 -118 31 -181 24 -46 34 -55 56 -55 21 0 32
8 46 34 24 46 16 66 -28 66 -43 0 -48 8 -55 84 -6 64 -25 83 -50 52z"/>
<path d="M17520 11930 c-6 -11 -35 -38 -65 -60 -45 -33 -55 -46 -55 -70 0 -39
13 -44 65 -25 24 10 51 15 60 11 26 -10 50 10 65 53 12 36 11 42 -9 75 -25 40
-45 46 -61 16z"/>
<path d="M17288 11924 c-9 -10 -33 -20 -54 -23 -47 -8 -65 -33 -41 -59 32 -35
22 -77 -33 -137 -36 -39 -50 -64 -50 -84 0 -16 -7 -34 -16 -42 -20 -16 -74
-123 -74 -145 0 -22 43 -113 53 -114 18 -1 79 50 95 78 29 52 89 110 135 130
25 11 48 29 51 40 4 13 17 22 34 24 19 2 28 10 30 26 3 21 0 22 -56 22 -44 0
-66 -5 -85 -20 -14 -11 -29 -20 -34 -20 -6 0 -16 25 -23 56 l-14 56 36 31 c19
18 40 44 46 59 7 17 26 34 48 43 34 14 36 18 30 46 -3 17 -6 35 -6 40 0 16
-55 10 -72 -7z"/>
<path d="M19073 11913 c-48 -5 -66 -26 -61 -71 3 -27 4 -27 76 -26 90 0 101 9
76 61 -20 40 -24 42 -91 36z"/>
<path d="M18224 11829 c-4 -7 -8 -26 -10 -43 -2 -17 -11 -48 -20 -68 -20 -44
-42 -49 -81 -18 -28 22 -58 26 -68 9 -12 -19 5 -58 28 -65 34 -10 57 -35 57
-60 0 -20 25 -44 44 -44 3 0 5 20 4 45 -3 55 6 64 40 42 15 -10 41 -25 59 -34
l32 -16 41 41 c41 43 49 69 28 90 -9 9 -15 5 -24 -18 -21 -49 -61 -34 -88 32
-14 33 -14 38 4 61 26 32 25 43 -2 51 -32 8 -36 8 -44 -5z"/>
<path d="M19095 11699 c-5 -6 -21 -8 -41 -4 -21 3 -34 2 -34 -5 0 -5 -16 -28
-36 -50 -37 -40 -38 -50 -18 -122 6 -22 52 -24 79 -4 14 10 18 25 16 71 -2 59
15 95 46 95 15 0 18 16 4 25 -5 3 -13 0 -16 -6z"/>
<path d="M20410 8820 c-30 -10 -66 -21 -80 -24 -50 -12 -57 -22 -31 -50 34
-36 51 -39 119 -21 76 19 126 19 146 -1 9 -8 16 -16 16 -17 0 -23 -32 -142
-41 -153 -7 -9 -39 -29 -70 -45 -32 -16 -61 -34 -64 -40 -10 -15 -243 -188
-280 -206 -16 -9 -57 -35 -90 -58 -95 -67 -112 -73 -287 -94 -211 -26 -213
-27 -186 -70 23 -37 -38 -69 -81 -42 -12 8 -12 13 3 35 25 39 8 41 -141 17
-70 -11 -191 -27 -268 -36 -77 -9 -182 -26 -233 -37 -115 -24 -193 -32 -211
-20 -9 6 -11 19 -8 34 5 18 27 34 89 64 60 28 92 51 117 83 l36 44 -30 -7
c-39 -9 -246 -146 -306 -201 -35 -33 -59 -45 -100 -54 -73 -14 -290 -39 -420
-46 l-105 -7 -133 68 c-74 37 -154 85 -178 106 -34 29 -53 38 -81 38 -22 0
-66 14 -107 34 -39 18 -87 39 -108 47 -20 7 -58 30 -82 50 -32 27 -58 39 -93
44 -58 8 -75 17 -70 39 5 26 115 68 160 61 40 -5 41 -4 50 60 2 13 16 23 45
31 23 7 54 21 70 33 15 11 57 29 93 41 36 12 93 32 127 46 75 29 107 30 207 4
42 -11 81 -18 87 -15 22 14 5 34 -63 75 -67 40 -75 42 -127 37 -58 -6 -287
-84 -376 -129 -260 -129 -408 -220 -532 -327 -38 -32 -94 -79 -125 -103 -147
-115 -264 -220 -501 -456 -436 -434 -415 -412 -383 -412 8 0 34 23 58 51 60
71 217 176 301 200 20 6 41 3 68 -8 27 -10 62 -14 117 -12 66 3 85 8 118 32
30 20 52 27 86 27 59 0 71 -15 63 -75 -6 -39 -4 -51 19 -83 14 -21 50 -59 79
-84 29 -25 92 -97 139 -160 57 -75 98 -120 117 -128 23 -9 34 -22 41 -52 20
-71 397 -467 579 -608 89 -69 262 -225 416 -375 62 -61 105 -114 134 -165 24
-41 56 -94 72 -117 16 -23 29 -47 29 -53 0 -7 16 -45 36 -84 28 -54 39 -90 46
-151 11 -108 23 -138 74 -201 24 -29 44 -59 44 -65 0 -7 -47 -125 -104 -263
-95 -230 -205 -558 -227 -676 -64 -348 -95 -598 -91 -739 2 -92 -2 -125 -19
-180 -14 -46 -23 -112 -29 -221 -5 -85 -13 -195 -19 -245 -15 -131 -24 -505
-13 -540 6 -22 14 -29 28 -27 64 11 68 9 88 -46 17 -49 18 -55 3 -69 -15 -15
-19 -15 -54 10 -26 18 -41 23 -48 16 -6 -6 -10 -158 -10 -442 0 -338 4 -471
18 -612 34 -345 36 -381 42 -595 3 -118 11 -279 17 -357 l11 -143 235 0 c212
0 236 2 248 18 13 16 15 16 28 0 11 -16 31 -18 148 -18 85 0 138 4 145 11 7 7
27 9 55 4 23 -4 467 -9 985 -11 928 -3 943 -3 953 16 14 26 46 26 60 1 10 -19
25 -20 440 -20 237 0 430 3 430 7 0 4 -12 70 -25 147 -14 77 -30 167 -35 200
-5 33 -17 98 -26 145 -9 47 -20 115 -24 151 -4 36 -10 71 -14 78 -5 7 -12 42
-16 78 -10 78 -21 94 -49 69 -19 -17 -20 -17 -35 7 -9 13 -21 51 -26 83 -6 33
-23 142 -40 244 -44 277 -57 310 -123 310 -26 0 -37 16 -37 54 0 27 18 46 42
46 40 0 39 12 -31 350 -66 317 -163 647 -203 690 -10 11 -28 20 -39 20 -27 0
-35 27 -15 49 9 10 16 34 16 53 0 44 -129 427 -212 628 -110 270 -127 303
-171 341 -39 35 -41 40 -47 107 -7 75 -2 63 -252 567 -44 88 -89 182 -100 210
-11 27 -39 90 -64 139 -55 111 -106 268 -102 315 3 32 7 36 47 48 54 16 86 44
116 104 21 40 23 56 18 120 -4 64 -1 84 21 144 15 39 44 117 65 175 21 58 45
120 54 136 9 17 34 80 57 139 36 96 126 307 180 420 116 246 201 436 241 540
114 295 260 580 397 770 29 41 59 93 67 116 20 56 26 62 88 93 29 14 78 48
110 76 79 68 104 65 146 -17 39 -77 24 -120 -50 -144 -71 -24 -89 -67 -45
-108 35 -33 37 -56 10 -97 -28 -40 -28 -61 -1 -78 26 -16 69 34 67 78 -3 50
-2 52 55 117 70 81 100 137 92 171 -7 27 -575 598 -662 666 -67 52 -205 142
-218 142 -5 0 -44 15 -86 34 -80 36 -180 62 -296 75 -38 5 -81 13 -95 19 -20
7 -39 5 -80 -8z m-1215 -974 c13 -19 14 -29 6 -45 -14 -25 -52 -35 -198 -55
-62 -9 -116 -16 -120 -17 -26 -4 -46 5 -77 36 -20 19 -42 35 -51 35 -22 0 -19
27 5 40 14 8 32 8 60 0 74 -20 208 -16 280 7 82 27 77 27 95 -1z m-1644 -74
c35 -29 29 -71 -16 -126 -50 -59 -75 -60 -115 -4 -49 67 -39 96 44 129 54 22
60 22 87 1z m1607 -707 c15 -14 32 -25 39 -25 6 0 15 -5 19 -12 22 -35 -127
-55 -162 -21 -15 16 -20 15 -70 -12 -50 -27 -55 -28 -70 -13 -22 22 -10 55 29
79 41 24 62 24 94 -1 27 -21 55 -15 67 15 8 21 23 19 54 -10z m367 -371 c40
-14 54 -15 83 -4 29 10 37 10 50 -3 22 -23 -1 -47 -43 -47 -68 0 -184 -70
-200 -121 -7 -22 -22 -23 -79 -7 -80 23 -81 51 -3 63 58 10 83 28 97 72 13 40
28 63 39 63 4 0 29 -7 56 -16z m-1859 -152 c16 -11 96 -139 127 -203 41 -84
34 -103 -17 -50 -16 16 -41 35 -56 41 -15 6 -45 36 -65 66 -21 30 -51 64 -68
76 l-30 21 32 29 c31 28 56 34 77 20z m1852 -928 c3 -104 -8 -126 -53 -106
-40 19 -59 56 -46 93 6 18 11 41 11 52 0 31 30 58 59 55 26 -3 26 -5 29 -94z
m-22 -200 c16 -24 16 -26 -2 -44 -24 -24 -154 -44 -200 -31 -18 5 -50 5 -75 0
-81 -15 -154 -11 -180 11 l-24 20 25 20 c23 19 34 20 125 15 171 -10 197 -9
245 14 58 27 66 26 86 -5z m389 -210 c28 -30 51 -125 60 -251 6 -77 5 -82 -17
-97 -31 -22 -71 -20 -94 5 -24 27 -10 49 44 67 23 7 42 20 42 28 0 8 -4 14 -8
14 -5 0 -27 16 -49 35 l-40 34 2 85 c3 114 15 129 60 80z m-501 -26 c22 -35
32 -118 15 -129 -26 -16 -78 -10 -100 12 -18 18 -21 30 -17 71 3 28 12 54 19
59 27 17 68 10 83 -13z m46 -1162 c18 -22 18 -105 0 -116 -23 -15 -63 -12 -88
6 -27 18 -31 84 -6 108 19 20 78 21 94 2z m1078 -149 c20 -23 65 -152 66 -187
1 -32 -2 -35 -30 -38 -24 -2 -42 6 -82 40 -30 25 -52 51 -52 63 0 22 28 103
43 123 12 16 42 16 55 -1z m206 -336 c9 -10 23 -53 30 -95 8 -49 21 -85 34
-99 33 -36 74 -136 67 -164 -4 -17 1 -33 20 -54 41 -49 27 -79 -30 -65 -41 10
-93 136 -115 281 -5 28 -22 79 -39 114 -23 49 -28 69 -20 83 12 23 31 23 53
-1z m-1784 -71 c24 -13 37 -89 21 -119 -10 -17 -21 -21 -65 -21 -40 0 -55 4
-60 16 -8 22 -7 97 2 110 13 22 73 29 102 14z m1735 -421 c33 -5 70 -12 83
-14 34 -8 82 -115 116 -260 16 -66 40 -144 53 -173 13 -29 23 -65 21 -80 -3
-26 -6 -27 -56 -27 -71 1 -98 25 -80 73 11 29 10 33 -10 48 -24 16 -29 53 -11
85 8 15 4 35 -17 87 -14 37 -35 80 -46 95 -16 22 -17 31 -8 42 17 21 5 45 -23
45 -13 0 -38 5 -56 11 -24 9 -39 8 -63 -2 -27 -11 -32 -10 -44 6 -32 43 -2 91
50 80 17 -3 58 -10 91 -16z m-72 -151 c14 -18 28 -53 32 -78 4 -25 13 -60 21
-78 13 -31 12 -35 -12 -59 l-26 -26 -20 20 c-44 44 -66 253 -27 253 4 0 19
-15 32 -32z m-2119 -47 c23 -25 34 -120 15 -132 -16 -10 -90 -12 -113 -3 -22
9 -22 116 0 138 21 22 77 20 98 -3z m1670 -59 c12 -19 36 -161 30 -176 -8 -22
-49 -31 -93 -20 -47 12 -51 36 -10 72 l32 29 -23 33 -23 33 22 18 c24 20 56
25 65 11z m428 -359 c12 -10 18 -30 18 -57 0 -23 7 -59 15 -82 18 -51 10 -80
-22 -89 -14 -3 -27 -4 -29 -3 -2 2 -10 28 -18 58 -8 30 -20 69 -27 86 -11 28
-10 36 10 68 26 41 28 42 53 19z m502 7 c28 -10 34 -37 16 -71 -8 -14 -7 -25
5 -41 8 -13 15 -43 15 -68 0 -25 9 -65 20 -89 11 -24 20 -64 20 -90 0 -33 7
-57 25 -83 14 -20 25 -43 25 -51 0 -23 -36 -27 -72 -8 -30 14 -35 23 -50 91
-10 41 -27 114 -38 162 -15 68 -17 93 -9 117 10 27 8 35 -15 62 -30 36 -31 42
-10 63 18 18 33 20 68 6z m-725 -49 c9 -6 15 -34 17 -86 3 -63 7 -82 25 -101
25 -27 19 -54 -12 -54 -22 0 -23 -3 -3 -97 l6 -33 -50 0 -51 0 -13 41 c-14 50
2 90 42 99 33 8 39 51 11 86 -33 42 -26 155 9 154 3 0 11 -4 19 -9z m-1333
-79 c34 -23 48 -124 18 -136 -34 -13 -94 -6 -114 14 -24 24 -24 30 -6 74 20
48 69 71 102 48z m1820 -39 c33 -35 56 -90 52 -123 -2 -20 -9 -26 -34 -28 -36
-4 -54 14 -78 81 -31 83 7 127 60 70z m-180 -229 c7 -51 -6 -74 -42 -74 -34 0
-73 20 -80 42 -8 26 26 90 56 105 22 11 27 10 42 -7 9 -12 20 -41 24 -66z
m-418 -96 c10 -21 11 -41 3 -80 -7 -42 -6 -59 6 -82 11 -21 13 -43 9 -77 -5
-35 -2 -57 9 -78 18 -37 10 -63 -19 -59 -18 3 -22 12 -26 63 -4 38 -15 74 -30
99 -20 33 -22 42 -12 70 17 45 15 53 -13 90 -30 39 -30 44 -8 68 24 27 65 20
81 -14z m727 -53 c16 -8 48 -15 70 -17 37 -3 41 -6 53 -43 26 -79 50 -289 34
-299 -6 -3 -30 0 -54 9 -24 8 -48 15 -55 15 -14 0 -33 -53 -33 -91 0 -33 5
-35 48 -14 28 15 34 15 62 0 36 -19 47 -40 31 -59 -18 -21 -155 -29 -199 -11
-20 9 -48 13 -62 10 -71 -16 -112 41 -111 154 1 115 -7 195 -23 226 -16 30
-21 90 -10 118 8 21 205 22 249 2z m-2397 -193 c13 -9 32 -64 32 -94 0 -44
-90 -67 -125 -31 -48 47 36 160 93 125z m1980 -347 c18 -4 54 -1 81 6 26 6 60
9 75 5 32 -8 51 -44 42 -80 -7 -30 -36 -34 -76 -11 -34 19 -144 9 -188 -18
-43 -25 -56 -13 -47 46 7 46 32 70 65 62 8 -2 30 -6 48 -10z m762 -189 c40
-26 42 -30 38 -69 -3 -28 1 -54 14 -79 26 -54 23 -64 -28 -94 l-47 -28 -19 24
c-16 20 -19 38 -17 114 1 53 -3 109 -11 133 -7 24 -9 51 -5 60 6 16 8 15 20
-8 8 -14 33 -38 55 -53z m-2164 -42 c10 -14 18 -44 18 -67 1 -42 1 -42 -38
-45 -72 -6 -86 2 -86 54 0 64 13 84 55 84 26 0 39 -6 51 -26z m1904 7 c14 -27
13 -124 -2 -139 -19 -19 -76 -15 -86 6 -26 49 -20 125 11 144 23 15 66 8 77
-11z m-2915 -22 c13 -20 35 -128 29 -143 -7 -18 -39 -26 -76 -19 -73 14 -80
120 -10 157 33 18 49 20 57 5z m2724 -323 c26 -41 51 -49 95 -31 29 12 36 12
55 -1 34 -24 24 -58 -18 -64 -28 -4 -36 -11 -46 -40 -11 -34 -55 -63 -72 -47
-4 4 -10 35 -14 69 -5 43 -13 67 -26 78 -11 8 -35 27 -54 41 -34 26 -34 27
-15 48 l19 20 28 -19 c15 -11 37 -36 48 -54z m-672 -77 c65 -79 87 -86 109
-34 7 19 14 37 14 40 0 3 -18 12 -40 21 -47 19 -52 40 -10 49 47 10 73 -2 67
-33 -3 -15 2 -40 10 -56 18 -35 11 -110 -12 -136 -15 -16 -19 -16 -63 9 -96
52 -150 92 -156 114 -3 12 -19 30 -36 39 -33 19 -32 44 4 57 35 13 55 1 113
-70z m1064 0 c4 -13 7 -41 8 -62 1 -21 6 -48 12 -60 7 -12 14 -51 16 -87 7
-124 10 -145 28 -216 24 -90 18 -107 -32 -98 -84 15 -109 45 -81 97 16 31 39
190 28 201 -5 5 -22 4 -40 -4 -44 -18 -58 -2 -41 46 7 19 11 36 9 38 -1 1 -19
9 -40 18 -44 21 -57 52 -32 79 18 20 37 21 76 4 13 -5 22 3 38 35 23 45 40 48
51 9z m-631 -157 c31 -26 34 -34 34 -83 l1 -54 -40 0 c-48 0 -65 25 -65 101 0
74 14 82 70 36z"/>
<path d="M20841 1823 c-13 -25 2 -161 23 -205 18 -38 55 -58 105 -58 21 0 29
8 45 46 18 45 18 47 0 92 -15 37 -26 47 -51 54 -24 6 -34 16 -39 36 -4 15 -11
33 -17 40 -14 18 -55 15 -66 -5z"/>
<path d="M19780 8630 c-323 -112 -458 -173 -447 -203 7 -19 40 -10 158 43 123
56 151 59 210 29 49 -24 64 -21 72 18 7 35 32 48 121 64 78 13 92 22 116 77
l19 42 -27 -1 c-15 -1 -115 -31 -222 -69z"/>
<path d="M22261 7478 c1 -43 42 -107 113 -179 87 -88 153 -132 188 -127 38 5
26 31 -32 70 -30 20 -71 57 -90 81 -32 41 -164 167 -175 167 -3 0 -5 -6 -4
-12z"/>
<path d="M23019 3464 c-16 -19 -16 -34 -23 -854 -3 -366 -10 -788 -16 -939 -5
-151 -8 -277 -6 -280 2 -3 7 -186 11 -406 3 -220 10 -488 15 -595 6 -107 10
-239 10 -292 l0 -98 43 0 44 0 7 213 c7 203 14 315 35 567 5 63 10 176 10 250
1 74 6 151 12 170 6 20 11 101 10 186 -1 84 6 218 14 298 15 151 11 191 -20
202 -39 15 -47 -16 -60 -226 -8 -115 -12 -130 -35 -130 -38 0 -42 31 -41 314
0 149 0 296 0 326 0 30 4 195 10 365 5 171 9 324 9 340 1 17 4 109 8 205 4 96
5 195 4 220 -2 25 -3 75 -4 113 -1 69 -11 82 -37 51z"/>
<path d="M14247 1523 c-4 -3 -7 -22 -7 -41 0 -23 -7 -40 -22 -52 -19 -15 -21
-22 -12 -46 8 -24 15 -29 44 -29 32 0 35 -2 34 -30 -2 -57 -22 -126 -42 -148
-14 -16 -18 -31 -15 -54 3 -20 -1 -40 -11 -55 -22 -31 -20 -43 8 -56 30 -13
38 -57 38 -202 1 -196 -3 -255 -16 -285 -8 -16 -19 -47 -25 -67 -11 -33 -10
-39 12 -61 29 -28 42 -101 32 -171 -8 -50 -16 -60 -57 -70 -36 -8 -35 -28 2
-66 28 -29 29 -33 15 -53 -8 -12 -15 -25 -15 -29 0 -5 30 -8 67 -8 l66 0 -6
741 -5 741 -23 24 c-22 23 -49 31 -62 17z"/>
</g>
</svg>
