<?xml version="1.0" standalone="no"?>
<!DOCTYPE svg PUBLIC "-//W3C//DTD SVG 20010904//EN"
 "http://www.w3.org/TR/2001/REC-SVG-20010904/DTD/svg10.dtd">
<svg version="1.0" xmlns="http://www.w3.org/2000/svg"
 width="3696.000000pt" height="3312.000000pt" viewBox="0 0 3696.000000 3312.000000"
 preserveAspectRatio="xMidYMid meet">
<metadata>
Created by potrace 1.15, written by Peter Selinger 2001-2017
</metadata>
<g transform="translate(0.000000,3312.000000) scale(0.100000,-0.100000)"
fill="#000000" stroke="none">
<path d="M21041 31298 c-6 -13 -19 -45 -30 -72 -12 -27 -21 -57 -21 -68 0 -24
-39 -140 -51 -152 -10 -11 -95 -27 -160 -30 -26 -1 -53 -7 -60 -13 -25 -19
-101 -13 -148 13 l-45 25 -63 -31 c-34 -17 -77 -48 -96 -70 -19 -22 -49 -45
-68 -51 -19 -7 -43 -19 -54 -29 -11 -9 -45 -27 -76 -39 -37 -14 -61 -31 -70
-48 -16 -30 -80 -62 -125 -63 -17 0 -37 -7 -45 -16 -7 -8 -30 -24 -50 -35 -58
-29 -125 -25 -250 18 l-109 37 -28 -27 c-31 -30 -79 -36 -88 -12 -9 21 -42 19
-49 -4 -9 -31 -32 -44 -93 -54 -82 -13 -242 -15 -278 -4 -48 15 -200 -6 -228
-32 -28 -27 -46 -27 -46 -1 0 34 -28 35 -63 3 -73 -68 -87 -74 -143 -67 -41 5
-62 2 -99 -15 -26 -12 -56 -21 -65 -21 -10 0 -27 -16 -38 -34 -21 -35 -76 -76
-144 -107 -21 -10 -47 -34 -61 -56 -19 -30 -45 -49 -108 -82 -78 -40 -87 -42
-139 -36 -77 9 -104 -4 -135 -65 -29 -57 -61 -80 -152 -111 -35 -11 -65 -25
-69 -30 -3 -5 -33 -22 -67 -38 -34 -15 -80 -40 -102 -55 -21 -15 -66 -40 -100
-56 -34 -17 -72 -44 -88 -65 -15 -19 -45 -44 -67 -55 -24 -12 -47 -35 -62 -62
-23 -41 -36 -50 -102 -63 -16 -4 -56 -32 -91 -66 -42 -40 -78 -64 -111 -76
-27 -9 -68 -29 -92 -45 -24 -15 -62 -38 -85 -50 -23 -11 -62 -42 -87 -67 -29
-30 -60 -51 -88 -59 -25 -8 -66 -34 -98 -63 -77 -70 -208 -129 -285 -129 -56
0 -59 -2 -113 -52 -38 -36 -74 -60 -113 -73 -51 -18 -61 -26 -83 -68 -14 -26
-77 -98 -145 -165 -66 -65 -158 -164 -205 -219 -73 -85 -100 -109 -195 -168
-77 -49 -138 -97 -207 -167 -54 -54 -122 -115 -152 -137 -65 -48 -106 -114
-106 -170 0 -33 -4 -41 -22 -46 -64 -18 -80 -30 -115 -89 -39 -66 -83 -126
-120 -166 -70 -76 -113 -130 -138 -175 -16 -27 -41 -63 -56 -80 -37 -41 -89
-192 -100 -290 -5 -44 -13 -120 -18 -170 -13 -116 -22 -145 -62 -195 l-33 -41
1 -128 2 -128 -28 -25 c-24 -22 -29 -35 -35 -103 -5 -55 -4 -81 5 -92 20 -23
11 -79 -22 -141 -22 -43 -31 -77 -36 -132 -3 -45 -16 -99 -30 -134 -14 -33
-28 -95 -33 -140 -8 -76 -22 -143 -56 -263 -12 -42 -13 -74 -5 -175 9 -101 8
-127 -4 -151 -11 -21 -13 -49 -8 -107 5 -72 4 -83 -21 -131 -27 -50 -27 -56
-22 -163 3 -61 7 -124 8 -141 0 -16 -2 -52 -7 -78 -7 -45 -6 -51 30 -102 24
-35 35 -61 31 -71 -4 -10 -9 -65 -12 -123 -3 -81 -1 -117 11 -150 8 -24 15
-64 15 -90 1 -25 7 -57 15 -71 21 -37 19 -118 -5 -163 -25 -46 -25 -81 -2
-115 33 -47 35 -63 42 -277 5 -162 11 -219 23 -247 13 -29 17 -70 17 -187 0
-82 5 -162 11 -178 9 -23 17 -113 33 -358 7 -93 22 -143 53 -172 25 -24 31
-38 36 -93 6 -59 10 -68 46 -100 43 -39 56 -73 66 -170 4 -51 2 -72 -12 -99
-17 -32 -26 -37 -143 -73 -69 -21 -151 -45 -182 -54 -47 -13 -78 -32 -168
-107 l-109 -92 -51 -112 c-75 -164 -88 -256 -96 -680 -4 -201 -2 -297 6 -335
7 -29 15 -80 20 -113 9 -75 49 -211 152 -525 44 -135 98 -306 118 -380 21 -74
57 -198 80 -275 23 -77 49 -165 57 -195 8 -30 27 -81 42 -115 15 -33 35 -90
45 -127 21 -79 54 -121 42 -53 -4 22 -16 60 -26 85 -10 25 -39 117 -65 205
-25 88 -62 207 -80 265 -18 58 -43 137 -54 175 -35 121 -67 223 -145 465 -79
243 -121 399 -150 556 -18 100 -21 412 -5 579 5 50 13 140 19 200 12 122 34
200 83 290 26 48 47 70 112 117 59 41 79 62 77 76 -4 28 102 66 188 68 36 0
88 8 115 16 29 8 77 13 115 11 36 -2 82 -4 102 -4 31 0 40 -5 57 -35 20 -34
22 -35 66 -28 50 7 75 -5 75 -38 0 -28 87 -116 126 -127 18 -5 53 -24 78 -41
33 -24 52 -31 73 -27 15 3 50 0 78 -6 47 -10 55 -8 102 17 41 23 85 68 130
135 1 2 17 -6 36 -18 45 -27 63 -27 83 4 19 28 16 54 -8 69 -13 8 -29 5 -67
-11 -50 -21 -50 -21 -68 -1 -34 38 -110 11 -211 -74 -18 -15 -43 -28 -56 -28
-29 0 -150 63 -194 101 -18 16 -37 29 -42 29 -5 0 -10 28 -12 62 -3 59 -5 64
-38 85 -19 12 -47 32 -63 43 -35 28 -57 20 -57 -20 0 -35 -15 -70 -30 -70 -22
0 -80 46 -80 63 0 11 23 40 50 67 28 27 50 56 49 67 -4 68 -40 94 -49 35 -3
-18 -9 -33 -15 -33 -13 -1 -34 60 -45 130 -5 29 -16 63 -25 75 -56 75 -65 91
-65 111 0 11 -13 39 -29 61 -76 102 -86 290 -22 407 20 37 31 70 29 90 -1 18
6 44 16 59 24 37 11 111 -21 116 -13 2 -30 -5 -40 -17 -9 -12 -28 -21 -40 -21
-19 0 -23 6 -23 28 0 16 7 37 15 48 14 18 14 18 15 -6 0 -14 4 -20 8 -14 4 5
21 16 39 23 43 18 49 39 18 71 -15 15 -23 33 -20 42 3 8 -3 26 -14 39 l-20 24
-1 -45 c-1 -44 -1 -45 -15 -20 -8 14 -14 34 -15 45 0 11 -6 29 -14 40 -19 29
-10 385 10 385 10 0 13 16 12 63 -1 55 -4 65 -31 90 -27 26 -29 32 -23 73 4
32 0 62 -14 104 -25 74 -25 90 0 90 23 0 40 -28 40 -68 0 -44 26 -49 51 -9 15
25 18 42 13 77 -7 56 -17 68 -57 72 -24 2 -32 8 -32 23 0 17 8 21 50 25 43 4
50 8 53 28 2 13 -7 40 -22 60 -16 23 -26 54 -28 82 l-3 45 39 -1 c47 -2 73
-27 81 -82 3 -20 16 -67 28 -104 l21 -67 -28 -30 c-26 -27 -27 -32 -16 -65 16
-48 26 -52 44 -18 13 25 34 42 52 42 2 0 4 -13 4 -29 0 -16 7 -34 15 -41 13
-11 21 -10 43 7 35 26 40 67 13 104 -12 16 -21 37 -21 48 0 28 63 65 96 57 35
-9 57 10 43 35 -11 21 -52 25 -95 9 -48 -19 -85 11 -68 55 5 12 15 16 38 12
69 -10 109 43 66 88 -20 21 -23 36 -25 117 -1 78 2 98 18 121 17 25 24 28 52
23 40 -8 47 9 32 82 -13 64 -2 106 32 110 36 6 61 -24 61 -75 0 -34 6 -50 30
-75 17 -17 30 -35 30 -39 0 -14 40 -30 60 -24 10 3 24 22 31 42 11 34 13 35
48 28 72 -14 76 -13 73 20 -6 62 3 125 29 228 13 48 47 71 94 63 47 -9 68 -32
61 -68 -4 -23 1 -36 28 -66 18 -20 41 -51 51 -69 21 -36 43 -49 58 -34 14 14
-18 126 -48 171 -17 25 -25 56 -30 112 -6 68 -11 80 -36 102 -23 21 -29 35
-29 66 0 21 -5 61 -10 88 -7 30 -7 57 -2 73 7 17 5 32 -5 52 -12 24 -12 38 -3
80 15 65 29 87 69 110 29 17 32 17 37 2 4 -9 -1 -32 -10 -51 -22 -46 -20 -61
7 -75 35 -19 38 -29 31 -116 -6 -72 -4 -87 16 -128 18 -36 24 -70 28 -158 l5
-111 44 -42 c33 -32 43 -50 43 -74 0 -47 28 -99 58 -107 37 -9 57 8 60 55 4
50 -19 98 -59 120 -16 10 -29 24 -29 32 0 8 -9 28 -19 44 -18 26 -18 32 -5 69
20 56 32 61 71 26 18 -16 46 -35 62 -43 32 -17 41 -34 41 -76 0 -15 13 -56 30
-91 31 -67 38 -138 24 -228 l-6 -45 26 29 c15 16 24 35 21 42 -2 8 2 27 10 43
20 39 19 78 -4 126 -26 52 -61 154 -61 175 0 9 -8 27 -19 40 -17 23 -24 44
-38 129 -3 19 -17 52 -31 73 l-25 38 21 22 c13 14 22 36 22 54 0 35 23 65 43
57 7 -2 28 -30 47 -60 l34 -56 -24 -44 c-29 -52 -20 -71 25 -54 16 6 40 10 54
8 26 -3 26 -2 26 61 0 67 3 71 58 91 22 8 27 15 27 44 0 23 9 45 26 66 21 25
27 43 30 93 1 34 3 65 3 69 1 4 18 12 39 17 34 10 39 15 50 58 7 27 16 68 21
93 4 25 19 70 34 101 15 31 27 62 27 70 1 27 39 99 57 106 39 14 44 24 26 54
-14 23 -15 32 -5 55 10 21 18 25 38 21 27 -5 28 1 9 45 -5 12 1 25 19 41 15
14 26 35 26 49 0 41 33 62 108 66 37 2 71 8 76 13 5 4 2 19 -8 34 -26 39 -17
67 27 88 21 9 43 29 49 42 14 30 25 31 54 4 34 -32 47 -16 39 48 -6 49 -4 57
21 91 47 62 84 92 114 92 25 0 28 -4 34 -50 6 -45 11 -53 46 -75 57 -36 52
-78 -10 -87 -22 -3 -25 -8 -23 -38 0 -19 4 -47 8 -62 5 -20 1 -35 -14 -57 -27
-38 -27 -67 1 -82 20 -11 27 -7 70 42 31 34 46 59 42 69 -36 85 -39 101 -22
111 32 18 40 45 27 89 -11 38 -11 41 14 64 22 20 26 31 21 56 -8 38 36 107 75
117 37 8 51 22 51 49 0 14 15 41 34 61 42 47 85 49 145 10 45 -30 53 -58 23
-79 -34 -24 -44 -55 -32 -93 10 -30 8 -42 -15 -94 -15 -33 -38 -70 -51 -82
-38 -36 -32 -52 19 -44 50 9 67 20 67 47 0 11 12 40 27 66 15 26 30 67 33 92
5 41 8 45 35 50 22 4 31 11 33 28 3 16 15 29 40 39 20 8 50 26 65 39 25 21 36
24 76 18 45 -6 49 -4 75 26 15 18 33 47 40 65 8 18 19 36 25 40 7 4 53 8 103
10 90 4 92 4 124 39 29 31 39 36 78 36 36 0 50 -5 69 -25 22 -25 25 -25 53
-10 36 19 76 12 127 -22 25 -18 37 -33 37 -49 0 -29 -9 -30 -62 -3 -55 28 -72
11 -30 -30 34 -35 68 -40 88 -13 9 12 26 17 63 16 64 -1 67 17 10 46 -31 16
-40 26 -37 43 4 29 43 34 71 9 12 -10 39 -29 59 -41 41 -25 81 -22 126 7 15
10 52 15 110 17 48 1 100 7 115 13 39 17 54 15 77 -8 19 -19 33 -20 198 -20
203 0 234 9 289 76 64 77 59 74 95 64 18 -6 43 -23 56 -40 l24 -30 20 25 c23
30 54 32 82 6 25 -23 106 -39 106 -21 0 7 -9 23 -20 37 -11 14 -20 32 -20 39
0 23 35 35 68 23 22 -7 36 -7 51 0 48 26 80 14 152 -56 38 -36 69 -75 69 -85
0 -13 -15 -25 -46 -38 -33 -14 -45 -25 -42 -37 5 -27 52 -28 99 -1 l41 23 38
-22 c44 -26 55 -21 35 18 -36 69 -15 89 91 89 74 0 84 -2 98 -22 9 -12 16 -30
16 -40 0 -10 12 -24 28 -32 15 -8 38 -26 51 -40 33 -35 50 -33 91 9 20 21 44
35 58 35 30 0 106 -43 152 -86 32 -30 91 -54 133 -54 27 0 20 33 -13 62 -36
31 -38 58 -8 101 29 44 47 57 79 57 34 0 52 -21 58 -73 5 -35 11 -44 39 -56
30 -14 32 -18 32 -62 0 -71 -6 -79 -56 -79 -49 0 -54 -8 -24 -35 11 -10 25
-36 31 -57 15 -59 41 -48 54 22 16 86 16 86 120 68 15 -2 20 4 25 34 4 20 12
44 19 52 26 31 100 66 139 66 23 0 49 8 63 19 15 11 50 21 90 25 63 7 67 6
117 -28 28 -20 62 -36 74 -36 28 0 87 -16 108 -30 13 -8 12 -13 -3 -40 -11
-17 -16 -37 -13 -45 7 -19 79 -55 111 -55 14 0 39 -9 54 -21 31 -23 76 -22 76
1 0 8 -19 24 -42 34 -50 22 -72 66 -47 91 9 8 19 15 24 15 23 0 67 -24 102
-55 27 -25 48 -35 71 -35 32 0 83 -41 145 -115 16 -20 27 -25 40 -19 9 5 53
10 97 12 66 3 84 8 108 28 52 44 116 22 175 -60 49 -68 84 -89 138 -83 28 3
47 0 54 -8 13 -15 3 -25 -26 -25 -25 0 -54 -34 -54 -62 0 -12 8 -17 28 -17 15
1 40 -3 56 -7 31 -7 46 6 46 42 0 49 65 36 98 -20 21 -36 66 -56 126 -56 29 0
30 2 15 60 -10 37 154 7 203 -36 27 -25 23 -38 -23 -78 -23 -19 -38 -39 -34
-45 9 -15 25 -14 44 3 9 8 30 17 47 20 40 9 65 -18 72 -79 6 -56 26 -55 30 2
3 34 -1 44 -25 64 -37 31 -44 44 -37 63 4 11 19 16 45 16 21 0 57 7 79 16 35
14 47 15 87 3 26 -7 64 -28 85 -47 l38 -34 45 41 c43 40 48 42 90 36 38 -6 48
-3 79 20 28 22 48 27 98 29 35 2 71 6 80 10 13 6 25 0 45 -23 19 -21 37 -31
57 -31 19 0 39 -10 60 -33 17 -17 43 -40 58 -49 15 -10 35 -34 44 -53 22 -47
54 -71 118 -89 29 -9 64 -24 77 -34 13 -11 35 -23 49 -27 37 -11 80 -54 100
-102 12 -25 27 -44 42 -48 64 -20 97 -72 66 -103 -9 -9 -9 -18 0 -37 15 -33
31 -32 43 5 13 37 28 38 67 5 45 -38 63 -91 49 -144 l-12 -44 49 -43 c43 -38
51 -50 61 -101 11 -56 13 -59 55 -74 59 -22 90 -60 90 -109 0 -25 9 -52 24
-74 13 -20 27 -51 30 -71 4 -19 20 -63 36 -98 21 -44 30 -77 30 -114 0 -41 8
-66 34 -115 42 -76 96 -233 96 -279 0 -19 -10 -53 -22 -75 -20 -38 -20 -44 -8
-75 8 -18 27 -47 42 -65 23 -26 29 -44 33 -95 8 -104 15 -135 41 -170 15 -21
24 -46 24 -71 0 -20 9 -52 20 -70 15 -26 20 -51 20 -111 0 -43 5 -88 11 -99 6
-11 13 -39 15 -60 3 -28 12 -46 29 -60 32 -25 31 -43 0 -89 -34 -47 -41 -98
-25 -165 10 -42 11 -66 2 -102 -8 -36 -7 -66 3 -124 11 -64 11 -86 0 -127 -15
-58 -6 -404 19 -704 8 -98 12 -185 9 -193 -3 -8 -18 -14 -37 -14 -35 0 -252
36 -307 50 -20 6 -74 14 -120 19 -111 12 -225 27 -389 51 -243 36 -264 38
-315 33 -28 -3 -127 5 -220 17 -191 25 -394 24 -580 -5 -55 -8 -126 -15 -157
-15 -131 0 -514 -66 -668 -115 -41 -13 -115 -36 -165 -50 -49 -15 -120 -42
-158 -61 -37 -19 -91 -44 -120 -55 -60 -23 -223 -130 -293 -192 -26 -23 -62
-65 -81 -94 -48 -76 -83 -79 -237 -23 -77 28 -171 25 -171 -5 0 -25 31 -32
152 -34 90 -1 93 -2 107 -29 20 -39 46 -60 80 -64 35 -4 51 -26 43 -60 -10
-38 -31 -41 -95 -14 -80 33 -145 53 -232 72 -96 20 -317 20 -407 -1 -35 -8
-81 -15 -102 -15 -42 0 -72 -23 -53 -42 10 -10 25 -10 187 11 135 17 324 -4
460 -51 17 -6 54 -14 83 -17 29 -4 60 -14 68 -23 10 -9 20 -48 27 -96 9 -72 8
-86 -11 -138 -11 -33 -23 -79 -27 -104 -8 -56 -19 -70 -61 -70 -19 0 -34 -1
-34 -2 2 -36 43 -193 54 -210 9 -12 16 -31 16 -41 0 -10 18 -48 40 -84 43 -72
55 -104 65 -175 4 -31 20 -68 47 -109 30 -44 42 -75 46 -109 3 -31 13 -57 28
-75 13 -16 29 -46 34 -67 6 -21 26 -65 45 -96 19 -32 43 -83 55 -113 12 -30
42 -80 67 -112 24 -32 49 -73 54 -92 11 -39 21 -42 73 -20 22 9 47 13 63 8 16
-3 70 -49 128 -108 196 -197 407 -321 685 -401 164 -47 195 -53 365 -75 145
-18 424 -23 528 -10 50 7 144 19 207 27 279 37 613 162 780 292 82 64 119 106
199 224 54 79 201 379 201 409 0 9 9 42 20 75 41 118 100 350 135 527 20 100
49 238 65 307 16 69 36 163 45 210 25 130 66 219 129 278 29 28 76 62 104 76
28 14 67 42 86 62 31 32 36 44 37 88 1 81 20 130 50 134 29 3 51 -18 68 -67
16 -49 14 -55 -20 -89 -37 -36 -32 -47 26 -72 51 -22 74 -57 109 -168 36 -116
36 -247 -3 -842 -11 -154 -21 -228 -39 -272 -8 -20 -8 -36 -1 -55 13 -35 5
-89 -31 -204 -29 -94 -51 -129 -80 -129 -32 0 -42 25 -35 92 6 64 15 209 20
331 1 45 8 73 19 85 26 30 19 35 -18 13 -56 -35 -68 -23 -41 42 6 13 2 17 -18
17 -31 0 -57 24 -57 53 0 12 -11 39 -25 59 -28 41 -34 114 -13 147 10 16 7 23
-16 43 -20 17 -28 33 -28 54 1 41 -16 91 -33 98 -9 3 -22 -5 -31 -20 -15 -22
-15 -28 -1 -67 11 -29 15 -59 11 -97 -5 -51 -3 -59 30 -110 20 -30 36 -63 36
-75 1 -123 10 -178 34 -219 16 -28 26 -60 26 -85 0 -22 11 -73 24 -114 14 -40
28 -104 32 -142 4 -42 17 -89 31 -118 22 -45 24 -56 18 -140 -6 -78 -29 -201
-74 -392 -6 -22 -15 -100 -20 -172 -11 -141 -21 -173 -84 -261 l-31 -43 23
-42 c22 -41 22 -43 7 -134 -8 -51 -20 -101 -26 -112 -5 -11 -13 -48 -16 -83
-4 -41 -22 -98 -49 -163 -24 -55 -50 -133 -60 -173 -23 -98 -50 -137 -96 -137
-31 0 -34 -2 -31 -28 2 -15 -6 -44 -17 -65 -11 -20 -34 -75 -51 -122 -17 -47
-51 -116 -77 -153 -59 -87 -63 -132 -18 -198 l30 -44 1 -205 c0 -113 4 -220 8
-237 6 -23 3 -45 -8 -73 -9 -22 -16 -69 -16 -103 0 -35 -6 -83 -14 -108 -8
-24 -17 -87 -19 -140 -3 -61 -11 -108 -22 -128 -40 -78 -78 -207 -79 -271 -1
-50 -6 -72 -24 -97 -12 -17 -22 -46 -22 -65 0 -18 -10 -48 -23 -67 -38 -59
-47 -76 -47 -92 0 -25 -39 -131 -54 -148 -8 -9 -29 -54 -47 -101 -18 -47 -37
-88 -43 -92 -14 -10 -33 1 -39 23 -6 21 -35 26 -43 6 -2 -7 2 -32 11 -56 8
-24 15 -54 15 -68 0 -24 -4 -27 -53 -38 -40 -8 -34 -48 8 -55 23 -4 31 -11 33
-30 2 -19 -9 -34 -45 -66 -26 -22 -58 -46 -71 -53 -20 -11 -22 -17 -16 -60 6
-45 -19 -154 -58 -253 -17 -44 -49 -37 -100 23 -41 49 -75 75 -84 66 -10 -10
41 -105 72 -134 38 -36 42 -59 16 -94 -10 -13 -24 -38 -31 -56 -7 -17 -21 -39
-32 -49 -12 -10 -19 -30 -19 -51 0 -47 -23 -97 -67 -147 -21 -24 -43 -54 -49
-67 -29 -62 -54 -129 -69 -182 -13 -47 -21 -60 -43 -67 -49 -18 -57 -27 -64
-71 -3 -24 -13 -57 -21 -73 -9 -17 -13 -41 -10 -61 3 -19 0 -35 -6 -40 -19
-11 -41 15 -47 57 -4 21 -10 41 -15 44 -15 9 -48 -20 -65 -58 -16 -36 -16 -41
-1 -74 22 -45 21 -56 -3 -104 -23 -45 -45 -60 -90 -60 -25 0 -33 -6 -47 -35
-13 -28 -14 -39 -5 -60 22 -48 15 -73 -27 -100 -42 -26 -61 -67 -61 -131 0
-47 -18 -63 -75 -65 -27 -1 -62 3 -77 9 -23 10 -28 8 -33 -9 -4 -11 -4 -33 0
-49 6 -26 -15 -84 -64 -179 -4 -8 -26 -20 -49 -27 -56 -16 -72 -31 -72 -65 0
-27 3 -29 40 -29 47 0 55 -12 63 -94 4 -41 14 -71 34 -100 26 -38 28 -49 31
-161 3 -120 3 -120 -27 -165 -17 -25 -38 -70 -47 -100 -31 -102 -82 -192 -148
-264 -69 -73 -77 -75 -153 -51 -23 7 -39 -6 -100 -83 -10 -13 -43 -32 -73 -42
-57 -20 -66 -36 -46 -82 12 -27 -27 -58 -74 -58 -33 0 -42 -4 -54 -28 -18 -36
-83 -95 -133 -121 -21 -11 -54 -34 -73 -50 -32 -27 -34 -32 -22 -51 16 -26 7
-57 -18 -65 -27 -9 -40 2 -40 31 0 19 -5 25 -17 22 -14 -3 -17 -12 -16 -38 2
-30 -5 -44 -53 -95 -58 -64 -57 -64 -89 -10 -13 22 -50 13 -65 -16 -15 -27 4
-59 35 -59 29 0 32 -12 9 -31 -12 -10 -20 -10 -35 -1 -10 7 -33 12 -50 12 -30
0 -31 -1 -26 -34 9 -53 -40 -89 -63 -46 -8 15 -21 20 -50 20 -48 0 -50 -10
-10 -43 36 -31 39 -65 8 -94 -31 -29 -116 -73 -141 -73 -14 0 -17 -4 -12 -17
28 -67 29 -71 15 -88 -7 -9 -25 -15 -39 -15 -45 3 -49 1 -55 -35 -7 -36 -35
-64 -85 -85 -20 -8 -41 -31 -61 -67 -21 -37 -41 -59 -63 -68 -18 -8 -60 -46
-95 -85 -43 -48 -71 -70 -86 -70 -17 0 -28 -10 -41 -39 -30 -68 -105 -121
-169 -121 -16 0 -30 -8 -37 -21 -11 -21 -55 -83 -100 -142 -24 -32 -102 -91
-165 -126 -30 -17 -48 -37 -64 -72 -16 -34 -32 -51 -52 -58 -15 -6 -32 -21
-37 -33 -11 -30 -29 -45 -64 -53 -15 -4 -41 -24 -57 -45 -17 -21 -46 -44 -65
-50 -21 -7 -41 -24 -54 -46 -12 -20 -28 -34 -39 -34 -11 0 -31 -9 -45 -20 -36
-29 -64 -25 -82 10 -15 30 -38 39 -50 20 -11 -18 -41 -11 -65 15 -14 15 -40
28 -63 32 -37 6 -98 47 -155 105 -32 33 -41 41 -97 93 -49 46 -51 47 -100 41
-60 -7 -72 -1 -90 50 -11 33 -17 39 -38 36 -19 -2 -29 5 -45 33 -23 38 -38 46
-122 65 -67 15 -95 31 -112 67 -10 20 -29 32 -84 50 -66 22 -72 27 -90 66 -18
39 -22 42 -59 43 -22 0 -46 2 -52 2 -16 2 -17 46 -2 73 24 45 -37 66 -84 29
-31 -25 -37 -25 -117 3 -66 23 -67 24 -86 95 -3 9 -14 11 -38 6 -71 -13 -133
27 -156 101 -18 58 -20 60 -41 26 -24 -39 -53 -40 -69 -2 -13 32 -36 42 -83
34 -24 -3 -42 2 -70 21 -20 14 -64 32 -97 39 -38 9 -72 25 -94 45 -19 16 -45
33 -58 37 -13 4 -37 21 -54 37 -27 25 -44 31 -108 38 -79 9 -104 18 -148 55
-15 12 -44 26 -64 30 -21 4 -57 17 -79 31 -47 27 -156 64 -191 64 -12 0 -36
11 -53 25 -16 14 -62 37 -101 50 -40 13 -95 35 -123 48 -29 14 -86 40 -127 59
-41 20 -91 38 -111 42 -19 3 -51 17 -69 31 -22 16 -47 25 -71 25 -76 0 -380
106 -444 154 -25 20 -52 36 -58 36 -7 1 -30 9 -52 20 -22 11 -61 19 -86 20
-27 0 -70 10 -102 25 -50 21 -56 28 -59 57 -2 26 -8 34 -28 38 -14 3 -36 12
-50 20 -14 9 -34 20 -45 26 -25 13 -77 113 -71 137 4 17 0 18 -30 13 -28 -6
-41 -2 -70 20 -31 24 -35 32 -30 57 8 39 -14 73 -54 82 -28 6 -70 50 -70 74 0
5 -15 21 -34 36 -18 14 -41 43 -51 66 -11 24 -35 51 -59 67 -23 15 -49 43 -58
62 -10 18 -29 43 -42 54 -14 12 -39 48 -55 82 -16 33 -37 66 -45 73 -9 7 -19
29 -22 49 -8 42 -48 125 -56 117 -10 -10 -48 108 -69 215 -16 83 -20 133 -17
244 3 126 1 141 -14 144 -12 2 -19 -4 -22 -20 -2 -13 -9 -52 -16 -88 -7 -36
-14 -108 -17 -160 -5 -103 -5 -102 94 -440 65 -221 130 -325 348 -560 39 -42
110 -123 159 -180 125 -147 185 -209 226 -230 19 -10 59 -39 89 -64 79 -65
183 -106 290 -113 77 -5 93 -9 151 -43 36 -21 146 -69 245 -105 99 -37 243
-94 320 -127 77 -33 210 -89 295 -124 85 -34 189 -77 230 -95 41 -17 118 -48
170 -69 335 -133 778 -343 1133 -536 337 -184 454 -253 461 -270 3 -8 10 -12
16 -9 5 3 10 1 10 -5 0 -6 4 -9 9 -6 5 4 11 2 13 -3 4 -14 64 -55 123 -87 28
-14 58 -33 67 -41 10 -9 29 -17 42 -18 27 -3 69 -29 61 -37 -3 -2 1 -5 7 -5
18 0 132 -69 198 -119 30 -22 73 -51 95 -63 22 -11 79 -49 127 -84 47 -34 114
-78 149 -97 34 -19 109 -65 166 -103 57 -37 114 -67 127 -67 29 0 38 8 123
110 85 102 473 486 628 622 61 53 142 124 180 159 39 34 90 78 115 97 25 20
86 75 135 122 50 47 135 121 189 165 55 44 136 112 180 150 127 112 203 176
285 238 65 51 80 58 107 54 22 -4 37 -1 45 9 9 11 8 14 -5 14 -45 0 18 62 128
126 44 25 108 64 140 85 33 22 65 39 71 39 18 0 112 66 166 116 28 25 64 47
89 54 27 7 55 25 79 51 40 43 130 111 176 133 17 8 48 18 70 23 l40 8 0 79 0
79 45 32 c102 72 226 409 200 543 -12 63 -54 180 -96 263 -19 37 -34 79 -34
94 0 37 27 92 59 116 14 11 50 43 79 70 51 47 52 50 52 105 0 50 4 61 34 95
19 21 40 57 46 81 13 48 35 78 58 78 30 0 91 78 108 138 9 31 42 101 73 155
44 78 64 103 93 118 31 16 40 28 52 70 9 28 29 66 46 85 16 19 33 47 36 62 4
15 22 63 41 107 31 73 39 83 81 105 l47 25 5 75 c4 58 12 87 35 128 17 30 38
68 47 85 10 18 18 42 18 54 0 12 20 45 45 73 53 59 65 82 96 175 12 39 35 84
50 102 15 17 30 46 34 65 3 18 15 56 25 83 11 28 22 62 25 77 3 15 19 44 37
63 32 37 47 87 48 163 0 49 9 70 56 127 18 23 35 57 39 80 13 79 89 301 118
341 31 45 77 203 77 266 0 22 6 51 14 66 8 15 17 50 21 77 4 28 22 86 40 130
29 69 35 100 45 220 7 77 12 165 11 196 0 31 5 74 12 95 11 30 12 74 6 194 -4
85 -8 178 -8 206 -1 43 -7 58 -36 95 -59 74 -59 132 0 198 19 21 49 68 65 104
16 36 63 116 104 177 62 91 82 132 111 220 19 60 35 115 35 121 0 6 18 52 40
101 42 92 72 206 108 408 12 63 30 165 41 225 11 61 25 162 31 225 18 201 47
321 165 695 82 261 103 388 115 693 5 141 14 316 20 387 9 114 8 144 -8 240
-30 169 -60 271 -98 323 -55 77 -63 101 -54 152 18 93 -13 138 -105 156 -29 5
-51 19 -81 52 -35 38 -52 47 -124 68 -46 14 -92 32 -102 41 -23 20 -24 119 -3
178 8 23 14 77 15 126 0 80 2 89 29 123 39 49 45 80 36 192 -7 90 -6 96 19
138 14 25 26 59 26 77 0 20 9 42 22 56 18 19 22 37 24 91 4 148 18 225 49 270
l29 43 -27 82 c-33 100 -33 108 -3 137 14 12 28 37 31 54 3 17 13 48 22 69 15
35 15 40 0 73 -22 45 -22 155 -1 218 15 44 15 57 -1 176 l-18 128 21 37 c35
59 37 102 8 165 -19 39 -26 72 -26 114 0 33 -6 82 -14 110 -8 28 -19 80 -24
116 -9 57 -8 70 10 104 18 36 18 41 4 84 -20 58 -20 106 0 159 16 40 15 47 -1
105 -26 92 -34 138 -23 138 6 0 7 8 3 18 -4 9 -9 51 -10 92 -3 68 -10 120 -31
218 -6 28 -2 36 31 66 47 43 44 58 -30 149 -44 55 -55 76 -55 105 0 24 -12 55
-32 87 -94 148 -103 184 -116 428 -7 124 -8 129 -34 148 -33 24 -44 70 -28
110 11 26 10 33 -7 52 -11 12 -33 47 -47 77 -15 30 -35 63 -43 72 -10 12 -14
27 -10 48 5 23 1 36 -21 61 -48 54 -79 84 -105 102 -16 10 -31 34 -37 57 -8
31 -17 41 -38 46 -33 8 -42 20 -42 56 0 18 -18 47 -56 90 -30 35 -62 77 -71
93 -8 17 -21 37 -28 45 -6 8 -18 31 -25 50 -7 19 -22 44 -32 56 -10 11 -18 25
-18 31 0 21 -38 43 -73 43 -44 0 -62 17 -71 69 -4 30 -15 47 -41 67 -22 17
-39 41 -47 67 -10 31 -23 47 -64 73 -29 19 -55 42 -59 52 -3 11 -29 39 -57 62
-37 32 -59 61 -80 109 -83 186 -88 193 -193 296 -57 55 -110 114 -118 131 -9
17 -32 43 -52 59 -21 15 -44 44 -52 63 -8 20 -28 48 -44 63 -20 19 -36 49 -48
92 -21 76 -67 139 -122 167 -31 16 -39 27 -44 57 -15 99 -65 218 -95 228 -9 3
-35 25 -57 49 -24 26 -52 46 -71 51 -40 8 -54 34 -46 83 7 44 -3 56 -57 66
-56 10 -217 144 -219 182 -1 28 -91 149 -126 170 -21 13 -50 40 -64 61 -18 27
-40 42 -75 55 -27 10 -64 33 -83 51 -29 29 -35 44 -42 101 -6 52 -14 73 -37
100 -17 18 -38 54 -49 79 -10 26 -22 47 -26 47 -4 0 -17 18 -28 39 -10 22 -35
52 -55 69 -21 17 -43 48 -53 75 -23 63 -127 182 -172 198 -19 6 -50 20 -68 32
l-34 20 -49 -23 -49 -23 -43 46 c-27 29 -52 47 -66 47 -14 0 -49 -26 -95 -69
-86 -82 -108 -91 -145 -62 -36 29 -117 71 -136 71 -9 0 -42 -11 -75 -25 -33
-14 -64 -25 -69 -25 -18 0 -41 31 -41 56 0 31 -14 30 -52 -1 -34 -29 -55 -31
-105 -10 -44 19 -72 19 -97 0 -31 -24 -52 -18 -75 21 -19 31 -25 35 -50 29
-21 -4 -45 3 -97 30 -57 31 -76 36 -113 32 -40 -4 -48 -1 -84 32 -45 42 -55
79 -57 216 -2 90 -10 127 -28 133 -6 2 -16 -7 -21 -20z m-103 -460 l-3 -73
-30 1 c-16 1 -50 7 -74 13 -30 8 -47 9 -54 2 -16 -16 8 -59 35 -63 14 -2 24
-11 26 -24 4 -27 -34 -74 -60 -74 -17 0 -19 5 -14 33 7 38 1 49 -40 70 -31 16
-33 16 -47 -6 -14 -21 -16 -21 -48 -6 -19 9 -47 20 -64 25 -32 10 -45 41 -23
55 21 14 54 10 68 -6 20 -24 39 -17 58 21 l17 36 57 -6 c64 -8 122 14 146 53
7 12 21 21 33 21 18 0 20 -5 17 -72z m-477 -19 c37 -70 26 -109 -32 -109 -49
0 -69 -16 -69 -55 0 -46 -25 -47 -62 -3 l-27 33 -28 -26 c-27 -26 -177 -78
-189 -67 -3 3 15 27 39 52 30 31 65 53 104 68 32 12 73 34 90 49 18 16 50 33
72 39 21 5 44 17 51 25 18 21 37 19 51 -6z m619 -24 c0 -8 12 -22 28 -31 15
-9 39 -25 54 -35 15 -10 29 -15 33 -10 3 5 1 12 -5 16 -15 9 -12 45 5 51 22 9
68 -13 100 -46 32 -33 28 -60 -9 -60 -32 0 -42 -17 -22 -39 20 -22 20 -58 1
-104 -25 -61 -85 -86 -119 -51 -25 24 -19 60 15 99 26 29 29 38 19 50 -7 8
-26 15 -43 15 -24 0 -42 11 -79 50 -51 53 -59 81 -32 111 13 14 21 16 35 8 11
-5 19 -16 19 -24z m1355 -49 c19 -19 43 -37 54 -41 23 -7 71 -94 71 -129 0
-21 -7 -27 -41 -37 -51 -16 -69 -6 -87 46 -21 65 -27 68 -82 37 l-49 -27 -28
21 c-15 12 -29 31 -31 42 -3 18 4 23 42 33 38 9 46 16 51 40 6 28 28 48 53 49
7 0 28 -15 47 -34z m233 -30 c21 -4 42 -43 62 -111 16 -56 17 -71 6 -108 -10
-34 -16 -42 -35 -42 -21 0 -27 11 -52 95 -16 52 -38 107 -49 122 -11 15 -20
31 -20 37 0 14 22 21 50 14 14 -3 31 -6 38 -7z m-3706 -238 c21 -18 28 -44 15
-57 -17 -17 -41 -13 -70 9 -25 20 -29 20 -69 7 -33 -11 -47 -23 -61 -52 -14
-28 -15 -40 -6 -51 16 -20 36 -17 57 7 34 41 43 48 58 42 18 -7 47 -60 39 -73
-3 -6 -39 -25 -79 -44 -40 -18 -76 -38 -80 -45 -12 -19 -36 -12 -46 14 -9 25
-50 42 -69 30 -19 -11 -12 -25 24 -42 40 -19 41 -34 2 -47 -40 -14 -103 9
-148 55 -21 21 -45 39 -54 39 -21 0 -58 -20 -68 -36 -4 -7 -33 -30 -63 -50
l-56 -37 -44 16 c-39 14 -45 14 -59 1 -9 -9 -15 -33 -15 -59 0 -43 -10 -55
-47 -55 -9 0 -32 -12 -51 -27 -36 -27 -95 -45 -144 -44 -24 0 -28 -4 -28 -29
0 -21 -9 -36 -35 -56 -22 -17 -39 -40 -45 -65 -12 -45 -33 -59 -90 -59 -31 0
-47 -6 -64 -25 -37 -40 -115 -78 -132 -64 -40 33 2 87 109 138 52 25 104 60
141 95 l60 56 -23 24 c-27 29 -22 41 23 56 35 11 61 5 102 -25 20 -15 23 -13
64 40 48 62 99 102 180 141 30 14 66 36 80 49 14 13 48 33 77 45 29 12 59 33
68 47 24 36 74 53 157 53 63 0 75 3 98 25 52 50 250 86 292 53z m388 -23 c34
-22 39 -28 30 -44 -33 -63 -134 -84 -166 -36 -19 29 -54 34 -54 7 0 -10 9 -25
20 -35 24 -20 25 -30 4 -48 -13 -10 -21 -9 -46 6 -31 18 -31 18 -50 -6 -34
-45 -39 -49 -58 -49 -11 0 -29 9 -40 20 -17 17 -19 28 -14 63 10 67 30 107 53
107 11 0 25 -9 31 -20 15 -27 38 -25 52 5 12 27 28 34 103 45 83 12 94 11 135
-15z m3558 2 c6 -7 17 -45 26 -84 8 -39 24 -89 35 -111 12 -23 21 -50 21 -62
0 -31 -29 -24 -48 11 -9 17 -32 49 -50 72 -23 27 -31 45 -25 56 4 9 6 42 5 74
-2 43 1 57 12 57 7 0 18 -6 24 -13z m698 -939 c89 -87 118 -127 108 -152 -17
-45 -68 -24 -118 48 -22 32 -52 64 -68 72 -16 8 -34 26 -40 39 -13 30 -3 75
18 75 8 0 53 -37 100 -82z m-9296 -3137 c-11 -23 -38 -52 -60 -66 -24 -15 -40
-33 -40 -44 0 -41 -11 -51 -55 -51 -46 0 -75 19 -75 49 0 16 40 43 200 134 24
15 46 24 48 23 2 -2 -6 -22 -18 -45z m-28 -331 c38 -11 52 -31 42 -62 -7 -23
-168 -103 -225 -113 -43 -8 -69 6 -69 35 0 12 8 18 23 18 13 0 49 12 80 26 46
22 57 32 57 51 0 25 24 55 43 55 7 0 28 -5 49 -10z m-97 -471 c41 -71 41 -92
1 -99 -39 -7 -43 -23 -11 -48 33 -26 32 -50 -2 -63 -60 -23 -94 13 -78 84 4
17 6 60 5 95 -2 109 32 122 85 31z m1110 -96 c-16 -68 -17 -89 -1 -103 13 -10
25 -11 54 -2 20 6 47 14 60 17 12 4 22 11 22 16 0 5 9 9 20 9 26 0 71 -67 64
-96 -3 -12 0 -33 7 -46 7 -12 16 -48 21 -78 15 -113 17 -104 -25 -111 -26 -4
-41 -2 -49 8 -11 14 -15 81 -8 160 6 57 -14 78 -41 44 -12 -14 -17 -31 -13
-45 5 -22 -28 -76 -47 -76 -5 0 -18 9 -30 21 -30 30 -53 21 -60 -26 -3 -22
-11 -50 -17 -62 -10 -18 -10 -30 3 -59 21 -50 20 -54 -19 -54 -19 0 -38 -4
-41 -10 -8 -13 -44 -13 -84 1 -40 14 -40 50 -1 59 19 5 25 12 23 31 -3 44 15
75 45 74 26 0 27 3 30 52 3 47 7 56 38 80 18 16 34 30 34 33 0 3 -21 12 -46
19 -54 16 -64 9 -73 -46 -5 -29 -11 -39 -28 -41 -23 -3 -30 10 -35 70 -2 31 4
44 32 74 34 36 146 114 164 114 4 0 5 -12 1 -27z m-1186 -946 c31 -16 81 -110
81 -153 0 -18 -7 -40 -16 -48 -35 -35 -84 -7 -84 48 0 22 -8 40 -25 56 -14 13
-25 29 -25 35 0 7 -9 20 -20 30 -40 36 31 62 89 32z m-87 -127 c4 -47 2 -52
-31 -70 l-25 -13 22 -17 c29 -24 28 -63 -3 -117 -19 -31 -23 -48 -17 -60 14
-27 3 -43 -28 -43 -19 0 -33 7 -40 19 -13 26 -13 68 1 76 6 5 8 22 4 46 -5 27
-3 45 7 56 7 9 13 42 14 79 0 41 7 72 18 88 16 25 18 25 45 11 23 -11 30 -22
33 -55z m10343 -2540 c341 -17 647 -103 850 -239 118 -78 232 -265 278 -457
55 -223 60 -252 64 -396 5 -131 3 -152 -15 -200 -11 -29 -35 -123 -52 -208
-85 -420 -162 -630 -311 -845 -59 -86 -102 -128 -200 -194 -227 -152 -538
-235 -929 -247 -407 -13 -755 39 -964 143 -154 78 -362 253 -431 364 -15 24
-44 67 -65 94 -145 196 -337 669 -375 924 -8 57 -24 138 -35 179 -31 117 -29
379 4 491 70 242 335 437 677 497 47 8 101 19 120 25 19 6 77 15 129 20 95 9
161 16 360 39 248 28 470 31 895 10z m-661 -10040 c21 -8 26 -16 26 -43 0 -20
-7 -41 -18 -51 -11 -9 -24 -34 -31 -56 -13 -45 -39 -73 -92 -100 -20 -10 -62
-41 -95 -68 -32 -27 -85 -66 -117 -87 -33 -20 -87 -60 -120 -89 -88 -73 -122
-96 -146 -96 -35 0 -25 37 21 78 22 20 77 75 122 122 165 175 402 398 423 400
1 0 13 -4 27 -10z"/>
<path d="M23455 21783 c-16 -2 -88 -10 -160 -19 -310 -37 -441 -69 -633 -153
-149 -66 -185 -87 -268 -165 -123 -114 -183 -269 -82 -215 11 6 54 46 96 90
77 78 113 97 126 64 5 -14 -54 -89 -122 -156 -33 -31 -103 -115 -125 -149 -15
-23 -15 -31 -2 -72 7 -25 20 -59 28 -74 8 -16 17 -46 21 -67 9 -47 30 -56 61
-27 62 58 175 -48 192 -180 11 -80 -53 -55 -97 37 -22 46 -62 75 -81 56 -7 -7
0 -33 25 -85 28 -60 42 -77 71 -91 46 -22 58 -21 80 3 27 30 85 42 140 30 43
-10 51 -8 90 14 l42 25 24 -25 c28 -30 42 -27 49 12 4 23 10 29 30 29 21 0 25
-4 22 -26 -3 -34 13 -40 72 -27 62 13 60 38 -4 54 -40 9 -45 14 -48 42 -2 21
-14 39 -38 57 -25 19 -34 34 -34 55 0 35 20 48 87 56 26 3 81 17 120 31 l73
25 69 -21 70 -21 41 21 c25 13 51 19 67 16 15 -3 49 2 77 10 l50 15 40 -45
c44 -49 99 -82 122 -73 8 3 14 19 14 39 0 56 33 71 90 42 27 -14 30 -13 58 10
17 14 39 25 50 25 16 0 20 6 19 27 -2 25 3 29 47 43 37 12 58 28 87 64 41 50
47 74 27 94 -23 23 -55 12 -114 -41 -32 -30 -69 -59 -81 -65 -35 -19 -274
-102 -293 -102 -9 0 -31 18 -49 40 -22 27 -40 40 -57 40 -32 0 -74 42 -74 74
0 39 34 56 113 56 61 0 70 3 93 28 13 15 41 43 61 63 35 35 36 38 29 88 -4 31
-2 59 4 71 12 23 47 26 75 6 11 -7 45 -19 75 -25 59 -13 81 -25 150 -82 25
-20 63 -47 85 -58 22 -12 55 -33 74 -46 38 -28 89 -33 97 -10 4 9 -27 50 -83
111 -65 71 -104 104 -148 126 -33 17 -78 43 -100 58 -41 27 -139 57 -230 69
-44 6 -187 47 -253 72 -36 14 -20 34 29 36 107 4 441 -42 484 -67 17 -10 59
-25 94 -34 124 -32 141 -43 194 -139 27 -48 55 -87 63 -87 24 0 16 55 -19 122
-27 53 -43 71 -102 110 -83 56 -193 101 -289 117 -79 14 -104 24 -127 54 -15
19 -28 20 -185 22 -93 1 -182 1 -199 -2z m-487 -356 c8 -6 12 -39 12 -96 1
-97 13 -137 64 -221 62 -100 40 -146 -54 -115 -78 26 -154 87 -184 147 -39 78
-35 126 16 211 53 88 98 111 146 74z"/>
<path d="M25198 21223 c-96 -38 -104 -49 -71 -104 22 -38 35 -37 67 5 15 20
41 39 63 46 45 15 83 37 83 50 0 13 -30 40 -43 39 -7 0 -51 -16 -99 -36z"/>
<path d="M25180 20881 c-13 -25 -13 -57 1 -211 6 -69 20 -150 30 -180 10 -30
19 -53 19 -50 8 32 15 429 8 443 -12 23 -45 22 -58 -2z"/>
<path d="M16109 26042 c-19 -17 -23 -28 -21 -68 1 -29 -4 -57 -13 -71 -8 -12
-15 -40 -15 -61 0 -47 -6 -55 -32 -41 -33 17 -32 2 1 -43 17 -23 31 -50 31
-61 0 -12 6 -17 18 -15 13 3 16 12 14 38 -2 32 3 50 44 133 17 35 18 61 2 87
-11 17 -8 23 22 49 29 25 33 32 24 48 -15 25 -46 27 -75 5z"/>
<path d="M15492 24838 c-6 -7 -14 -41 -17 -74 -7 -58 -6 -62 20 -82 23 -19 26
-27 21 -55 -5 -25 -2 -38 9 -47 19 -16 18 -16 38 42 14 41 14 48 1 59 -10 8
-13 21 -9 36 3 15 -1 29 -15 43 -14 14 -20 31 -18 52 3 33 -12 47 -30 26z"/>
<path d="M14847 24553 c-15 -14 -6 -53 15 -67 16 -12 22 -27 24 -63 1 -26 5
-60 9 -75 9 -32 -20 -55 -86 -66 l-44 -8 2 -45 c2 -24 15 -81 30 -127 l28 -83
-24 -19 c-23 -17 -24 -20 -13 -56 7 -24 11 -85 10 -154 -3 -100 -1 -115 14
-118 40 -8 82 84 58 128 -9 17 -9 29 0 51 7 17 9 44 6 64 -5 27 -2 44 13 68
17 28 18 35 6 57 -8 14 -14 32 -15 41 0 8 -13 28 -30 44 -38 37 -39 63 -2 67
22 2 28 9 32 38 7 50 40 52 84 6 21 -23 43 -36 59 -36 17 0 28 -7 32 -20 7
-21 30 -27 40 -9 4 5 0 18 -9 28 -9 10 -16 30 -16 44 0 21 -8 31 -35 44 -19 9
-35 20 -35 24 0 4 -16 26 -35 49 -28 34 -35 50 -35 86 0 34 -6 51 -31 79 -31
35 -40 40 -52 28z"/>
<path d="M14427 24214 c-4 -4 -7 -15 -7 -25 0 -10 -13 -25 -29 -33 -26 -14
-61 -68 -61 -95 0 -14 42 -31 76 -31 42 0 64 -33 64 -94 0 -30 5 -67 11 -83 7
-15 13 -66 15 -112 4 -90 27 -156 54 -156 20 0 17 132 -4 173 -17 32 -7 52 26
52 27 0 32 23 14 59 -17 33 -21 88 -7 110 6 9 18 11 33 8 55 -14 39 32 -22 63
-46 24 -63 25 -93 6 -15 -10 -35 -12 -62 -7 -50 8 -59 35 -18 53 15 6 38 20
49 31 21 17 24 18 80 2 33 -10 71 -29 87 -43 25 -24 29 -25 43 -10 17 17 12
74 -11 105 -13 17 -14 17 -32 0 -24 -21 -47 -22 -62 -3 -7 8 -28 16 -49 19
-20 3 -48 8 -62 12 -14 3 -29 3 -33 -1z"/>
<path d="M14035 23546 c-44 -19 -61 -42 -45 -61 7 -8 18 -15 26 -15 38 0 58
-90 29 -133 -11 -18 -12 -31 -5 -57 8 -28 6 -41 -11 -73 -19 -38 -19 -41 -4
-74 20 -41 6 -67 -32 -60 -20 4 -23 0 -23 -25 0 -25 3 -29 18 -22 9 4 31 8 48
8 43 2 64 22 64 62 0 18 4 44 10 58 7 18 5 35 -6 62 -11 26 -14 53 -10 88 4
28 6 65 6 81 0 17 0 56 0 89 0 53 -11 87 -29 86 -3 -1 -20 -7 -36 -14z"/>
<path d="M14257 22983 c-4 -3 0 -17 9 -31 13 -19 14 -30 5 -49 -6 -13 -11 -46
-11 -74 0 -45 3 -51 33 -69 17 -11 37 -18 42 -16 15 5 6 117 -11 143 -8 13
-12 33 -8 47 8 35 -36 72 -59 49z"/>
<path d="M23638 22680 c-21 -24 -34 -30 -67 -30 -23 0 -60 9 -82 21 -22 11
-61 23 -87 26 -39 4 -50 2 -66 -16 -19 -21 -19 -22 3 -45 29 -31 20 -49 -42
-76 -168 -75 -205 -90 -233 -95 -18 -3 -60 -26 -95 -51 -69 -48 -94 -54 -102
-24 -11 43 -75 8 -92 -50 -4 -14 -21 -44 -38 -68 -24 -33 -28 -45 -19 -54 16
-16 15 -44 -4 -72 -19 -30 -7 -39 40 -30 25 4 46 19 71 50 l36 44 40 -21 c30
-15 49 -18 72 -13 18 4 52 7 77 5 30 -1 63 6 95 21 42 18 65 22 139 20 49 -1
105 3 123 9 28 9 43 8 77 -5 33 -13 50 -14 70 -6 15 5 55 10 89 10 34 1 82 5
107 10 100 21 201 32 315 34 128 2 160 8 169 31 13 34 -5 47 -55 41 -55 -7
-70 5 -43 36 27 29 68 48 104 48 41 0 51 27 19 53 -34 27 -167 93 -215 106
-23 6 -57 22 -76 35 -19 13 -50 26 -69 29 -88 13 -166 31 -191 43 -37 19 -40
18 -70 -16z"/>
<path d="M14449 22589 c-19 -27 -21 -36 -12 -60 13 -34 2 -103 -21 -128 -18
-20 -13 -46 11 -55 16 -7 43 10 43 26 0 5 9 28 20 52 16 36 17 49 8 79 -10 32
-9 40 7 57 15 16 17 25 9 38 -18 28 -41 25 -65 -9z"/>
<path d="M18610 22600 c-30 -10 -92 -29 -138 -41 -45 -12 -93 -29 -105 -39
-19 -16 -20 -20 -7 -35 17 -21 83 -13 150 17 58 27 178 58 196 51 21 -8 17
-60 -5 -73 -11 -5 -41 -10 -68 -10 -28 0 -63 -8 -84 -19 -23 -12 -68 -22 -126
-26 -78 -6 -91 -5 -96 9 -9 23 -78 21 -107 -2 -34 -27 -17 -43 43 -42 72 2
138 -10 144 -27 10 -25 -18 -42 -83 -48 -47 -6 -68 -13 -78 -27 -13 -19 -14
-18 -34 9 -21 30 -87 58 -106 45 -6 -4 -36 -8 -66 -8 -100 -3 -184 -17 -236
-40 -60 -27 -70 -37 -49 -54 13 -11 26 -11 68 -1 45 11 59 11 106 -5 70 -23
136 -25 136 -4 0 8 -9 16 -20 18 -34 6 -42 22 -21 38 31 23 60 17 96 -21 30
-31 38 -34 84 -32 68 2 200 -11 255 -26 42 -12 61 -30 46 -45 -3 -4 -84 -10
-178 -13 -194 -8 -373 -22 -462 -37 -33 -6 -105 -16 -160 -22 -55 -6 -122 -15
-150 -20 -27 -5 -77 -12 -110 -15 -159 -15 -221 -25 -908 -150 -44 -8 -85 -19
-93 -26 -18 -15 -17 -49 2 -74 13 -16 15 -50 14 -185 -1 -91 -2 -171 -1 -177
1 -7 25 -25 54 -39 28 -15 74 -38 101 -52 75 -37 139 -110 191 -215 38 -77 58
-144 126 -417 69 -281 133 -504 211 -735 11 -33 57 -136 103 -230 143 -293
268 -434 485 -549 259 -136 685 -229 1120 -243 440 -14 866 88 1143 272 99 65
182 127 222 165 73 69 120 76 132 19 12 -62 35 -48 86 51 18 36 49 90 69 120
132 201 212 347 308 560 97 214 123 275 146 342 12 36 30 80 38 97 9 16 16 46
16 65 0 49 15 77 58 106 50 34 72 57 72 75 0 22 -23 18 -38 -5 -9 -15 -23 -20
-52 -20 -23 0 -51 -7 -64 -15 -22 -14 -25 -14 -40 1 -14 13 -16 29 -10 88 5
62 2 80 -20 141 -35 93 -45 224 -22 279 37 89 5 176 -108 290 -156 158 -432
304 -737 389 -270 75 -507 121 -727 142 -35 3 -73 10 -85 14 -17 7 -12 10 28
16 l50 8 -35 13 c-19 7 -64 13 -100 13 -88 1 -239 19 -274 33 -27 11 -27 12
-10 25 10 7 28 13 40 13 13 0 55 12 95 26 79 28 120 27 162 -6 13 -11 46 -25
73 -31 27 -6 65 -18 84 -26 41 -18 174 -35 206 -27 13 4 24 15 26 27 4 27 34
34 56 14 28 -25 129 -77 149 -77 10 0 24 5 31 12 9 9 18 9 37 0 63 -29 87 1
34 41 -23 17 -31 18 -60 7 -31 -11 -38 -10 -71 11 -42 27 -55 53 -38 74 9 11
18 11 53 -5 65 -27 93 -32 107 -16 9 11 9 20 -1 37 -10 19 -9 25 7 36 21 16
31 16 39 3 10 -15 35 -12 35 5 0 10 -10 15 -28 15 -15 0 -33 5 -39 11 -15 15
-208 60 -251 58 -20 -1 -66 6 -101 15 -70 19 -91 13 -72 -22 16 -30 14 -42 -9
-42 -13 0 -26 13 -37 38 -16 33 -22 37 -61 40 -45 3 -67 26 -41 43 8 5 60 9
116 9 60 0 104 4 108 10 12 19 -15 37 -63 43 -26 3 -66 9 -89 13 -37 6 -52 2
-110 -28 -49 -26 -86 -37 -133 -41 -36 -3 -74 -9 -86 -12 -14 -5 -31 2 -52 20
-29 24 -37 26 -84 20 -28 -4 -66 -14 -84 -21 -37 -16 -35 -17 -90 54 -30 38
-60 40 -144 12z m158 -220 c68 -49 53 -73 -28 -49 -21 7 -50 9 -65 5 -21 -5
-26 -12 -23 -34 3 -26 5 -27 66 -28 64 -2 122 -19 122 -36 0 -5 -12 -7 -27 -4
-63 13 -163 24 -181 19 -11 -2 -31 6 -50 22 -25 21 -37 24 -69 19 -47 -7 -71
12 -54 44 9 17 24 20 90 23 63 3 86 9 108 26 38 30 63 28 111 -7z m372 -490
c530 -38 979 -150 1200 -300 125 -85 232 -195 278 -286 73 -143 118 -455 77
-534 -8 -16 -22 -73 -30 -127 -50 -315 -211 -720 -380 -958 -164 -231 -363
-390 -595 -475 -245 -90 -443 -115 -853 -107 -383 7 -616 44 -859 136 -366
137 -534 321 -703 767 -70 184 -117 367 -145 563 -19 136 -21 183 -17 420 5
296 9 323 78 470 54 116 159 220 279 280 87 42 340 113 450 126 30 3 85 11
123 16 166 26 791 31 1097 9z"/>
<path d="M18850 21641 c-52 -10 -60 -18 -57 -54 2 -27 -2 -33 -29 -42 -17 -5
-38 -18 -48 -27 -26 -27 -61 -32 -97 -14 -40 20 -62 20 -99 1 -20 -10 -51 -15
-92 -13 -53 2 -76 -3 -143 -32 -44 -19 -99 -46 -122 -60 -47 -28 -143 -133
-143 -156 0 -23 47 -64 73 -64 18 0 28 8 37 30 24 57 119 116 221 137 39 8 66
-27 74 -96 10 -80 42 -145 115 -229 91 -106 116 -117 272 -117 l127 0 73 51
c54 37 86 69 122 121 l48 71 7 111 c4 82 10 114 21 121 28 17 142 3 214 -26
79 -33 126 -84 126 -139 0 -46 17 -58 52 -37 27 16 31 16 66 -3 20 -11 46 -34
57 -52 25 -40 43 -42 50 -5 3 15 11 44 17 64 16 55 -7 78 -78 78 -62 0 -84 21
-84 80 0 47 24 80 58 80 19 0 48 -19 102 -69 99 -90 190 -137 190 -97 0 7 -7
19 -15 26 -8 7 -15 27 -15 46 0 37 7 30 -140 128 -167 111 -243 143 -424 176
-88 16 -149 20 -305 19 -108 -1 -212 -4 -231 -8z m-160 -331 c33 -33 28 -108
-11 -156 -33 -42 -47 -54 -66 -54 -20 0 -53 38 -53 60 0 16 7 20 30 20 38 0
48 22 26 55 -22 34 -20 61 6 79 30 21 44 20 68 -4z"/>
<path d="M18246 21588 c-11 -6 -50 -19 -87 -28 -131 -34 -290 -137 -393 -253
-60 -69 -64 -77 -40 -77 18 0 63 32 159 115 39 34 91 75 118 93 54 38 203 100
262 111 31 5 40 11 40 26 0 23 -31 30 -59 13z"/>
<path d="M20390 21387 c0 -3 13 -33 29 -68 16 -35 41 -116 55 -179 27 -122 64
-229 67 -195 10 121 -24 261 -88 362 -43 67 -63 93 -63 80z"/>
<path d="M18124 21125 c-20 -51 65 -128 193 -176 41 -15 84 -34 96 -41 34 -22
156 -62 164 -55 4 4 0 14 -8 21 -17 16 -314 176 -326 176 -5 0 -25 16 -44 36
-46 48 -68 59 -75 39z"/>
<path d="M19542 21108 c-7 -7 -12 -26 -12 -43 0 -32 -26 -63 -84 -99 -16 -10
-24 -22 -19 -27 13 -13 326 -14 413 -1 89 13 125 25 133 45 13 33 -64 68 -103
47 -12 -7 -36 -27 -52 -46 -36 -41 -48 -42 -104 -9 -49 29 -64 51 -64 92 0 38
-17 53 -60 53 -20 0 -41 -5 -48 -12z"/>
<path d="M20528 20865 c-3 -6 -9 -39 -12 -74 -4 -35 -32 -141 -61 -235 -30
-94 -65 -218 -80 -276 -36 -146 -74 -279 -91 -318 -8 -18 -14 -37 -14 -42 0
-26 21 -3 63 68 73 124 203 555 222 738 6 58 -14 161 -27 139z"/>
<path d="M24485 22460 c-9 -10 -15 -26 -12 -35 7 -17 23 -20 32 -5 3 6 17 10
30 10 18 0 30 -10 44 -37 38 -73 73 -105 116 -107 38 -1 41 1 62 44 33 68 32
71 -34 64 -57 -6 -59 -5 -121 40 -68 51 -90 56 -117 26z"/>
<path d="M20005 22301 c-39 -6 -40 -7 -43 -49 -2 -25 2 -50 9 -59 11 -12 9
-18 -9 -32 -18 -13 -20 -19 -10 -29 17 -17 57 -15 65 3 3 9 -2 24 -12 35 -25
28 -4 50 47 50 44 0 56 17 42 59 -10 28 -26 32 -89 22z"/>
<path d="M21533 21681 c-56 -4 -104 -9 -107 -12 -16 -16 31 -31 121 -40 54 -5
134 -16 177 -24 53 -10 83 -12 90 -5 17 17 -22 47 -87 64 -84 23 -79 23 -194
17z"/>
<path d="M16180 21528 c-14 -6 -63 -15 -110 -19 -47 -4 -159 -23 -250 -42 -91
-20 -214 -46 -275 -58 -143 -28 -336 -85 -346 -101 -12 -19 10 -38 43 -38 16
0 50 9 76 20 50 21 154 45 262 61 36 5 97 19 135 31 39 11 88 24 110 28 22 4
81 19 130 34 50 15 122 31 161 35 73 9 128 28 129 46 0 14 -36 16 -65 3z"/>
<path d="M26179 21165 c-27 -20 -43 -44 -65 -98 -16 -41 -39 -82 -55 -94 -27
-23 -53 -76 -42 -87 10 -9 61 23 68 43 9 30 41 54 64 46 11 -3 33 -30 48 -58
19 -36 34 -52 48 -52 17 0 21 9 28 72 4 40 4 112 0 160 -8 84 -9 88 -33 91
-15 1 -40 -8 -61 -23z"/>
<path d="M13810 21023 c-50 -18 -78 -37 -93 -62 -14 -24 -14 -33 -4 -60 10
-28 10 -34 -6 -42 -28 -16 -20 -31 16 -27 31 3 32 4 29 45 -2 38 1 44 27 58
32 16 97 19 174 9 33 -5 47 -12 50 -25 6 -23 25 -25 33 -4 20 52 -153 134
-226 108z"/>
<path d="M26186 20761 c-10 -11 -28 -22 -41 -25 -14 -4 -27 -18 -34 -37 -16
-46 -14 -57 12 -65 12 -3 30 -15 40 -26 14 -14 22 -16 32 -8 8 7 28 9 49 4 31
-5 36 -4 36 12 0 11 -7 28 -15 38 -9 12 -15 42 -15 73 0 49 -2 53 -23 53 -13
0 -32 -9 -41 -19z"/>
<path d="M13826 20298 c-3 -13 -7 -36 -9 -53 -3 -16 -10 -57 -16 -90 -5 -33
-13 -94 -16 -136 -6 -74 -7 -76 -38 -90 l-32 -14 0 -203 c0 -164 3 -202 13
-200 25 5 56 129 89 353 3 22 13 48 22 59 11 12 18 47 23 105 3 47 10 121 14
164 7 76 6 79 -19 103 l-27 24 -4 -22z"/>
<path d="M14660 19940 c-27 -27 -25 -48 5 -62 16 -7 29 -24 35 -47 13 -47 76
-141 96 -141 29 0 28 33 -4 94 -17 34 -38 79 -47 101 -16 41 -42 75 -57 75 -4
0 -17 -9 -28 -20z"/>
<path d="M25825 19588 c-10 -161 -20 -544 -17 -640 3 -77 6 -88 22 -88 13 0
19 11 24 43 4 24 16 67 26 95 14 37 18 64 13 97 -4 31 0 59 11 90 14 36 15 52
7 77 -6 18 -8 62 -6 98 11 142 10 154 -14 186 -13 19 -26 53 -29 84 -12 92
-29 72 -37 -42z"/>
<path d="M14984 18625 c-32 -26 -59 -50 -58 -56 1 -5 2 -12 3 -17 3 -19 91
-51 151 -55 23 -2 25 2 28 43 2 45 -29 119 -54 127 -6 2 -37 -17 -70 -42z"/>
<path d="M20378 18101 c-63 -13 -85 -44 -52 -72 13 -10 49 -13 148 -11 120 2
137 0 201 -23 102 -38 128 -42 123 -19 -5 28 -103 91 -177 114 -65 20 -168 25
-243 11z"/>
<path d="M21970 17697 c-218 -115 -249 -135 -235 -157 3 -5 32 -10 64 -10 52
0 61 3 75 26 23 33 60 30 64 -7 2 -14 -4 -31 -12 -39 -25 -20 -20 -50 8 -50
14 0 28 5 31 10 10 15 53 12 81 -7 23 -15 27 -15 41 0 14 14 14 20 -1 63 -9
26 -16 59 -16 73 0 22 -9 57 -29 114 -6 17 -12 15 -71 -16z"/>
<path d="M14489 17511 c6 -10 51 -54 101 -97 50 -43 97 -88 104 -99 8 -11 42
-38 76 -59 51 -32 76 -40 138 -47 43 -5 93 -11 113 -14 31 -5 42 -1 94 39 32
26 63 46 69 46 6 0 38 -15 71 -33 64 -34 72 -49 74 -125 1 -23 8 -59 16 -79
36 -86 47 -159 50 -333 2 -96 9 -229 15 -294 6 -66 13 -192 14 -280 3 -157 30
-659 41 -782 4 -33 9 -144 11 -245 3 -101 8 -224 10 -274 20 -406 17 -1212 -4
-1251 -6 -12 -34 -41 -62 -64 -56 -47 -80 -80 -57 -80 25 0 118 84 140 125 16
32 22 66 26 170 9 196 5 798 -8 1075 -6 135 -13 319 -16 410 -3 91 -8 176 -10
190 -5 27 -19 309 -35 700 -6 135 -15 304 -21 375 -6 72 -12 198 -14 280 -2
134 -5 157 -28 215 -15 36 -31 100 -36 143 -12 102 -41 148 -107 171 -61 21
-83 20 -142 -3 -28 -11 -90 -23 -144 -27 -132 -9 -182 7 -268 86 -174 162
-237 210 -211 161z"/>
<path d="M22423 17213 c-22 -8 -14 -30 22 -62 21 -18 47 -31 63 -31 15 0 43
-11 62 -23 45 -30 94 -47 137 -47 23 0 33 4 31 13 -8 22 -102 87 -153 103 -27
10 -61 25 -74 35 -23 18 -61 23 -88 12z"/>
<path d="M21976 17095 c-10 -27 6 -75 34 -98 15 -13 33 -34 39 -46 17 -31 4
-78 -25 -98 -22 -14 -23 -17 -9 -33 24 -26 19 -57 -12 -72 -35 -16 -38 -36
-14 -68 19 -23 20 -24 39 -7 27 25 44 21 82 -18 32 -33 81 -47 94 -27 8 14
-32 144 -54 174 -18 25 -21 39 -16 74 7 56 -6 91 -49 131 -19 18 -35 41 -35
52 0 40 -61 70 -74 36z"/>
<path d="M23160 17090 c0 -10 12 -27 26 -37 77 -53 78 -73 5 -73 -39 0 -52 -5
-70 -26 -13 -15 -29 -24 -39 -21 -84 24 -112 30 -119 24 -13 -13 12 -41 54
-62 57 -28 83 -53 104 -103 11 -24 48 -77 85 -119 36 -41 70 -87 75 -101 14
-36 3 -75 -31 -107 -24 -23 -41 -29 -103 -35 -58 -5 -90 -15 -139 -42 -128
-70 -244 -98 -498 -118 -63 -6 -160 -14 -215 -20 -73 -8 -120 -7 -175 1 -58 9
-116 9 -245 0 -94 -6 -372 -16 -620 -21 -460 -9 -604 -20 -627 -47 -17 -21 17
-47 52 -38 14 4 105 9 203 12 138 4 200 1 280 -12 87 -14 114 -15 177 -4 41 6
145 13 230 15 85 1 207 8 271 14 121 12 190 6 262 -25 27 -11 38 -10 80 6 59
24 213 27 255 5 15 -8 54 -14 88 -13 47 0 70 -5 98 -23 l37 -22 82 32 c45 17
96 44 112 60 41 38 127 80 165 80 25 0 35 -7 58 -45 30 -51 29 -50 128 -70 77
-17 95 -15 187 17 49 18 58 25 65 52 8 29 17 36 82 66 8 4 16 22 18 41 2 20
14 46 29 61 25 26 26 30 13 67 -10 33 -11 43 0 56 21 25 67 18 97 -15 32 -36
50 -38 64 -6 8 18 7 30 -5 54 -9 17 -16 48 -16 68 0 20 -4 54 -10 75 -5 22
-15 57 -20 79 -8 30 -21 47 -48 64 -49 31 -67 52 -91 109 -19 44 -23 47 -57
47 -69 0 -241 57 -286 95 -36 30 -68 33 -68 5z"/>
<path d="M19125 16978 c-7 -18 -20 -53 -27 -78 -10 -36 -19 -47 -43 -54 -16
-6 -31 -11 -33 -11 -1 -1 5 -16 13 -33 24 -47 10 -97 -40 -152 -42 -45 -82
-131 -70 -150 10 -16 30 -12 98 16 68 29 77 37 77 73 0 14 17 50 37 80 99 150
97 141 53 196 -34 43 -36 53 -15 81 8 10 15 29 15 42 0 17 -6 22 -25 22 -19 0
-29 -8 -40 -32z"/>
<path d="M21401 16964 c-12 -15 -21 -33 -21 -41 0 -21 -70 -163 -80 -163 -6 0
-10 -6 -10 -12 0 -16 104 -17 140 -1 20 9 31 7 58 -9 21 -13 41 -18 58 -14 25
7 55 -16 80 -59 17 -31 39 -11 54 49 12 51 12 58 -5 76 -24 26 -37 25 -65 -5
-30 -31 -41 -31 -97 2 -54 31 -73 70 -73 148 0 61 -9 68 -39 29z"/>
<path d="M22586 16918 c-2 -7 -9 -33 -15 -58 -7 -25 -14 -52 -17 -61 -13 -39
65 -29 117 15 17 14 37 26 45 26 7 0 31 -18 51 -41 21 -22 60 -51 86 -65 26
-14 57 -36 69 -49 33 -38 38 -30 13 19 -12 24 -24 53 -27 64 -3 11 -21 28 -39
37 -19 10 -46 31 -60 48 -22 26 -30 29 -62 24 -29 -4 -48 1 -92 24 -62 33 -64
34 -69 17z"/>
<path d="M22693 16723 c-19 -7 -16 -25 12 -63 29 -40 31 -60 9 -102 -20 -39
-6 -70 41 -93 40 -18 105 -20 105 -2 0 6 -16 43 -36 82 -28 55 -34 77 -29 105
4 22 1 41 -7 51 -13 17 -72 30 -95 22z"/>
<path d="M19262 16659 c-28 -33 -55 -72 -59 -86 -9 -36 9 -59 43 -56 138 12
150 18 119 59 -17 23 -19 67 -4 95 7 15 7 24 -2 35 -21 26 -43 15 -97 -47z"/>
<path d="M19125 16433 c-9 -10 -28 -33 -42 -52 -15 -18 -41 -40 -58 -47 -18
-7 -37 -20 -45 -29 -19 -23 -6 -90 25 -131 25 -32 26 -37 12 -51 -8 -8 -36
-18 -61 -20 -37 -5 -44 -8 -35 -19 6 -7 9 -25 7 -41 -2 -23 -10 -29 -43 -39
-35 -9 -40 -15 -43 -43 -4 -38 18 -77 49 -86 16 -5 32 5 77 50 75 76 125 109
151 100 15 -4 39 5 81 31 34 21 64 42 68 48 4 6 30 28 57 49 48 37 53 38 110
34 33 -2 78 -9 100 -14 128 -33 544 -48 760 -29 98 9 121 19 92 41 -15 10 -71
12 -278 8 -236 -5 -270 -3 -377 16 -64 12 -151 33 -192 47 -239 82 -221 74
-238 115 -11 28 -21 39 -36 39 -12 0 -41 9 -65 20 -53 24 -57 24 -76 3z"/>
<path d="M23480 16183 c1 -36 30 -166 40 -178 7 -8 25 -15 41 -15 33 0 38 -7
44 -57 6 -47 36 -73 84 -73 44 0 61 14 61 52 0 22 -7 31 -34 42 -44 18 -101
95 -121 162 -9 31 -24 58 -35 64 -22 12 -80 14 -80 3z"/>
<path d="M21395 15353 c-11 -3 -26 -12 -32 -21 -20 -24 -16 -97 7 -134 27 -44
25 -57 -12 -95 -26 -26 -33 -44 -39 -93 -5 -47 -14 -68 -38 -95 -38 -44 -41
-81 -7 -97 40 -18 56 -4 56 45 0 66 25 128 66 162 33 28 37 36 41 95 2 36 4
76 2 90 -3 42 -2 104 2 125 4 20 -11 26 -46 18z"/>
<path d="M23954 15216 c-3 -9 -3 -28 0 -42 13 -50 -37 -70 -98 -39 -53 28 -40
5 42 -75 60 -58 90 -80 108 -80 24 0 26 2 19 33 -4 17 -10 73 -13 122 -7 83
-9 90 -30 93 -13 2 -25 -3 -28 -12z"/>
<path d="M21577 14863 c-37 -3 -51 -9 -64 -30 -16 -24 -21 -25 -71 -19 -51 6
-55 5 -83 -25 -16 -17 -29 -35 -29 -41 0 -6 -13 -7 -32 -2 -50 11 -88 6 -132
-19 -43 -23 -44 -26 -80 -157 -33 -124 -29 -190 14 -190 22 0 26 12 35 115 8
97 34 133 123 177 23 11 47 29 53 39 5 11 16 19 24 19 19 0 45 -39 45 -67 0
-30 14 -29 34 2 9 14 33 29 54 35 28 7 47 22 70 54 34 47 67 65 84 48 19 -19
21 -105 4 -146 -17 -40 -14 -53 16 -74 10 -7 18 -21 18 -31 0 -29 11 -31 51
-8 27 16 43 19 52 12 54 -39 68 -46 93 -48 20 -1 29 3 32 16 6 29 -25 54 -74
62 -34 5 -49 14 -67 38 -34 45 -39 65 -27 103 10 30 8 37 -25 82 -29 41 -60
69 -68 60 -1 -1 -23 -3 -50 -5z"/>
<path d="M23936 14645 c-8 -39 -1 -67 23 -104 9 -14 16 -31 16 -39 0 -15 15
-26 48 -36 10 -3 26 -24 34 -46 9 -22 19 -40 23 -40 13 0 30 26 36 57 5 25 -1
38 -41 84 -26 30 -57 75 -70 100 -20 38 -41 59 -60 59 -1 0 -6 -16 -9 -35z"/>
<path d="M21445 14524 c-60 -69 -65 -78 -59 -109 9 -51 -12 -99 -62 -140 -40
-33 -44 -40 -44 -81 0 -50 14 -84 33 -84 19 0 77 63 77 83 0 9 13 32 30 50 29
34 80 131 80 154 0 6 14 23 32 37 30 23 31 26 18 51 -12 23 -12 29 4 56 22 37
15 59 -18 59 -18 0 -42 -20 -91 -76z"/>
<path d="M24320 14571 c0 -11 14 -29 31 -41 17 -12 43 -49 60 -83 16 -33 35
-67 43 -76 8 -9 18 -32 23 -51 10 -37 34 -50 58 -30 23 19 18 36 -19 58 -27
16 -34 27 -39 62 -10 74 -74 157 -134 175 -18 5 -23 2 -23 -14z"/>
<path d="M23682 14474 c-22 -25 -30 -27 -81 -13 -8 2 -16 -3 -18 -13 -3 -11 5
-18 26 -23 17 -4 48 -21 70 -38 21 -18 59 -47 85 -64 52 -37 61 -54 71 -138
l8 -58 -38 -31 c-29 -25 -36 -37 -31 -53 11 -33 32 -34 72 -2 20 16 40 29 45
29 4 0 57 -25 118 -56 92 -47 113 -55 126 -44 21 17 19 33 -6 56 -12 10 -25
29 -30 42 -6 16 -17 22 -40 22 -22 0 -41 11 -71 40 -23 22 -46 40 -52 40 -30
1 -51 32 -57 88 -10 84 -58 192 -99 220 -43 29 -70 28 -98 -4z"/>
<path d="M23578 14313 c0 -5 -2 -26 -2 -48 -1 -36 -4 -40 -28 -43 -17 -2 -54
12 -101 37 -40 23 -81 41 -89 41 -9 0 -35 -12 -57 -27 -54 -35 -51 -57 9 -60
63 -4 190 -33 220 -51 14 -8 43 -35 65 -60 52 -57 77 -53 94 13 6 26 19 49 31
55 39 21 19 79 -33 96 -12 4 -36 17 -53 30 -31 24 -53 30 -56 17z"/>
<path d="M21670 14225 c-9 -11 -9 -22 0 -49 8 -25 8 -41 1 -55 -18 -32 -13
-51 17 -63 15 -7 42 -25 60 -40 27 -23 37 -26 52 -18 25 13 36 56 20 75 -7 8
-25 15 -41 15 -43 0 -71 33 -63 74 6 33 -8 76 -25 76 -5 0 -14 -7 -21 -15z"/>
<path d="M24090 14141 c0 -11 15 -28 35 -40 19 -11 41 -32 47 -47 11 -25 15
-26 61 -20 34 4 58 1 79 -10 37 -19 58 -12 58 19 0 45 -42 71 -130 78 -46 4
-88 14 -102 23 -30 21 -48 20 -48 -3z"/>
<path d="M22772 14108 c-27 -27 1 -68 48 -68 49 0 74 -30 77 -91 1 -30 2 -59
3 -65 0 -6 26 -27 59 -47 32 -20 70 -52 85 -72 24 -31 32 -35 72 -35 38 0 53
-6 87 -35 23 -20 45 -31 50 -26 4 4 7 28 5 52 l-3 44 -102 35 c-70 24 -113 45
-136 67 -33 31 -57 88 -57 134 0 32 -26 69 -49 69 -10 0 -39 11 -65 25 -54 29
-58 29 -74 13z"/>
<path d="M23070 14015 c0 -42 20 -94 44 -114 15 -12 22 -12 52 2 47 23 61 21
88 -9 19 -23 25 -25 43 -15 37 19 70 13 97 -20 36 -42 33 -75 -9 -115 -22 -20
-38 -47 -43 -71 -7 -35 -11 -38 -42 -38 -28 -1 -38 -7 -48 -27 -24 -50 -79
-44 -139 14 -33 32 -63 33 -63 2 0 -9 23 -41 51 -72 62 -68 71 -91 61 -150 -6
-38 -13 -50 -40 -65 -45 -26 -55 -14 -60 71 -4 61 -8 71 -42 108 -21 23 -41
55 -45 72 -4 21 -23 43 -60 71 -49 37 -65 42 -65 18 0 -5 14 -22 32 -39 25
-23 34 -41 38 -76 4 -38 10 -49 31 -59 52 -25 55 -38 43 -155 -4 -37 -12 -72
-18 -77 -6 -5 -31 -11 -56 -13 -42 -3 -45 -5 -53 -40 -6 -27 -14 -38 -28 -38
-46 0 -48 100 -3 166 30 44 30 80 -1 154 -14 33 -25 67 -25 76 0 9 -13 32 -30
50 -16 19 -34 53 -41 76 -13 50 -75 155 -99 168 -19 10 -40 -5 -40 -30 0 -9
14 -38 31 -65 17 -28 38 -68 46 -90 13 -35 25 -206 23 -320 -1 -50 -25 -89
-48 -79 -9 4 -28 7 -42 8 -22 1 -26 -4 -33 -54 -5 -30 -9 -77 -8 -103 1 -41
-3 -52 -28 -77 -34 -34 -43 -36 -65 -14 -23 22 -20 33 19 68 19 18 35 37 35
42 0 5 -17 19 -38 31 -28 16 -42 19 -56 11 -21 -12 -42 3 -33 25 3 9 14 13 30
10 22 -4 27 0 41 45 16 47 16 53 1 82 -22 43 -16 60 29 84 49 26 65 50 50 74
-9 13 -23 16 -66 14 -61 -4 -82 10 -76 50 2 19 11 24 48 30 112 18 120 20 120
35 0 9 -16 33 -35 54 -26 29 -35 48 -35 75 0 19 -5 45 -11 56 -6 12 -16 42
-23 67 -11 47 -40 67 -57 39 -13 -19 -11 -86 3 -125 12 -32 11 -35 -16 -56
l-28 -23 26 -31 c14 -17 26 -43 26 -58 0 -27 -1 -27 -45 -21 -58 9 -68 -10
-31 -55 32 -37 37 -58 39 -146 l2 -67 -30 -6 -30 -5 4 -94 c3 -99 25 -180 60
-230 12 -16 26 -46 33 -67 12 -37 16 -39 61 -44 90 -11 102 -65 21 -96 -28
-11 -58 -33 -76 -56 -38 -46 -61 -55 -93 -34 -33 22 -31 42 5 61 37 19 55 58
40 86 -12 21 -36 24 -72 10 -13 -5 -35 -12 -50 -15 -21 -5 -29 -14 -34 -41 -8
-47 -27 -61 -60 -46 -36 16 -62 14 -101 -10 -36 -23 -51 -22 -144 4 -70 19
-76 27 -84 123 -7 92 -18 106 -72 96 -26 -5 -28 -17 -8 -52 8 -14 14 -52 15
-86 0 -51 -4 -64 -23 -82 -28 -26 -40 -27 -73 -6 -23 16 -27 16 -58 -1 -32
-17 -36 -17 -59 -2 -14 9 -29 26 -32 38 -10 32 19 50 78 48 37 -2 53 3 70 19
27 28 16 38 -24 22 -28 -12 -33 -12 -45 5 -18 25 -18 59 2 96 15 31 13 59 -5
59 -18 0 -41 -32 -41 -57 0 -31 -56 -89 -94 -99 -21 -5 -33 -1 -53 17 -22 21
-24 30 -20 71 5 38 2 52 -15 74 -19 24 -20 30 -8 58 7 17 16 58 20 91 7 64 17
95 30 95 23 0 38 31 33 67 -4 29 0 45 18 67 19 25 27 27 59 22 26 -4 41 -2 50
8 19 23 -4 52 -46 59 -20 4 -46 15 -58 25 -42 38 -114 -8 -88 -55 17 -29 2
-135 -23 -169 -20 -27 -63 -148 -80 -227 -3 -17 -15 -31 -30 -37 -22 -8 -23
-12 -14 -42 5 -18 9 -34 9 -35 0 -2 16 -21 36 -43 19 -21 39 -51 43 -66 11
-44 33 -51 71 -24 30 22 35 22 59 9 60 -34 22 -106 -61 -116 -23 -2 -60 -11
-81 -19 -68 -26 -117 -14 -117 28 0 9 10 38 22 63 14 28 18 48 12 54 -5 5 -35
12 -66 16 l-58 6 0 -28 c0 -16 7 -38 15 -49 8 -10 15 -27 15 -37 0 -32 -79
-144 -111 -157 -40 -17 -77 -6 -85 25 -9 38 -32 30 -62 -22 -57 -99 -100 -117
-146 -62 -31 37 -33 72 -5 100 27 27 20 42 -26 51 -56 12 -67 -3 -76 -109 -4
-48 -8 -105 -8 -125 -1 -42 -27 -64 -65 -54 -31 8 -46 85 -29 152 7 27 15 72
19 100 5 42 11 54 30 63 14 6 30 11 35 11 6 0 23 8 37 19 15 10 42 22 60 26
42 9 58 35 67 109 8 72 -8 73 -45 1 -30 -58 -60 -82 -126 -99 -44 -11 -50 -16
-62 -52 -16 -46 -58 -94 -85 -94 -10 0 -27 5 -37 10 -29 16 -33 -4 -10 -49 25
-51 25 -58 -2 -66 -13 -3 -40 -13 -60 -22 -34 -14 -41 -14 -78 1 -23 9 -46 13
-52 10 -14 -9 -1 -112 18 -141 20 -32 52 -30 64 5 17 47 26 57 55 57 41 0 53
-26 33 -69 -14 -28 -15 -40 -5 -66 11 -29 10 -34 -12 -51 -13 -10 -31 -19 -40
-19 -27 0 -41 -21 -41 -63 l0 -38 28 18 c15 11 40 24 55 31 35 15 77 101 77
158 0 47 14 64 52 64 l28 0 0 -80 c0 -96 -16 -141 -59 -166 -24 -14 -36 -31
-47 -71 -17 -58 -33 -68 -92 -59 -51 8 -66 -4 -58 -45 4 -19 8 -42 9 -51 1
-10 2 -18 3 -18 32 0 114 26 130 41 24 22 42 25 91 14 48 -11 57 19 14 52 -46
36 -42 67 18 130 26 28 52 64 56 80 10 40 23 53 56 53 35 0 51 -26 47 -77 -4
-49 25 -59 40 -14 7 21 19 31 42 36 42 9 63 -9 55 -47 -4 -15 -3 -28 2 -29 28
-2 66 -8 82 -14 19 -6 51 17 51 36 0 6 10 33 21 60 24 55 57 79 109 79 27 0
33 -6 50 -44 10 -24 23 -47 29 -50 16 -10 14 -36 -3 -36 -7 0 -19 6 -25 14
-15 18 -45 26 -62 16 -14 -9 -14 -109 1 -124 5 -5 20 0 36 13 17 13 41 21 66
21 24 0 56 10 82 25 45 26 65 25 98 -2 18 -16 38 -10 38 11 0 7 -49 60 -110
118 -60 58 -110 110 -110 115 0 24 53 30 90 9 140 -76 142 -78 161 -141 9 -33
24 -78 33 -100 31 -81 13 -177 -49 -262 -24 -31 -3 -36 35 -8 19 14 40 25 47
25 8 0 35 20 61 44 71 67 91 71 146 34 26 -16 52 -28 59 -25 8 3 21 27 31 54
34 96 48 103 76 39 10 -25 25 -46 32 -47 52 -5 203 32 250 61 40 24 69 25 108
5 38 -19 38 -48 3 -74 -70 -50 -133 -118 -133 -143 0 -38 -20 -87 -40 -98 -25
-14 -77 -13 -86 2 -4 6 -6 37 -5 69 l2 57 -33 7 c-18 4 -45 19 -60 33 -24 22
-31 24 -54 14 -37 -17 -28 -46 16 -52 30 -4 35 -9 32 -29 -3 -33 -52 -103 -84
-120 -25 -15 -29 -14 -53 9 -21 20 -25 32 -23 70 3 39 0 45 -18 48 -38 5 -103
-80 -153 -200 -11 -27 -24 -48 -30 -48 -15 0 -53 55 -66 93 -13 41 -47 48 -81
16 -13 -12 -24 -28 -24 -34 0 -6 -11 -22 -25 -35 -21 -20 -28 -22 -50 -12 -33
15 -41 54 -20 98 20 43 14 64 -20 64 -20 0 -29 -8 -41 -36 -12 -30 -19 -35
-42 -32 -26 3 -27 5 -27 60 0 45 -4 60 -20 72 -27 21 -32 20 -67 -9 -16 -14
-42 -25 -57 -25 -27 0 -51 -16 -51 -33 0 -5 16 -7 36 -4 35 6 95 -11 107 -30
15 -24 17 -79 3 -98 -14 -20 -15 -19 -48 12 -38 36 -50 40 -99 30 -29 -6 -39
-15 -57 -52 -23 -48 -49 -58 -72 -29 -21 25 0 66 45 90 22 11 42 29 44 39 2
15 -2 17 -27 12 -17 -4 -70 -25 -117 -48 -116 -55 -147 -58 -241 -24 -42 15
-78 34 -81 41 -8 21 14 41 52 48 25 5 35 12 35 26 0 34 -20 32 -81 -9 -80 -54
-117 -63 -286 -70 -117 -5 -146 -9 -160 -24 -16 -16 -16 -18 3 -37 27 -27 123
-38 228 -26 56 6 85 5 98 -3 25 -16 48 -14 70 6 18 16 23 16 83 -5 51 -19 75
-22 122 -17 81 9 113 -4 113 -49 0 -41 13 -47 63 -30 26 9 45 10 63 4 43 -17
104 -12 131 10 35 27 49 25 83 -12 l30 -32 51 16 c53 17 72 15 102 -10 16 -14
21 -14 45 0 16 9 63 20 106 24 42 4 93 15 113 25 27 14 39 15 53 7 15 -10 33
-3 101 36 97 57 111 54 120 -20 10 -78 23 -109 45 -109 15 0 19 7 20 40 0 22
8 54 17 72 9 18 17 40 17 51 0 10 5 23 12 30 24 24 118 9 118 -20 0 -6 -16
-28 -35 -50 -29 -32 -34 -42 -25 -58 17 -32 35 -24 98 45 68 75 97 83 110 33
4 -17 13 -33 19 -35 7 -3 45 27 86 65 59 54 84 71 116 76 24 3 54 18 75 36 37
33 52 36 91 18 34 -15 66 2 93 51 11 20 32 47 46 60 22 21 32 23 72 17 37 -5
52 -2 66 11 10 9 18 20 18 26 0 26 73 125 104 142 l35 19 47 -37 c26 -20 55
-37 65 -37 30 0 31 31 2 72 -19 29 -27 52 -27 86 -1 43 1 47 24 47 19 0 26 -6
30 -31 9 -44 16 -51 56 -64 54 -18 66 -9 63 52 -2 29 1 63 5 76 10 30 44 29
56 -3 12 -32 25 -32 47 3 10 15 31 44 48 65 29 38 30 41 28 137 -4 132 13 148
122 119 77 -20 77 -20 90 49 l12 62 -37 0 c-119 0 -75 163 53 195 46 12 67 54
66 128 -2 75 16 119 50 127 17 4 28 16 33 35 13 46 132 124 191 125 29 0 77
41 77 66 0 16 -110 94 -133 94 -17 0 -18 -6 -12 -50 l7 -50 -49 0 c-46 0 -52
-3 -82 -40 -46 -57 -63 -39 -86 91 -9 49 11 69 62 62 30 -4 42 -1 57 16 11 12
27 21 37 21 25 0 77 46 99 89 10 20 28 44 39 53 29 24 26 36 -10 56 -17 9 -53
38 -79 65 -55 55 -90 62 -116 21 -22 -32 -10 -73 26 -90 76 -35 85 -41 88 -62
4 -26 -13 -52 -33 -52 -8 0 -27 11 -43 25 -26 22 -72 34 -72 20 0 -4 7 -20 16
-36 17 -34 6 -59 -26 -59 -32 0 -43 24 -29 68 10 35 9 45 -7 79 -16 32 -25 39
-54 41 -50 5 -60 18 -60 76 0 58 -41 169 -63 174 -8 2 -25 -11 -37 -28 -19
-27 -26 -30 -55 -24 -21 4 -43 0 -63 -10 -17 -9 -41 -16 -52 -16 -21 0 -65 38
-86 75 -10 17 -13 18 -28 6 -21 -17 -21 -49 1 -73 15 -16 15 -21 3 -28 -19
-11 -30 -3 -30 21 0 14 -12 25 -37 35 -21 8 -54 24 -74 34 -20 11 -39 20 -43
20 -3 0 -6 -16 -6 -35z"/>
<path d="M21683 13924 c-3 -8 -1 -26 6 -40 6 -14 11 -44 11 -67 0 -56 18 -119
33 -114 7 2 21 25 31 51 18 41 19 52 7 94 -6 26 -19 57 -27 70 -17 25 -52 29
-61 6z"/>
<path d="M21440 13820 c-12 -8 -13 -16 -2 -55 7 -25 12 -57 12 -71 0 -15 5
-44 12 -65 13 -46 35 -50 87 -18 29 18 33 24 27 51 -3 17 -6 43 -6 59 0 23 -5
29 -21 29 -12 0 -37 17 -58 40 -27 29 -40 37 -51 30z"/>
<path d="M22126 13708 c-24 -33 -20 -45 24 -74 l40 -27 -6 -56 c-3 -31 -10
-95 -15 -143 -9 -83 -3 -128 18 -141 22 -14 53 35 53 81 0 16 7 49 15 72 26
74 15 128 -32 167 -8 6 -16 31 -18 56 -5 81 -45 114 -79 65z"/>
<path d="M22008 13611 c4 -42 0 -57 -30 -108 -29 -48 -36 -72 -41 -136 -5 -72
-4 -77 14 -77 11 0 33 7 49 15 26 13 29 20 32 77 3 40 0 74 -9 92 -19 43 -16
64 10 68 43 6 32 118 -12 118 -16 0 -17 -7 -13 -49z"/>
<path d="M18131 13469 c-30 -33 -38 -69 -17 -81 21 -12 21 -36 0 -60 -24 -26
-2 -48 47 -48 29 0 47 8 74 31 33 29 37 30 54 15 28 -26 51 -20 51 12 0 37
-24 58 -85 76 -30 10 -57 27 -74 47 l-27 32 -23 -24z"/>
<path d="M18502 13468 c-20 -20 -14 -35 28 -79 l40 -42 85 7 c92 7 152 26 161
51 9 23 -4 65 -23 72 -10 4 -23 -3 -36 -22 -26 -35 -74 -55 -132 -55 -42 0
-46 2 -62 37 -19 40 -41 51 -61 31z"/>
<path d="M21680 13435 c-6 -17 -5 -39 5 -70 12 -40 12 -52 -1 -87 -25 -73 -16
-97 30 -77 39 18 70 -1 106 -65 29 -51 54 -74 63 -58 9 16 -10 121 -26 146
-10 15 -31 29 -48 33 -43 8 -69 47 -67 98 1 30 -6 52 -21 74 -12 17 -24 31
-27 31 -2 0 -9 -11 -14 -25z"/>
<path d="M15277 13378 c-27 -29 -57 -70 -68 -90 -10 -20 -32 -45 -49 -55 -16
-9 -30 -20 -30 -24 0 -4 -16 -26 -35 -49 -19 -23 -35 -38 -35 -34 0 14 -52
-40 -61 -63 -5 -13 -26 -35 -47 -50 -21 -15 -51 -44 -67 -66 -17 -21 -52 -64
-80 -96 -27 -32 -58 -71 -67 -87 -10 -16 -31 -49 -48 -74 -16 -25 -43 -70 -59
-100 -36 -69 -247 -280 -329 -330 -15 -9 -69 -58 -121 -108 -51 -51 -97 -92
-102 -92 -9 0 -98 -74 -154 -128 -16 -15 -52 -46 -80 -68 -27 -21 -91 -75
-141 -119 -170 -150 -257 -222 -384 -320 -28 -22 -70 -56 -93 -76 -23 -20 -64
-51 -92 -68 -53 -33 -140 -101 -211 -164 -48 -43 -72 -52 -204 -72 -190 -29
-521 -114 -700 -181 -69 -26 -199 -72 -290 -104 -91 -31 -193 -69 -228 -84
-35 -15 -111 -44 -170 -65 -118 -42 -323 -126 -417 -171 -117 -56 -201 -92
-265 -115 -71 -25 -209 -78 -310 -120 -275 -113 -363 -150 -415 -177 -33 -17
-88 -41 -123 -54 -35 -14 -73 -31 -86 -39 -12 -8 -54 -26 -92 -39 -38 -13
-130 -53 -204 -89 -74 -36 -176 -81 -227 -100 -50 -20 -104 -44 -119 -53 -41
-27 -170 -79 -386 -154 -108 -38 -210 -76 -227 -85 -78 -40 -394 -139 -541
-169 -41 -8 -154 -36 -250 -62 -96 -25 -193 -51 -215 -56 -22 -5 -69 -18 -105
-29 -36 -11 -101 -26 -145 -34 -44 -8 -116 -25 -160 -39 -44 -14 -132 -39
-195 -55 -63 -16 -155 -43 -205 -60 -49 -16 -130 -42 -180 -55 -239 -67 -423
-122 -560 -166 -82 -27 -202 -63 -265 -80 -63 -17 -153 -44 -200 -60 -47 -15
-130 -38 -185 -49 -55 -12 -141 -33 -191 -46 -49 -14 -97 -25 -106 -25 -20 0
-323 -90 -523 -155 -22 -7 -69 -22 -105 -33 -344 -105 -540 -176 -605 -217
-38 -24 -99 -60 -135 -79 -164 -87 -304 -204 -375 -312 -21 -32 -62 -86 -91
-119 -29 -34 -60 -75 -71 -92 -10 -16 -37 -62 -60 -100 -23 -38 -51 -93 -63
-122 -11 -29 -30 -71 -41 -94 -12 -22 -32 -82 -46 -132 -13 -49 -33 -112 -43
-140 -10 -27 -32 -99 -49 -160 -18 -60 -40 -137 -50 -170 -11 -33 -31 -100
-46 -150 -15 -49 -40 -129 -56 -176 -16 -48 -29 -95 -29 -104 0 -24 -37 -139
-61 -191 -13 -28 -19 -63 -19 -108 0 -68 -29 -271 -56 -383 -7 -34 -14 -79
-14 -100 0 -21 -7 -60 -15 -87 -8 -27 -15 -74 -15 -104 0 -30 -6 -80 -14 -111
-8 -31 -18 -87 -21 -126 -4 -38 -13 -97 -21 -130 -8 -33 -14 -76 -14 -95 0
-19 -9 -73 -19 -120 -22 -99 -41 -218 -41 -259 0 -16 -9 -58 -21 -93 -11 -34
-24 -94 -29 -133 -8 -66 -58 -259 -115 -440 -14 -44 -25 -86 -25 -93 0 -7 -7
-27 -16 -43 -16 -32 -74 -311 -74 -359 0 -16 -5 -41 -11 -57 -6 -15 -12 -57
-14 -93 -1 -36 -7 -83 -13 -105 -25 -92 -55 -224 -64 -280 -5 -33 -16 -94 -24
-135 -8 -42 -14 -86 -14 -99 0 -13 -8 -38 -19 -55 -12 -20 -20 -59 -24 -106
-3 -41 -14 -95 -25 -120 -23 -54 -37 -115 -52 -235 -6 -49 -20 -109 -31 -133
-10 -23 -19 -53 -19 -66 0 -12 -11 -60 -25 -106 -14 -46 -25 -96 -25 -112 0
-27 -26 -140 -70 -308 -11 -41 -20 -91 -20 -110 0 -19 -7 -56 -14 -82 -8 -26
-18 -80 -21 -120 -4 -40 -16 -111 -27 -158 -11 -47 -28 -137 -38 -200 -9 -63
-31 -169 -48 -235 -16 -66 -33 -135 -36 -152 l-5 -33 54 0 c30 0 55 1 55 3 1
29 22 123 31 133 6 8 29 14 50 14 28 0 41 5 49 20 13 24 45 26 54 4 10 -26
-31 -74 -63 -74 -16 0 -37 -10 -51 -25 -22 -23 -22 -25 -6 -50 l16 -25 9050 0
c8613 0 9050 1 9050 18 -1 26 -32 127 -109 352 -39 113 -78 239 -87 280 -10
48 -29 99 -54 140 -42 71 -131 317 -132 365 0 17 -13 64 -28 105 -15 41 -33
91 -40 110 -21 58 -65 179 -102 280 -45 120 -50 136 -83 240 -14 47 -37 119
-51 161 -13 42 -24 90 -24 106 0 21 -11 42 -40 71 -22 22 -40 50 -40 61 0 19
-17 66 -82 226 -11 28 -32 88 -47 135 -15 47 -44 123 -64 170 -59 141 -87 216
-107 289 -11 39 -29 87 -40 108 -11 21 -29 79 -41 128 -27 113 -75 249 -104
295 -25 39 -71 164 -135 365 -23 72 -48 139 -54 150 -7 11 -21 45 -31 75 -10
30 -28 77 -40 105 -12 27 -28 74 -34 104 -6 29 -18 65 -26 80 -8 14 -31 71
-50 126 -20 55 -56 141 -80 192 -24 50 -53 124 -64 165 -10 40 -34 111 -51
158 -58 156 -150 427 -150 444 0 13 5 16 23 10 56 -17 87 -34 87 -48 0 -21 66
-93 101 -112 52 -26 96 -18 140 26 32 32 44 38 67 34 16 -3 51 3 86 16 46 18
63 20 82 11 30 -13 53 -5 58 23 3 11 7 33 10 47 4 20 26 38 95 78 49 28 100
51 114 51 16 0 33 10 46 28 28 37 28 37 96 82 33 22 83 47 110 56 29 9 61 28
77 46 28 32 49 46 178 119 41 23 96 60 121 83 25 22 69 59 99 81 29 22 63 50
75 63 13 12 39 33 58 47 52 34 163 129 222 187 80 80 88 85 149 112 47 21 57
29 51 43 -17 42 -16 49 9 61 15 6 31 23 37 36 7 14 25 30 41 37 30 12 50 42
62 93 4 16 31 53 60 81 44 44 56 64 75 126 31 104 41 120 86 144 24 13 39 27
36 36 -2 8 -6 21 -8 30 -3 11 5 20 25 27 17 6 33 20 37 31 4 14 15 21 31 21
14 0 26 6 28 13 17 63 22 71 61 84 22 8 78 16 125 17 55 2 116 13 173 30 48
14 104 26 125 26 25 0 43 7 54 19 9 11 42 25 73 32 49 11 72 10 173 -7 124
-20 298 -25 439 -11 l83 7 142 -131 c203 -186 202 -186 239 -204 19 -10 44
-26 56 -37 27 -25 255 -123 335 -144 35 -8 87 -29 118 -45 35 -19 70 -29 97
-29 23 0 77 -11 120 -25 43 -14 101 -25 130 -25 28 0 80 -9 115 -20 34 -11 79
-20 98 -20 19 -1 69 -8 110 -16 41 -9 109 -19 150 -24 41 -4 97 -16 124 -25
38 -13 54 -14 73 -6 38 18 143 13 190 -8 34 -16 44 -17 60 -6 23 16 149 25
186 12 20 -7 33 -5 50 6 16 10 42 13 102 9 112 -6 142 -6 202 4 46 8 58 15 93
58 22 26 40 52 40 57 0 13 101 218 110 224 15 9 100 224 100 253 0 18 13 46
34 73 30 37 36 53 42 116 4 46 13 82 24 96 39 50 95 208 140 395 38 156 42
305 10 397 -11 32 -20 74 -20 93 0 20 -5 65 -10 101 -6 36 -15 98 -21 136 -6
39 -21 102 -34 140 -13 39 -27 95 -30 125 -11 93 -71 270 -110 324 -19 27 -35
54 -35 58 0 5 -11 33 -24 61 -40 89 -106 290 -106 325 0 15 6 22 20 22 36 0
150 -178 150 -236 0 -11 9 -29 19 -38 22 -20 38 -77 50 -173 6 -45 16 -71 35
-94 20 -24 26 -39 21 -57 -4 -17 2 -35 20 -62 14 -21 34 -65 45 -99 10 -33 30
-75 44 -92 21 -25 25 -38 20 -63 -5 -27 0 -39 30 -75 20 -24 36 -54 36 -68 0
-14 7 -37 15 -51 8 -15 28 -63 44 -108 16 -44 41 -97 55 -118 14 -21 29 -54
32 -75 4 -20 37 -103 74 -186 37 -82 73 -168 79 -190 7 -22 28 -72 47 -112 19
-39 34 -79 34 -87 0 -9 11 -26 24 -37 14 -13 29 -42 36 -70 7 -27 16 -52 21
-55 5 -3 9 -20 9 -39 0 -23 10 -45 35 -75 26 -31 35 -51 35 -78 0 -20 13 -63
29 -96 48 -98 71 -157 71 -180 0 -28 18 -46 46 -46 13 0 26 -5 29 -10 4 -6 10
-8 15 -5 4 3 16 -16 26 -42 9 -27 41 -102 69 -168 29 -66 58 -147 65 -180 7
-33 21 -80 32 -105 11 -25 28 -76 38 -115 11 -38 34 -115 53 -170 19 -55 42
-136 52 -180 9 -44 39 -147 65 -230 76 -233 110 -357 121 -430 5 -38 21 -100
35 -139 29 -81 71 -234 104 -381 44 -197 58 -252 103 -415 25 -91 53 -201 61
-245 8 -44 25 -129 36 -190 29 -151 68 -328 91 -403 10 -34 19 -76 19 -92 0
-52 16 -77 53 -84 30 -6 38 -15 67 -71 18 -35 37 -83 42 -107 14 -68 40 -309
34 -324 -3 -8 -17 -14 -30 -14 -31 0 -49 -30 -40 -65 7 -27 23 -32 41 -14 27
27 69 -51 79 -147 5 -50 15 -81 37 -116 17 -27 38 -83 48 -126 82 -365 147
-619 170 -671 10 -24 19 -50 19 -57 0 -16 55 -191 80 -254 10 -25 32 -115 49
-200 17 -85 43 -204 56 -265 14 -60 37 -162 51 -225 15 -63 30 -140 34 -170
16 -119 32 -219 46 -293 8 -43 18 -99 21 -125 3 -25 16 -77 29 -116 13 -38 24
-91 24 -117 0 -49 15 -73 31 -48 5 8 6 31 2 52 -4 28 -1 42 12 57 21 23 48 26
62 7 11 -13 53 -226 53 -264 0 -22 4 -23 70 -23 77 0 83 6 59 67 -6 15 -17 53
-24 83 -7 30 -25 83 -39 117 -15 35 -38 108 -51 163 -14 55 -32 117 -39 138
-8 20 -17 54 -21 75 -3 21 -15 58 -25 83 -11 24 -31 88 -45 142 -14 53 -40
127 -56 164 -20 44 -33 94 -38 145 -6 57 -17 94 -40 137 -17 32 -31 72 -31 90
0 17 -9 51 -20 75 -11 24 -20 61 -20 82 0 22 -7 50 -15 62 -19 29 -63 165 -71
219 -4 24 -20 74 -36 111 -16 38 -33 90 -38 115 -5 26 -22 83 -38 127 -17 45
-35 117 -42 160 -7 44 -25 114 -40 155 -15 41 -35 118 -45 170 -9 52 -27 118
-40 146 -13 29 -26 71 -30 95 -4 24 -15 67 -25 94 -10 28 -23 92 -29 143 -7
54 -22 115 -36 148 -14 31 -25 67 -25 81 0 13 -5 34 -11 46 -20 36 -49 167
-49 217 0 37 -10 66 -42 127 -47 90 -73 177 -93 316 -11 74 -22 112 -45 152
-21 37 -30 66 -30 98 0 24 -11 84 -25 132 -52 179 -75 274 -75 310 0 21 -9 52
-19 69 -27 43 -63 173 -56 196 13 40 42 22 81 -48 33 -58 38 -76 38 -133 1
-58 5 -72 32 -110 37 -51 64 -134 64 -195 0 -27 10 -62 30 -99 17 -31 30 -63
30 -70 0 -7 9 -32 20 -56 11 -24 20 -60 20 -79 0 -19 7 -46 15 -60 8 -14 15
-36 15 -50 0 -14 10 -45 21 -70 12 -25 27 -65 34 -90 7 -25 25 -76 39 -115 34
-91 56 -178 56 -219 0 -21 8 -40 21 -52 32 -29 41 -60 29 -105 -9 -32 -7 -44
10 -76 11 -21 20 -57 20 -81 0 -35 6 -49 39 -85 46 -51 61 -78 61 -110 0 -14
17 -58 37 -98 29 -58 38 -90 43 -150 5 -65 11 -82 40 -123 29 -40 35 -57 38
-114 3 -63 26 -142 42 -142 4 0 19 -11 34 -25 20 -19 26 -33 26 -68 0 -25 7
-61 16 -82 14 -35 14 -58 -1 -97 -3 -8 10 -38 30 -67 28 -40 41 -77 60 -161
14 -60 25 -111 25 -113 0 -3 16 -24 35 -47 31 -37 35 -49 35 -96 0 -60 33
-138 89 -208 27 -34 31 -47 31 -100 0 -44 7 -75 25 -111 13 -27 25 -56 25 -63
0 -7 9 -30 20 -52 11 -22 20 -48 20 -58 0 -11 14 -44 30 -75 17 -31 30 -71 30
-88 0 -20 10 -43 29 -64 18 -21 31 -50 36 -77 13 -88 18 -101 53 -140 34 -38
36 -44 42 -131 3 -51 11 -101 17 -112 6 -11 13 -37 17 -57 5 -26 17 -45 41
-63 37 -29 65 -88 65 -140 0 -20 12 -58 29 -88 16 -28 35 -71 42 -94 l12 -43
3544 0 3543 0 0 168 c-1 231 -14 399 -36 448 -15 34 -19 87 -25 404 -19 871
-29 1001 -105 1304 -44 172 -64 286 -64 356 0 110 -59 401 -96 473 -9 16 -27
81 -40 143 -21 99 -24 141 -24 318 l0 204 -40 113 c-25 68 -48 159 -60 233
-11 66 -29 148 -40 180 -33 96 -60 251 -60 343 0 82 -15 215 -45 398 -9 50
-22 145 -30 212 -8 67 -20 134 -26 150 -6 15 -17 66 -26 113 -37 214 -186 688
-308 985 -21 50 -50 122 -65 160 -38 94 -110 256 -149 334 -43 83 -85 148
-201 306 -52 72 -112 156 -134 187 -61 92 -173 200 -281 270 -122 81 -197 115
-294 134 -47 9 -102 30 -155 58 -150 82 -388 140 -634 157 -202 13 -377 61
-657 178 -243 102 -352 144 -560 218 -277 97 -437 158 -765 288 -296 117 -566
206 -744 244 -54 12 -106 25 -115 30 -9 5 -58 20 -109 35 -113 32 -300 102
-407 151 -140 65 -382 166 -490 205 -44 15 -120 47 -170 70 -356 164 -1004
387 -1525 524 -361 95 -630 162 -769 192 -294 62 -299 63 -510 169 -221 111
-306 163 -467 288 -41 31 -121 90 -178 130 -291 203 -457 363 -615 592 -68 99
-177 232 -202 248 -29 18 -47 1 -54 -50 -4 -26 -13 -84 -21 -128 -26 -140 -33
-224 -38 -485 -3 -140 -5 -267 -5 -282 -1 -41 -30 -36 -72 14 -36 42 -38 42
-120 49 -46 4 -90 4 -99 -1 -9 -5 -36 -27 -60 -50 -25 -23 -61 -52 -80 -66
-70 -48 -86 -59 -134 -97 -38 -29 -55 -37 -74 -32 -28 7 -52 -10 -52 -36 0
-11 -21 -32 -52 -53 -29 -19 -73 -51 -98 -71 -25 -19 -74 -55 -110 -80 -36
-25 -83 -58 -105 -74 -22 -16 -62 -45 -90 -64 -75 -52 -264 -191 -315 -231
-25 -20 -63 -49 -85 -64 -22 -16 -65 -51 -95 -79 -30 -27 -80 -66 -110 -86
-60 -40 -87 -63 -260 -218 -228 -205 -262 -245 -283 -334 -5 -21 45 -16 70 6
20 20 25 21 33 9 5 -8 10 -22 10 -30 0 -8 14 -26 31 -40 26 -22 29 -29 20 -52
-7 -18 -6 -31 3 -44 14 -20 38 -106 38 -139 2 -77 -12 -289 -22 -333 -7 -30
-10 -68 -7 -85 9 -59 -30 -91 -54 -45 -8 14 -9 47 -5 97 10 117 -21 340 -59
427 -17 39 -33 57 -68 77 -52 31 -69 33 -87 12 -10 -13 -10 -19 5 -35 10 -11
15 -26 11 -35 -9 -25 -49 -14 -64 18 -17 35 -28 34 -46 -2 -29 -56 -49 -55
-255 15 -154 52 -171 56 -237 52 -87 -6 -168 -46 -194 -95 -10 -18 -24 -40
-31 -49 -23 -28 -91 -54 -141 -54 -65 0 -79 7 -72 36 14 54 -42 62 -101 15
-14 -11 -59 -27 -101 -37 -74 -18 -74 -18 -102 4 -52 41 -300 192 -423 258
-68 36 -129 70 -134 74 -6 5 -78 36 -160 69 -171 68 -429 151 -690 221 -99 27
-259 72 -355 100 -214 62 -414 98 -860 155 -107 14 -216 30 -243 36 -57 13
-77 2 -77 -43 0 -16 -4 -37 -10 -47 -5 -10 -14 -70 -20 -132 -13 -150 -34
-292 -58 -409 -11 -52 -25 -129 -31 -170 -7 -41 -17 -95 -23 -120 -6 -25 -14
-65 -18 -90 -4 -25 -17 -97 -29 -160 -12 -63 -26 -137 -31 -165 -5 -27 -19
-94 -30 -149 -14 -71 -18 -118 -13 -170 5 -62 3 -78 -17 -116 -19 -38 -23 -59
-22 -130 1 -47 5 -103 8 -125 3 -22 1 -78 -5 -125 -6 -56 -6 -141 1 -249 10
-157 12 -166 45 -235 20 -39 44 -83 55 -98 10 -15 28 -53 39 -85 11 -32 30
-74 44 -93 13 -19 33 -55 44 -80 11 -25 38 -78 60 -119 23 -40 46 -91 51 -112
6 -22 24 -54 40 -72 38 -44 47 -79 24 -101 -39 -39 -99 7 -134 104 -11 30 -26
66 -34 80 -8 14 -33 79 -56 145 -44 127 -117 295 -175 407 -37 69 -75 198 -75
252 0 17 -14 69 -31 116 -16 47 -42 123 -58 170 -15 47 -39 114 -53 150 -15
36 -34 94 -43 130 -9 36 -25 79 -35 95 -11 17 -22 51 -25 75 -21 146 -69 336
-92 362 -8 9 -21 38 -29 64 -8 27 -25 60 -38 74 -26 28 -69 102 -125 215 -20
42 -41 72 -45 68 -10 -10 -24 14 -42 75 -9 29 -28 68 -43 85 -15 18 -33 55
-40 82 -7 28 -26 74 -43 104 -16 30 -37 77 -45 105 -8 28 -19 56 -24 63 -6 6
-61 112 -123 235 -62 122 -131 255 -152 293 -22 39 -86 162 -142 275 -56 113
-107 212 -112 220 -5 8 -44 89 -86 180 -156 339 -209 450 -314 660 -119 239
-160 349 -200 530 -4 19 -18 82 -31 140 -20 91 -23 132 -23 315 0 246 15 408
55 595 24 113 39 155 89 255 58 118 101 184 160 252 29 32 38 53 23 53 -4 0
-29 -24 -56 -52z m9616 -2606 c8 -9 20 -29 26 -45 9 -23 16 -27 48 -27 21 0
43 -4 50 -8 18 -11 25 -55 14 -86 l-11 -27 -42 23 c-24 13 -49 35 -56 50 -7
15 -28 36 -47 48 -39 24 -59 54 -51 76 8 20 50 18 69 -4z m-6816 -1379 c18
-24 16 -58 -7 -101 -10 -20 -21 -45 -24 -54 -3 -10 -14 -18 -25 -18 -25 0 -37
-18 -22 -33 35 -35 -15 -81 -79 -71 -46 8 -60 -10 -43 -56 20 -54 -34 -113
-76 -83 -33 22 -46 4 -30 -40 10 -28 10 -44 1 -75 -21 -69 -41 -85 -118 -93
-77 -8 -91 -5 -69 17 11 12 12 20 5 34 -6 11 -8 30 -4 44 7 28 -11 43 -31 26
-10 -8 -12 -18 -6 -29 10 -19 9 -87 -2 -97 -13 -13 -7 -42 9 -48 9 -3 31 -6
50 -6 37 0 84 -36 84 -65 0 -8 11 -20 24 -27 35 -15 39 -33 12 -65 -13 -16
-26 -38 -30 -50 -4 -11 -18 -28 -31 -37 -17 -11 -25 -26 -25 -44 0 -17 -8 -32
-21 -40 -14 -9 -19 -20 -16 -33 3 -12 -3 -26 -20 -39 -23 -18 -27 -18 -48 -4
-26 17 -40 6 -31 -24 3 -9 2 -22 -2 -27 -11 -17 -102 -79 -163 -114 -31 -17
-75 -54 -98 -81 -23 -28 -48 -50 -55 -50 -20 0 -29 76 -13 108 10 23 19 27 52
27 51 0 57 22 16 64 -38 39 -39 57 -2 173 17 51 37 143 46 203 9 61 27 142 41
180 14 39 29 85 34 103 10 39 25 59 52 68 12 3 17 11 14 20 -3 8 -9 21 -12 29
-4 9 6 27 24 45 24 23 39 30 71 30 46 0 60 14 37 39 -39 43 -2 69 50 34 23
-15 27 -15 41 0 15 14 15 22 1 77 l-15 61 34 29 c27 24 38 28 53 20 10 -6 22
-15 25 -20 11 -17 36 -11 56 14 17 22 23 24 49 14 40 -14 57 -6 74 36 11 25
24 38 48 45 44 13 100 6 115 -16z m5207 -224 c3 -17 6 -39 6 -48 0 -18 -111
-101 -134 -101 -12 0 -26 41 -26 75 0 14 50 38 71 33 9 -2 14 6 15 22 2 47 4
50 33 50 24 0 29 -5 35 -31z m-206 -73 c2 -18 -5 -40 -18 -59 -22 -29 -20 -38
13 -50 16 -5 -5 -35 -32 -47 -16 -6 -45 -10 -67 -8 -36 3 -40 0 -57 -36 -18
-38 -18 -38 -64 -31 l-46 7 7 -36 c7 -34 5 -37 -26 -51 -29 -12 -36 -12 -56 1
-26 17 -52 12 -52 -9 0 -28 -27 -41 -60 -27 -38 16 -38 30 0 114 23 49 35 66
50 66 16 0 20 -7 20 -31 0 -24 4 -30 18 -27 12 2 19 16 22 43 5 38 7 40 39 40
22 0 36 5 38 15 12 43 13 43 31 26 25 -22 42 -20 42 4 0 21 27 40 60 40 13 0
28 13 42 36 35 59 91 70 96 20z m-3086 -94 c77 -50 171 -129 179 -150 5 -13 9
-37 9 -53 0 -39 -31 -39 -60 1 -12 17 -34 37 -48 44 -15 8 -53 38 -84 68 -43
40 -58 61 -58 81 0 32 22 36 62 9z m4712 -82 c14 -5 26 -15 26 -22 0 -6 10
-22 21 -34 16 -17 20 -30 15 -49 -8 -32 -35 -44 -48 -22 -5 10 -13 17 -18 17
-16 0 -11 -44 7 -69 14 -20 14 -29 4 -58 -12 -31 -11 -38 13 -72 37 -54 34
-82 -16 -126 -36 -33 -41 -43 -40 -75 2 -30 -2 -40 -23 -54 -14 -9 -25 -23
-25 -32 0 -8 -12 -25 -27 -38 -25 -22 -26 -25 -13 -55 7 -17 10 -34 7 -38 -12
-11 -60 9 -89 37 -32 33 -30 50 7 50 16 0 31 10 42 28 10 15 24 32 32 38 13
10 13 15 -2 37 -13 21 -14 30 -4 56 11 29 9 33 -26 65 -49 45 -48 52 8 90 16
12 17 16 6 30 -8 9 -29 24 -48 33 -30 14 -36 14 -44 2 -4 -8 -6 -24 -2 -37 4
-16 -2 -31 -18 -48 -39 -42 -82 -24 -77 32 1 16 -4 39 -11 52 -10 19 -10 27 4
48 19 29 50 31 65 4 15 -27 27 -25 34 6 6 22 11 25 32 20 30 -8 54 8 54 35 0
11 9 19 22 21 16 2 24 12 29 36 5 26 62 102 75 102 2 0 14 -4 28 -10z m-2144
-68 c0 -4 -8 -18 -17 -31 -16 -23 -15 -25 10 -46 23 -18 26 -26 21 -53 -8 -41
-41 -67 -110 -89 -89 -28 -129 7 -87 75 15 23 36 49 108 135 15 17 75 24 75 9z
m-1431 -386 c32 -17 103 -15 143 4 21 10 37 10 72 1 25 -6 75 -11 111 -11 37
0 76 -5 88 -12 12 -7 49 -15 82 -19 48 -6 64 -13 83 -35 20 -23 23 -34 17 -73
-14 -101 -21 -110 -45 -58 -11 23 -23 33 -43 35 -24 3 -38 -7 -87 -58 -40 -43
-70 -65 -92 -69 -42 -9 -49 -37 -13 -51 15 -6 35 -20 44 -32 20 -23 41 -17 41
12 0 23 87 77 102 62 6 -6 6 -17 -2 -32 -15 -29 -7 -35 48 -35 43 0 47 -2 55
-32 8 -27 5 -42 -18 -88 -41 -79 -42 -80 -132 -59 -83 19 -106 30 -86 42 25
16 83 67 83 74 0 5 -7 8 -15 8 -8 0 -15 -4 -15 -9 0 -6 -21 -16 -47 -23 -38
-11 -50 -20 -70 -55 -23 -42 -23 -43 -3 -55 30 -19 24 -28 -16 -28 -27 0 -43
7 -65 31 -16 17 -29 35 -29 39 0 5 -15 14 -34 20 -19 6 -37 17 -40 25 -10 26
-37 16 -51 -19 -17 -39 -31 -47 -61 -33 -16 7 -28 5 -47 -8 -14 -9 -51 -19
-82 -22 -65 -7 -77 -19 -45 -45 16 -13 20 -22 13 -29 -17 -17 -88 -22 -113 -9
-21 11 -22 21 -6 61 5 10 -6 23 -35 43 -35 22 -45 25 -56 14 -10 -11 -11 -20
0 -47 11 -31 10 -34 -15 -55 -16 -12 -28 -27 -28 -34 0 -16 -34 -32 -48 -23
-23 14 -54 170 -47 236 10 105 5 147 -20 204 -35 76 -42 123 -19 145 11 11 26
16 43 13 16 -3 41 4 66 18 31 18 63 24 140 30 54 3 115 14 135 22 19 9 55 19
80 23 25 4 46 8 48 9 2 0 16 -5 31 -13z m3685 -194 l30 -43 -27 -48 c-21 -38
-27 -62 -27 -109 0 -43 -5 -63 -16 -73 -14 -11 -20 -10 -40 14 -13 16 -24 39
-24 53 0 18 -10 31 -35 45 -45 27 -59 52 -45 78 7 13 7 28 0 46 -5 14 -10 36
-10 47 0 18 4 20 43 14 34 -5 47 -3 57 9 23 28 61 14 94 -33z m-1089 -332 c22
-11 47 -20 55 -20 8 0 35 -14 59 -30 24 -17 50 -30 57 -30 21 0 47 -46 39 -70
-9 -28 -43 -25 -57 5 -13 30 -38 33 -38 5 0 -12 -10 -25 -25 -32 -20 -9 -65
-67 -65 -83 0 -3 17 -13 38 -24 28 -14 42 -17 56 -9 15 8 23 5 41 -18 l23 -29
25 23 c18 17 34 23 58 20 28 -2 34 0 34 17 0 15 -8 21 -32 23 -17 2 -37 9 -43
17 -28 34 26 84 74 69 11 -3 36 -20 54 -38 28 -26 32 -36 28 -61 -5 -25 -2
-32 16 -40 13 -6 23 -19 23 -30 0 -16 -8 -21 -39 -25 -47 -6 -68 -32 -45 -55
16 -16 42 -11 82 17 28 21 67 -8 92 -69 26 -67 32 -71 46 -39 17 36 45 33 58
-6 7 -20 24 -40 43 -51 30 -17 33 -17 64 -1 27 15 37 16 58 6 29 -13 34 -43
11 -62 -8 -7 -15 -21 -15 -30 0 -10 -11 -31 -23 -47 -13 -15 -27 -41 -31 -57
-4 -17 -21 -45 -37 -63 -16 -19 -29 -44 -29 -56 0 -45 -55 -87 -112 -87 -27 0
-38 4 -38 15 0 29 -29 28 -65 -3 -38 -34 -110 -51 -143 -33 -10 6 -22 8 -25 5
-3 -3 -42 -7 -86 -9 -44 -2 -96 -9 -115 -16 -30 -11 -38 -10 -53 3 -26 22 -83
48 -106 48 -11 0 -34 -9 -52 -20 -38 -23 -63 -18 -76 17 l-9 23 -20 -20 c-22
-22 -51 -20 -81 6 -20 18 -38 18 -59 -1 -14 -13 -19 -13 -39 1 -12 9 -26 27
-31 40 -12 32 -45 31 -75 -2 -15 -16 -32 -24 -47 -22 -35 5 -35 35 1 56 39 21
39 32 2 32 -19 0 -34 8 -43 23 -12 18 -24 22 -62 21 -26 -1 -52 -6 -59 -13
-16 -16 -52 -14 -67 4 -23 27 -55 14 -58 -22 -4 -38 -13 -40 -50 -14 -45 31
-100 47 -114 33 -16 -16 -48 -15 -67 1 -9 8 -37 21 -63 31 -50 19 -56 29 -33
59 12 17 10 23 -20 53 -19 19 -39 34 -45 34 -5 0 -10 6 -10 14 0 8 -9 30 -20
49 -17 29 -27 35 -68 40 -26 3 -54 8 -64 12 -12 5 -18 -1 -23 -24 -8 -39 -19
-45 -47 -30 -28 14 -38 28 -38 52 0 13 8 17 40 17 49 0 70 28 49 66 -11 21
-10 27 11 49 18 19 21 28 12 37 -20 20 -80 -15 -84 -49 -4 -37 -40 -42 -101
-13 -47 22 -65 46 -47 64 7 7 20 3 41 -13 33 -24 63 -22 57 5 -3 18 -11 23
-70 49 -30 14 -40 14 -56 4 -21 -13 -41 -8 -84 23 -23 17 -100 -8 -96 -31 3
-12 16 -16 53 -16 38 0 50 -4 50 -15 0 -11 -14 -16 -52 -18 -32 -2 -53 1 -53
7 0 6 -16 11 -35 11 -42 0 -49 17 -49 135 -1 78 0 79 27 89 19 7 38 6 65 -4
21 -8 73 -13 119 -13 69 1 87 -3 108 -19 19 -14 34 -18 53 -14 63 16 71 12 87
-38 5 -18 8 -17 34 11 26 28 35 32 113 38 88 7 153 4 226 -13 54 -12 59 -18
43 -44 -14 -22 -7 -34 24 -40 15 -2 20 -12 22 -38 1 -19 2 -39 2 -45 2 -15 41
35 41 51 0 8 -11 19 -25 24 -14 5 -25 16 -25 24 0 19 26 38 46 34 21 -4 54
-64 54 -100 0 -26 30 -55 43 -41 4 3 4 32 0 65 l-6 59 34 -3 c29 -2 36 -8 44
-35 10 -37 29 -43 45 -13 12 23 46 26 85 8 23 -11 24 -12 9 -29 -21 -23 -12
-47 21 -55 18 -4 32 -1 42 9 15 14 15 18 0 40 -15 23 -15 25 4 30 12 3 31 -4
50 -21 l31 -25 29 31 c36 38 91 44 130 13 23 -18 47 -25 77 -22 7 0 12 14 12
31 0 64 53 120 100 105 37 -12 60 19 60 81 0 45 4 56 26 73 32 25 38 25 89 1z
m-1270 -651 c0 -23 -5 -27 -68 -55 -34 -15 -39 -15 -55 -1 -9 9 -37 17 -62 19
-38 3 -45 6 -48 26 -6 39 15 52 82 52 33 0 68 5 76 10 21 13 75 -23 75 -51z
m-19377 -147 c17 -76 15 -110 -9 -148 -20 -33 -20 -36 -4 -84 15 -45 15 -53 2
-73 -8 -12 -31 -31 -51 -42 -48 -26 -62 -9 -39 48 14 33 14 48 3 105 -12 66
-11 68 19 132 17 36 31 71 31 78 0 22 21 55 29 46 4 -5 13 -33 19 -62z m15580
24 c15 -7 44 -16 64 -20 25 -4 39 -13 43 -27 10 -32 49 -88 61 -89 6 0 21 11
34 25 13 14 33 25 45 25 24 0 58 -41 68 -81 4 -16 18 -31 36 -39 35 -14 56
-36 66 -68 8 -29 -31 -109 -65 -131 -38 -24 -41 -33 -19 -68 l20 -33 -22 -39
c-12 -21 -31 -43 -43 -49 -21 -9 -22 -15 -29 -112 -3 -52 -14 -63 -57 -57 -30
4 -54 21 -124 88 -80 78 -87 87 -84 119 3 33 1 35 -32 40 -39 6 -60 35 -60 86
0 17 -7 37 -15 44 -19 16 -19 39 1 61 25 27 11 52 -24 44 -43 -9 -78 47 -86
138 l-5 68 34 14 c18 8 37 24 40 35 12 38 100 53 153 26z m-16240 -3293 c2
-12 -9 -60 -23 -108 -24 -78 -26 -95 -20 -184 l7 -98 -34 -39 c-20 -22 -43
-55 -53 -74 -21 -42 -32 -50 -67 -50 -55 0 -78 31 -43 60 8 7 15 25 15 40 0
33 13 45 60 57 26 7 35 15 33 29 -1 10 -5 46 -8 79 -6 56 -5 62 19 84 31 29
32 38 6 71 -28 36 -25 55 15 79 20 11 38 29 42 38 16 46 45 55 51 16z m-192
-620 c47 -51 45 -103 -4 -119 -50 -16 -56 -26 -44 -75 6 -24 8 -48 4 -53 -3
-6 -7 -45 -7 -87 -1 -59 -6 -84 -23 -111 -18 -29 -22 -51 -22 -120 0 -95 -15
-133 -44 -109 -9 7 -16 23 -16 35 0 13 -11 33 -25 46 -29 27 -31 49 -9 93 10
19 18 60 19 103 1 42 8 84 18 104 12 24 15 47 11 85 -5 37 -2 60 10 83 9 17
16 48 16 69 0 80 65 111 116 56z m-215 -1004 c8 -15 8 -33 0 -63 -12 -49 -79
-193 -93 -202 -12 -8 -48 25 -48 43 0 20 28 74 52 100 20 21 20 34 3 89 -14
46 63 75 86 33z"/>
<path d="M21300 8359 c-30 -11 -79 -25 -107 -31 -57 -11 -70 -32 -28 -42 14
-4 30 -17 35 -31 6 -16 18 -25 37 -27 26 -3 28 -7 33 -58 3 -38 10 -56 20 -58
22 -3 80 35 80 54 0 30 -50 102 -75 108 -59 15 -11 59 65 60 38 1 45 4 45 21
0 28 -37 29 -105 4z"/>
<path d="M20800 8315 c-29 -30 -32 -31 -87 -3 -49 24 -63 19 -66 -27 -2 -23 4
-32 28 -43 17 -8 42 -26 57 -40 37 -34 58 -24 58 27 0 52 15 60 39 19 32 -53
41 -60 71 -54 20 3 36 -1 53 -14 31 -25 33 -25 40 0 8 30 34 24 45 -10 6 -16
22 -35 36 -42 28 -12 32 -31 16 -72 -8 -21 -16 -26 -46 -26 -39 0 -42 -14 -8
-37 19 -12 24 -10 52 17 25 23 41 30 72 30 41 0 57 21 25 34 -14 5 -14 8 1 31
21 32 12 55 -22 55 -32 0 -94 36 -94 55 0 7 7 18 15 25 40 34 -6 69 -97 75
-34 2 -79 9 -98 15 -51 15 -64 13 -90 -15z"/>
<path d="M22526 7564 c-10 -9 -14 -24 -10 -38 3 -14 -1 -27 -10 -35 -13 -11
-25 -7 -75 20 -50 28 -62 31 -75 20 -15 -12 -13 -17 16 -47 18 -19 43 -34 56
-34 12 0 40 -11 62 -25 22 -14 44 -25 49 -25 20 0 22 -22 6 -47 -28 -43 -3
-50 44 -12 23 18 41 35 41 38 0 26 -36 91 -56 100 -27 12 -32 42 -9 61 8 7 15
19 15 26 0 19 -35 18 -54 -2z"/>
<path d="M17913 13396 c-10 -13 -26 -38 -35 -55 -10 -18 -32 -39 -49 -49 -61
-34 -71 -45 -61 -72 12 -32 5 -50 -18 -50 -11 0 -43 -10 -72 -21 -45 -19 -71
-21 -174 -20 -126 2 -174 -8 -174 -35 0 -14 8 -16 58 -10 33 4 71 2 86 -3 22
-9 26 -16 24 -43 -3 -29 0 -33 22 -33 20 0 26 6 30 30 4 23 13 33 40 42 19 7
46 12 60 13 14 0 45 9 69 20 49 23 83 25 110 8 26 -16 51 -3 51 28 0 19 -7 28
-30 37 -35 13 -39 32 -9 47 16 9 26 8 45 -5 37 -24 57 -13 49 26 -5 23 -2 36
13 52 32 36 26 116 -10 117 -4 0 -15 -11 -25 -24z"/>
<path d="M18495 13261 c-22 -16 -64 -60 -93 -99 l-53 -69 -72 -7 c-101 -10
-117 -15 -117 -37 0 -21 9 -23 95 -19 69 2 124 30 188 94 35 35 41 37 63 27
41 -18 71 -13 109 20 51 45 48 74 -11 99 -58 25 -61 25 -109 -9z"/>
<path d="M19476 13011 c-3 -4 -28 -11 -56 -13 -71 -7 -121 -58 -70 -71 25 -6
37 -35 21 -50 -10 -9 -18 -6 -35 16 -28 34 -36 34 -71 -3 -16 -16 -34 -30 -42
-30 -7 0 -28 -14 -48 -32 l-36 -31 -36 17 c-20 10 -59 20 -87 23 -62 7 -76 17
-76 54 0 31 27 51 88 64 18 4 36 14 39 22 18 47 -94 40 -157 -10 -21 -18 -54
-41 -72 -52 -28 -17 -34 -27 -38 -69 -6 -63 -27 -78 -71 -52 -36 21 -35 21
-71 -43 -9 -17 -35 -43 -57 -58 -22 -15 -40 -31 -41 -35 0 -5 24 -8 54 -8 49
0 59 4 101 40 25 22 52 40 60 40 7 0 32 15 54 34 52 44 100 60 132 46 56 -25
116 -63 135 -88 18 -22 24 -24 37 -13 9 7 17 22 19 34 3 20 9 22 63 23 69 1
228 34 272 57 29 15 30 19 36 98 4 45 4 86 1 90 -7 12 -41 12 -48 0z"/>
<path d="M19604 12792 c-21 -15 -134 -162 -154 -203 l-22 -43 29 -25 c16 -14
37 -38 46 -52 13 -21 26 -27 74 -34 88 -11 99 -9 136 19 18 14 39 26 44 26 13
0 23 -24 23 -55 0 -32 33 -70 53 -62 26 10 24 126 -3 160 -12 16 -20 40 -20
65 0 22 -6 53 -14 69 -8 15 -18 42 -23 58 -6 23 -14 30 -33 30 -24 0 -25 -2
-22 -63 4 -61 3 -63 -32 -95 -23 -22 -36 -42 -36 -59 0 -47 -54 -51 -100 -8
-44 41 -35 69 45 145 51 48 63 65 59 82 -8 28 -36 54 -50 45z"/>
<path d="M19992 12656 c-29 -6 -53 -14 -53 -18 1 -5 1 -13 1 -19 0 -5 16 -17
35 -25 39 -16 46 -45 19 -75 -23 -26 -11 -49 26 -49 51 0 70 29 70 108 0 65
-11 93 -34 91 -6 -1 -35 -6 -64 -13z"/>
<path d="M18786 12574 c-33 -13 -70 -33 -82 -45 -16 -15 -40 -23 -87 -26 -60
-5 -65 -4 -99 26 -44 39 -59 39 -98 1 -27 -26 -38 -30 -86 -30 -61 0 -81 8
-119 46 -17 17 -34 24 -52 22 -40 -5 -39 -25 3 -45 20 -10 52 -33 69 -50 28
-28 40 -33 79 -33 27 0 63 9 86 20 52 26 138 26 208 0 71 -27 93 -25 127 10
33 34 68 39 112 14 52 -30 144 14 118 56 -3 5 -25 9 -47 8 -23 -1 -43 3 -45 9
-2 6 -9 17 -16 25 -11 14 -19 13 -71 -8z"/>
<path d="M20090 12408 c-32 -55 -38 -59 -76 -52 -32 6 -38 3 -95 -56 -61 -63
-66 -75 -36 -94 13 -8 22 -5 44 16 64 59 93 61 140 8 45 -50 73 -52 108 -6 33
44 34 58 5 131 -39 98 -57 108 -90 53z"/>
<path d="M19289 12396 c-20 -7 -54 -27 -76 -45 -39 -31 -42 -32 -106 -25 -110
11 -155 -16 -85 -52 27 -14 40 -15 81 -5 27 6 74 11 105 11 61 1 78 8 136 56
65 54 30 91 -55 60z"/>
<path d="M19601 12285 c-35 -19 -72 -35 -82 -35 -10 0 -46 -19 -81 -43 -100
-68 -109 -70 -263 -72 -146 -2 -167 2 -225 47 -65 51 -134 61 -169 24 l-22
-24 63 -35 c103 -57 157 -74 280 -88 114 -12 117 -12 174 11 44 18 76 24 127
23 l67 -1 0 28 c0 17 9 38 22 49 27 26 85 38 109 22 29 -17 45 -13 57 14 11
23 17 26 60 23 41 -3 47 0 49 17 3 22 -59 75 -86 75 -9 -1 -45 -16 -80 -35z"/>
<path d="M20124 12086 c-17 -8 -40 -26 -52 -41 l-22 -28 20 -32 c11 -18 20
-41 20 -52 0 -31 9 -32 55 -7 60 34 68 45 55 80 -6 15 -10 41 -8 58 4 37 -19
44 -68 22z"/>
<path d="M20747 12035 c-41 -29 -43 -33 -22 -61 22 -29 18 -52 -14 -68 -41
-22 -97 -94 -83 -108 12 -12 17 -9 87 46 20 16 53 32 73 35 l37 6 3 67 c3 68
-8 108 -31 108 -7 0 -29 -11 -50 -25z"/>
<path d="M19274 11990 c-59 -23 -29 -53 38 -39 36 8 53 7 71 -3 116 -63 198
-98 235 -98 23 0 67 -8 98 -17 46 -15 61 -25 81 -55 13 -21 25 -38 27 -38 2 0
24 9 49 20 66 29 79 45 71 87 -5 27 -2 41 15 64 24 32 21 49 -9 49 -16 0 -34
-18 -77 -79 -6 -8 -136 -12 -160 -6 -34 8 -28 36 14 71 44 37 38 54 -22 54
-54 0 -94 -15 -113 -41 -33 -47 -84 -41 -204 22 -39 20 -79 23 -114 9z"/>
<path d="M18794 2789 c4 -35 12 -68 17 -73 5 -6 9 -28 9 -50 0 -41 23 -176 35
-208 4 -10 16 -18 27 -18 17 0 19 5 15 38 -12 92 -29 169 -43 190 -10 15 -13
34 -9 52 4 18 -1 43 -16 74 -33 71 -43 69 -35 -5z"/>
<path d="M440 1605 c0 -9 8 -37 19 -63 24 -60 88 -264 146 -462 24 -85 72
-240 106 -345 33 -104 67 -215 74 -245 8 -30 21 -71 29 -90 9 -19 20 -54 26
-77 6 -24 15 -43 20 -43 14 0 12 23 -4 67 -8 21 -27 83 -44 138 -96 318 -126
419 -147 501 -14 50 -42 133 -63 185 -21 52 -47 123 -56 159 -10 36 -28 99
-41 140 -12 41 -27 90 -32 109 -9 36 -33 55 -33 26z"/>
</g>
</svg>
