<?xml version="1.0" standalone="no"?>
<!DOCTYPE svg PUBLIC "-//W3C//DTD SVG 20010904//EN"
 "http://www.w3.org/TR/2001/REC-SVG-20010904/DTD/svg10.dtd">
<svg version="1.0" xmlns="http://www.w3.org/2000/svg"
 width="3696.000000pt" height="3312.000000pt" viewBox="0 0 3696.000000 3312.000000"
 preserveAspectRatio="xMidYMid meet">
<metadata>
Created by potrace 1.15, written by Peter Selinger 2001-2017
</metadata>
<g transform="translate(0.000000,3312.000000) scale(0.100000,-0.100000)"
fill="#000000" stroke="none">
<path d="M19021 29275 c-18 -8 -57 -15 -85 -15 -29 0 -102 -5 -162 -11 -85 -8
-118 -16 -152 -36 -53 -30 -208 -82 -271 -90 -25 -3 -56 -12 -68 -19 -19 -12
-21 -18 -11 -33 19 -32 3 -51 -43 -51 -39 0 -41 2 -37 25 3 15 1 25 -7 25 -22
0 -100 -59 -155 -117 -44 -46 -78 -70 -171 -115 -64 -32 -120 -58 -126 -58 -5
0 -20 12 -32 26 -21 25 -23 25 -42 8 -14 -13 -16 -20 -8 -31 6 -7 18 -13 25
-13 21 0 17 -22 -14 -71 -37 -58 -50 -67 -96 -71 -39 -3 -42 -1 -66 52 -4 8
-18 16 -32 18 -26 3 -59 -20 -164 -110 -68 -60 -260 -158 -308 -158 -40 0 -48
10 -56 65 -8 59 -35 59 -60 1 -21 -50 -44 -66 -69 -48 -33 25 -45 24 -122 -1
-43 -15 -91 -27 -106 -27 -16 0 -44 -11 -63 -23 -19 -13 -48 -27 -65 -31 -37
-9 -200 -70 -258 -96 -23 -10 -94 -42 -157 -71 -63 -28 -140 -68 -170 -89 -60
-39 -90 -53 -160 -70 -25 -6 -70 -27 -101 -45 -31 -19 -82 -41 -113 -49 -49
-13 -63 -13 -111 0 -75 19 -91 18 -161 -10 -147 -59 -190 -85 -164 -101 16
-10 12 -42 -6 -49 -28 -11 -42 -7 -47 14 -3 13 -14 20 -29 20 -30 0 -135 -43
-156 -64 -14 -14 -14 -16 3 -22 11 -5 30 -1 47 9 37 21 77 22 85 2 9 -25 -21
-49 -120 -94 -50 -23 -114 -53 -142 -66 -27 -14 -67 -31 -87 -39 -21 -8 -72
-46 -113 -83 -108 -99 -146 -129 -196 -157 -26 -15 -52 -40 -64 -62 -11 -21
-31 -46 -45 -56 -29 -21 -81 -28 -87 -12 -6 18 41 78 77 96 43 22 47 52 8 56
-21 3 -41 -11 -102 -70 -42 -40 -76 -81 -76 -90 0 -9 13 -21 30 -27 17 -5 30
-16 30 -23 0 -31 -42 -80 -84 -98 -35 -15 -50 -29 -69 -67 -13 -26 -33 -66
-45 -88 -37 -71 -90 -189 -108 -240 -24 -67 -94 -137 -162 -159 -55 -19 -141
-80 -167 -120 -9 -13 -29 -62 -45 -107 -15 -46 -42 -113 -59 -149 -17 -36 -31
-73 -31 -82 0 -37 36 -17 80 44 96 133 130 158 130 95 0 -35 -26 -79 -101
-169 -26 -32 -50 -71 -54 -87 -3 -16 -21 -46 -39 -67 -18 -22 -44 -57 -58 -79
-14 -22 -41 -59 -61 -83 -19 -23 -41 -59 -48 -80 -15 -46 -25 -59 -69 -87 -25
-16 -54 -54 -95 -123 -50 -85 -66 -105 -104 -126 -26 -13 -59 -39 -76 -56 -29
-30 -30 -35 -31 -124 l-1 -94 -57 -100 c-31 -55 -66 -108 -76 -117 -24 -21
-26 -54 -5 -81 26 -34 17 -55 -54 -123 -62 -60 -70 -71 -76 -116 -4 -28 -22
-97 -40 -155 -18 -58 -36 -120 -40 -139 -4 -18 -24 -68 -44 -110 l-36 -76 0
-160 c-1 -175 -11 -235 -64 -363 -31 -74 -41 -119 -61 -272 -6 -47 -20 -116
-30 -155 -10 -38 -24 -110 -29 -160 -6 -49 -15 -106 -21 -125 -5 -19 -10 -65
-10 -103 0 -54 -6 -79 -28 -125 -16 -31 -37 -86 -46 -121 -15 -55 -16 -72 -5
-126 12 -60 11 -68 -21 -176 -35 -124 -36 -167 -6 -283 12 -46 13 -68 5 -108
-9 -39 -8 -66 4 -126 12 -55 13 -89 7 -117 -16 -67 -11 -128 15 -206 45 -129
47 -155 51 -479 3 -307 3 -317 29 -400 37 -119 55 -217 65 -345 8 -105 44
-239 82 -308 7 -12 15 -51 19 -87 4 -36 10 -83 14 -105 9 -54 -7 -67 -86 -69
-55 -1 -64 -4 -83 -29 -19 -26 -19 -30 -6 -54 20 -36 174 -140 218 -148 20 -4
49 -13 65 -21 63 -33 89 -135 46 -180 -20 -21 -21 -25 -7 -46 9 -13 63 -71
122 -130 98 -100 106 -110 106 -146 0 -29 -10 -54 -40 -98 -22 -33 -40 -67
-40 -78 0 -10 12 -50 27 -88 23 -59 33 -73 65 -89 20 -10 41 -27 46 -36 13
-21 -2 -62 -28 -80 -27 -19 -25 -38 8 -63 56 -45 68 -102 27 -140 -14 -13 -25
-28 -25 -34 0 -6 18 -27 40 -47 l41 -37 -1 -89 c-1 -212 8 -461 19 -500 7 -24
9 -64 5 -97 -8 -64 7 -96 57 -121 17 -9 37 -31 45 -51 13 -30 12 -40 -5 -91
-10 -32 -21 -95 -24 -139 l-6 -82 37 -47 c37 -47 37 -49 40 -153 3 -75 -1
-125 -13 -174 -16 -65 -16 -79 0 -218 16 -144 16 -151 -3 -227 -11 -43 -23
-98 -26 -123 -4 -25 -23 -73 -42 -107 -24 -44 -34 -74 -34 -106 0 -85 44 -85
81 0 10 24 23 43 29 43 36 0 36 -146 -1 -208 -25 -43 -19 -62 20 -62 32 0 41
-14 41 -63 0 -48 -21 -81 -54 -87 -60 -10 -59 -71 1 -126 33 -31 37 -54 9 -54
-8 0 -19 -7 -26 -15 -11 -13 -10 -22 5 -53 53 -111 68 -174 71 -301 2 -111 5
-129 29 -176 29 -59 31 -111 4 -128 -27 -17 -68 17 -96 80 -29 63 -42 60 -50
-11 -13 -112 52 -169 132 -116 40 27 115 27 139 1 24 -27 56 -137 56 -196 0
-27 4 -84 9 -125 6 -41 15 -118 22 -170 6 -52 20 -112 30 -132 22 -43 23 -62
7 -122 -11 -42 -10 -47 17 -88 26 -38 30 -55 36 -143 4 -73 13 -119 33 -170
15 -38 31 -101 36 -138 5 -46 14 -76 28 -90 17 -18 20 -35 19 -102 -1 -51 5
-98 16 -130 9 -27 28 -93 41 -146 13 -52 43 -133 66 -178 25 -50 45 -108 51
-145 6 -40 26 -94 58 -156 44 -85 61 -132 101 -278 6 -24 27 -60 45 -81 19
-21 64 -92 101 -157 36 -65 83 -141 103 -169 51 -68 58 -82 66 -140 11 -75 28
-115 78 -188 32 -47 48 -80 52 -114 3 -26 8 -59 11 -73 3 -14 52 -68 116 -130
61 -58 131 -134 156 -170 25 -36 83 -112 128 -170 71 -91 85 -115 100 -175 20
-79 49 -115 92 -115 49 0 94 -39 132 -115 40 -80 90 -124 172 -150 79 -26 97
-40 104 -83 5 -30 13 -42 39 -56 18 -10 46 -41 66 -74 34 -56 81 -108 153
-169 36 -30 38 -36 33 -73 -5 -37 -3 -41 36 -70 32 -23 51 -30 89 -30 72 0 80
-18 76 -167 -3 -112 -2 -118 17 -118 14 0 27 14 43 47 28 60 52 74 91 53 16
-8 33 -24 36 -36 4 -11 30 -35 58 -53 61 -40 78 -57 106 -113 25 -49 26 -78 6
-113 -8 -14 -23 -44 -34 -66 -11 -23 -24 -45 -30 -48 -6 -4 -11 -14 -11 -22 0
-28 15 -13 38 35 35 78 72 111 122 111 48 0 77 -13 106 -48 15 -19 32 -26 75
-30 39 -4 67 -14 103 -39 26 -18 54 -33 61 -33 16 0 42 30 47 55 3 17 8 15 47
-20 24 -22 62 -47 85 -55 35 -13 46 -26 82 -90 62 -114 155 -199 98 -90 -14
27 -24 57 -22 67 7 39 85 27 160 -24 29 -20 80 -46 112 -59 33 -13 66 -30 75
-37 9 -8 37 -21 63 -31 27 -10 65 -36 91 -63 l44 -45 62 21 62 21 105 -35 c78
-26 120 -34 164 -33 49 1 65 -3 102 -27 42 -28 43 -28 123 -17 46 6 124 8 186
4 101 -7 107 -9 143 -39 20 -18 38 -33 40 -33 2 0 30 14 61 30 31 17 68 30 81
30 34 0 85 -23 108 -49 27 -29 59 -26 100 10 44 38 68 45 193 54 72 5 111 3
136 -6 29 -10 41 -10 76 4 40 16 44 16 99 -4 99 -36 104 -35 156 10 26 23 57
41 69 41 12 0 58 9 102 20 65 17 98 19 171 14 l91 -6 104 55 c94 49 249 105
384 138 28 7 80 27 118 46 37 18 100 40 140 49 256 57 220 39 398 191 39 34
58 43 87 43 50 0 180 77 224 132 68 85 84 98 123 98 29 0 45 9 83 44 26 24 66
53 90 65 66 34 119 86 136 137 14 42 105 174 139 202 8 7 33 11 56 10 66 -2
102 40 146 173 40 120 95 199 129 186 13 -5 17 -15 14 -32 -6 -29 7 -32 40 -9
32 22 45 51 53 118 5 45 13 64 33 83 19 17 26 34 26 60 0 31 8 44 58 90 31 30
81 73 110 95 66 51 163 174 201 255 27 56 34 63 70 73 51 14 67 38 76 119 8
79 23 110 69 142 19 13 44 40 55 59 11 19 32 46 46 60 38 36 93 159 160 355
32 94 68 190 80 215 13 25 31 73 40 105 36 126 85 231 139 299 49 61 56 76 80
174 14 59 28 132 32 162 7 67 59 229 115 365 54 131 79 219 79 276 0 58 15
103 51 153 35 49 36 79 4 131 -14 22 -25 52 -25 67 0 35 40 173 74 255 14 35
26 75 26 90 0 16 12 60 25 98 18 51 25 91 25 147 0 70 3 80 28 110 43 50 45
63 15 125 -25 54 -25 57 -8 70 11 7 31 13 47 13 46 0 62 26 81 135 10 55 22
120 28 145 5 25 8 70 7 101 -2 40 3 63 15 80 10 13 29 39 42 58 30 40 33 102
10 177 -23 77 -20 98 21 129 34 26 35 29 29 75 -5 33 -2 58 9 85 9 20 16 51
16 67 0 17 8 52 17 78 15 42 15 56 4 131 -21 132 -6 158 55 93 31 -32 35 -42
29 -71 -4 -20 1 -54 11 -86 16 -53 16 -54 -9 -113 -35 -81 -41 -158 -16 -213
26 -59 24 -75 -15 -118 -59 -67 -70 -108 -41 -150 23 -32 45 -19 45 27 0 22 7
45 16 55 15 14 18 14 40 0 13 -8 39 -15 58 -15 39 0 66 -28 66 -67 0 -19 -6
-22 -52 -25 -52 -3 -53 -4 -63 -42 -6 -22 -21 -46 -33 -54 -12 -8 -22 -18 -22
-23 0 -15 28 -10 37 5 5 8 34 26 66 40 31 14 57 30 57 34 0 5 16 25 35 45 19
20 35 45 35 56 0 10 16 38 35 61 29 35 35 50 35 89 0 25 6 55 13 66 8 11 26
51 41 88 21 55 26 83 25 145 -1 42 2 91 6 109 6 26 3 34 -17 47 -28 18 -48 56
-48 90 0 13 -13 40 -30 61 -16 21 -30 43 -30 49 0 6 -16 35 -36 64 -41 58 -41
60 -9 212 8 41 15 83 15 92 0 24 -39 58 -66 58 -40 0 -45 -20 -38 -137 4 -71
3 -127 -5 -159 -6 -27 -13 -104 -15 -172 -2 -67 -6 -125 -9 -128 -10 -10 -37
4 -44 22 -3 8 0 33 7 55 20 59 6 90 -50 110 -52 19 -59 38 -36 102 19 54 31
204 31 392 0 138 2 153 22 185 20 30 22 43 17 97 -6 53 -4 65 15 91 26 37 27
67 1 99 -46 59 -44 101 14 258 14 39 26 89 26 112 0 22 9 70 20 105 11 34 20
81 21 103 0 22 4 51 8 65 4 14 3 48 -2 77 -5 31 -5 132 0 248 9 191 10 196 36
223 46 49 52 79 22 135 -27 53 -31 101 -12 157 15 42 42 51 51 17 7 -29 33
-42 52 -26 23 19 16 42 -26 81 -52 50 -70 106 -47 153 20 41 63 70 116 79 52
8 67 27 51 65 -6 16 -23 40 -37 53 -36 33 -55 75 -47 101 15 49 58 50 81 2 19
-40 46 -43 51 -7 5 30 -23 98 -54 135 -13 16 -24 41 -24 58 0 37 38 77 79 85
41 8 46 32 20 95 -16 42 -20 68 -16 117 4 56 9 68 40 100 65 68 56 115 -24
128 -88 14 -105 71 -49 163 18 28 40 82 50 119 23 89 26 95 130 307 73 148 93
198 104 264 14 81 30 115 93 203 37 51 63 155 63 251 0 62 70 227 120 284 37
41 44 58 75 178 13 50 38 128 55 173 25 68 29 93 24 131 -5 41 -2 55 25 103
39 68 40 121 5 203 -50 116 -50 118 -20 174 33 65 33 89 -4 158 -25 46 -30 68
-30 121 0 36 -9 99 -21 141 -15 52 -20 92 -16 130 2 33 -1 75 -9 101 -8 25
-14 78 -14 117 0 81 -49 338 -81 429 -14 39 -22 88 -23 144 -4 117 -30 266
-60 343 -14 35 -41 110 -59 168 -19 57 -55 143 -81 190 -29 54 -52 114 -61
157 -8 39 -25 88 -38 109 -18 31 -23 58 -27 143 -7 128 -24 170 -85 206 -45
26 -55 48 -55 124 0 38 -33 93 -80 135 -32 28 -51 69 -66 143 -7 36 -24 78
-37 96 -13 17 -36 54 -50 81 -18 35 -64 84 -153 165 -135 122 -201 186 -247
238 -18 20 -41 33 -65 37 -75 12 -84 16 -100 47 -31 57 -73 97 -150 145 -108
65 -139 97 -157 159 -12 41 -25 61 -61 90 -58 48 -62 57 -75 156 -9 71 -7 93
11 177 12 53 34 121 48 151 46 98 42 312 -8 416 -45 92 -180 282 -227 320 -26
21 -59 51 -73 67 -14 15 -42 38 -62 50 -20 12 -77 49 -125 81 -91 62 -275 150
-385 185 -131 41 -251 90 -321 131 -165 98 -329 169 -415 181 -37 6 -98 15
-137 20 -38 6 -104 15 -145 19 -41 5 -88 13 -105 19 -16 6 -55 16 -87 21 -50
10 -63 18 -125 78 l-68 67 2 95 c1 52 5 125 9 162 9 91 0 126 -52 205 -60 90
-84 106 -159 110 -96 6 -103 9 -141 68 -37 59 -62 79 -109 91 -16 4 -43 16
-60 26 -55 33 -103 19 -189 -58 -29 -27 -58 -44 -73 -44 -13 0 -47 -10 -75
-22 l-51 -22 -54 29 c-30 15 -70 41 -90 56 -65 52 -116 31 -94 -40 19 -64 14
-90 -23 -127 -38 -38 -74 -44 -132 -19 -24 10 -39 25 -50 52 -16 39 -72 114
-107 146 -11 10 -35 17 -57 17 -69 0 -94 18 -231 163 -74 78 -143 153 -154
167 -36 45 -51 53 -74 38 -17 -10 -27 -10 -53 1 -18 7 -55 20 -81 28 l-48 15
-59 -36 c-32 -20 -65 -36 -73 -36 -24 0 -38 25 -31 59 12 56 -20 73 -85 46z
m1 -144 c30 -10 91 -37 134 -60 72 -37 83 -40 111 -31 35 13 60 4 101 -34 19
-16 41 -22 111 -27 108 -8 137 -21 174 -81 45 -72 38 -78 -98 -78 -140 0 -171
11 -214 74 -34 49 -72 67 -102 47 -33 -20 -65 -12 -115 28 -62 49 -119 78
-181 91 -80 18 -111 48 -81 78 18 18 98 14 160 -7z m1845 -470 c73 -53 113
-125 94 -172 -12 -33 -90 -119 -107 -119 -7 0 -21 11 -29 24 -15 23 -15 27 4
65 12 22 21 45 21 51 0 7 -14 43 -31 82 -24 55 -28 72 -18 84 16 19 20 18 66
-15z m418 -103 c34 -30 48 -91 35 -159 -12 -62 -24 -79 -56 -79 -29 0 -36 14
-63 117 -22 85 -26 125 -14 136 15 15 73 6 98 -15z m-4637 -220 c13 -11 16
-56 4 -74 -10 -16 -48 -34 -70 -34 -32 0 -72 38 -72 70 0 30 13 45 45 53 25 6
76 -2 93 -15z m6266 -864 c72 -36 158 -76 191 -89 90 -34 182 -82 253 -133 56
-40 68 -54 102 -126 21 -45 64 -110 95 -146 39 -46 60 -81 71 -120 8 -30 22
-73 31 -95 11 -29 15 -73 14 -165 -2 -157 -9 -190 -43 -209 -23 -13 -29 -13
-51 2 -27 17 -42 57 -53 140 -6 42 -4 47 30 82 30 29 35 41 30 63 -10 41 -30
74 -61 103 -28 27 -59 83 -106 189 -32 73 -144 186 -268 272 -53 36 -169 103
-258 148 -162 82 -193 107 -169 138 20 23 61 12 192 -54z m137 -243 c118 -56
211 -138 329 -290 52 -66 67 -121 34 -121 -20 0 -127 102 -166 157 -45 66
-160 160 -210 173 -72 18 -107 38 -114 64 -3 14 -3 30 1 37 10 16 72 6 126
-20z m-3784 -1502 c8 -8 8 -20 2 -36 -6 -15 -5 -31 1 -43 10 -18 65 -40 103
-40 16 0 16 2 2 30 -23 45 -20 78 9 86 53 13 106 -43 106 -112 0 -34 41 -42
79 -15 46 33 77 27 122 -21 39 -42 40 -43 107 -43 61 0 73 -4 130 -40 35 -22
86 -59 114 -82 28 -23 76 -54 107 -68 31 -15 66 -36 79 -48 33 -30 27 -15 -18
49 -48 69 -52 106 -12 130 15 10 41 32 59 51 26 27 40 33 72 33 37 0 41 3 49
33 12 45 42 47 106 4 28 -19 62 -38 75 -42 23 -7 24 -5 19 26 -3 19 -3 40 -1
47 8 22 55 13 90 -18 48 -43 69 -40 76 11 12 88 89 118 149 58 30 -29 30 -32
24 -95 -6 -55 -4 -65 10 -71 11 -4 23 2 35 18 42 57 47 60 90 53 24 -4 56 -1
81 7 37 12 43 11 86 -12 26 -13 73 -44 105 -68 49 -37 69 -45 113 -49 62 -5
71 -13 76 -67 4 -50 30 -59 50 -18 11 23 20 28 47 26 45 -2 91 -45 75 -71 -6
-9 -21 -18 -33 -20 -30 -5 -36 -25 -16 -55 18 -28 62 -47 107 -47 19 0 44 -12
70 -34 48 -42 87 -52 125 -34 20 9 28 21 28 38 0 22 -5 25 -55 33 -65 9 -96
27 -102 61 -17 87 99 114 180 42 20 -18 57 -44 82 -59 25 -15 57 -36 71 -48
l26 -20 46 22 c45 22 50 22 144 10 144 -18 152 -21 169 -46 14 -21 13 -27 -5
-64 -12 -22 -21 -44 -21 -49 0 -19 164 -192 181 -192 33 0 21 38 -31 95 -63
70 -68 119 -8 96 40 -15 198 -157 310 -277 160 -173 182 -205 222 -322 21 -63
46 -116 64 -137 17 -18 33 -47 37 -64 8 -37 19 -46 73 -61 35 -9 46 -18 58
-46 10 -25 12 -40 4 -54 -19 -36 -11 -59 28 -84 38 -24 106 -105 134 -161 16
-31 48 -149 48 -177 0 -8 18 -50 40 -93 35 -70 39 -86 37 -144 -1 -59 3 -75
40 -151 43 -89 73 -192 73 -251 0 -20 13 -74 29 -122 16 -47 35 -130 41 -184
6 -54 17 -138 25 -188 76 -478 76 -474 45 -535 -11 -22 -20 -54 -20 -72 0 -18
-4 -49 -10 -68 -8 -27 -6 -46 6 -83 9 -26 16 -78 16 -115 1 -178 -4 -302 -14
-349 -9 -43 -8 -62 6 -114 26 -92 25 -187 -2 -233 -27 -46 -27 -67 -2 -142 12
-32 25 -104 31 -159 6 -55 19 -138 29 -185 41 -182 49 -248 38 -320 -10 -66
-9 -71 20 -133 17 -35 41 -95 53 -133 12 -38 33 -96 45 -129 29 -75 71 -308
80 -440 3 -55 12 -131 20 -168 8 -38 14 -124 14 -192 0 -67 6 -156 14 -196 8
-41 20 -132 26 -204 6 -71 19 -163 27 -204 9 -44 13 -93 10 -123 -4 -28 0 -79
7 -117 14 -69 28 -339 28 -551 0 -363 -12 -860 -21 -895 -6 -22 -11 -101 -11
-175 0 -74 -5 -151 -11 -170 -6 -19 -12 -94 -13 -167 l-1 -132 -32 -33 c-37
-38 -39 -46 -19 -104 18 -51 8 -103 -35 -180 -31 -54 -31 -58 -25 -139 6 -66
4 -91 -9 -122 -10 -21 -16 -62 -16 -92 1 -43 -4 -63 -24 -91 -28 -40 -89 -216
-80 -231 10 -15 -15 -126 -41 -183 -18 -40 -23 -64 -19 -88 8 -41 -7 -81 -45
-124 -27 -32 -28 -36 -23 -106 4 -60 1 -82 -16 -121 -11 -26 -26 -78 -32 -115
-6 -37 -17 -98 -26 -136 -10 -46 -13 -89 -9 -127 7 -62 -7 -112 -37 -138 -27
-21 -21 -58 13 -83 33 -24 39 -58 15 -78 -11 -10 -24 -9 -60 3 -48 17 -49 17
-59 -27 -4 -16 -20 -41 -37 -57 -16 -15 -29 -36 -29 -48 0 -23 61 -67 101 -73
16 -2 24 -9 24 -23 0 -16 -6 -19 -31 -17 -39 4 -56 -16 -59 -67 -3 -65 -32
-83 -53 -35 -9 19 -18 25 -39 22 -14 -2 -28 -9 -31 -15 -4 -13 3 -17 51 -27
15 -4 27 -13 27 -21 0 -8 11 -49 25 -92 29 -87 28 -101 -17 -207 -67 -159 -68
-165 -53 -231 13 -54 12 -69 -6 -159 -11 -54 -27 -108 -34 -120 -8 -11 -15
-41 -15 -67 0 -40 -6 -54 -51 -110 -75 -94 -122 -104 -142 -30 -6 25 -4 38 8
54 8 12 28 39 43 60 15 20 43 45 62 55 55 27 53 59 -9 121 -28 28 -54 51 -57
51 -3 0 -3 -19 0 -42 3 -24 9 -66 12 -94 l6 -51 -40 -7 c-33 -5 -42 -11 -50
-36 -13 -37 -40 -39 -72 -5 -13 14 -27 25 -32 25 -15 0 -8 -27 11 -44 11 -10
25 -41 31 -69 7 -29 28 -78 47 -110 40 -67 50 -115 33 -157 -16 -40 -52 -49
-97 -24 -26 13 -39 15 -51 7 -24 -14 -27 -87 -7 -140 20 -52 14 -73 -18 -73
-35 0 -103 53 -111 87 -22 95 -56 112 -73 36 l-11 -47 59 -59 c70 -70 79 -95
52 -145 -12 -21 -26 -53 -32 -72 -7 -22 -25 -44 -47 -58 -19 -13 -45 -39 -56
-58 -13 -22 -35 -41 -59 -51 -45 -18 -50 -41 -19 -88 25 -38 25 -71 0 -112
-16 -27 -26 -33 -54 -33 -70 0 -123 83 -102 161 11 44 2 71 -28 77 -13 3 -16
-6 -16 -55 0 -77 -33 -147 -71 -151 -17 -2 -37 6 -57 23 -38 32 -104 33 -110
1 -5 -23 14 -36 55 -36 42 0 67 -36 67 -99 1 -43 -1 -46 -28 -49 -23 -3 -37 5
-76 47 -36 39 -55 51 -77 51 -19 0 -38 9 -54 26 -13 14 -41 35 -61 45 -33 17
-38 17 -38 4 0 -25 28 -73 49 -85 11 -5 29 -10 41 -10 39 0 118 -76 137 -132
12 -33 26 -53 41 -59 60 -23 43 -109 -23 -109 -31 0 -35 -3 -44 -37 -6 -21
-11 -48 -11 -60 0 -57 -36 -72 -66 -26 -9 15 -38 52 -62 82 -55 67 -87 137
-102 222 -13 69 -53 149 -76 149 -19 0 -17 -10 6 -40 22 -29 26 -71 8 -103 -7
-12 -15 -47 -18 -77 -5 -50 -7 -55 -31 -58 -39 -5 -60 34 -57 106 3 52 -1 64
-41 132 -25 41 -47 77 -49 80 -10 12 -32 -38 -32 -72 0 -27 -6 -43 -22 -56
-47 -38 -58 -53 -58 -81 0 -48 -20 -59 -102 -59 -82 0 -108 14 -108 58 0 31
-34 80 -55 80 -8 0 -28 13 -45 30 -33 32 -45 36 -56 18 -4 -6 6 -22 25 -37 36
-30 41 -67 15 -106 -23 -35 -6 -51 64 -66 31 -6 75 -22 98 -35 22 -13 47 -24
55 -24 9 0 23 -6 33 -13 17 -13 17 -15 -5 -58 -12 -24 -25 -62 -28 -83 -5 -30
-13 -43 -36 -56 -26 -15 -30 -22 -27 -56 7 -118 6 -127 -21 -150 -33 -29 -70
-21 -102 21 -27 34 -31 68 -14 112 22 58 -26 153 -77 153 -30 0 -31 -2 -38
-121 -6 -94 -6 -96 18 -108 22 -12 96 -112 125 -169 16 -31 6 -58 -47 -119
-54 -62 -71 -65 -133 -23 -46 31 -68 36 -85 21 -5 -5 -25 -11 -44 -13 -58 -5
-49 -30 30 -87 78 -57 110 -100 110 -147 0 -28 -5 -33 -52 -53 -48 -20 -53
-20 -76 -5 -31 21 -70 11 -78 -20 -3 -14 3 -43 16 -72 26 -55 19 -77 -25 -82
-36 -5 -71 29 -102 98 -28 63 -50 90 -71 90 -19 0 -11 -50 23 -151 33 -99 32
-127 -8 -185 -36 -52 -74 -68 -104 -42 -29 23 -53 91 -53 149 0 39 -5 61 -16
69 -8 8 -27 34 -42 59 -35 62 -120 159 -145 167 -50 16 -36 -57 23 -114 21
-21 43 -47 49 -59 15 -30 14 -70 -3 -76 -20 -8 -73 28 -91 63 -25 48 -37 38
-30 -24 8 -65 -5 -96 -41 -96 -64 0 -92 45 -95 151 -1 41 0 83 2 94 7 35 -31
30 -67 -9 -18 -20 -37 -36 -41 -36 -21 0 -53 33 -63 68 -7 20 -16 41 -21 46
-12 14 -37 -11 -44 -45 -4 -17 -21 -41 -41 -56 -24 -18 -39 -40 -47 -70 -9
-34 -16 -43 -33 -43 -17 0 -26 12 -43 56 -27 71 -26 78 4 98 17 11 25 26 25
44 0 40 -12 102 -19 102 -3 0 -18 -21 -33 -48 -15 -26 -43 -63 -62 -81 -20
-19 -36 -38 -36 -43 0 -19 85 -117 110 -128 21 -9 34 -25 46 -59 9 -25 25 -66
35 -90 35 -81 19 -116 -40 -91 -22 9 -36 27 -55 72 -29 66 -47 71 -57 17 -4
-19 -20 -57 -36 -86 -26 -48 -27 -54 -14 -85 8 -18 16 -52 18 -75 4 -37 1 -46
-26 -74 -17 -17 -45 -51 -62 -75 -36 -53 -77 -76 -127 -72 -34 3 -39 8 -62 55
-14 29 -35 63 -47 75 -62 67 -89 173 -63 243 25 66 76 33 72 -46 -2 -55 9 -79
38 -79 29 0 40 24 46 106 7 88 13 99 61 119 18 8 33 19 33 24 0 15 -37 51 -53
51 -7 0 -28 16 -47 35 -54 56 -90 43 -90 -32 0 -24 -7 -60 -15 -80 -13 -30
-17 -33 -30 -23 -8 7 -15 29 -15 49 0 20 -9 61 -19 91 -11 30 -29 90 -40 133
-28 107 -38 122 -45 72 -27 -167 -37 -190 -78 -163 -23 16 -39 41 -58 91 -11
31 -22 34 -40 12 -30 -37 19 -120 148 -249 54 -55 59 -67 42 -110 -15 -41 -47
-52 -88 -30 -41 22 -58 14 -90 -44 -45 -81 -72 -46 -72 92 0 68 5 105 16 130
29 60 16 70 -76 62 -80 -7 -80 -7 -110 23 -33 32 -38 62 -15 81 19 16 19 44 1
59 -8 6 -19 32 -25 58 -7 26 -23 65 -36 88 -21 34 -24 49 -18 93 5 44 3 52
-11 52 -32 0 -38 -39 -22 -144 11 -73 22 -108 40 -135 34 -49 33 -66 -6 -77
-31 -9 -33 -13 -38 -64 -8 -75 -21 -95 -72 -108 -35 -9 -47 -19 -66 -52 -12
-22 -26 -40 -30 -40 -17 0 -71 60 -92 100 -18 35 -21 53 -16 92 6 44 5 48 -14
48 -11 0 -25 -9 -32 -21 -18 -28 -66 -56 -110 -64 -64 -12 -42 -65 26 -65 36
0 47 -28 45 -116 -2 -74 -1 -75 35 -108 28 -26 36 -41 36 -69 0 -73 -73 -114
-120 -67 -16 16 -20 33 -20 87 l0 67 -55 52 c-52 50 -55 55 -55 103 0 39 6 56
27 82 51 60 95 274 61 295 -18 12 -45 -31 -52 -84 -4 -30 -17 -63 -36 -88 -49
-68 -79 -177 -89 -324 l-8 -130 -37 -40 c-34 -38 -36 -43 -36 -112 0 -80 -18
-126 -94 -233 -47 -67 -72 -76 -95 -33 -14 24 -14 32 1 77 15 47 15 52 -2 83
-9 18 -21 49 -25 68 -4 19 -16 50 -27 68 -17 27 -19 46 -16 108 3 68 6 79 31
100 54 46 114 20 124 -54 6 -47 11 -50 43 -24 19 15 22 28 23 105 2 74 0 86
-13 81 -39 -16 -48 -15 -55 7 -16 49 -7 102 24 146 39 55 39 70 1 78 -47 10
-49 43 -6 112 34 56 45 93 28 93 -16 0 -61 -55 -77 -94 -9 -22 -28 -56 -41
-75 -20 -30 -24 -48 -24 -117 0 -93 -10 -111 -50 -89 -31 18 -62 19 -78 3 -18
-18 -14 -41 13 -79 30 -39 27 -64 -12 -121 -33 -49 -55 -55 -93 -27 -27 21
-32 21 -46 8 -8 -9 -23 -31 -32 -50 -37 -74 -122 -34 -122 58 0 48 18 67 77
82 51 14 70 42 54 77 -16 36 -48 30 -90 -17 -41 -47 -69 -48 -89 -3 -25 53
-15 91 44 177 41 59 57 92 58 117 l1 35 -54 0 c-54 0 -55 0 -63 -35 -15 -66
-102 -325 -117 -348 -17 -28 -67 -56 -83 -46 -15 9 -4 103 17 145 10 19 33 50
52 71 36 37 37 58 3 58 -13 0 -27 -14 -40 -40 -33 -64 -95 -82 -126 -35 -23
35 -40 31 -69 -15 -27 -43 -41 -48 -71 -25 -37 28 -59 18 -147 -69 -56 -56
-94 -104 -111 -140 -33 -70 -50 -86 -90 -86 -45 0 -69 29 -69 82 0 35 5 46 33
67 18 14 67 60 110 101 62 59 80 83 85 113 4 21 5 41 2 44 -13 12 -60 -31 -75
-68 -13 -33 -23 -41 -71 -59 -31 -12 -73 -32 -93 -46 -88 -57 -106 -7 -34 95
46 65 63 108 48 123 -15 15 -57 -27 -91 -91 -44 -84 -78 -121 -108 -121 -39 0
-60 17 -67 55 -4 19 -12 35 -17 35 -6 0 -36 -18 -66 -40 -93 -66 -130 -51
-118 49 l7 59 -42 7 c-49 8 -74 39 -64 79 7 31 8 31 -62 10 -53 -15 -55 -15
-108 10 -38 18 -72 26 -108 26 -92 0 -125 47 -74 107 28 34 33 50 22 81 -8 25
-39 29 -80 11 -39 -18 -73 -4 -101 44 -27 47 -33 108 -12 125 20 16 79 21 124
9 53 -14 58 -9 78 67 21 79 15 92 -50 111 -89 25 -98 78 -25 136 43 35 48 50
25 69 -21 17 -20 21 25 78 43 53 49 76 25 86 -24 9 -59 -12 -99 -60 -20 -24
-52 -50 -70 -59 -50 -24 -71 -73 -68 -161 3 -82 -6 -95 -76 -114 -24 -6 -62
-21 -84 -32 -47 -25 -71 -17 -76 26 -3 24 -7 26 -47 26 -47 0 -65 17 -65 59 0
18 -6 21 -42 21 -52 0 -89 17 -104 48 -19 38 -6 71 35 88 20 8 46 27 58 42 21
26 23 26 49 12 15 -8 36 -27 47 -42 19 -25 19 -28 3 -68 -18 -46 -14 -60 12
-44 10 7 18 27 20 50 2 24 15 54 33 79 17 22 39 55 50 73 20 34 45 40 81 21
30 -16 62 2 89 50 17 30 34 45 66 57 53 20 63 37 63 102 0 46 3 52 53 99 28
27 71 62 95 78 75 50 43 62 -46 17 -29 -15 -74 -45 -101 -66 -41 -33 -50 -46
-55 -81 -5 -27 -17 -51 -34 -68 -41 -39 -162 -79 -257 -84 l-80 -4 -66 -67
c-86 -88 -113 -107 -197 -137 -76 -27 -98 -30 -107 -15 -4 6 -13 58 -21 115
-14 100 -14 106 6 162 30 83 34 103 21 103 -26 0 -58 -47 -65 -94 -11 -72 -62
-111 -86 -66 -6 11 -9 48 -8 82 3 58 2 62 -21 68 -62 15 -53 62 29 152 99 109
71 139 -35 37 -47 -45 -69 -60 -87 -57 -22 3 -23 6 -23 98 0 93 0 96 32 131
36 39 41 60 19 78 -7 6 -16 24 -19 39 -4 20 -17 33 -50 49 l-45 22 -22 -24
c-15 -16 -21 -31 -17 -47 3 -13 13 -51 21 -85 12 -44 13 -69 6 -87 -11 -30
-65 -66 -98 -66 -27 0 -62 52 -62 92 0 14 -15 55 -34 91 -19 36 -40 94 -46
128 -7 39 -20 73 -33 88 l-22 23 43 -7 c34 -5 47 -3 63 11 25 23 25 74 -2 125
-28 55 -22 90 17 108 25 11 36 27 57 79 28 71 25 88 -16 94 -12 2 -28 15 -35
31 -16 32 -25 34 -52 7 -15 -15 -20 -33 -20 -76 0 -40 -6 -67 -20 -90 -15 -23
-22 -54 -24 -101 -4 -92 -17 -173 -28 -173 -17 0 -96 81 -113 116 -16 33 -16
37 0 54 20 22 14 64 -10 74 -15 5 -24 -1 -49 -38 -13 -19 -15 -19 -39 -3 -35
23 -90 157 -91 222 -1 53 1 58 74 150 38 47 53 95 30 95 -6 0 -18 -10 -28 -22
-93 -115 -120 -125 -153 -55 -11 23 -32 58 -46 77 -26 37 -27 66 -7 212 4 30
2 59 -6 78 -11 27 -17 31 -44 28 -21 -2 -34 -10 -41 -25 -14 -33 -23 -28 -35
18 -8 28 -8 77 -1 169 10 123 10 131 -13 196 -35 102 -35 101 -73 124 -30 18
-34 24 -28 48 3 15 19 45 34 67 15 22 31 48 34 58 10 26 -42 187 -59 187 -8 0
-29 -20 -46 -45 -67 -95 -131 -61 -74 38 32 55 50 128 42 171 -4 18 -22 49
-41 69 -40 41 -44 73 -20 174 8 34 14 85 13 115 -2 58 14 98 38 98 24 0 28
-28 10 -72 -9 -23 -14 -44 -11 -46 2 -2 19 -7 37 -11 48 -10 64 -48 49 -116
-7 -29 -18 -61 -26 -71 -22 -29 -18 -58 14 -88 16 -15 34 -47 40 -71 12 -47
33 -70 56 -61 24 9 18 31 -20 76 -39 46 -39 58 -1 120 28 47 27 129 -2 187
-17 32 -22 60 -22 118 0 71 -2 79 -29 106 -26 26 -35 29 -70 23 -85 -14 -118
47 -107 196 4 47 8 136 10 199 4 112 4 115 -26 168 -21 37 -42 60 -69 74 -32
16 -39 25 -39 50 0 16 7 46 15 66 20 47 19 66 -5 113 -27 53 -25 69 11 113 28
33 31 44 26 83 -2 24 -10 51 -17 59 -20 24 -59 19 -72 -10 -14 -32 -26 -32
-34 0 -4 17 2 45 20 84 30 66 32 101 11 139 -17 33 -49 167 -65 283 -11 77
-11 89 4 110 22 33 20 48 -11 82 -26 26 -28 35 -29 115 0 48 -7 107 -15 131
-13 41 -13 45 14 92 34 61 34 75 -3 123 -38 51 -39 96 -3 148 14 22 30 60 34
86 12 69 1 324 -18 419 -15 76 -15 92 0 190 38 257 40 282 27 328 -8 28 -10
68 -6 107 4 35 10 117 14 183 7 109 11 126 40 179 18 32 32 64 32 70 0 6 -10
29 -21 51 -18 32 -21 51 -17 105 3 36 13 81 23 100 20 36 28 85 44 250 4 52
18 124 30 160 11 36 21 88 21 115 0 28 7 79 15 115 8 36 19 146 25 245 6 99
15 236 21 305 6 69 15 179 19 245 9 138 17 165 98 312 33 60 65 126 70 148 22
81 52 224 52 245 0 11 10 40 22 63 18 33 24 66 28 157 4 63 13 130 21 148 13
31 12 35 -6 48 -11 8 -25 12 -32 10 -36 -14 -51 98 -24 184 27 86 26 112 -4
138 -29 25 -30 37 -12 89 29 79 47 141 47 156 0 9 -17 29 -37 44 -21 15 -41
32 -45 38 -15 19 -7 71 22 160 42 125 41 131 -24 144 -26 6 -36 18 -69 86 -37
76 -39 84 -34 151 4 52 13 87 36 132 35 69 40 126 15 173 -18 36 -11 83 15
101 10 7 23 23 29 35 11 19 8 24 -18 43 -51 36 -39 101 25 139 31 18 35 25 35
63 0 27 -10 61 -25 90 -14 26 -25 53 -25 60 0 7 13 38 30 68 33 63 37 97 14
162 -14 42 -14 51 1 109 24 90 48 132 90 154 20 11 45 35 57 53 29 47 50 55
92 36 33 -16 36 -16 71 6 45 28 75 74 75 115 0 34 12 59 95 195 36 59 80 115
117 149 78 71 89 95 82 169 -8 75 3 95 70 127 37 17 59 36 72 60 18 33 18 36
1 64 -34 57 -14 93 58 105 22 4 72 27 110 51 105 64 122 71 241 100 60 15 165
51 234 80 69 29 143 56 165 60 91 16 215 58 294 101 83 45 87 46 186 48 89 3
110 7 171 34 89 39 119 45 160 32 27 -9 35 -18 40 -46 7 -39 16 -41 75 -14 61
27 88 25 124 -10 l31 -30 120 10 c117 10 203 6 386 -20 37 -6 100 -10 140 -10
50 0 90 -7 128 -21 70 -27 153 -22 230 15 38 18 72 26 110 26 54 0 71 -6 124
-44 44 -31 84 -23 130 24 48 51 70 60 149 60 85 0 135 -16 149 -46 12 -26 41
-38 79 -32 17 2 27 13 35 38 14 44 48 59 134 60 36 1 88 5 115 11 126 23 164
23 216 -1 44 -21 54 -22 97 -12 26 6 90 11 142 11 l94 -1 51 -54 c51 -55 87
-69 99 -39 9 25 -37 126 -67 149 -32 23 -150 40 -264 37 -63 -1 -73 1 -83 19
-13 24 4 62 44 99 30 28 33 59 10 103 -22 42 -11 90 27 122 41 35 72 41 117
24 34 -13 38 -18 48 -68 8 -43 16 -58 36 -69 21 -12 29 -13 41 -3 21 18 11 44
-34 96 -22 24 -39 53 -39 64 0 57 76 69 144 23 23 -16 60 -33 82 -37 21 -4 54
-14 73 -21 35 -15 50 -8 51 23 0 6 7 17 15 24 8 7 15 27 15 45 0 44 14 57 37
34z m988 -15921 c64 -56 95 -149 60 -178 -21 -18 -48 -5 -98 49 -46 49 -75
116 -64 145 11 27 63 19 102 -16z m-156 -268 c21 -6 40 -6 51 0 24 13 48 -7
56 -46 9 -45 -15 -64 -82 -65 -30 -1 -60 -2 -66 -3 -7 -1 -21 16 -32 37 -15
31 -16 44 -7 63 12 26 28 29 80 14z m-2479 -240 c26 -26 26 -78 -1 -141 -15
-34 -29 -51 -45 -55 -41 -10 -47 2 -41 88 8 114 40 155 87 108z"/>
<path d="M19202 25349 c-33 -13 -27 -36 19 -66 38 -25 41 -30 35 -62 -10 -65
32 -79 99 -33 36 25 40 33 43 76 4 60 -9 76 -62 76 -22 0 -57 4 -76 9 -20 4
-46 4 -58 0z"/>
<path d="M22973 20157 c-4 -6 -6 -29 -4 -50 3 -42 -19 -77 -49 -77 -10 0 -34
7 -53 15 -53 22 -70 19 -118 -21 -65 -54 -101 -45 -253 62 -26 19 -55 34 -62
34 -28 0 -14 -39 22 -61 37 -23 74 -73 74 -99 -1 -8 -21 -37 -45 -64 -58 -65
-84 -66 -158 -3 -66 57 -92 60 -129 13 -29 -36 -27 -35 -179 -52 -48 -5 -66
-2 -117 21 -33 15 -70 37 -81 49 l-21 23 25 11 c29 13 31 24 9 46 -30 31 -74
13 -74 -30 0 -42 -62 -42 -148 0 l-44 21 -16 -22 c-10 -12 -25 -33 -35 -47
-23 -33 -78 -44 -112 -22 -22 15 -24 21 -19 56 9 52 -15 55 -45 5 -11 -19 -27
-35 -35 -35 -8 0 -28 -12 -45 -26 -26 -21 -38 -25 -66 -20 -114 20 -105 21
-136 -14 -29 -31 -32 -32 -87 -27 -31 3 -66 7 -77 9 -16 2 -21 -3 -23 -32 -2
-19 -9 -38 -15 -43 -7 -4 -53 -4 -104 -1 l-92 7 -51 -43 c-29 -24 -50 -50 -50
-62 0 -18 4 -19 48 -13 38 5 51 3 62 -10 25 -30 3 -50 -98 -91 -24 -10 -56
-33 -72 -51 -46 -51 -38 -80 16 -64 41 11 54 4 54 -30 0 -22 -7 -32 -30 -44
-33 -17 -38 -36 -15 -55 12 -10 27 -8 77 9 76 26 99 26 146 2 30 -15 47 -17
82 -11 44 8 59 5 147 -31 26 -11 39 -11 66 -1 47 17 60 15 114 -14 44 -23 56
-25 143 -21 81 3 109 9 190 41 103 41 155 46 240 26 56 -14 94 -10 160 15 28
10 83 18 150 20 58 2 126 6 151 10 39 6 59 2 139 -30 75 -30 100 -36 134 -31
22 4 77 10 121 15 44 5 96 14 115 20 19 6 60 11 90 11 37 0 68 7 94 21 21 11
59 23 85 26 98 11 218 -36 180 -71 -8 -7 -28 -18 -45 -24 -43 -14 -123 -74
-123 -92 -2 -45 60 -53 117 -15 87 57 162 67 259 34 79 -26 89 -38 69 -78 -9
-16 -16 -39 -16 -50 0 -28 -27 -51 -58 -51 -56 0 -179 -76 -158 -98 4 -4 32
-6 62 -6 60 2 109 31 140 83 21 35 72 61 120 61 31 0 35 3 28 18 -4 9 -8 53
-9 97 -1 44 -5 94 -9 110 -3 17 -2 36 3 44 8 13 15 12 52 -2 23 -9 46 -14 50
-11 14 8 10 81 -6 120 -8 19 -27 54 -43 77 -16 23 -60 89 -98 147 -37 58 -86
124 -107 148 -36 40 -38 47 -35 95 2 41 0 51 -11 49 -28 -6 -63 9 -104 47 -23
20 -77 56 -119 79 -103 56 -125 64 -135 49z"/>
<path d="M15345 20056 c-17 -19 -52 -44 -76 -56 -24 -13 -55 -30 -69 -40 -51
-36 -188 -100 -214 -100 -14 0 -35 9 -47 21 -15 15 -28 19 -49 14 -42 -9 -70
9 -70 47 0 27 -3 30 -22 24 -13 -4 -48 -11 -78 -16 -45 -8 -61 -16 -90 -48
-19 -21 -85 -74 -147 -116 -62 -42 -125 -92 -140 -111 -28 -33 -143 -234 -198
-345 -24 -48 -27 -62 -22 -117 5 -48 1 -79 -14 -129 -16 -51 -18 -69 -8 -80 6
-8 15 -14 19 -14 10 0 50 65 79 126 l19 41 72 7 c88 9 99 2 93 -58 -7 -58 11
-63 82 -25 l57 30 76 -17 c42 -9 87 -22 99 -30 15 -9 53 -14 116 -14 78 0 97
3 110 18 31 35 21 42 -57 42 -41 0 -86 4 -99 9 -47 18 -41 97 8 119 32 15 191
52 221 52 17 0 24 -6 24 -20 0 -22 28 -40 61 -40 13 0 38 17 61 41 36 38 44
42 115 50 81 11 75 12 146 -44 19 -15 52 -31 72 -34 l36 -6 -6 35 c-8 44 -1
46 145 47 58 1 126 4 152 7 39 5 54 2 91 -19 l44 -26 47 25 c45 24 48 24 96
10 34 -10 72 -13 119 -9 64 5 73 3 118 -23 42 -24 58 -28 128 -29 l80 0 -3 27
c-2 14 2 29 9 34 22 13 87 5 156 -22 64 -24 72 -25 138 -14 59 10 80 9 131 -4
36 -9 75 -13 94 -10 18 4 65 -1 110 -11 74 -17 81 -17 104 -2 34 22 62 21 93
-3 31 -24 43 -25 80 -3 31 17 27 18 112 -30 31 -18 31 -18 31 6 0 14 -8 35
-19 48 -51 66 -66 129 -31 129 30 0 36 27 13 58 -25 34 -40 38 -48 13 -8 -27
-30 -27 -49 1 -17 23 -6 48 20 48 22 0 17 54 -7 84 -25 32 -99 70 -153 80 -76
14 -96 46 -55 87 17 17 19 23 8 30 -28 17 -53 8 -90 -32 -32 -34 -42 -40 -64
-35 -37 9 -52 47 -31 78 15 24 15 27 -9 62 -14 20 -25 45 -25 54 0 9 -4 23 -9
31 -18 28 -41 -6 -41 -60 0 -38 -4 -51 -20 -59 -15 -8 -24 -6 -40 10 -11 11
-20 25 -20 30 0 19 -82 100 -101 100 -11 0 -28 -5 -38 -12 -27 -17 -197 5
-251 32 -48 25 -67 21 -76 -15 -8 -32 -39 -33 -88 -4 -54 31 -97 29 -150 -9
-69 -50 -92 -55 -146 -36 l-46 17 -62 -33 c-36 -19 -89 -36 -129 -42 -37 -5
-77 -12 -88 -14 -11 -2 -53 -33 -94 -69 -50 -46 -80 -65 -94 -63 -33 5 -32 33
2 85 17 26 31 54 31 64 0 20 36 49 61 49 25 0 69 39 69 62 0 19 -5 20 -52 16
-56 -5 -125 -43 -277 -153 -57 -42 -151 -30 -151 18 0 27 93 153 118 162 11 3
29 17 42 30 21 22 21 25 5 25 -10 0 -32 -15 -50 -34z"/>
<path d="M21210 18870 c-86 -12 -238 -56 -312 -89 -37 -17 -73 -31 -80 -31 -7
0 -67 -27 -133 -60 -93 -46 -151 -85 -257 -170 -75 -61 -161 -140 -191 -175
-94 -114 -159 -240 -143 -280 11 -29 46 4 86 79 59 113 142 202 250 269 52 32
127 85 166 117 39 32 91 68 115 79 211 96 258 113 372 137 67 14 147 32 177
41 45 13 84 15 215 9 88 -3 180 -11 205 -17 25 -6 79 -17 120 -24 208 -37 330
-72 520 -149 88 -36 230 -140 359 -261 58 -55 132 -116 164 -134 52 -29 61
-32 73 -19 13 13 -3 33 -133 164 -157 159 -227 214 -363 287 -98 53 -412 161
-515 177 -38 7 -99 18 -134 26 -123 28 -434 41 -561 24z"/>
<path d="M16220 18840 c-25 -5 -72 -9 -105 -9 -33 -1 -107 -13 -165 -26 -58
-14 -148 -35 -200 -46 -154 -34 -323 -95 -455 -163 -199 -103 -515 -340 -515
-387 0 -58 107 -5 283 141 147 122 275 198 432 256 111 40 278 86 400 108 44
8 112 22 150 30 50 11 128 16 272 16 178 0 215 -3 320 -25 181 -39 276 -80
451 -197 110 -74 288 -243 394 -375 51 -64 65 -72 86 -51 23 23 12 49 -42 106
-29 31 -66 77 -81 102 -27 43 -207 227 -270 275 -65 49 -343 184 -421 204
-148 36 -439 59 -534 41z"/>
<path d="M16135 18609 c-412 -84 -567 -143 -870 -331 -221 -137 -413 -278
-435 -318 -7 -12 -7 -27 0 -44 11 -29 20 -32 38 -14 9 9 23 8 59 -4 27 -9 80
-19 119 -23 62 -5 72 -4 88 14 31 35 81 45 142 31 30 -7 57 -11 60 -8 3 4 -2
20 -10 37 -26 49 -20 79 21 114 20 18 65 60 100 93 65 63 92 83 201 148 121
73 149 52 161 -125 8 -134 25 -173 108 -251 102 -94 250 -168 340 -168 54 0
188 27 223 45 42 21 192 196 225 260 34 67 44 163 25 241 -18 74 -7 108 38
112 24 2 42 -4 70 -26 20 -16 69 -46 108 -66 81 -42 108 -67 167 -157 38 -58
47 -66 98 -82 50 -16 58 -22 72 -57 16 -41 60 -70 107 -70 23 0 60 -33 60 -54
0 -8 -11 -28 -24 -43 -21 -25 -31 -28 -83 -28 -32 0 -66 4 -75 9 -14 6 -18 4
-18 -13 0 -31 -32 -42 -122 -40 -64 1 -103 -5 -167 -25 -47 -14 -93 -26 -103
-26 -10 0 -58 -13 -108 -30 -50 -16 -106 -30 -124 -30 -48 0 -92 -18 -79 -31
20 -20 350 11 443 40 47 15 92 21 165 21 167 0 259 31 349 114 41 39 47 50 42
72 -13 52 -317 347 -432 420 -16 10 -47 33 -69 50 -22 18 -67 45 -100 61 -33
16 -94 48 -135 70 -95 53 -286 109 -412 123 -123 13 -152 11 -263 -11z"/>
<path d="M21320 18593 c-83 -9 -186 -35 -253 -65 -40 -17 -96 -37 -125 -44
-55 -13 -197 -94 -293 -166 -151 -115 -190 -149 -264 -231 -160 -176 -175
-204 -139 -256 9 -13 37 -36 62 -52 55 -35 106 -38 162 -9 52 27 78 26 82 -2
4 -30 37 -44 133 -58 44 -6 114 -20 155 -31 64 -18 232 -47 376 -66 25 -3 44
-1 48 5 11 18 -50 42 -147 58 -87 14 -131 25 -307 79 -41 13 -112 29 -157 36
-79 12 -83 14 -83 39 0 30 -25 70 -45 70 -24 0 -45 30 -45 65 0 19 -5 46 -10
61 -6 15 -8 35 -4 46 5 17 12 18 59 13 60 -8 60 -8 90 74 19 52 25 58 135 133
63 43 124 78 136 78 45 0 54 -28 52 -151 -3 -112 -2 -115 31 -183 38 -78 154
-207 212 -237 53 -27 205 -69 248 -69 102 0 239 74 336 183 58 65 85 122 106
225 11 52 10 69 -4 121 -9 33 -17 73 -17 89 0 58 49 69 108 24 20 -16 58 -37
84 -46 45 -16 95 -62 134 -121 9 -14 41 -43 69 -63 29 -20 80 -60 113 -88 42
-36 71 -53 100 -58 44 -7 72 -35 72 -73 0 -16 6 -23 20 -23 11 0 72 -18 135
-39 121 -40 142 -42 171 -10 15 17 15 20 -4 51 -12 18 -32 53 -46 79 -18 34
-62 75 -173 164 -216 173 -382 275 -532 326 -30 11 -75 31 -100 46 -46 28 -66
32 -271 52 -52 6 -111 15 -130 21 -33 9 -201 11 -280 3z"/>
<path d="M21477 17613 c-28 -7 -14 -27 24 -35 129 -26 186 -29 228 -12 29 11
41 22 39 33 -3 14 -22 16 -138 17 -74 1 -143 0 -153 -3z"/>
<path d="M17990 14479 c-79 -36 -99 -69 -62 -102 24 -22 53 -21 132 4 82 26
146 20 244 -23 92 -40 124 -49 132 -36 11 17 -90 104 -166 142 -66 33 -80 36
-154 36 -60 0 -93 -6 -126 -21z"/>
<path d="M19673 14465 c-103 -28 -213 -96 -213 -132 0 -13 8 -15 48 -9 96 13
258 30 287 29 17 0 56 -4 87 -8 65 -9 88 2 88 40 0 33 -17 43 -121 70 -108 28
-107 28 -176 10z"/>
<path d="M18382 14015 c-39 -33 -84 -42 -101 -21 -19 23 -50 20 -76 -8 -13
-14 -39 -27 -66 -31 -59 -9 -89 -30 -89 -60 0 -13 4 -26 9 -30 18 -10 42 -144
31 -165 -19 -35 -57 -36 -103 -2 -50 36 -55 57 -27 111 18 37 19 42 5 47 -45
18 -155 -72 -155 -125 0 -59 -75 -128 -174 -161 -30 -10 -41 -21 -56 -54 -19
-46 -61 -86 -121 -117 -46 -23 -52 -41 -46 -138 4 -81 24 -114 55 -95 13 8 19
30 23 86 4 41 11 84 18 95 15 29 47 38 73 21 19 -13 22 -25 23 -119 2 -101 1
-105 -25 -129 -63 -59 -63 -102 2 -149 62 -46 69 -42 61 29 -5 54 -3 64 21
100 32 48 32 57 2 160 -22 77 -23 84 -8 122 13 33 13 45 3 73 -19 55 -3 75 62
75 41 0 61 6 87 25 39 28 55 24 44 -14 -11 -41 -7 -62 17 -87 31 -33 52 -30
80 14 36 56 66 54 104 -5 45 -70 54 -67 52 19 -1 79 16 138 40 138 24 0 92
-42 97 -59 3 -9 8 -61 12 -117 5 -85 4 -103 -10 -116 -8 -9 -20 -18 -25 -20
-11 -3 5 -86 19 -101 13 -15 90 24 94 47 11 58 26 155 26 169 0 8 -11 18 -24
21 -36 9 -44 45 -16 68 28 23 43 19 50 -13 4 -15 13 -24 25 -24 28 0 30 36 6
76 -25 41 -26 78 -5 150 9 30 16 78 15 107 l-2 52 45 20 c54 23 58 41 21 97
-48 74 -50 74 -93 38z"/>
<path d="M19471 13926 c-19 -23 -3 -81 35 -128 34 -43 42 -80 24 -108 -9 -15
-13 -14 -82 15 -15 6 -18 2 -18 -24 0 -25 6 -33 33 -45 27 -11 36 -22 46 -57
15 -55 32 -75 99 -124 37 -26 67 -39 100 -43 l47 -5 -36 40 c-89 99 -109 172
-52 194 37 14 73 4 130 -37 26 -19 53 -34 60 -34 14 0 43 28 43 41 0 6 -33 45
-73 87 -40 42 -86 100 -102 127 -36 65 -50 75 -99 75 -23 0 -55 9 -74 20 -38
24 -65 25 -81 6z"/>
<path d="M18616 13887 c-9 -12 -20 -47 -26 -77 -21 -107 -19 -103 -42 -96 -50
13 -59 -28 -28 -119 34 -97 25 -138 -55 -272 -18 -29 -19 -35 -5 -89 20 -75
34 -83 98 -56 33 14 75 23 123 24 l72 3 26 -46 c48 -86 101 -149 126 -149 40
0 53 33 54 147 1 24 9 38 34 57 56 43 62 39 62 -37 0 -59 3 -71 22 -87 28 -22
57 -16 84 18 16 20 18 34 13 67 l-6 42 40 6 c43 7 56 18 67 57 4 14 24 43 45
65 63 67 59 115 -10 115 -33 0 -43 6 -70 40 -32 40 -60 52 -60 25 0 -27 21
-60 50 -77 20 -11 31 -27 35 -51 11 -59 3 -80 -38 -101 -36 -17 -39 -17 -57
-1 -10 9 -22 30 -25 47 -9 41 -27 44 -74 13 -31 -21 -47 -25 -70 -20 -31 7
-71 47 -71 71 0 20 -37 17 -49 -3 -7 -13 -1 -32 20 -72 50 -94 28 -123 -53
-72 -68 43 -83 71 -81 150 2 55 -2 73 -24 110 -19 32 -24 52 -20 77 5 28 1 41
-24 68 -34 40 -36 54 -9 106 25 49 25 64 -1 106 -24 40 -52 44 -73 11z"/>
<path d="M19847 13873 c-4 -3 -7 -20 -7 -38 0 -24 11 -42 51 -80 28 -28 62
-73 74 -101 22 -48 77 -114 95 -114 5 0 22 -12 39 -26 31 -26 32 -26 59 -8 54
36 98 10 142 -83 17 -37 50 -96 72 -130 48 -74 46 -101 -7 -126 -34 -16 -45
-39 -25 -52 6 -4 22 -29 36 -56 30 -60 50 -71 75 -41 30 38 65 27 108 -35 37
-54 91 -54 77 0 -3 13 -40 61 -82 107 -79 85 -82 93 -59 152 5 12 -1 25 -20
40 -70 58 -77 68 -70 96 7 24 8 58 6 132 -1 11 0 36 1 55 2 26 -5 42 -27 65
-43 45 -75 37 -75 -20 0 -29 -15 -32 -55 -13 l-37 18 -22 -28 c-36 -45 -59
-34 -119 61 -15 23 -41 51 -58 61 -36 22 -75 71 -100 129 -14 32 -24 42 -42
42 -13 0 -27 -3 -30 -7z"/>
<path d="M13724 13549 c-7 -12 -30 -120 -40 -191 -6 -39 -5 -41 67 -53 48 -9
55 5 24 51 -29 43 -31 58 -10 107 8 20 15 50 15 67 0 25 -4 30 -24 30 -14 0
-28 -5 -32 -11z"/>
<path d="M20857 13434 c-5 -5 -1 -51 9 -101 3 -15 14 -24 36 -28 73 -16 75
-41 8 -114 l-50 -54 -25 57 c-21 47 -32 60 -68 77 -23 10 -66 37 -96 59 -63
46 -87 52 -76 18 4 -13 13 -51 20 -86 7 -35 21 -72 31 -84 28 -31 93 -58 141
-58 30 0 50 -7 72 -26 l31 -26 0 31 c0 25 6 34 26 41 49 19 75 12 129 -37 29
-27 67 -57 86 -68 18 -11 45 -40 59 -65 15 -25 34 -46 44 -48 16 -3 17 3 10
70 -3 40 -12 79 -18 87 -6 8 -31 23 -56 34 -86 37 -119 88 -88 137 10 16 9 23
-7 40 -11 12 -35 28 -53 36 -19 7 -55 36 -81 64 -43 46 -68 59 -84 44z"/>
<path d="M20116 13398 c-25 -35 -19 -64 24 -137 33 -56 40 -76 40 -122 0 -59
25 -123 59 -153 19 -17 23 -18 36 -5 12 11 13 22 5 49 -6 19 -10 49 -10 67 0
19 -10 43 -25 61 -29 35 -31 56 -10 106 18 42 9 69 -43 124 -35 38 -55 40 -76
10z"/>
<path d="M16128 13233 c-9 -10 -30 -47 -48 -82 l-32 -64 19 -50 c37 -101 78
-86 67 24 -5 59 -3 72 20 118 15 28 24 56 21 61 -9 15 -30 12 -47 -7z"/>
<path d="M17141 13152 c-19 -15 -67 -45 -105 -67 -80 -46 -90 -68 -34 -73 31
-3 37 -7 40 -29 2 -15 8 -28 14 -30 12 -4 143 178 152 209 7 27 -27 22 -67
-10z"/>
<path d="M16459 13088 c-17 -28 -20 -46 -17 -113 l3 -80 -47 -3 c-27 -2 -48
-6 -48 -11 0 -15 25 -31 50 -31 17 0 30 -9 42 -30 32 -57 62 -33 97 80 26 80
26 101 3 131 -10 13 -24 39 -31 57 -8 17 -17 32 -22 32 -5 0 -18 -15 -30 -32z"/>
<path d="M20914 12885 c-6 -15 47 -110 75 -132 19 -16 63 -17 79 -1 24 24 11
48 -50 98 -64 51 -94 61 -104 35z"/>
<path d="M16890 12864 c-6 -14 -10 -29 -10 -34 0 -13 -42 -39 -81 -50 -57 -17
-88 -4 -109 46 -11 24 -25 44 -32 44 -8 0 -39 -26 -70 -57 -43 -44 -59 -69
-67 -103 -16 -71 -50 -162 -68 -182 -13 -15 -25 -17 -68 -12 -48 6 -54 4 -69
-18 -11 -17 -14 -35 -10 -56 4 -17 3 -47 0 -67 -6 -30 -14 -39 -64 -63 -42
-20 -66 -41 -89 -76 -18 -27 -33 -52 -33 -57 0 -19 39 -8 76 22 60 48 90 57
224 65 97 5 131 11 151 25 63 44 198 42 269 -5 19 -12 73 -34 118 -49 93 -29
111 -26 161 27 31 33 48 33 83 -1 l29 -27 38 44 39 45 103 -3 c57 -1 126 -7
154 -14 52 -12 331 -4 435 12 142 22 148 23 192 6 28 -11 85 -18 163 -20 66
-2 157 -9 203 -15 163 -22 241 -26 498 -26 278 0 299 3 292 49 -5 36 -50 43
-114 17 -71 -30 -86 -29 -169 4 -50 20 -99 30 -179 37 -155 13 -183 22 -208
64 -22 37 -39 42 -59 18 -28 -34 -62 -41 -194 -39 -71 2 -183 8 -247 14 -101
10 -124 10 -169 -3 -29 -9 -69 -16 -88 -16 -20 0 -72 -7 -116 -15 -95 -17
-196 -19 -248 -4 -68 19 -136 97 -167 192 -18 58 -45 66 -130 39 -88 -29 -186
-38 -233 -23 -21 7 -37 13 -37 14 -16 78 -30 172 -30 204 0 32 -5 46 -22 57
-30 22 -37 20 -48 -10z"/>
<path d="M21705 12823 c15 -41 17 -77 5 -114 -12 -36 -11 -46 13 -117 24 -66
27 -90 25 -174 -3 -89 -1 -99 19 -120 20 -20 25 -21 37 -8 12 13 12 43 4 180
-6 114 -6 171 1 187 19 41 12 70 -26 120 -40 52 -51 63 -72 63 -8 0 -11 -6 -6
-17z"/>
<path d="M15285 12806 c-30 -13 -85 -69 -85 -86 0 -5 12 -15 28 -22 49 -24 39
-77 -14 -78 -24 0 -34 17 -34 56 0 29 7 29 -92 4 -137 -35 -206 -69 -229 -112
-10 -19 -9 -20 17 -16 16 3 76 13 133 23 97 17 106 17 155 1 108 -34 148 -12
161 87 4 28 13 65 21 81 19 39 18 53 -5 66 -23 12 -19 12 -56 -4z"/>
<path d="M16185 12770 c-9 -14 -45 -121 -45 -133 0 -5 12 -6 28 -2 15 4 51 8
81 9 39 2 58 8 67 21 23 31 18 38 -54 83 -57 34 -67 37 -77 22z"/>
<path d="M21174 12710 c-11 -5 -27 -22 -34 -39 -21 -53 -83 -54 -150 -3 -31
24 -44 27 -115 28 -44 0 -83 -1 -87 -3 -4 -2 0 -22 8 -45 19 -54 18 -64 -7
-89 -20 -20 -27 -21 -147 -14 -108 6 -133 11 -168 31 -42 24 -84 32 -84 14 0
-5 20 -26 45 -47 25 -20 45 -45 45 -54 0 -23 -45 -76 -81 -94 -15 -8 -54 -15
-85 -15 -50 0 -62 -4 -87 -27 -32 -32 -25 -31 -307 -20 -96 4 -205 13 -242 19
-52 9 -81 8 -125 -1 -77 -17 -106 -36 -94 -60 8 -15 29 -19 113 -26 114 -8
149 -9 223 -6 78 4 230 -16 262 -33 15 -9 41 -26 56 -38 l28 -23 32 38 c28 33
40 39 92 47 33 4 78 8 100 8 24 0 54 8 75 21 23 14 52 21 85 21 53 0 77 -11
132 -63 38 -36 65 -32 144 18 68 44 99 50 179 31 36 -9 102 -19 148 -22 73 -6
85 -10 100 -32 9 -13 31 -40 48 -60 29 -33 37 -36 105 -43 87 -8 95 -5 114 32
24 46 19 102 -11 130 -14 13 -32 36 -40 50 -7 15 -33 50 -58 79 -28 32 -53 76
-66 113 -25 77 -77 162 -104 175 -12 5 -30 6 -42 2z"/>
<path d="M21480 12690 c-28 -24 -31 -24 -75 -6 -41 18 -43 14 -10 -25 13 -16
27 -46 31 -67 7 -42 29 -82 45 -82 5 0 16 15 24 34 10 22 25 37 45 44 16 6 30
17 30 25 0 11 -57 97 -64 97 -2 0 -13 -9 -26 -20z"/>
<path d="M22786 12403 c-3 -4 -6 -46 -6 -93 0 -67 -5 -99 -21 -135 -12 -26
-18 -57 -15 -69 9 -35 46 -77 65 -74 22 5 26 157 5 208 -14 33 -13 39 5 80 13
30 17 49 11 61 -10 19 -35 31 -44 22z"/>
<path d="M16022 12148 c-6 -7 -22 -49 -37 -94 -27 -79 -27 -81 -10 -118 34
-71 85 -69 145 5 48 60 36 82 -32 64 -36 -9 -46 13 -29 69 26 86 26 86 -2 86
-13 0 -29 -6 -35 -12z"/>
<path d="M21477 12002 c-9 -10 -20 -32 -23 -49 -5 -26 -1 -33 24 -52 43 -30
47 -54 21 -102 l-23 -40 32 -25 c28 -22 32 -31 32 -74 0 -55 20 -81 45 -60 20
16 19 50 -2 101 -13 35 -14 49 -5 84 9 34 8 55 -9 120 -26 107 -56 137 -92 97z"/>
<path d="M14592 11890 c-22 -22 -47 -40 -56 -40 -25 0 -44 -40 -52 -108 -6
-57 -5 -65 16 -87 28 -29 45 -20 55 28 4 18 29 71 56 118 72 127 63 169 -19
89z"/>
<path d="M18384 11341 c-51 -24 -79 -29 -175 -34 -129 -7 -239 -26 -261 -45
-9 -7 -28 -30 -43 -52 -25 -35 -26 -43 -16 -69 7 -15 37 -50 68 -76 43 -38 66
-50 105 -56 31 -5 62 -19 83 -36 66 -54 90 -69 132 -81 43 -13 46 -18 58 -84
7 -43 27 -58 79 -58 35 0 36 -1 36 -39 0 -22 5 -43 11 -47 7 -4 34 17 66 50
29 31 62 56 72 56 9 0 28 -11 41 -25 28 -30 56 -31 90 -5 37 29 56 25 116 -27
55 -46 55 -46 70 -25 21 31 69 29 90 -3 12 -19 14 -36 9 -75 -6 -45 -5 -50 12
-50 14 0 29 19 53 66 24 48 42 70 65 81 18 8 40 28 49 44 20 33 51 44 106 35
40 -6 70 10 70 39 0 8 11 21 23 30 22 14 29 14 76 -1 l52 -17 27 26 c33 32 64
34 122 8 70 -31 92 -6 45 51 -55 66 -19 148 66 148 21 0 40 4 44 9 3 6 -10 26
-30 45 -24 25 -35 44 -35 65 0 36 -23 61 -56 61 -36 0 -123 39 -162 72 -36 31
-76 36 -106 13 -25 -19 -54 -19 -96 -1 -29 12 -39 11 -86 -5 -70 -25 -170 -27
-213 -5 -31 17 -33 16 -76 -8 -54 -32 -66 -32 -103 -1 -30 25 -76 33 -87 15
-10 -16 -45 -12 -81 11 -27 16 -54 21 -141 24 -101 4 -112 2 -169 -24z"/>
<path d="M14999 11243 c-32 -75 -30 -87 14 -91 47 -4 48 -20 1 -83 -19 -26
-39 -61 -43 -77 -9 -31 2 -62 23 -62 17 0 50 38 65 76 7 18 26 44 42 60 37 35
37 60 -1 82 -19 11 -30 25 -30 39 0 30 -30 103 -41 103 -6 0 -19 -21 -30 -47z"/>
<path d="M19248 10181 c-18 -16 -53 -34 -76 -40 -50 -14 -62 -36 -62 -110 0
-54 16 -74 51 -69 19 2 24 13 34 60 11 57 20 71 83 136 30 30 35 52 12 52 -5
0 -24 -13 -42 -29z"/>
<path d="M11903 19044 c-21 -9 -15 -42 17 -86 25 -34 30 -50 30 -99 0 -120 51
-152 61 -39 3 36 11 78 17 93 10 22 9 34 -2 55 -28 54 -88 91 -123 76z"/>
<path d="M25088 18948 c-21 -16 -98 -149 -122 -207 -14 -37 -16 -61 -10 -148
4 -57 10 -106 14 -108 4 -3 24 13 44 35 30 33 36 48 36 84 0 29 7 52 21 71 17
21 22 39 20 85 -1 46 4 71 25 114 23 46 25 57 15 70 -16 19 -22 20 -43 4z"/>
<path d="M24945 18423 c-9 -21 -30 -53 -48 -71 -31 -32 -32 -36 -29 -103 1
-39 9 -84 18 -100 17 -34 74 -65 99 -55 16 6 17 14 9 69 -5 34 -9 105 -9 157
-1 122 -3 140 -15 140 -5 0 -17 -17 -25 -37z"/>
<path d="M24947 18007 c-39 -31 -51 -88 -30 -141 9 -23 17 -70 17 -106 1 -59
3 -65 23 -68 37 -5 51 38 54 173 4 166 -6 189 -64 142z"/>
<path d="M24890 17460 c0 -11 9 -37 20 -57 25 -48 25 -72 -1 -133 -20 -47 -20
-50 -4 -94 17 -43 17 -82 0 -148 -5 -19 -1 -34 16 -58 l24 -31 -31 -57 c-17
-31 -37 -81 -44 -110 -9 -37 -23 -64 -46 -88 -19 -18 -34 -39 -34 -45 0 -7 16
-26 37 -43 50 -44 42 -74 -27 -105 -59 -27 -69 -50 -50 -117 17 -59 6 -72 -47
-56 -54 16 -61 6 -58 -86 2 -42 4 -80 4 -83 2 -12 44 -18 62 -9 9 6 20 24 24
41 5 21 18 38 41 51 19 11 44 38 55 59 10 21 33 60 49 86 24 37 30 58 30 101
0 32 12 90 30 146 26 78 31 114 34 212 2 66 9 132 16 149 8 22 8 46 1 90 -30
172 -44 265 -48 310 -6 80 -11 95 -33 95 -13 0 -20 -7 -20 -20z"/>
<path d="M12076 17109 c-14 -17 -26 -34 -26 -38 0 -4 13 -28 30 -52 30 -46 39
-87 26 -125 -5 -18 2 -29 35 -58 24 -20 46 -36 51 -36 5 0 17 14 26 32 9 17
32 48 50 68 40 47 42 64 5 57 -29 -5 -86 13 -97 31 -4 6 -1 32 5 57 12 46 11
48 -17 71 -39 31 -57 30 -88 -7z"/>
<path d="M12242 16749 c-23 -7 -38 -20 -49 -43 -15 -32 -15 -39 1 -100 9 -36
16 -90 16 -121 0 -37 8 -76 26 -117 24 -58 25 -66 14 -117 -10 -46 -9 -68 4
-124 22 -92 30 -104 79 -118 56 -17 65 -25 73 -68 8 -42 77 -114 94 -97 12 12
13 39 1 51 -5 6 -21 39 -36 75 -15 36 -40 82 -57 104 -17 21 -35 58 -40 81 -6
27 -21 54 -43 75 -19 19 -35 40 -35 47 0 7 18 24 40 38 23 14 46 38 52 53 6
15 17 41 25 57 16 32 14 86 -2 92 -6 2 -21 -17 -33 -43 -19 -39 -26 -45 -50
-42 -22 2 -30 11 -40 43 -17 51 -10 133 17 189 25 51 27 82 5 90 -18 7 -19 7
-62 -5z"/>
<path d="M24832 15870 c-6 -11 -12 -38 -12 -60 0 -22 -5 -60 -12 -85 -18 -67
12 -104 56 -72 35 26 25 237 -12 237 -4 0 -13 -9 -20 -20z"/>
<path d="M12437 14893 c-21 -20 -4 -66 41 -116 26 -29 54 -67 61 -84 7 -18 22
-35 33 -39 34 -11 42 9 32 83 -8 62 -12 69 -44 89 -19 13 -49 34 -66 48 -33
27 -46 31 -57 19z"/>
<path d="M23313 8094 c-29 -13 -11 -45 47 -87 126 -90 197 -138 252 -171 32
-19 84 -57 115 -84 32 -27 113 -84 180 -126 147 -93 210 -147 248 -218 28 -50
30 -60 33 -194 2 -78 -1 -202 -7 -274 -15 -187 -57 -302 -230 -645 -75 -148
-148 -295 -162 -325 -107 -233 -244 -420 -515 -703 -187 -197 -445 -437 -614
-574 -127 -102 -480 -343 -570 -388 -33 -17 -89 -49 -280 -162 -103 -61 -581
-293 -604 -293 -3 0 -68 -27 -145 -60 -77 -32 -180 -71 -228 -86 -48 -14 -121
-41 -162 -59 -42 -17 -112 -42 -157 -53 -45 -12 -113 -33 -152 -47 -40 -14
-103 -30 -142 -35 -39 -5 -89 -14 -113 -19 -23 -5 -80 -15 -127 -20 -47 -6
-148 -22 -225 -36 -412 -71 -327 -65 -935 -65 -436 0 -568 3 -615 14 -33 8
-130 17 -215 21 -247 11 -469 48 -690 115 -52 15 -151 43 -220 60 -69 18 -165
51 -215 75 -49 23 -133 55 -185 70 -148 43 -340 132 -853 391 -207 105 -354
187 -437 243 -69 47 -208 133 -310 192 -102 59 -223 130 -270 158 -250 149
-417 251 -517 315 -61 39 -162 103 -224 141 -62 39 -159 100 -216 137 -57 37
-126 79 -154 93 -28 15 -138 85 -244 156 -289 193 -471 360 -664 608 -192 247
-274 417 -275 571 -1 100 22 139 162 269 106 100 144 129 377 294 137 97 170
128 161 153 -9 22 -37 14 -176 -51 -63 -30 -155 -66 -205 -80 -49 -15 -103
-37 -120 -50 -16 -12 -46 -30 -65 -40 -19 -9 -50 -31 -68 -48 -31 -30 -38 -31
-135 -37 l-102 -6 -70 -49 c-38 -26 -115 -69 -170 -95 -78 -37 -122 -67 -200
-134 -55 -48 -123 -98 -152 -111 -28 -13 -73 -43 -100 -67 -34 -30 -68 -49
-113 -63 -54 -16 -76 -30 -130 -83 -111 -109 -172 -144 -421 -242 -25 -10 -78
-23 -117 -28 -48 -7 -91 -21 -127 -41 -30 -17 -73 -34 -97 -37 -24 -4 -77 -24
-118 -44 -41 -21 -98 -45 -126 -53 -27 -8 -79 -29 -115 -47 -35 -18 -93 -43
-129 -56 -36 -12 -103 -38 -150 -58 -47 -19 -113 -39 -147 -45 -42 -7 -78 -21
-115 -45 -30 -20 -103 -53 -164 -74 -60 -22 -120 -44 -132 -51 -33 -18 -308
-111 -327 -111 -9 0 -38 -11 -65 -25 -26 -13 -68 -27 -92 -31 -24 -3 -82 -24
-129 -45 -83 -36 -179 -65 -319 -96 -40 -8 -80 -25 -105 -44 -53 -40 -108 -65
-186 -85 -35 -9 -85 -27 -111 -40 -25 -13 -66 -27 -90 -30 -24 -4 -77 -24
-118 -44 -41 -20 -122 -51 -180 -69 -148 -44 -230 -75 -350 -132 -36 -17 -89
-33 -120 -36 -30 -3 -71 -14 -90 -24 -57 -28 -274 -106 -329 -118 -28 -6 -72
-22 -98 -36 -27 -13 -79 -31 -116 -40 -37 -9 -94 -27 -125 -41 -31 -14 -86
-32 -122 -40 -36 -8 -121 -35 -189 -60 -68 -24 -133 -44 -144 -44 -11 0 -52
-16 -90 -36 -78 -40 -196 -87 -365 -145 -62 -21 -133 -52 -158 -69 -24 -18
-66 -38 -92 -47 -26 -9 -62 -27 -79 -40 -18 -13 -52 -30 -75 -39 -24 -8 -68
-27 -98 -43 -30 -16 -82 -39 -115 -51 -33 -13 -82 -39 -110 -60 -27 -20 -71
-42 -97 -49 -52 -12 -249 -110 -318 -157 -25 -17 -62 -37 -83 -43 -20 -7 -68
-41 -107 -76 -38 -35 -84 -72 -102 -81 -49 -25 -185 -117 -248 -167 -30 -24
-257 -185 -505 -357 -520 -362 -579 -407 -697 -527 -96 -98 -284 -315 -329
-380 -36 -51 -293 -587 -314 -651 -8 -26 -51 -360 -95 -742 -45 -382 -83 -710
-87 -728 l-5 -32 16736 0 c16415 0 16736 0 16736 19 0 25 -23 238 -60 561 -50
435 -210 1431 -306 1900 -47 228 -92 442 -101 475 -17 67 -408 944 -445 998
-57 84 -611 728 -638 742 -16 8 -164 47 -327 85 -355 84 -359 85 -401 121 -18
16 -49 36 -68 44 -20 8 -66 35 -103 59 -36 24 -111 63 -165 85 -55 23 -119 58
-144 79 -63 53 -90 70 -153 93 -33 12 -81 42 -117 74 -34 29 -78 59 -99 65
-21 7 -66 23 -100 36 -34 13 -71 24 -82 24 -11 0 -53 17 -93 38 -40 22 -89 42
-109 46 -19 3 -62 23 -95 44 -64 41 -167 85 -225 96 -19 3 -69 26 -110 51 -41
25 -83 45 -93 45 -18 0 -105 37 -284 121 -46 21 -92 39 -103 39 -32 0 -210 61
-279 95 -36 18 -99 42 -140 54 -41 12 -109 37 -150 56 -74 32 -193 69 -259 80
-19 3 -62 18 -96 34 -56 26 -205 74 -330 106 -27 7 -70 21 -95 32 -25 11 -83
30 -130 42 -47 12 -116 31 -155 42 -38 10 -126 33 -195 50 -121 31 -155 40
-250 72 -68 23 -177 48 -249 58 -36 5 -85 15 -110 23 -26 8 -64 17 -86 21 -22
4 -60 15 -85 26 -25 11 -79 24 -121 30 -43 5 -103 18 -135 29 -34 12 -83 20
-121 20 -47 0 -93 10 -171 36 -195 65 -511 148 -605 159 -34 4 -82 15 -107 25
-25 9 -70 20 -100 24 -30 4 -86 15 -125 26 -116 31 -196 50 -274 66 -41 8 -84
20 -95 28 -33 21 -164 66 -194 66 -15 0 -52 7 -82 15 -30 8 -89 21 -130 29
-41 8 -111 23 -155 34 -44 11 -107 22 -140 26 -84 8 -239 49 -305 80 -30 14
-61 26 -68 26 -21 0 -134 58 -183 93 -33 24 -62 36 -98 40 -28 3 -72 16 -98
27 -27 12 -82 25 -123 29 -96 11 -328 90 -378 129 -56 44 -76 52 -130 52 -66
0 -129 20 -181 58 -23 17 -86 45 -139 63 -82 27 -117 32 -227 36 -113 5 -136
9 -180 31 -27 14 -104 38 -170 53 -66 16 -129 30 -140 33 -11 3 -26 3 -32 0z"/>
</g>
</svg>
