<?xml version="1.0" encoding="UTF-8" standalone="no"?>
<!-- Generator: Adobe Illustrator 21.0.0, SVG Export Plug-In . SVG Version: 6.00 Build 0)  -->

<svg
		xmlns:dc="http://purl.org/dc/elements/1.1/"
		xmlns:cc="http://creativecommons.org/ns#"
		xmlns:rdf="http://www.w3.org/1999/02/22-rdf-syntax-ns#"
		xmlns:svg="http://www.w3.org/2000/svg"
		xmlns="http://www.w3.org/2000/svg"
		xmlns:sodipodi="http://sodipodi.sourceforge.net/DTD/sodipodi-0.dtd"
		xmlns:inkscape="http://www.inkscape.org/namespaces/inkscape"
		version="1.1"
		id="Layer_1"
		x="0px"
		y="0px"
		viewBox="0 0 165.7 75.3"
		style="enable-background:new 0 0 165.7 75.3;"
		xml:space="preserve"
		inkscape:version="0.91 r13725"
		sodipodi:docname="logo.svg"><metadata
   id="metadata4153"><rdf:RDF><cc:Work
       rdf:about=""><dc:format>image/svg+xml</dc:format><dc:type
		rdf:resource="http://purl.org/dc/dcmitype/StillImage" /><dc:title></dc:title></cc:Work></rdf:RDF></metadata><defs
		id="defs4151" /><sodipodi:namedview
		pagecolor="#323232"
		bordercolor="#666666"
		borderopacity="1"
		objecttolerance="10"
		gridtolerance="10"
		guidetolerance="10"
		inkscape:pageopacity="0"
		inkscape:pageshadow="2"
		inkscape:window-width="1920"
		inkscape:window-height="1017"
		id="namedview4149"
		showgrid="false"
		inkscape:zoom="6.2090548"
		inkscape:cx="78.539864"
		inkscape:cy="53.908167"
		inkscape:window-x="-8"
		inkscape:window-y="-8"
		inkscape:window-maximized="1"
		inkscape:current-layer="Layer_1" />
	<style
			type="text/css"
			id="style4137">
	.st0{fill:none;stroke:#EB1F3A;stroke-width:1.69;stroke-miterlimit:10;}
	.st1, .st4{fill:#EC1C3A;}
	.st2, .st3{fill:#404041;}
	.st4{font-size:56.6208px;}
	.st5{fill:#EB1F3A;stroke:#EB1F3A;stroke-width:0.34;stroke-miterlimit:10;}
</style>
	<path
			class="st0 tail"
			d="M1.5,27.5c0,0,2.6,5.8,13.8,4.6c8.4-0.9,18.8-22,22.2-26s9.3-3.7,11.8-1.9s3.3,8.5,3.3,8.5"
			id="path4139" />
	<path
			class="st1 ok"
			d="M51.1,12.9C35.2,12.9,21,28,21,44.1s13.8,30.1,29.7,30.1c20,0,32.2-13.2,32.2-30.8C82.9,28,71.6,12.9,51.1,12.9  z M53.9,35.7c0.7-0.5,1.3-1.1,1.8-1.8c0.7-1.5,0.5-5,0-6.6c-0.2-0.8-1.8-2-1.8-2V20c0,0,3.8,0.6,6.3,2.6c2,1.6,4,4.6,5,6.1  c3.2,4.8,4.6,11.8,4.6,11.8H53.9V35.7z M39.4,28.7c1-1.5,2.9-4.5,4.9-6.1c1.8-1.3,3.9-2.2,6.1-2.6v5.4c0,0-1.6,1.2-1.8,2  c-0.5,1.6-0.7,5.1,0,6.6c0.5,0.7,1.1,1.2,1.8,1.8v4.8H34.9C34.9,40.5,36.3,33.5,39.4,28.7z M69.8,53.5c-0.9,2.9-2.2,6-6.7,9.7  c-2.2,1.8-7.6,4-10.5,4l0,0c-3-0.1-8.5-2.2-10.7-4c-4.7-3.7-6.1-6.8-6.9-9.7c-0.8-2.5-0.9-9.9-0.9-9.9h36.6  C70.7,43.6,70.5,50.9,69.8,53.5L69.8,53.5z"
			id="path4141" />
	<g
			transform="matrix(1 0 0 1 86.8349 65.3623)"
			id="text4143"><path
     d="m 13.768144,-41.5809 0,5.778197 3.013509,0 0,5.805844 -3.013509,0 0,19.629281 q 0,3.6217405 0.359409,4.0364436 0.387056,0.4147031 3.124097,0.4147031 L 17.25165,0 12.745209,0 Q 8.9299406,0 7.298775,-0.30411563 5.6676094,-0.63587813 4.4235,-1.7694 3.1793906,-2.9305688 2.875275,-4.3958531 2.5711594,-5.8887844 2.5711594,-11.362866 l 0,-18.633993 -2.40527815,0 0,-5.805844 2.40527815,0 0,-5.778197 11.1969846,0 z"
	 class="st2"
     id="path4159" /><path
			d="m 44.539115,-17.694 -14.459315,0 0,7.9346531 q 0,2.4882188 0.359409,3.2070375 0.35941,0.7188188 1.382344,0.7188188 1.271756,0 1.686459,-0.9399938 0.44235,-0.9676406 0.44235,-3.7046816 l 0,-4.838203 10.588753,0 0,2.709394 q 0,3.4005656 -0.44235,5.2252594 -0.414703,1.8246937 -1.990575,3.8982093 -1.575871,2.0735157 -4.008796,3.12409692 -2.405279,1.02293438 -6.054666,1.02293438 -3.5388,0 -6.248194,-1.02293438 Q 23.08514,-1.3823438 21.564562,-3.1517438 20.071631,-4.9487906 19.491047,-7.0776 18.910462,-9.2340563 18.910462,-13.325794 l 0,-10.69934 q 0,-4.810557 1.299403,-7.575244 1.299404,-2.792335 4.257619,-4.257619 2.958216,-1.492931 6.801131,-1.492931 4.699969,0 7.741125,1.797047 3.068804,1.7694 4.285266,4.727615 1.244109,2.930569 1.244109,8.266416 l 0,4.86585 z m -11.196984,-5.971725 0,-2.681747 q 0,-2.847628 -0.304116,-3.677034 -0.304115,-0.829407 -1.244109,-0.829407 -1.161169,0 -1.437637,0.718819 -0.276469,0.691172 -0.276469,3.787622 l 0,2.681747 3.262331,0 z"
			class="st3"
			id="path4161" /></g>

	<path
			d="M 30.052153,-44.760291 23.389256,-24.550425 30.688031,0 18.661641,0 13.961672,-19.186931 13.961672,0 2.3223375,0 l 0,-44.760291 11.6393345,0 0,17.389885 5.169966,-17.389885 10.920515,0 z"
			transform="matrix(1 0 0 1 133.0327 65.3623)"
			class="st4 ok"
			id="path4156" />
	<path
			class="st5 ok tail"
			d="m 1.0787988,28.090368 1.1601391,-0.527011 c 0,0 -1.1827433,-2.63237 -1.76872928,-2.308548 -0.69608283,0.316208 0.60859018,2.835559 0.60859018,2.835559 z"
			id="path4147"
			inkscape:connector-curvature="0"
			style="fill:#eb1f3a;stroke:#eb1f3a;stroke-width:0.39316347;stroke-miterlimit:10" />
</svg>