<?xml version="1.0" encoding="utf-8"?>
<!-- Generator: Adobe Illustrator 21.0.0, SVG Export Plug-In . SVG Version: 6.00 Build 0)  -->
<svg version="1.1" id="Layer_1" xmlns="http://www.w3.org/2000/svg" xmlns:xlink="http://www.w3.org/1999/xlink" x="0px" y="0px"
	 viewBox="0 0 80 80" style="enable-background:new 0 0 80 80;" xml:space="preserve">
<style type="text/css">
	.st0{fill:none;stroke:black;stroke-width:1.6867;stroke-miterlimit:10;}
	.st1{fill:black;}
	.st2{fill:black;stroke:black;stroke-width:0.3373;stroke-miterlimit:10;}
</style>
<path class="st0" d="M-4.4,30.8c0,0,2.3,5.2,12.3,4.2c7.6-0.8,16.9-19.7,20-23.3C31,8,36.3,8.3,38.5,9.9c2.2,1.6,2.9,7.6,2.9,7.6"/>
<path class="st1" d="M40.1,17.6c-14.2,0-27,13.5-27,28c0,14.5,12.4,27,26.6,27c17.9,0,28.8-11.8,28.8-27.6
	C68.6,31.2,58.5,17.6,40.1,17.6z M42.6,38.1c0,0,1.4-1.1,1.6-1.6c0.6-1.3,0.4-4.5,0-5.9c-0.2-0.7-1.6-1.8-1.6-1.8V24
	c0,0,3.4,0.5,5.6,2.3c1.8,1.5,3.6,4.2,4.5,5.5c2.9,4.3,4.1,10.6,4.1,10.6H42.6V38.1z M29.6,31.8c0.9-1.3,2.6-4,4.4-5.5
	c2.2-1.8,5.5-2.3,5.5-2.3v4.8c0,0-1.4,1.1-1.6,1.8c-0.4,1.4-0.6,4.6,0,5.9c0.2,0.5,1.6,1.6,1.6,1.6v4.3H25.6
	C25.6,42.4,26.8,36.1,29.6,31.8z M56.8,54c-0.8,2.6-1.9,5.3-6,8.7c-2,1.6-6.8,3.5-9.4,3.6h0c-2.7-0.1-7.6-2-9.6-3.6
	c-4.2-3.3-5.4-6.1-6.2-8.7c-0.7-2.3-0.8-8.9-0.8-8.9h32.9C57.6,45.1,57.5,51.7,56.8,54z"/>
<path class="st2" d="M-4.9,31l0.9-0.5c0,0-1.1-1.9-1.6-1.6C-6.1,29.2-4.9,31-4.9,31z"/>
</svg>
