<?xml version="1.0" encoding="utf-8"?>
<!-- Generator: Adobe Illustrator 21.0.0, SVG Export Plug-In . SVG Version: 6.00 Build 0)  -->
<svg version="1.1" id="Layer_1" xmlns="http://www.w3.org/2000/svg" xmlns:xlink="http://www.w3.org/1999/xlink" x="0px" y="0px"
	 viewBox="0 0 246.9 368.7" style="enable-background:new 0 0 246.9 368.7;" xml:space="preserve">
<style type="text/css">
	
		.st0{opacity:0.15;fill:none;stroke:#FFFFFF;stroke-linecap:round;stroke-linejoin:round;stroke-miterlimit:10;stroke-opacity:0.5;enable-background:new    ;}
	
		.st1{opacity:0.5;fill:none;stroke:#808080;stroke-linecap:round;stroke-linejoin:round;stroke-miterlimit:10;stroke-opacity:0.5;enable-background:new    ;}
</style>
<path class="st0" d="M222.8,247.4c-1,1-2.5,1-3.5,0s-1-2.5,0-3.5s2.5-1,3.5,0C223.8,244.8,223.8,246.4,222.8,247.4z"/>
<path class="st0" d="M150.2,124.5c-1,1-2.5,1-3.5,0s-1-2.5,0-3.5s2.5-1,3.5,0S151.2,123.6,150.2,124.5z"/>
<path class="st0" d="M125,149.8c-1,1-2.5,1-3.5,0s-1-2.5,0-3.5s2.5-1,3.5,0C125.9,147.3,125.9,148.9,125,149.8z"/>
<path class="st0" d="M121.4,146.3"/>
<rect x="97.7" y="97.3" transform="matrix(0.7071 -0.7071 0.7071 0.7071 -50.767 123.1454)" class="st0" width="51.1" height="51.1"/>
<rect x="90" y="89.7" transform="matrix(0.7071 -0.7071 0.7071 0.7071 -50.8099 123.1076)" class="st0" width="66.4" height="66.4"/>
<rect x="113" y="112.6" transform="matrix(0.7071 -0.7071 0.7071 0.7071 -50.744 123.0799)" class="st0" width="20.4" height="20.4"/>
<path class="st0" d="M99.7,124.6c-1,1-2.5,1-3.5,0s-1-2.5,0-3.5s2.5-1,3.5,0C100.7,122,100.7,123.6,99.7,124.6z"/>
<path class="st0" d="M125,99.3c-1,1-2.5,1-3.5,0s-1-2.5,0-3.5s2.5-1,3.5,0S126,98.3,125,99.3z"/>
<path class="st0" d="M113.5,123.5c-0.4,0.4-1,0.4-1.3,0c-0.4-0.4-0.4-1,0-1.3c0.4-0.4,1-0.4,1.3,0
	C113.8,122.5,113.8,123.1,113.5,123.5z"/>
<path class="st0" d="M116.1,120.9c-0.4,0.4-1,0.4-1.3,0c-0.4-0.4-0.4-1,0-1.3c0.4-0.4,1-0.4,1.3,0
	C116.4,119.9,116.5,120.5,116.1,120.9z"/>
<path class="st0" d="M118.7,118.3c-0.4,0.4-1,0.4-1.3,0c-0.4-0.4-0.4-1,0-1.3c0.4-0.4,1-0.4,1.3,0
	C119.1,117.3,119.1,117.9,118.7,118.3z"/>
<path class="st0" d="M121.3,115.6c-0.4,0.4-1,0.4-1.3,0c-0.4-0.4-0.4-1,0-1.3c0.4-0.4,1-0.4,1.3,0
	C121.7,114.7,121.7,115.3,121.3,115.6z"/>
<path class="st0" d="M123.9,113c-0.4,0.4-1,0.4-1.3,0c-0.4-0.4-0.4-1,0-1.3c0.4-0.4,1-0.4,1.3,0C124.3,112.1,124.3,112.7,123.9,113z
	"/>
<path class="st0" d="M116.1,126.1c-0.4,0.4-1,0.4-1.3,0c-0.4-0.4-0.4-1,0-1.3c0.4-0.4,1-0.4,1.3,0
	C116.5,125.1,116.5,125.7,116.1,126.1z"/>
<path class="st0" d="M118.7,123.5c-0.4,0.4-1,0.4-1.3,0c-0.4-0.4-0.4-1,0-1.3c0.4-0.4,1-0.4,1.3,0
	C119.1,122.5,119.1,123.1,118.7,123.5z"/>
<path class="st0" d="M121.3,120.9c-0.4,0.4-1,0.4-1.3,0c-0.4-0.4-0.4-1,0-1.3c0.4-0.4,1-0.4,1.3,0
	C121.7,119.9,121.7,120.5,121.3,120.9z"/>
<path class="st0" d="M123.9,118.3c-0.4,0.4-1,0.4-1.3,0c-0.4-0.4-0.4-1,0-1.3c0.4-0.4,1-0.4,1.3,0
	C124.3,117.3,124.3,117.9,123.9,118.3z"/>
<path class="st0" d="M126.5,115.7c-0.4,0.4-1,0.4-1.3,0c-0.4-0.4-0.4-1,0-1.3c0.4-0.4,1-0.4,1.3,0
	C126.9,114.7,126.9,115.3,126.5,115.7z"/>
<path class="st0" d="M118.7,128.7c-0.4,0.4-1,0.4-1.3,0c-0.4-0.4-0.4-1,0-1.3c0.4-0.4,1-0.4,1.3,0
	C119.1,127.7,119.1,128.3,118.7,128.7z"/>
<path class="st0" d="M121.3,126.1c-0.4,0.4-1,0.4-1.3,0c-0.4-0.4-0.4-1,0-1.3c0.4-0.4,1-0.4,1.3,0
	C121.7,125.1,121.7,125.7,121.3,126.1z"/>
<path class="st0" d="M123.9,123.5c-0.4,0.4-1,0.4-1.3,0c-0.4-0.4-0.4-1,0-1.3c0.4-0.4,1-0.4,1.3,0
	C124.3,122.5,124.3,123.1,123.9,123.5z"/>
<path class="st0" d="M126.5,120.9c-0.4,0.4-1,0.4-1.3,0c-0.4-0.4-0.4-1,0-1.3c0.4-0.4,1-0.4,1.3,0
	C126.9,119.9,126.9,120.5,126.5,120.9z"/>
<path class="st0" d="M129.1,118.3c-0.4,0.4-1,0.4-1.3,0c-0.4-0.4-0.4-1,0-1.3c0.4-0.4,1-0.4,1.3,0
	C129.5,117.3,129.5,117.9,129.1,118.3z"/>
<path class="st0" d="M121.3,131.3c-0.4,0.4-1,0.4-1.3,0c-0.4-0.4-0.4-1,0-1.3c0.4-0.4,1-0.4,1.3,0
	C121.7,130.4,121.7,131,121.3,131.3z"/>
<path class="st0" d="M123.9,128.7c-0.4,0.4-1,0.4-1.3,0c-0.4-0.4-0.4-1,0-1.3c0.4-0.4,1-0.4,1.3,0
	C124.3,127.8,124.3,128.3,123.9,128.7z"/>
<path class="st0" d="M126.5,126.1c-0.4,0.4-1,0.4-1.3,0c-0.4-0.4-0.4-1,0-1.3c0.4-0.4,1-0.4,1.3,0
	C126.9,125.1,126.9,125.7,126.5,126.1z"/>
<path class="st0" d="M129.2,123.5c-0.4,0.4-1,0.4-1.3,0c-0.4-0.4-0.4-1,0-1.3c0.4-0.4,1-0.4,1.3,0
	C129.5,122.5,129.5,123.1,129.2,123.5z"/>
<path class="st0" d="M131.8,120.9c-0.4,0.4-1,0.4-1.3,0c-0.4-0.4-0.4-1,0-1.3c0.4-0.4,1-0.4,1.3,0
	C132.1,119.9,132.1,120.5,131.8,120.9z"/>
<path class="st0" d="M123.9,133.9c-0.4,0.4-1,0.4-1.3,0c-0.4-0.4-0.4-1,0-1.3c0.4-0.4,1-0.4,1.3,0
	C124.3,133,124.3,133.6,123.9,133.9z"/>
<path class="st0" d="M126.6,131.3c-0.4,0.4-1,0.4-1.3,0c-0.4-0.4-0.4-1,0-1.3c0.4-0.4,1-0.4,1.3,0S126.9,131,126.6,131.3z"/>
<path class="st0" d="M129.2,128.7c-0.4,0.4-1,0.4-1.3,0c-0.4-0.4-0.4-1,0-1.3c0.4-0.4,1-0.4,1.3,0
	C129.5,127.8,129.5,128.4,129.2,128.7z"/>
<path class="st0" d="M131.8,126.1c-0.4,0.4-1,0.4-1.3,0c-0.4-0.4-0.4-1,0-1.3c0.4-0.4,1-0.4,1.3,0S132.1,125.7,131.8,126.1z"/>
<path class="st0" d="M134.4,123.5c-0.4,0.4-1,0.4-1.3,0c-0.4-0.4-0.4-1,0-1.3c0.4-0.4,1-0.4,1.3,0
	C134.7,122.5,134.7,123.1,134.4,123.5z"/>
<path class="st0" d="M222.8,124.6c-1,1-2.5,1-3.5,0s-1-2.5,0-3.5s2.5-1,3.5,0C223.8,122,223.8,123.6,222.8,124.6z"/>
<path class="st0" d="M211.6,185.9c-1,1-2.5,1-3.5,0s-1-2.5,0-3.5s2.5-1,3.5,0S212.6,184.9,211.6,185.9z"/>
<path class="st0" d="M186.3,211.2c-1,1-2.5,1-3.5,0s-1-2.5,0-3.5s2.5-1,3.5,0C187.3,208.6,187.3,210.2,186.3,211.2z"/>
<path class="st0" d="M186.3,211.2"/>
<rect x="159.1" y="158.7" transform="matrix(0.7071 -0.7071 0.7071 0.7071 -76.198 184.5368)" class="st0" width="51.1" height="51.1"/>
<rect x="151.4" y="151.1" transform="matrix(0.7071 -0.7071 0.7071 0.7071 -76.2651 184.5233)" class="st0" width="66.4" height="66.4"/>
<rect x="174.4" y="174" transform="matrix(0.7071 -0.7071 0.7071 0.7071 -76.175 184.4713)" class="st0" width="20.4" height="20.4"/>
<path class="st0" d="M161.1,185.9c-1,1-2.5,1-3.5,0s-1-2.5,0-3.5s2.5-1,3.5,0S162.1,185,161.1,185.9z"/>
<path class="st0" d="M186.4,160.7c-1,1-2.5,1-3.5,0s-1-2.5,0-3.5s2.5-1,3.5,0C187.3,158.1,187.3,159.7,186.4,160.7z"/>
<path class="st0" d="M174.9,184.8c-0.4,0.4-1,0.4-1.3,0c-0.4-0.4-0.4-1,0-1.3c0.4-0.4,1-0.4,1.3,0S175.2,184.5,174.9,184.8z"/>
<path class="st0" d="M177.5,182.2c-0.4,0.4-1,0.4-1.3,0c-0.4-0.4-0.4-1,0-1.3c0.4-0.4,1-0.4,1.3,0
	C177.8,181.3,177.8,181.9,177.5,182.2z"/>
<path class="st0" d="M180.1,179.6c-0.4,0.4-1,0.4-1.3,0c-0.4-0.4-0.4-1,0-1.3c0.4-0.4,1-0.4,1.3,0S180.4,179.2,180.1,179.6z"/>
<path class="st0" d="M182.7,177c-0.4,0.4-1,0.4-1.3,0c-0.4-0.4-0.4-1,0-1.3c0.4-0.4,1-0.4,1.3,0C183.1,176,183.1,176.6,182.7,177z"
	/>
<path class="st0" d="M185.3,174.4c-0.4,0.4-1,0.4-1.3,0c-0.4-0.4-0.4-1,0-1.3c0.4-0.4,1-0.4,1.3,0
	C185.7,173.4,185.7,174,185.3,174.4z"/>
<path class="st0" d="M177.5,187.4c-0.4,0.4-1,0.4-1.3,0c-0.4-0.4-0.4-1,0-1.3c0.4-0.4,1-0.4,1.3,0
	C177.8,186.5,177.8,187.1,177.5,187.4z"/>
<path class="st0" d="M180.1,184.8c-0.4,0.4-1,0.4-1.3,0c-0.4-0.4-0.4-1,0-1.3c0.4-0.4,1-0.4,1.3,0
	C180.5,183.9,180.5,184.5,180.1,184.8z"/>
<path class="st0" d="M182.7,182.2c-0.4,0.4-1,0.4-1.3,0c-0.4-0.4-0.4-1,0-1.3c0.4-0.4,1-0.4,1.3,0
	C183.1,181.3,183.1,181.9,182.7,182.2z"/>
<path class="st0" d="M185.3,179.6c-0.4,0.4-1,0.4-1.3,0c-0.4-0.4-0.4-1,0-1.3c0.4-0.4,1-0.4,1.3,0
	C185.7,178.7,185.7,179.3,185.3,179.6z"/>
<path class="st0" d="M187.9,177c-0.4,0.4-1,0.4-1.3,0c-0.4-0.4-0.4-1,0-1.3c0.4-0.4,1-0.4,1.3,0C188.3,176.1,188.3,176.6,187.9,177z
	"/>
<path class="st0" d="M180.1,190.1c-0.4,0.4-1,0.4-1.3,0c-0.4-0.4-0.4-1,0-1.3c0.4-0.4,1-0.4,1.3,0
	C180.5,189.1,180.5,189.7,180.1,190.1z"/>
<path class="st0" d="M182.7,187.5c-0.4,0.4-1,0.4-1.3,0c-0.4-0.4-0.4-1,0-1.3c0.4-0.4,1-0.4,1.3,0
	C183.1,186.5,183.1,187.1,182.7,187.5z"/>
<path class="st0" d="M185.3,184.8c-0.4,0.4-1,0.4-1.3,0c-0.4-0.4-0.4-1,0-1.3c0.4-0.4,1-0.4,1.3,0
	C185.7,183.9,185.7,184.5,185.3,184.8z"/>
<path class="st0" d="M187.9,182.2c-0.4,0.4-1,0.4-1.3,0c-0.4-0.4-0.4-1,0-1.3c0.4-0.4,1-0.4,1.3,0
	C188.3,181.3,188.3,181.9,187.9,182.2z"/>
<path class="st0" d="M190.5,179.6c-0.4,0.4-1,0.4-1.3,0c-0.4-0.4-0.4-1,0-1.3c0.4-0.4,1-0.4,1.3,0
	C190.9,178.7,190.9,179.3,190.5,179.6z"/>
<path class="st0" d="M182.7,192.7c-0.4,0.4-1,0.4-1.3,0c-0.4-0.4-0.4-1,0-1.3c0.4-0.4,1-0.4,1.3,0
	C183.1,191.7,183.1,192.3,182.7,192.7z"/>
<path class="st0" d="M185.3,190.1c-0.4,0.4-1,0.4-1.3,0c-0.4-0.4-0.4-1,0-1.3c0.4-0.4,1-0.4,1.3,0
	C185.7,189.1,185.7,189.7,185.3,190.1z"/>
<path class="st0" d="M187.9,187.5c-0.4,0.4-1,0.4-1.3,0c-0.4-0.4-0.4-1,0-1.3c0.4-0.4,1-0.4,1.3,0
	C188.3,186.5,188.3,187.1,187.9,187.5z"/>
<path class="st0" d="M190.5,184.9c-0.4,0.4-1,0.4-1.3,0c-0.4-0.4-0.4-1,0-1.3c0.4-0.4,1-0.4,1.3,0
	C190.9,183.9,190.9,184.5,190.5,184.9z"/>
<path class="st0" d="M193.1,182.2c-0.4,0.4-1,0.4-1.3,0c-0.4-0.4-0.4-1,0-1.3c0.4-0.4,1-0.4,1.3,0
	C193.5,181.3,193.5,181.9,193.1,182.2z"/>
<path class="st0" d="M185.3,195.3c-0.4,0.4-1,0.4-1.3,0c-0.4-0.4-0.4-1,0-1.3c0.4-0.4,1-0.4,1.3,0
	C185.7,194.3,185.7,194.9,185.3,195.3z"/>
<path class="st0" d="M187.9,192.7c-0.4,0.4-1,0.4-1.3,0c-0.4-0.4-0.4-1,0-1.3c0.4-0.4,1-0.4,1.3,0
	C188.3,191.7,188.3,192.3,187.9,192.7z"/>
<path class="st0" d="M190.5,190.1c-0.4,0.4-1,0.4-1.3,0c-0.4-0.4-0.4-1,0-1.3c0.4-0.4,1-0.4,1.3,0
	C190.9,189.1,190.9,189.7,190.5,190.1z"/>
<path class="st0" d="M193.2,187.5c-0.4,0.4-1,0.4-1.3,0c-0.4-0.4-0.4-1,0-1.3c0.4-0.4,1-0.4,1.3,0
	C193.5,186.5,193.5,187.1,193.2,187.5z"/>
<path class="st0" d="M195.8,184.9c-0.4,0.4-1,0.4-1.3,0c-0.4-0.4-0.4-1,0-1.3c0.4-0.4,1-0.4,1.3,0
	C196.1,183.9,196.1,184.5,195.8,184.9z"/>
<path class="st0" d="M211.6,63.1c-1,1-2.5,1-3.5,0s-1-2.5,0-3.5s2.5-1,3.5,0S212.6,62.1,211.6,63.1z"/>
<path class="st0" d="M186.3,88.4c-1,1-2.5,1-3.5,0s-1-2.5,0-3.5s2.5-1,3.5,0S187.3,87.4,186.3,88.4z"/>
<rect x="159" y="35.9" transform="matrix(0.7071 -0.7071 0.7071 0.7071 10.5871 148.4864)" class="st0" width="51.1" height="51.1"/>
<rect x="151.4" y="28.3" transform="matrix(0.7071 -0.7071 0.7071 0.7071 10.5736 148.5535)" class="st0" width="66.4" height="66.4"/>
<rect x="174.4" y="51.2" transform="matrix(0.7071 -0.7071 0.7071 0.7071 10.6636 148.5015)" class="st0" width="20.4" height="20.4"/>
<path class="st0" d="M161.1,63.1c-1,1-2.5,1-3.5,0s-1-2.5,0-3.5s2.5-1,3.5,0S162.1,62.2,161.1,63.1z"/>
<path class="st0" d="M186.4,37.9c-1,1-2.5,1-3.5,0s-1-2.5,0-3.5s2.5-1,3.5,0C187.3,35.3,187.3,36.9,186.4,37.9z"/>
<path class="st0" d="M174.9,62c-0.4,0.4-1,0.4-1.3,0c-0.4-0.4-0.4-1,0-1.3c0.4-0.4,1-0.4,1.3,0C175.2,61.1,175.2,61.7,174.9,62z"/>
<path class="st0" d="M177.5,59.4c-0.4,0.4-1,0.4-1.3,0c-0.4-0.4-0.4-1,0-1.3c0.4-0.4,1-0.4,1.3,0C177.8,58.5,177.8,59.1,177.5,59.4z
	"/>
<path class="st0" d="M180.1,56.8c-0.4,0.4-1,0.4-1.3,0c-0.4-0.4-0.4-1,0-1.3c0.4-0.4,1-0.4,1.3,0C180.4,55.9,180.4,56.5,180.1,56.8z
	"/>
<path class="st0" d="M182.7,54.2c-0.4,0.4-1,0.4-1.3,0c-0.4-0.4-0.4-1,0-1.3c0.4-0.4,1-0.4,1.3,0C183.1,53.3,183.1,53.9,182.7,54.2z
	"/>
<path class="st0" d="M185.3,51.6c-0.4,0.4-1,0.4-1.3,0c-0.4-0.4-0.4-1,0-1.3c0.4-0.4,1-0.4,1.3,0C185.7,50.6,185.7,51.2,185.3,51.6z
	"/>
<path class="st0" d="M177.5,64.7c-0.4,0.4-1,0.4-1.3,0c-0.4-0.4-0.4-1,0-1.3c0.4-0.4,1-0.4,1.3,0C177.8,63.7,177.8,64.3,177.5,64.7z
	"/>
<path class="st0" d="M180.1,62.1c-0.4,0.4-1,0.4-1.3,0c-0.4-0.4-0.4-1,0-1.3c0.4-0.4,1-0.4,1.3,0C180.5,61.1,180.5,61.7,180.1,62.1z
	"/>
<path class="st0" d="M182.7,59.4c-0.4,0.4-1,0.4-1.3,0c-0.4-0.4-0.4-1,0-1.3c0.4-0.4,1-0.4,1.3,0C183.1,58.5,183.1,59.1,182.7,59.4z
	"/>
<path class="st0" d="M185.3,56.8c-0.4,0.4-1,0.4-1.3,0c-0.4-0.4-0.4-1,0-1.3c0.4-0.4,1-0.4,1.3,0C185.7,55.9,185.7,56.5,185.3,56.8z
	"/>
<path class="st0" d="M187.9,54.2c-0.4,0.4-1,0.4-1.3,0c-0.4-0.4-0.4-1,0-1.3c0.4-0.4,1-0.4,1.3,0C188.3,53.3,188.3,53.9,187.9,54.2z
	"/>
<path class="st0" d="M180.1,67.3c-0.4,0.4-1,0.4-1.3,0c-0.4-0.4-0.4-1,0-1.3c0.4-0.4,1-0.4,1.3,0C180.5,66.3,180.5,66.9,180.1,67.3z
	"/>
<path class="st0" d="M182.7,64.7c-0.4,0.4-1,0.4-1.3,0c-0.4-0.4-0.4-1,0-1.3c0.4-0.4,1-0.4,1.3,0C183.1,63.7,183.1,64.3,182.7,64.7z
	"/>
<path class="st0" d="M185.3,62.1c-0.4,0.4-1,0.4-1.3,0c-0.4-0.4-0.4-1,0-1.3c0.4-0.4,1-0.4,1.3,0C185.7,61.1,185.7,61.7,185.3,62.1z
	"/>
<path class="st0" d="M187.9,59.5c-0.4,0.4-1,0.4-1.3,0c-0.4-0.4-0.4-1,0-1.3c0.4-0.4,1-0.4,1.3,0C188.3,58.5,188.3,59.1,187.9,59.5z
	"/>
<path class="st0" d="M190.5,56.8c-0.4,0.4-1,0.4-1.3,0c-0.4-0.4-0.4-1,0-1.3c0.4-0.4,1-0.4,1.3,0C190.9,55.9,190.9,56.5,190.5,56.8z
	"/>
<path class="st0" d="M182.7,69.9c-0.4,0.4-1,0.4-1.3,0c-0.4-0.4-0.4-1,0-1.3c0.4-0.4,1-0.4,1.3,0C183.1,68.9,183.1,69.5,182.7,69.9z
	"/>
<path class="st0" d="M185.3,67.3c-0.4,0.4-1,0.4-1.3,0c-0.4-0.4-0.4-1,0-1.3c0.4-0.4,1-0.4,1.3,0C185.7,66.3,185.7,66.9,185.3,67.3z
	"/>
<path class="st0" d="M187.9,64.7c-0.4,0.4-1,0.4-1.3,0c-0.4-0.4-0.4-1,0-1.3c0.4-0.4,1-0.4,1.3,0C188.3,63.7,188.3,64.3,187.9,64.7z
	"/>
<path class="st0" d="M190.5,62.1c-0.4,0.4-1,0.4-1.3,0c-0.4-0.4-0.4-1,0-1.3c0.4-0.4,1-0.4,1.3,0C190.9,61.1,190.9,61.7,190.5,62.1z
	"/>
<path class="st0" d="M193.1,59.5c-0.4,0.4-1,0.4-1.3,0c-0.4-0.4-0.4-1,0-1.3c0.4-0.4,1-0.4,1.3,0C193.5,58.5,193.5,59.1,193.1,59.5z
	"/>
<path class="st0" d="M185.3,72.5c-0.4,0.4-1,0.4-1.3,0c-0.4-0.4-0.4-1,0-1.3c0.4-0.4,1-0.4,1.3,0C185.7,71.5,185.7,72.1,185.3,72.5z
	"/>
<path class="st0" d="M187.9,69.9c-0.4,0.4-1,0.4-1.3,0c-0.4-0.4-0.4-1,0-1.3c0.4-0.4,1-0.4,1.3,0C188.3,68.9,188.3,69.5,187.9,69.9z
	"/>
<path class="st0" d="M190.5,67.3c-0.4,0.4-1,0.4-1.3,0c-0.4-0.4-0.4-1,0-1.3c0.4-0.4,1-0.4,1.3,0C190.9,66.3,190.9,66.9,190.5,67.3z
	"/>
<path class="st0" d="M193.2,64.7c-0.4,0.4-1,0.4-1.3,0c-0.4-0.4-0.4-1,0-1.3c0.4-0.4,1-0.4,1.3,0C193.5,63.7,193.5,64.3,193.2,64.7z
	"/>
<path class="st0" d="M195.8,62.1c-0.4,0.4-1,0.4-1.3,0c-0.4-0.4-0.4-1,0-1.3c0.4-0.4,1-0.4,1.3,0C196.1,61.1,196.1,61.7,195.8,62.1z
	"/>
<line class="st0" x1="184.6" y1="125.7" x2="184.6" y2="127.2"/>
<line class="st0" x1="184.6" y1="130" x2="184.6" y2="134.3"/>
<line class="st0" x1="184.6" y1="135.7" x2="184.6" y2="137.2"/>
<line class="st0" x1="184.6" y1="108.3" x2="184.6" y2="109.8"/>
<line class="st0" x1="184.6" y1="112.7" x2="184.6" y2="117"/>
<line class="st0" x1="184.6" y1="118.4" x2="184.6" y2="119.9"/>
<line class="st0" x1="170.2" y1="122.8" x2="171.7" y2="122.8"/>
<line class="st0" x1="174.5" y1="122.8" x2="178.8" y2="122.8"/>
<line class="st0" x1="180.2" y1="122.8" x2="181.7" y2="122.8"/>
<line class="st0" x1="187.4" y1="122.8" x2="188.9" y2="122.8"/>
<line class="st0" x1="191.9" y1="122.8" x2="196.5" y2="122.8"/>
<line class="st0" x1="198" y1="122.8" x2="199.5" y2="122.8"/>
<path class="st0" d="M88.5,63.1c-1,1-2.5,1-3.5,0s-1-2.5,0-3.5s2.5-1,3.5,0C89.4,60.6,89.5,62.1,88.5,63.1z"/>
<path class="st0" d="M63.2,88.4c-1,1-2.5,1-3.5,0s-1-2.5,0-3.5s2.5-1,3.5,0C64.2,85.9,64.2,87.4,63.2,88.4z"/>
<rect x="35.8" y="35.9" transform="matrix(0.7071 -0.7071 0.7071 0.7071 -25.4865 61.3626)" class="st0" width="51.1" height="51.1"/>
<rect x="28.3" y="28.2" transform="matrix(0.7071 -0.7071 0.7071 0.7071 -25.3901 61.4813)" class="st0" width="66.4" height="66.4"/>
<rect x="51.3" y="51.3" transform="matrix(0.7071 -0.7071 0.7071 0.7071 -25.4857 61.5121)" class="st0" width="20.4" height="20.4"/>
<path class="st0" d="M38,63.1c-1,1-2.5,1-3.5,0s-1-2.5,0-3.5s2.5-1,3.5,0C38.9,60.6,38.9,62.2,38,63.1z"/>
<path class="st0" d="M63.2,37.9c-1,1-2.5,1-3.5,0s-1-2.5,0-3.5s2.5-1,3.5,0C64.2,35.3,64.2,36.9,63.2,37.9z"/>
<path class="st0" d="M51.7,62c-0.4,0.4-1,0.4-1.3,0c-0.4-0.4-0.4-1,0-1.3c0.4-0.4,1-0.4,1.3,0C52.1,61.1,52.1,61.7,51.7,62z"/>
<path class="st0" d="M54.3,59.4c-0.4,0.4-1,0.4-1.3,0c-0.4-0.4-0.4-1,0-1.3c0.4-0.4,1-0.4,1.3,0C54.7,58.5,54.7,59.1,54.3,59.4z"/>
<path class="st0" d="M56.9,56.8c-0.4,0.4-1,0.4-1.3,0c-0.4-0.4-0.4-1,0-1.3c0.4-0.4,1-0.4,1.3,0C57.3,55.9,57.3,56.5,56.9,56.8z"/>
<path class="st0" d="M59.5,54.2c-0.4,0.4-1,0.4-1.3,0c-0.4-0.4-0.4-1,0-1.3c0.4-0.4,1-0.4,1.3,0C59.9,53.3,59.9,53.9,59.5,54.2z"/>
<path class="st0" d="M62.2,51.6c-0.4,0.4-1,0.4-1.3,0c-0.4-0.4-0.4-1,0-1.3c0.4-0.4,1-0.4,1.3,0C62.5,50.6,62.5,51.2,62.2,51.6z"/>
<path class="st0" d="M54.3,64.7c-0.4,0.4-1,0.4-1.3,0c-0.4-0.4-0.4-1,0-1.3c0.4-0.4,1-0.4,1.3,0C54.7,63.7,54.7,64.3,54.3,64.7z"/>
<path class="st0" d="M56.9,62.1c-0.4,0.4-1,0.4-1.3,0c-0.4-0.4-0.4-1,0-1.3c0.4-0.4,1-0.4,1.3,0C57.3,61.1,57.3,61.7,56.9,62.1z"/>
<path class="st0" d="M59.6,59.4c-0.4,0.4-1,0.4-1.3,0c-0.4-0.4-0.4-1,0-1.3c0.4-0.4,1-0.4,1.3,0S59.9,59.1,59.6,59.4z"/>
<path class="st0" d="M62.2,56.8c-0.4,0.4-1,0.4-1.3,0c-0.4-0.4-0.4-1,0-1.3c0.4-0.4,1-0.4,1.3,0S62.5,56.5,62.2,56.8z"/>
<path class="st0" d="M64.8,54.2c-0.4,0.4-1,0.4-1.3,0c-0.4-0.4-0.4-1,0-1.3c0.4-0.4,1-0.4,1.3,0C65.1,53.3,65.1,53.9,64.8,54.2z"/>
<path class="st0" d="M57,67.3c-0.4,0.4-1,0.4-1.3,0c-0.4-0.4-0.4-1,0-1.3c0.4-0.4,1-0.4,1.3,0C57.3,66.3,57.3,66.9,57,67.3z"/>
<path class="st0" d="M59.6,64.7c-0.4,0.4-1,0.4-1.3,0c-0.4-0.4-0.4-1,0-1.3c0.4-0.4,1-0.4,1.3,0C59.9,63.7,59.9,64.3,59.6,64.7z"/>
<path class="st0" d="M62.2,62.1c-0.4,0.4-1,0.4-1.3,0c-0.4-0.4-0.4-1,0-1.3c0.4-0.4,1-0.4,1.3,0C62.5,61.1,62.5,61.7,62.2,62.1z"/>
<path class="st0" d="M64.8,59.5c-0.4,0.4-1,0.4-1.3,0c-0.4-0.4-0.4-1,0-1.3c0.4-0.4,1-0.4,1.3,0C65.1,58.5,65.1,59.1,64.8,59.5z"/>
<path class="st0" d="M67.4,56.8c-0.4,0.4-1,0.4-1.3,0c-0.4-0.4-0.4-1,0-1.3c0.4-0.4,1-0.4,1.3,0C67.8,55.9,67.8,56.5,67.4,56.8z"/>
<path class="st0" d="M59.6,69.9c-0.4,0.4-1,0.4-1.3,0c-0.4-0.4-0.4-1,0-1.3c0.4-0.4,1-0.4,1.3,0C59.9,68.9,59.9,69.5,59.6,69.9z"/>
<path class="st0" d="M62.2,67.3c-0.4,0.4-1,0.4-1.3,0c-0.4-0.4-0.4-1,0-1.3c0.4-0.4,1-0.4,1.3,0C62.5,66.3,62.5,66.9,62.2,67.3z"/>
<path class="st0" d="M64.8,64.7c-0.4,0.4-1,0.4-1.3,0c-0.4-0.4-0.4-1,0-1.3c0.4-0.4,1-0.4,1.3,0C65.2,63.7,65.2,64.3,64.8,64.7z"/>
<path class="st0" d="M67.4,62.1c-0.4,0.4-1,0.4-1.3,0c-0.4-0.4-0.4-1,0-1.3c0.4-0.4,1-0.4,1.3,0C67.8,61.1,67.8,61.7,67.4,62.1z"/>
<path class="st0" d="M70,59.5c-0.4,0.4-1,0.4-1.3,0c-0.4-0.4-0.4-1,0-1.3c0.4-0.4,1-0.4,1.3,0C70.4,58.5,70.4,59.1,70,59.5z"/>
<path class="st0" d="M62.2,72.5c-0.4,0.4-1,0.4-1.3,0c-0.4-0.4-0.4-1,0-1.3c0.4-0.4,1-0.4,1.3,0C62.6,71.5,62.6,72.1,62.2,72.5z"/>
<path class="st0" d="M64.8,69.9c-0.4,0.4-1,0.4-1.3,0c-0.4-0.4-0.4-1,0-1.3c0.4-0.4,1-0.4,1.3,0C65.2,68.9,65.2,69.5,64.8,69.9z"/>
<path class="st0" d="M67.4,67.3c-0.4,0.4-1,0.4-1.3,0c-0.4-0.4-0.4-1,0-1.3c0.4-0.4,1-0.4,1.3,0C67.8,66.3,67.8,66.9,67.4,67.3z"/>
<path class="st0" d="M70,64.7c-0.4,0.4-1,0.4-1.3,0c-0.4-0.4-0.4-1,0-1.3c0.4-0.4,1-0.4,1.3,0C70.4,63.7,70.4,64.3,70,64.7z"/>
<path class="st0" d="M72.6,62.1c-0.4,0.4-1,0.4-1.3,0c-0.4-0.4-0.4-1,0-1.3c0.4-0.4,1-0.4,1.3,0C73,61.1,73,61.7,72.6,62.1z"/>
<path class="st0" d="M150.2,247.3c-1,1-2.5,1-3.5,0s-1-2.5,0-3.5s2.5-1,3.5,0S151.2,246.4,150.2,247.3z"/>
<path class="st0" d="M125,272.6c-1,1-2.5,1-3.5,0s-1-2.5,0-3.5s2.5-1,3.5,0C125.9,270.1,125.9,271.6,125,272.6z"/>
<rect x="97.7" y="220.1" transform="matrix(0.7071 -0.7071 0.7071 0.7071 -137.6056 159.1152)" class="st0" width="51.1" height="51.1"/>
<rect x="90" y="212.5" transform="matrix(0.7071 -0.7071 0.7071 0.7071 -137.6484 159.0774)" class="st0" width="66.4" height="66.4"/>
<rect x="113" y="235.4" transform="matrix(0.7071 -0.7071 0.7071 0.7071 -137.5826 159.0496)" class="st0" width="20.4" height="20.4"/>
<path class="st0" d="M99.7,247.4c-1,1-2.5,1-3.5,0s-1-2.5,0-3.5s2.5-1,3.5,0C100.7,244.8,100.7,246.4,99.7,247.4z"/>
<path class="st0" d="M125,222.1c-1,1-2.5,1-3.5,0s-1-2.5,0-3.5s2.5-1,3.5,0C126,219.5,126,221.1,125,222.1z"/>
<path class="st0" d="M113.5,246.3c-0.4,0.4-1,0.4-1.3,0c-0.4-0.4-0.4-1,0-1.3c0.4-0.4,1-0.4,1.3,0
	C113.8,245.3,113.8,245.9,113.5,246.3z"/>
<path class="st0" d="M116.1,243.7c-0.4,0.4-1,0.4-1.3,0c-0.4-0.4-0.4-1,0-1.3c0.4-0.4,1-0.4,1.3,0
	C116.4,242.7,116.5,243.3,116.1,243.7z"/>
<path class="st0" d="M118.7,241c-0.4,0.4-1,0.4-1.3,0c-0.4-0.4-0.4-1,0-1.3c0.4-0.4,1-0.4,1.3,0C119.1,240.1,119.1,240.7,118.7,241z
	"/>
<path class="st0" d="M121.3,238.4c-0.4,0.4-1,0.4-1.3,0c-0.4-0.4-0.4-1,0-1.3c0.4-0.4,1-0.4,1.3,0
	C121.7,237.5,121.7,238.1,121.3,238.4z"/>
<path class="st0" d="M123.9,235.8c-0.4,0.4-1,0.4-1.3,0c-0.4-0.4-0.4-1,0-1.3c0.4-0.4,1-0.4,1.3,0
	C124.3,234.9,124.3,235.5,123.9,235.8z"/>
<path class="st0" d="M116.1,248.9c-0.4,0.4-1,0.4-1.3,0c-0.4-0.4-0.4-1,0-1.3c0.4-0.4,1-0.4,1.3,0
	C116.5,247.9,116.5,248.5,116.1,248.9z"/>
<path class="st0" d="M118.7,246.3c-0.4,0.4-1,0.4-1.3,0c-0.4-0.4-0.4-1,0-1.3c0.4-0.4,1-0.4,1.3,0
	C119.1,245.3,119.1,245.9,118.7,246.3z"/>
<path class="st0" d="M121.3,243.7c-0.4,0.4-1,0.4-1.3,0c-0.4-0.4-0.4-1,0-1.3c0.4-0.4,1-0.4,1.3,0
	C121.7,242.7,121.7,243.3,121.3,243.7z"/>
<path class="st0" d="M123.9,241.1c-0.4,0.4-1,0.4-1.3,0c-0.4-0.4-0.4-1,0-1.3c0.4-0.4,1-0.4,1.3,0
	C124.3,240.1,124.3,240.7,123.9,241.1z"/>
<path class="st0" d="M126.5,238.4c-0.4,0.4-1,0.4-1.3,0c-0.4-0.4-0.4-1,0-1.3c0.4-0.4,1-0.4,1.3,0
	C126.9,237.5,126.9,238.1,126.5,238.4z"/>
<path class="st0" d="M118.7,251.5c-0.4,0.4-1,0.4-1.3,0c-0.4-0.4-0.4-1,0-1.3c0.4-0.4,1-0.4,1.3,0
	C119.1,250.5,119.1,251.1,118.7,251.5z"/>
<path class="st0" d="M121.3,248.9c-0.4,0.4-1,0.4-1.3,0c-0.4-0.4-0.4-1,0-1.3c0.4-0.4,1-0.4,1.3,0
	C121.7,247.9,121.7,248.5,121.3,248.9z"/>
<path class="st0" d="M123.9,246.3c-0.4,0.4-1,0.4-1.3,0c-0.4-0.4-0.4-1,0-1.3c0.4-0.4,1-0.4,1.3,0
	C124.3,245.3,124.3,245.9,123.9,246.3z"/>
<path class="st0" d="M126.5,243.7c-0.4,0.4-1,0.4-1.3,0c-0.4-0.4-0.4-1,0-1.3c0.4-0.4,1-0.4,1.3,0
	C126.9,242.7,126.9,243.3,126.5,243.7z"/>
<path class="st0" d="M129.1,241.1c-0.4,0.4-1,0.4-1.3,0c-0.4-0.4-0.4-1,0-1.3c0.4-0.4,1-0.4,1.3,0
	C129.5,240.1,129.5,240.7,129.1,241.1z"/>
<path class="st0" d="M121.3,254.1c-0.4,0.4-1,0.4-1.3,0c-0.4-0.4-0.4-1,0-1.3c0.4-0.4,1-0.4,1.3,0
	C121.7,253.2,121.7,253.7,121.3,254.1z"/>
<path class="st0" d="M123.9,251.5c-0.4,0.4-1,0.4-1.3,0c-0.4-0.4-0.4-1,0-1.3c0.4-0.4,1-0.4,1.3,0
	C124.3,250.5,124.3,251.1,123.9,251.5z"/>
<path class="st0" d="M126.5,248.9c-0.4,0.4-1,0.4-1.3,0c-0.4-0.4-0.4-1,0-1.3c0.4-0.4,1-0.4,1.3,0
	C126.9,247.9,126.9,248.5,126.5,248.9z"/>
<path class="st0" d="M129.2,246.3c-0.4,0.4-1,0.4-1.3,0c-0.4-0.4-0.4-1,0-1.3c0.4-0.4,1-0.4,1.3,0
	C129.5,245.3,129.5,245.9,129.2,246.3z"/>
<path class="st0" d="M131.8,243.7c-0.4,0.4-1,0.4-1.3,0c-0.4-0.4-0.4-1,0-1.3c0.4-0.4,1-0.4,1.3,0
	C132.1,242.7,132.1,243.3,131.8,243.7z"/>
<path class="st0" d="M123.9,256.7c-0.4,0.4-1,0.4-1.3,0c-0.4-0.4-0.4-1,0-1.3c0.4-0.4,1-0.4,1.3,0
	C124.3,255.8,124.3,256.4,123.9,256.7z"/>
<path class="st0" d="M126.6,254.1c-0.4,0.4-1,0.4-1.3,0c-0.4-0.4-0.4-1,0-1.3c0.4-0.4,1-0.4,1.3,0S126.9,253.8,126.6,254.1z"/>
<path class="st0" d="M129.2,251.5c-0.4,0.4-1,0.4-1.3,0c-0.4-0.4-0.4-1,0-1.3c0.4-0.4,1-0.4,1.3,0
	C129.5,250.6,129.5,251.1,129.2,251.5z"/>
<path class="st0" d="M131.8,248.9c-0.4,0.4-1,0.4-1.3,0c-0.4-0.4-0.4-1,0-1.3c0.4-0.4,1-0.4,1.3,0
	C132.1,247.9,132.1,248.5,131.8,248.9z"/>
<path class="st0" d="M134.4,246.3c-0.4,0.4-1,0.4-1.3,0c-0.4-0.4-0.4-1,0-1.3c0.4-0.4,1-0.4,1.3,0
	C134.7,245.3,134.7,245.9,134.4,246.3z"/>
<path class="st0" d="M88.5,185.9c-1,1-2.5,1-3.5,0s-1-2.5,0-3.5s2.5-1,3.5,0C89.4,183.4,89.5,184.9,88.5,185.9z"/>
<path class="st0" d="M63.2,211.2c-1,1-2.5,1-3.5,0s-1-2.5,0-3.5s2.5-1,3.5,0C64.2,208.6,64.2,210.2,63.2,211.2z"/>
<rect x="35.9" y="158.7" transform="matrix(0.7071 -0.7071 0.7071 0.7071 -112.2716 97.4131)" class="st0" width="51.1" height="51.1"/>
<rect x="28.3" y="151" transform="matrix(0.7071 -0.7071 0.7071 0.7071 -112.2287 97.451)" class="st0" width="66.4" height="66.4"/>
<rect x="51.3" y="174" transform="matrix(0.7071 -0.7071 0.7071 0.7071 -112.2194 97.4526)" class="st0" width="20.4" height="20.4"/>
<path class="st0" d="M38,185.9c-1,1-2.5,1-3.5,0s-1-2.5,0-3.5s2.5-1,3.5,0C38.9,183.4,38.9,185,38,185.9z"/>
<path class="st0" d="M63.2,160.7c-1,1-2.5,1-3.5,0s-1-2.5,0-3.5s2.5-1,3.5,0C64.2,158.1,64.2,159.7,63.2,160.7z"/>
<path class="st0" d="M51.7,184.8c-0.4,0.4-1,0.4-1.3,0c-0.4-0.4-0.4-1,0-1.3c0.4-0.4,1-0.4,1.3,0C52.1,183.9,52.1,184.5,51.7,184.8z
	"/>
<path class="st0" d="M54.3,182.2c-0.4,0.4-1,0.4-1.3,0c-0.4-0.4-0.4-1,0-1.3c0.4-0.4,1-0.4,1.3,0C54.7,181.3,54.7,181.9,54.3,182.2z
	"/>
<path class="st0" d="M56.9,179.6c-0.4,0.4-1,0.4-1.3,0c-0.4-0.4-0.4-1,0-1.3c0.4-0.4,1-0.4,1.3,0C57.3,178.7,57.3,179.2,56.9,179.6z
	"/>
<path class="st0" d="M59.5,177c-0.4,0.4-1,0.4-1.3,0c-0.4-0.4-0.4-1,0-1.3c0.4-0.4,1-0.4,1.3,0C59.9,176,59.9,176.6,59.5,177z"/>
<path class="st0" d="M62.2,174.4c-0.4,0.4-1,0.4-1.3,0c-0.4-0.4-0.4-1,0-1.3c0.4-0.4,1-0.4,1.3,0C62.5,173.4,62.5,174,62.2,174.4z"
	/>
<path class="st0" d="M54.3,187.4c-0.4,0.4-1,0.4-1.3,0c-0.4-0.4-0.4-1,0-1.3c0.4-0.4,1-0.4,1.3,0C54.7,186.5,54.7,187.1,54.3,187.4z
	"/>
<path class="st0" d="M56.9,184.8c-0.4,0.4-1,0.4-1.3,0c-0.4-0.4-0.4-1,0-1.3c0.4-0.4,1-0.4,1.3,0C57.3,183.9,57.3,184.5,56.9,184.8z
	"/>
<path class="st0" d="M59.6,182.2c-0.4,0.4-1,0.4-1.3,0c-0.4-0.4-0.4-1,0-1.3c0.4-0.4,1-0.4,1.3,0C59.9,181.3,59.9,181.9,59.6,182.2z
	"/>
<path class="st0" d="M62.2,179.6c-0.4,0.4-1,0.4-1.3,0c-0.4-0.4-0.4-1,0-1.3c0.4-0.4,1-0.4,1.3,0S62.5,179.3,62.2,179.6z"/>
<path class="st0" d="M64.8,177c-0.4,0.4-1,0.4-1.3,0c-0.4-0.4-0.4-1,0-1.3c0.4-0.4,1-0.4,1.3,0C65.1,176.1,65.1,176.6,64.8,177z"/>
<path class="st0" d="M57,190.1c-0.4,0.4-1,0.4-1.3,0c-0.4-0.4-0.4-1,0-1.3c0.4-0.4,1-0.4,1.3,0C57.3,189.1,57.3,189.7,57,190.1z"/>
<path class="st0" d="M59.6,187.5c-0.4,0.4-1,0.4-1.3,0c-0.4-0.4-0.4-1,0-1.3c0.4-0.4,1-0.4,1.3,0C59.9,186.5,59.9,187.1,59.6,187.5z
	"/>
<path class="st0" d="M62.2,184.8c-0.4,0.4-1,0.4-1.3,0c-0.4-0.4-0.4-1,0-1.3c0.4-0.4,1-0.4,1.3,0S62.5,184.5,62.2,184.8z"/>
<path class="st0" d="M64.8,182.2c-0.4,0.4-1,0.4-1.3,0c-0.4-0.4-0.4-1,0-1.3c0.4-0.4,1-0.4,1.3,0C65.1,181.3,65.1,181.9,64.8,182.2z
	"/>
<path class="st0" d="M67.4,179.6c-0.4,0.4-1,0.4-1.3,0c-0.4-0.4-0.4-1,0-1.3c0.4-0.4,1-0.4,1.3,0C67.8,178.7,67.8,179.3,67.4,179.6z
	"/>
<path class="st0" d="M59.6,192.7c-0.4,0.4-1,0.4-1.3,0c-0.4-0.4-0.4-1,0-1.3c0.4-0.4,1-0.4,1.3,0C59.9,191.7,59.9,192.3,59.6,192.7z
	"/>
<path class="st0" d="M62.2,190.1c-0.4,0.4-1,0.4-1.3,0c-0.4-0.4-0.4-1,0-1.3c0.4-0.4,1-0.4,1.3,0C62.5,189.1,62.5,189.7,62.2,190.1z
	"/>
<path class="st0" d="M64.8,187.5c-0.4,0.4-1,0.4-1.3,0c-0.4-0.4-0.4-1,0-1.3c0.4-0.4,1-0.4,1.3,0C65.2,186.5,65.2,187.1,64.8,187.5z
	"/>
<path class="st0" d="M67.4,184.9c-0.4,0.4-1,0.4-1.3,0c-0.4-0.4-0.4-1,0-1.3c0.4-0.4,1-0.4,1.3,0C67.8,183.9,67.8,184.5,67.4,184.9z
	"/>
<path class="st0" d="M70,182.2c-0.4,0.4-1,0.4-1.3,0c-0.4-0.4-0.4-1,0-1.3c0.4-0.4,1-0.4,1.3,0C70.4,181.3,70.4,181.9,70,182.2z"/>
<path class="st0" d="M62.2,195.3c-0.4,0.4-1,0.4-1.3,0c-0.4-0.4-0.4-1,0-1.3c0.4-0.4,1-0.4,1.3,0C62.6,194.3,62.6,194.9,62.2,195.3z
	"/>
<path class="st0" d="M64.8,192.7c-0.4,0.4-1,0.4-1.3,0c-0.4-0.4-0.4-1,0-1.3c0.4-0.4,1-0.4,1.3,0C65.2,191.7,65.2,192.3,64.8,192.7z
	"/>
<path class="st0" d="M67.4,190.1c-0.4,0.4-1,0.4-1.3,0c-0.4-0.4-0.4-1,0-1.3c0.4-0.4,1-0.4,1.3,0C67.8,189.1,67.8,189.7,67.4,190.1z
	"/>
<path class="st0" d="M70,187.5c-0.4,0.4-1,0.4-1.3,0c-0.4-0.4-0.4-1,0-1.3c0.4-0.4,1-0.4,1.3,0C70.4,186.5,70.4,187.1,70,187.5z"/>
<path class="st0" d="M72.6,184.9c-0.4,0.4-1,0.4-1.3,0c-0.4-0.4-0.4-1,0-1.3c0.4-0.4,1-0.4,1.3,0C73,183.9,73,184.5,72.6,184.9z"/>
<line class="st0" x1="61.5" y1="248.4" x2="61.5" y2="249.9"/>
<line class="st0" x1="61.5" y1="252.8" x2="61.5" y2="257.1"/>
<line class="st0" x1="61.5" y1="258.5" x2="61.5" y2="260"/>
<line class="st0" x1="61.5" y1="231.1" x2="61.5" y2="232.6"/>
<line class="st0" x1="61.5" y1="235.5" x2="61.5" y2="239.8"/>
<line class="st0" x1="61.5" y1="241.2" x2="61.5" y2="242.7"/>
<line class="st0" x1="47.1" y1="245.6" x2="48.6" y2="245.6"/>
<line class="st0" x1="51.4" y1="245.6" x2="55.7" y2="245.6"/>
<line class="st0" x1="57.1" y1="245.6" x2="58.6" y2="245.6"/>
<line class="st0" x1="64.3" y1="245.6" x2="65.8" y2="245.6"/>
<line class="st0" x1="68.8" y1="245.6" x2="73.3" y2="245.6"/>
<line class="st0" x1="74.8" y1="245.6" x2="76.3" y2="245.6"/>
<path class="st0" d="M211.6,309c-1,1-2.5,1-3.5,0s-1-2.5,0-3.5s2.5-1,3.5,0C212.6,306.4,212.6,308,211.6,309z"/>
<path class="st0" d="M186.3,334.2c-1,1-2.5,1-3.5,0s-1-2.5,0-3.5s2.5-1,3.5,0S187.3,333.3,186.3,334.2z"/>
<rect x="159.1" y="281.7" transform="matrix(0.7071 -0.7071 0.7071 0.7071 -163.1666 220.5614)" class="st0" width="51.1" height="51.1"/>
<polygon class="st0" points="231.6,307.2 184.6,260.3 137.7,307.2 184.6,354.2 "/>
<rect x="174.4" y="297.1" transform="matrix(0.7071 -0.7071 0.7071 0.7071 -163.2487 220.5251)" class="st0" width="20.4" height="20.4"/>
<path class="st0" d="M161.1,309c-1,1-2.5,1-3.5,0s-1-2.5,0-3.5s2.5-1,3.5,0S162.1,308,161.1,309z"/>
<path class="st0" d="M186.4,283.7c-1,1-2.5,1-3.5,0s-1-2.5,0-3.5s2.5-1,3.5,0C187.3,281.2,187.3,282.7,186.4,283.7z"/>
<path class="st0" d="M174.9,307.9c-0.4,0.4-1,0.4-1.3,0c-0.4-0.4-0.4-1,0-1.3c0.4-0.4,1-0.4,1.3,0
	C175.2,306.9,175.2,307.5,174.9,307.9z"/>
<path class="st0" d="M177.5,305.3c-0.4,0.4-1,0.4-1.3,0c-0.4-0.4-0.4-1,0-1.3c0.4-0.4,1-0.4,1.3,0
	C177.8,304.3,177.8,304.9,177.5,305.3z"/>
<path class="st0" d="M180.1,302.7c-0.4,0.4-1,0.4-1.3,0c-0.4-0.4-0.4-1,0-1.3c0.4-0.4,1-0.4,1.3,0
	C180.4,301.7,180.4,302.3,180.1,302.7z"/>
<path class="st0" d="M182.7,300.1c-0.4,0.4-1,0.4-1.3,0c-0.4-0.4-0.4-1,0-1.3c0.4-0.4,1-0.4,1.3,0
	C183.1,299.1,183.1,299.7,182.7,300.1z"/>
<path class="st0" d="M185.3,297.5c-0.4,0.4-1,0.4-1.3,0c-0.4-0.4-0.4-1,0-1.3c0.4-0.4,1-0.4,1.3,0
	C185.7,296.5,185.7,297.1,185.3,297.5z"/>
<path class="st0" d="M177.5,310.5c-0.4,0.4-1,0.4-1.3,0c-0.4-0.4-0.4-1,0-1.3c0.4-0.4,1-0.4,1.3,0
	C177.8,309.5,177.8,310.1,177.5,310.5z"/>
<path class="st0" d="M180.1,307.9c-0.4,0.4-1,0.4-1.3,0c-0.4-0.4-0.4-1,0-1.3c0.4-0.4,1-0.4,1.3,0
	C180.5,306.9,180.5,307.5,180.1,307.9z"/>
<path class="st0" d="M182.7,305.3c-0.4,0.4-1,0.4-1.3,0c-0.4-0.4-0.4-1,0-1.3c0.4-0.4,1-0.4,1.3,0
	C183.1,304.3,183.1,304.9,182.7,305.3z"/>
<path class="st0" d="M185.3,302.7c-0.4,0.4-1,0.4-1.3,0c-0.4-0.4-0.4-1,0-1.3c0.4-0.4,1-0.4,1.3,0
	C185.7,301.7,185.7,302.3,185.3,302.7z"/>
<path class="st0" d="M187.9,300.1c-0.4,0.4-1,0.4-1.3,0c-0.4-0.4-0.4-1,0-1.3c0.4-0.4,1-0.4,1.3,0
	C188.3,299.1,188.3,299.7,187.9,300.1z"/>
<path class="st0" d="M180.1,313.1c-0.4,0.4-1,0.4-1.3,0c-0.4-0.4-0.4-1,0-1.3c0.4-0.4,1-0.4,1.3,0
	C180.5,312.2,180.5,312.8,180.1,313.1z"/>
<path class="st0" d="M182.7,310.5c-0.4,0.4-1,0.4-1.3,0c-0.4-0.4-0.4-1,0-1.3c0.4-0.4,1-0.4,1.3,0
	C183.1,309.6,183.1,310.2,182.7,310.5z"/>
<path class="st0" d="M185.3,307.9c-0.4,0.4-1,0.4-1.3,0c-0.4-0.4-0.4-1,0-1.3c0.4-0.4,1-0.4,1.3,0
	C185.7,306.9,185.7,307.5,185.3,307.9z"/>
<path class="st0" d="M187.9,305.3c-0.4,0.4-1,0.4-1.3,0c-0.4-0.4-0.4-1,0-1.3c0.4-0.4,1-0.4,1.3,0
	C188.3,304.3,188.3,304.9,187.9,305.3z"/>
<path class="st0" d="M190.5,302.7c-0.4,0.4-1,0.4-1.3,0c-0.4-0.4-0.4-1,0-1.3c0.4-0.4,1-0.4,1.3,0
	C190.9,301.7,190.9,302.3,190.5,302.7z"/>
<path class="st0" d="M182.7,315.7c-0.4,0.4-1,0.4-1.3,0c-0.4-0.4-0.4-1,0-1.3c0.4-0.4,1-0.4,1.3,0
	C183.1,314.8,183.1,315.4,182.7,315.7z"/>
<path class="st0" d="M185.3,313.1c-0.4,0.4-1,0.4-1.3,0c-0.4-0.4-0.4-1,0-1.3c0.4-0.4,1-0.4,1.3,0
	C185.7,312.2,185.7,312.8,185.3,313.1z"/>
<path class="st0" d="M187.9,310.5c-0.4,0.4-1,0.4-1.3,0c-0.4-0.4-0.4-1,0-1.3c0.4-0.4,1-0.4,1.3,0
	C188.3,309.6,188.3,310.2,187.9,310.5z"/>
<path class="st0" d="M190.5,307.9c-0.4,0.4-1,0.4-1.3,0c-0.4-0.4-0.4-1,0-1.3c0.4-0.4,1-0.4,1.3,0
	C190.9,307,190.9,307.6,190.5,307.9z"/>
<path class="st0" d="M193.1,305.3c-0.4,0.4-1,0.4-1.3,0c-0.4-0.4-0.4-1,0-1.3c0.4-0.4,1-0.4,1.3,0
	C193.5,304.3,193.5,304.9,193.1,305.3z"/>
<path class="st0" d="M185.3,318.4c-0.4,0.4-1,0.4-1.3,0c-0.4-0.4-0.4-1,0-1.3c0.4-0.4,1-0.4,1.3,0
	C185.7,317.4,185.7,318,185.3,318.4z"/>
<path class="st0" d="M187.9,315.8c-0.4,0.4-1,0.4-1.3,0c-0.4-0.4-0.4-1,0-1.3c0.4-0.4,1-0.4,1.3,0
	C188.3,314.8,188.3,315.4,187.9,315.8z"/>
<path class="st0" d="M190.5,313.1c-0.4,0.4-1,0.4-1.3,0c-0.4-0.4-0.4-1,0-1.3c0.4-0.4,1-0.4,1.3,0
	C190.9,312.2,190.9,312.8,190.5,313.1z"/>
<path class="st0" d="M193.2,310.5c-0.4,0.4-1,0.4-1.3,0c-0.4-0.4-0.4-1,0-1.3c0.4-0.4,1-0.4,1.3,0S193.5,310.2,193.2,310.5z"/>
<path class="st0" d="M195.8,307.9c-0.4,0.4-1,0.4-1.3,0c-0.4-0.4-0.4-1,0-1.3c0.4-0.4,1-0.4,1.3,0S196.1,307.6,195.8,307.9z"/>
<path class="st0" d="M88.5,309c-1,1-2.5,1-3.5,0s-1-2.5,0-3.5s2.5-1,3.5,0C89.4,306.4,89.5,308,88.5,309z"/>
<path class="st0" d="M63.2,334.2c-1,1-2.5,1-3.5,0s-1-2.5,0-3.5s2.5-1,3.5,0C64.2,331.7,64.2,333.3,63.2,334.2z"/>
<rect x="35.9" y="281.8" transform="matrix(0.7071 -0.7071 0.7071 0.7071 -199.3453 133.4669)" class="st0" width="51.1" height="51.1"/>
<polygon class="st0" points="108.5,307.2 61.5,260.3 14.6,307.2 61.5,354.2 "/>
<rect x="51.2" y="297.1" transform="matrix(0.7071 -0.7071 0.7071 0.7071 -199.3224 133.4014)" class="st0" width="20.4" height="20.4"/>
<path class="st0" d="M38,309c-1,1-2.5,1-3.5,0s-1-2.5,0-3.5s2.5-1,3.5,0C38.9,306.5,38.9,308,38,309z"/>
<path class="st0" d="M63.2,283.7c-1,1-2.5,1-3.5,0s-1-2.5,0-3.5s2.5-1,3.5,0C64.2,281.2,64.2,282.7,63.2,283.7z"/>
<path class="st0" d="M51.7,307.9c-0.4,0.4-1,0.4-1.3,0c-0.4-0.4-0.4-1,0-1.3c0.4-0.4,1-0.4,1.3,0C52.1,306.9,52.1,307.5,51.7,307.9z
	"/>
<path class="st0" d="M54.3,305.3c-0.4,0.4-1,0.4-1.3,0c-0.4-0.4-0.4-1,0-1.3c0.4-0.4,1-0.4,1.3,0C54.7,304.3,54.7,304.9,54.3,305.3z
	"/>
<path class="st0" d="M56.9,302.7c-0.4,0.4-1,0.4-1.3,0c-0.4-0.4-0.4-1,0-1.3c0.4-0.4,1-0.4,1.3,0C57.3,301.7,57.3,302.3,56.9,302.7z
	"/>
<path class="st0" d="M59.5,300.1c-0.4,0.4-1,0.4-1.3,0c-0.4-0.4-0.4-1,0-1.3c0.4-0.4,1-0.4,1.3,0C59.9,299.1,59.9,299.7,59.5,300.1z
	"/>
<path class="st0" d="M62.2,297.5c-0.4,0.4-1,0.4-1.3,0c-0.4-0.4-0.4-1,0-1.3c0.4-0.4,1-0.4,1.3,0C62.5,296.5,62.5,297.1,62.2,297.5z
	"/>
<path class="st0" d="M54.3,310.5c-0.4,0.4-1,0.4-1.3,0c-0.4-0.4-0.4-1,0-1.3c0.4-0.4,1-0.4,1.3,0C54.7,309.5,54.7,310.1,54.3,310.5z
	"/>
<path class="st0" d="M56.9,307.9c-0.4,0.4-1,0.4-1.3,0c-0.4-0.4-0.4-1,0-1.3c0.4-0.4,1-0.4,1.3,0C57.3,306.9,57.3,307.5,56.9,307.9z
	"/>
<path class="st0" d="M59.6,305.3c-0.4,0.4-1,0.4-1.3,0c-0.4-0.4-0.4-1,0-1.3c0.4-0.4,1-0.4,1.3,0C59.9,304.3,59.9,304.9,59.6,305.3z
	"/>
<path class="st0" d="M62.2,302.7c-0.4,0.4-1,0.4-1.3,0c-0.4-0.4-0.4-1,0-1.3c0.4-0.4,1-0.4,1.3,0C62.5,301.7,62.5,302.3,62.2,302.7z
	"/>
<path class="st0" d="M64.8,300.1c-0.4,0.4-1,0.4-1.3,0c-0.4-0.4-0.4-1,0-1.3c0.4-0.4,1-0.4,1.3,0C65.1,299.1,65.1,299.7,64.8,300.1z
	"/>
<path class="st0" d="M57,313.1c-0.4,0.4-1,0.4-1.3,0c-0.4-0.4-0.4-1,0-1.3c0.4-0.4,1-0.4,1.3,0S57.3,312.8,57,313.1z"/>
<path class="st0" d="M59.6,310.5c-0.4,0.4-1,0.4-1.3,0c-0.4-0.4-0.4-1,0-1.3c0.4-0.4,1-0.4,1.3,0C59.9,309.6,59.9,310.2,59.6,310.5z
	"/>
<path class="st0" d="M62.2,307.9c-0.4,0.4-1,0.4-1.3,0c-0.4-0.4-0.4-1,0-1.3c0.4-0.4,1-0.4,1.3,0C62.5,306.9,62.5,307.5,62.2,307.9z
	"/>
<path class="st0" d="M64.8,305.3c-0.4,0.4-1,0.4-1.3,0c-0.4-0.4-0.4-1,0-1.3c0.4-0.4,1-0.4,1.3,0C65.1,304.3,65.1,304.9,64.8,305.3z
	"/>
<path class="st0" d="M67.4,302.7c-0.4,0.4-1,0.4-1.3,0c-0.4-0.4-0.4-1,0-1.3c0.4-0.4,1-0.4,1.3,0C67.8,301.7,67.8,302.3,67.4,302.7z
	"/>
<path class="st0" d="M59.6,315.7c-0.4,0.4-1,0.4-1.3,0c-0.4-0.4-0.4-1,0-1.3c0.4-0.4,1-0.4,1.3,0C59.9,314.8,59.9,315.4,59.6,315.7z
	"/>
<path class="st0" d="M62.2,313.1c-0.4,0.4-1,0.4-1.3,0c-0.4-0.4-0.4-1,0-1.3c0.4-0.4,1-0.4,1.3,0S62.5,312.8,62.2,313.1z"/>
<path class="st0" d="M64.8,310.5c-0.4,0.4-1,0.4-1.3,0c-0.4-0.4-0.4-1,0-1.3c0.4-0.4,1-0.4,1.3,0C65.2,309.6,65.2,310.2,64.8,310.5z
	"/>
<path class="st0" d="M67.4,307.9c-0.4,0.4-1,0.4-1.3,0c-0.4-0.4-0.4-1,0-1.3c0.4-0.4,1-0.4,1.3,0C67.8,307,67.8,307.6,67.4,307.9z"
	/>
<path class="st0" d="M70,305.3c-0.4,0.4-1,0.4-1.3,0c-0.4-0.4-0.4-1,0-1.3c0.4-0.4,1-0.4,1.3,0C70.4,304.3,70.4,304.9,70,305.3z"/>
<path class="st0" d="M62.2,318.4c-0.4,0.4-1,0.4-1.3,0c-0.4-0.4-0.4-1,0-1.3c0.4-0.4,1-0.4,1.3,0C62.6,317.4,62.6,318,62.2,318.4z"
	/>
<path class="st0" d="M64.8,315.8c-0.4,0.4-1,0.4-1.3,0c-0.4-0.4-0.4-1,0-1.3c0.4-0.4,1-0.4,1.3,0C65.2,314.8,65.2,315.4,64.8,315.8z
	"/>
<path class="st0" d="M67.4,313.1c-0.4,0.4-1,0.4-1.3,0c-0.4-0.4-0.4-1,0-1.3c0.4-0.4,1-0.4,1.3,0C67.8,312.2,67.8,312.8,67.4,313.1z
	"/>
<path class="st0" d="M70,310.5c-0.4,0.4-1,0.4-1.3,0c-0.4-0.4-0.4-1,0-1.3c0.4-0.4,1-0.4,1.3,0C70.4,309.6,70.4,310.2,70,310.5z"/>
<path class="st0" d="M72.6,307.9c-0.4,0.4-1,0.4-1.3,0c-0.4-0.4-0.4-1,0-1.3c0.4-0.4,1-0.4,1.3,0C73,307,73,307.6,72.6,307.9z"/>
<line class="st0" x1="61.5" y1="258.8" x2="61.5" y2="260.3"/>
<path class="st1" d="M1080.5,614c0-0.7,0.2-1.3,0.7-1.9c1-1,2.5-1,3.5,0c0.5,0.5,0.8,1.2,0.7,1.9"/>
<path class="st1" d="M1131,614c0-0.6,0.2-1.3,0.7-1.8c1-1,2.5-1,3.5,0c0.5,0.5,0.8,1.1,0.8,1.8"/>
<path class="st1" d="M1117.7,614c0-0.3,0.1-0.5,0.3-0.7c0.4-0.4,1-0.4,1.3,0c0.2,0.2,0.3,0.5,0.3,0.7"/>
<path class="st1" d="M1112.4,614c0-0.3,0.1-0.5,0.3-0.7c0.4-0.4,1-0.4,1.3,0c0.2,0.2,0.3,0.4,0.3,0.7"/>
<path class="st1" d="M1107.2,614c0-0.3,0.1-0.5,0.3-0.7c0.4-0.4,1-0.4,1.3,0c0.2,0.2,0.3,0.4,0.3,0.7"/>
<path class="st1" d="M1102,614c0-0.3,0.1-0.5,0.3-0.7c0.4-0.4,1-0.4,1.3,0c0.2,0.2,0.3,0.4,0.3,0.7"/>
<path class="st1" d="M1096.8,614c0-0.3,0.1-0.5,0.3-0.7c0.4-0.4,1-0.4,1.3,0c0.2,0.2,0.3,0.4,0.3,0.7"/>
<path class="st1" d="M957.4,614c0-0.7,0.2-1.3,0.7-1.9c1-1,2.5-1,3.5,0c0.5,0.5,0.8,1.2,0.7,1.9"/>
<path class="st1" d="M1007.9,614c0-0.6,0.2-1.3,0.7-1.8c1-1,2.5-1,3.5,0c0.5,0.5,0.8,1.1,0.8,1.8"/>
<path class="st1" d="M994.6,614c0-0.3,0.1-0.5,0.3-0.7c0.4-0.4,1-0.4,1.3,0c0.2,0.2,0.3,0.5,0.3,0.7"/>
<path class="st1" d="M989.3,614c0-0.3,0.1-0.5,0.3-0.7c0.4-0.4,1-0.4,1.3,0c0.2,0.2,0.3,0.4,0.3,0.7"/>
<path class="st1" d="M984.1,614c0-0.3,0.1-0.5,0.3-0.7c0.4-0.4,1-0.4,1.3,0c0.2,0.2,0.3,0.4,0.3,0.7"/>
<path class="st1" d="M978.9,614c0-0.3,0.1-0.5,0.3-0.7c0.4-0.4,1-0.4,1.3,0c0.2,0.2,0.3,0.4,0.3,0.7"/>
<path class="st1" d="M973.7,614c0-0.3,0.1-0.5,0.3-0.7c0.4-0.4,1-0.4,1.3,0c0.2,0.2,0.3,0.4,0.3,0.7"/>
<path class="st1" d="M834.3,614c0-0.7,0.2-1.3,0.7-1.9c1-1,2.5-1,3.5,0c0.5,0.5,0.8,1.2,0.7,1.9"/>
<path class="st1" d="M884.8,614c0-0.6,0.2-1.3,0.7-1.8c1-1,2.5-1,3.5,0c0.5,0.5,0.8,1.1,0.8,1.8"/>
<path class="st1" d="M871.6,614c0-0.3,0.1-0.5,0.3-0.7c0.4-0.4,1-0.4,1.3,0c0.2,0.2,0.3,0.5,0.3,0.7"/>
<path class="st1" d="M866.3,614c0-0.3,0.1-0.5,0.3-0.7c0.4-0.4,1-0.4,1.3,0c0.2,0.2,0.3,0.4,0.3,0.7"/>
<path class="st1" d="M861.1,614c0-0.3,0.1-0.5,0.3-0.7c0.4-0.4,1-0.4,1.3,0c0.2,0.2,0.3,0.4,0.3,0.7"/>
<path class="st1" d="M855.9,614c0-0.3,0.1-0.5,0.3-0.7c0.4-0.4,1-0.4,1.3,0c0.2,0.2,0.3,0.4,0.3,0.7"/>
<path class="st1" d="M850.7,614c0-0.3,0.1-0.5,0.3-0.7c0.4-0.4,1-0.4,1.3,0c0.2,0.2,0.3,0.4,0.3,0.7"/>
<path class="st1" d="M711.2,614c0-0.7,0.2-1.3,0.7-1.9c1-1,2.5-1,3.5,0c0.5,0.5,0.8,1.2,0.7,1.9"/>
<path class="st1" d="M761.7,614c0-0.6,0.2-1.3,0.7-1.8c1-1,2.5-1,3.5,0c0.5,0.5,0.8,1.1,0.8,1.8"/>
<path class="st1" d="M748.4,614c0-0.3,0.1-0.5,0.3-0.7c0.4-0.4,1-0.4,1.3,0c0.2,0.2,0.3,0.5,0.3,0.7"/>
<path class="st1" d="M743.1,614c0-0.3,0.1-0.5,0.3-0.7c0.4-0.4,1-0.4,1.3,0c0.2,0.2,0.3,0.4,0.3,0.7"/>
<path class="st1" d="M737.9,614c0-0.3,0.1-0.5,0.3-0.7c0.4-0.4,1-0.4,1.3,0c0.2,0.2,0.3,0.4,0.3,0.7"/>
<path class="st1" d="M732.7,614c0-0.3,0.1-0.5,0.3-0.7c0.4-0.4,1-0.4,1.3,0c0.2,0.2,0.3,0.4,0.3,0.7"/>
<path class="st1" d="M727.5,614c0-0.3,0.1-0.5,0.3-0.7c0.4-0.4,1-0.4,1.3,0c0.2,0.2,0.3,0.4,0.3,0.7"/>
<path class="st1" d="M588.1,614c0-0.7,0.2-1.3,0.7-1.9c1-1,2.5-1,3.5,0c0.5,0.5,0.8,1.2,0.7,1.9"/>
<path class="st1" d="M638.6,614c0-0.6,0.2-1.3,0.7-1.8c1-1,2.5-1,3.5,0c0.5,0.5,0.8,1.1,0.8,1.8"/>
<path class="st1" d="M625.3,614c0-0.3,0.1-0.5,0.3-0.7c0.4-0.4,1-0.4,1.3,0c0.2,0.2,0.3,0.5,0.3,0.7"/>
<path class="st1" d="M620,614c0-0.3,0.1-0.5,0.3-0.7c0.4-0.4,1-0.4,1.3,0c0.2,0.2,0.3,0.4,0.3,0.7"/>
<path class="st1" d="M614.8,614c0-0.3,0.1-0.5,0.3-0.7c0.4-0.4,1-0.4,1.3,0c0.2,0.2,0.3,0.4,0.3,0.7"/>
<path class="st1" d="M609.6,614c0-0.3,0.1-0.5,0.3-0.7c0.4-0.4,1-0.4,1.3,0c0.2,0.2,0.3,0.4,0.3,0.7"/>
<path class="st1" d="M604.4,614c0-0.3,0.1-0.5,0.3-0.7c0.4-0.4,1-0.4,1.3,0c0.2,0.2,0.3,0.4,0.3,0.7"/>
<path class="st1" d="M464.9,614c0-0.7,0.2-1.3,0.7-1.9c1-1,2.5-1,3.5,0c0.5,0.5,0.8,1.2,0.7,1.9"/>
<path class="st1" d="M515.4,614c0-0.6,0.2-1.3,0.7-1.8c1-1,2.5-1,3.5,0c0.5,0.5,0.8,1.1,0.8,1.8"/>
<path class="st1" d="M502.2,614c0-0.3,0.1-0.5,0.3-0.7c0.4-0.4,1-0.4,1.3,0c0.2,0.2,0.3,0.5,0.3,0.7"/>
<path class="st1" d="M496.9,614c0-0.3,0.1-0.5,0.3-0.7c0.4-0.4,1-0.4,1.3,0c0.2,0.2,0.3,0.4,0.3,0.7"/>
<path class="st1" d="M491.7,614c0-0.3,0.1-0.5,0.3-0.7c0.4-0.4,1-0.4,1.3,0c0.2,0.2,0.3,0.4,0.3,0.7"/>
<path class="st1" d="M486.5,614c0-0.3,0.1-0.5,0.3-0.7c0.4-0.4,1-0.4,1.3,0c0.2,0.2,0.3,0.4,0.3,0.7"/>
<path class="st1" d="M481.3,614c0-0.3,0.1-0.5,0.3-0.7c0.4-0.4,1-0.4,1.3,0c0.2,0.2,0.3,0.4,0.3,0.7"/>
<path class="st1" d="M392.3,614c0-0.6,0.2-1.3,0.7-1.8c1-1,2.5-1,3.5,0c0.5,0.5,0.8,1.1,0.8,1.8"/>
<path class="st1" d="M379,614c0-0.3,0.1-0.5,0.3-0.7c0.4-0.4,1-0.4,1.3,0c0.2,0.2,0.3,0.5,0.3,0.7"/>
<path class="st1" d="M373.8,614c0-0.3,0.1-0.5,0.3-0.7c0.4-0.4,1-0.4,1.3,0c0.2,0.2,0.3,0.4,0.3,0.7"/>
<path class="st0" d="M218.6,368.7c0-0.7,0.2-1.3,0.7-1.9c1-1,2.5-1,3.5,0c0.5,0.5,0.8,1.2,0.7,1.9"/>
<path class="st0" d="M95.5,368.7c0-0.7,0.2-1.3,0.7-1.9c1-1,2.5-1,3.5,0c0.5,0.5,0.8,1.2,0.7,1.9"/>
<polyline class="st0" points="87.1,368.6 123.2,332.5 159.3,368.6 "/>
<polyline class="st0" points="76.2,368.7 123.2,321.7 170.1,368.7 "/>
<polyline class="st0" points="108.8,368.6 123.2,354.2 137.7,368.6 "/>
<path class="st0" d="M121.4,345.1c-1-1-1-2.5,0-3.5s2.5-1,3.5,0s1,2.5,0,3.5C124,346,122.4,346,121.4,345.1z"/>
<path class="st0" d="M146,368.7c0-0.6,0.2-1.3,0.7-1.8c1-1,2.5-1,3.5,0c0.5,0.5,0.7,1.1,0.8,1.8"/>
<path class="st0" d="M122.5,358.8c-0.4-0.4-0.4-1,0-1.3c0.4-0.4,1-0.4,1.3,0c0.4,0.4,0.4,1,0,1.3
	C123.5,359.2,122.9,359.2,122.5,358.8z"/>
<path class="st0" d="M125.1,361.5c-0.4-0.4-0.4-1,0-1.3c0.4-0.4,1-0.4,1.3,0c0.4,0.4,0.4,1,0,1.3
	C126.1,361.8,125.5,361.8,125.1,361.5z"/>
<path class="st0" d="M127.7,364.1c-0.4-0.4-0.4-1,0-1.3c0.4-0.4,1-0.4,1.3,0c0.4,0.4,0.4,1,0,1.3
	C128.7,364.4,128.1,364.4,127.7,364.1z"/>
<path class="st0" d="M130.4,366.7c-0.4-0.4-0.4-1,0-1.3c0.4-0.4,1-0.4,1.3,0c0.4,0.4,0.4,1,0,1.3S130.7,367,130.4,366.7z"/>
<path class="st0" d="M132.7,368.7c0-0.3,0.1-0.5,0.3-0.7c0.4-0.4,1-0.4,1.3,0c0.2,0.2,0.3,0.5,0.3,0.7"/>
<path class="st0" d="M119.9,361.5c-0.4-0.4-0.4-1,0-1.3c0.4-0.4,1-0.4,1.3,0c0.4,0.4,0.4,1,0,1.3
	C120.9,361.8,120.3,361.8,119.9,361.5z"/>
<path class="st0" d="M122.5,364.1c-0.4-0.4-0.4-1,0-1.3c0.4-0.4,1-0.4,1.3,0c0.4,0.4,0.4,1,0,1.3
	C123.5,364.4,122.9,364.4,122.5,364.1z"/>
<path class="st0" d="M125.1,366.7c-0.4-0.4-0.4-1,0-1.3c0.4-0.4,1-0.4,1.3,0c0.4,0.4,0.4,1,0,1.3C126.1,367,125.5,367,125.1,366.7z"
	/>
<path class="st0" d="M127.4,368.7c0-0.3,0.1-0.5,0.3-0.7c0.4-0.4,1-0.4,1.3,0c0.2,0.2,0.3,0.4,0.3,0.7"/>
<path class="st0" d="M117.3,364.1c-0.4-0.4-0.4-1,0-1.3c0.4-0.4,1-0.4,1.3,0c0.4,0.4,0.4,1,0,1.3
	C118.3,364.4,117.7,364.4,117.3,364.1z"/>
<path class="st0" d="M119.9,366.7c-0.4-0.4-0.4-1,0-1.3c0.4-0.4,1-0.4,1.3,0c0.4,0.4,0.4,1,0,1.3
	C120.9,367.1,120.3,367.1,119.9,366.7z"/>
<path class="st0" d="M122.2,368.7c0-0.3,0.1-0.5,0.3-0.7c0.4-0.4,1-0.4,1.3,0c0.2,0.2,0.3,0.4,0.3,0.7"/>
<path class="st0" d="M114.7,366.7c-0.4-0.4-0.4-1,0-1.3c0.4-0.4,1-0.4,1.3,0c0.4,0.4,0.4,1,0,1.3C115.6,367.1,115,367.1,114.7,366.7
	z"/>
<path class="st0" d="M117,368.7c0-0.3,0.1-0.5,0.3-0.7c0.4-0.4,1-0.4,1.3,0c0.2,0.2,0.3,0.4,0.3,0.7"/>
<path class="st0" d="M111.8,368.7c0-0.3,0.1-0.5,0.3-0.7c0.4-0.4,1-0.4,1.3,0c0.2,0.2,0.3,0.4,0.3,0.7"/>
<path class="st0" d="M223.6,0.1c0,0.6-0.3,1.2-0.7,1.6c-1,1-2.6,1-3.5,0c-0.5-0.5-0.7-1-0.7-1.6"/>
<path class="st0" d="M121.5,27c-1-1-1-2.5,0-3.5s2.5-1,3.5,0s1,2.5,0,3.5S122.4,28,121.5,27z"/>
<path class="st0" d="M100.4,0.1c0,0.6-0.3,1.2-0.7,1.6c-1,1-2.6,1-3.5,0c-0.5-0.5-0.7-1-0.7-1.6"/>
<polyline class="st0" points="159.3,0 123.2,36.2 87.1,0 "/>
<polyline class="st0" points="170.1,0.1 123.2,47 76.2,0.1 "/>
<polyline class="st0" points="137.7,0 123.2,14.4 108.8,0 "/>
<path class="st0" d="M151,0.1c0,0.6-0.2,1.3-0.8,1.8c-1,0.9-2.5,0.9-3.5,0c-0.5-0.5-0.7-1.1-0.7-1.7"/>
<path class="st0" d="M134.6,0.1c0,0.2-0.1,0.5-0.3,0.6c-0.4,0.3-1,0.3-1.3,0c-0.2-0.2-0.3-0.4-0.3-0.6"/>
<path class="st0" d="M129.3,0.1c0,0.3-0.1,0.5-0.3,0.6c-0.3,0.4-0.9,0.4-1.3,0c-0.2-0.2-0.3-0.4-0.3-0.6"/>
<path class="st0" d="M130.3,3.3c-0.4-0.4-0.4-1,0-1.3c0.4-0.4,1-0.4,1.3,0c0.4,0.4,0.4,1,0,1.3C131.3,3.7,130.7,3.7,130.3,3.3z"/>
<path class="st0" d="M124.1,0.1c0,0.2-0.1,0.5-0.3,0.6c-0.3,0.4-0.9,0.4-1.3,0c-0.2-0.2-0.3-0.4-0.3-0.6"/>
<path class="st0" d="M125.1,3.3c-0.4-0.4-0.4-1,0-1.3c0.4-0.4,1-0.4,1.3,0c0.4,0.4,0.4,1,0,1.3C126.1,3.7,125.5,3.7,125.1,3.3z"/>
<path class="st0" d="M127.7,5.9c-0.4-0.4-0.4-1,0-1.3c0.4-0.4,1-0.4,1.3,0c0.4,0.4,0.4,1,0,1.3C128.7,6.3,128.1,6.3,127.7,5.9z"/>
<path class="st0" d="M118.9,0.1c0,0.3-0.1,0.5-0.3,0.6c-0.4,0.4-0.9,0.4-1.3,0c-0.2-0.2-0.3-0.4-0.3-0.6"/>
<path class="st0" d="M119.9,3.3c-0.4-0.4-0.4-1,0-1.3c0.4-0.4,1-0.4,1.3,0c0.4,0.4,0.4,1,0,1.3C120.9,3.7,120.3,3.7,119.9,3.3z"/>
<path class="st0" d="M122.5,5.9c-0.4-0.4-0.4-1,0-1.3c0.4-0.4,1-0.4,1.3,0c0.4,0.4,0.4,1,0,1.3C123.5,6.3,122.9,6.3,122.5,5.9z"/>
<path class="st0" d="M125.1,8.5c-0.4-0.4-0.4-1,0-1.3c0.4-0.4,1-0.4,1.3,0c0.4,0.4,0.4,1,0,1.3C126.1,8.9,125.5,8.9,125.1,8.5z"/>
<path class="st0" d="M113.7,0.1c0,0.3-0.1,0.5-0.3,0.7c-0.4,0.4-1,0.4-1.3,0c-0.2-0.2-0.3-0.4-0.3-0.6"/>
<path class="st0" d="M114.7,3.3c-0.4-0.4-0.4-1,0-1.3c0.4-0.4,1-0.4,1.3,0c0.4,0.4,0.4,1,0,1.3C115.6,3.7,115,3.7,114.7,3.3z"/>
<path class="st0" d="M117.3,5.9c-0.4-0.4-0.4-1,0-1.3c0.4-0.4,1-0.4,1.3,0c0.4,0.4,0.4,1,0,1.3C118.2,6.3,117.6,6.3,117.3,5.9z"/>
<path class="st0" d="M119.9,8.5c-0.4-0.4-0.4-1,0-1.3c0.4-0.4,1-0.4,1.3,0c0.4,0.4,0.4,1,0,1.3C120.8,8.9,120.3,8.9,119.9,8.5z"/>
<path class="st0" d="M122.5,11.1c-0.4-0.4-0.4-1,0-1.3c0.4-0.4,1-0.4,1.3,0c0.4,0.4,0.4,1,0,1.3C123.5,11.5,122.9,11.5,122.5,11.1z"
	/>
<path class="st0" d="M27.8,0.1c0,0.6-0.2,1.3-0.8,1.7c-1,1-2.5,1-3.5,0c-0.5-0.5-0.7-1.1-0.7-1.7"/>
<path class="st0" d="M0.1,22.8c0.6,0,1.2,0.3,1.6,0.7c1,1,1,2.6,0,3.5c-0.5,0.5-1,0.7-1.6,0.7"/>
<line class="st0" x1="36.2" y1="0.1" x2="0" y2="36.2"/>
<line class="st0" x1="47.1" y1="0.1" x2="0.1" y2="47"/>
<line class="st0" x1="14.5" y1="0.1" x2="0" y2="14.5"/>
<path class="st0" d="M1,0.1c0,0.2-0.1,0.5-0.3,0.7S0.3,1.1,0.1,1.1"/>
<path class="st0" d="M0.1,4.4c0.3,0,0.5,0.1,0.6,0.3c0.4,0.4,0.4,0.9,0,1.3C0.5,6.2,0.3,6.3,0.1,6.3"/>
<path class="st0" d="M3.3,3.4c-0.4,0.4-1,0.4-1.3,0C1.6,3,1.6,2.4,2,2.1c0.4-0.4,1-0.4,1.3,0C3.7,2.4,3.7,3,3.3,3.4z"/>
<path class="st0" d="M6.2,0.1c0,0.2-0.1,0.5-0.3,0.7c-0.4,0.4-1,0.4-1.3,0C4.4,0.6,4.3,0.4,4.3,0.1"/>
<path class="st0" d="M0.1,9.6c0.3,0,0.5,0.1,0.7,0.3c0.4,0.4,0.4,1,0,1.3c-0.2,0.2-0.4,0.3-0.6,0.3"/>
<path class="st0" d="M3.3,8.6C2.9,9,2.3,9,2,8.6c-0.4-0.4-0.4-1,0-1.3c0.4-0.4,1-0.4,1.3,0C3.7,7.7,3.7,8.3,3.3,8.6z"/>
<path class="st0" d="M5.9,6c-0.4,0.4-1,0.4-1.3,0c-0.4-0.4-0.4-1,0-1.3c0.4-0.4,1-0.4,1.3,0C6.3,5.1,6.3,5.7,5.9,6z"/>
<path class="st0" d="M8.5,3.4c-0.4,0.4-1,0.4-1.3,0c-0.4-0.4-0.4-1,0-1.3c0.4-0.4,1-0.4,1.3,0C8.9,2.5,8.9,3,8.5,3.4z"/>
<path class="st0" d="M11.4,0.1c0,0.2-0.1,0.5-0.3,0.7c-0.4,0.4-1,0.4-1.3,0C9.6,0.6,9.5,0.4,9.5,0.1"/>
<path class="st0" d="M27,124.5c-1,1-2.5,1-3.5,0s-1-2.5,0-3.5s2.5-1,3.5,0S28,123.6,27,124.5z"/>
<path class="st0" d="M0.1,145.6c0.6,0,1.2,0.3,1.6,0.7c1,1,1,2.6,0,3.5c-0.5,0.5-1,0.7-1.6,0.7"/>
<polyline class="st0" points="0,86.7 36.2,122.8 0,159 "/>
<polyline class="st0" points="0.1,75.9 47.1,122.8 0.1,169.8 "/>
<polyline class="st0" points="0,108.4 14.5,122.8 0,137.2 "/>
<path class="st0" d="M0.1,95.1c0.6,0,1.3,0.2,1.8,0.8c0.9,1,0.9,2.5,0,3.5c-0.5,0.5-1.1,0.7-1.7,0.7"/>
<path class="st0" d="M0.1,111.4c0.2,0,0.5,0.1,0.6,0.3c0.3,0.4,0.3,1,0,1.3c-0.2,0.2-0.4,0.3-0.6,0.3"/>
<path class="st0" d="M0.1,116.7c0.3,0,0.5,0.1,0.6,0.3c0.4,0.3,0.4,0.9,0,1.3c-0.2,0.2-0.4,0.3-0.6,0.3"/>
<path class="st0" d="M3.3,115.7c-0.4,0.4-1,0.4-1.3,0c-0.4-0.4-0.4-1,0-1.3c0.4-0.4,1-0.4,1.3,0C3.7,114.7,3.7,115.3,3.3,115.7z"/>
<path class="st0" d="M0.1,121.9c0.2,0,0.5,0.1,0.6,0.3c0.4,0.3,0.4,0.9,0,1.3c-0.2,0.2-0.4,0.3-0.6,0.3"/>
<path class="st0" d="M3.3,120.9c-0.4,0.4-1,0.4-1.3,0c-0.4-0.4-0.4-1,0-1.3c0.4-0.4,1-0.4,1.3,0C3.7,119.9,3.7,120.5,3.3,120.9z"/>
<path class="st0" d="M5.9,118.3c-0.4,0.4-1,0.4-1.3,0c-0.4-0.4-0.4-1,0-1.3c0.4-0.4,1-0.4,1.3,0C6.3,117.3,6.3,117.9,5.9,118.3z"/>
<path class="st0" d="M0.1,127.1c0.3,0,0.5,0.1,0.6,0.3c0.4,0.4,0.4,0.9,0,1.3c-0.2,0.2-0.4,0.3-0.6,0.3"/>
<path class="st0" d="M3.3,126.1c-0.4,0.4-1,0.4-1.3,0c-0.4-0.4-0.4-1,0-1.3c0.4-0.4,1-0.4,1.3,0C3.7,125.1,3.7,125.7,3.3,126.1z"/>
<path class="st0" d="M5.9,123.5c-0.4,0.4-1,0.4-1.3,0c-0.4-0.4-0.4-1,0-1.3c0.4-0.4,1-0.4,1.3,0C6.3,122.5,6.3,123.1,5.9,123.5z"/>
<path class="st0" d="M8.5,120.9c-0.4,0.4-1,0.4-1.3,0c-0.4-0.4-0.4-1,0-1.3c0.4-0.4,1-0.4,1.3,0C8.9,119.9,8.9,120.5,8.5,120.9z"/>
<path class="st0" d="M0.1,132.3c0.3,0,0.5,0.1,0.7,0.3c0.4,0.4,0.4,1,0,1.3c-0.2,0.2-0.4,0.3-0.6,0.3"/>
<path class="st0" d="M3.3,131.3c-0.4,0.4-1,0.4-1.3,0c-0.4-0.4-0.4-1,0-1.3c0.4-0.4,1-0.4,1.3,0C3.7,130.4,3.7,131,3.3,131.3z"/>
<path class="st0" d="M5.9,128.7c-0.4,0.4-1,0.4-1.3,0c-0.4-0.4-0.4-1,0-1.3c0.4-0.4,1-0.4,1.3,0C6.3,127.8,6.3,128.4,5.9,128.7z"/>
<path class="st0" d="M8.5,126.1c-0.4,0.4-1,0.4-1.3,0c-0.4-0.4-0.4-1,0-1.3c0.4-0.4,1-0.4,1.3,0C8.9,125.2,8.9,125.7,8.5,126.1z"/>
<path class="st0" d="M11.1,123.5c-0.4,0.4-1,0.4-1.3,0c-0.4-0.4-0.4-1,0-1.3c0.4-0.4,1-0.4,1.3,0C11.5,122.5,11.5,123.1,11.1,123.5z
	"/>
<path class="st0" d="M27,247.3c-1,1-2.5,1-3.5,0s-1-2.5,0-3.5s2.5-1,3.5,0S28,246.4,27,247.3z"/>
<path class="st0" d="M0.1,268.4c0.6,0,1.2,0.3,1.6,0.7c1,1,1,2.6,0,3.5c-0.5,0.5-1,0.7-1.6,0.7"/>
<polyline class="st0" points="0,209.5 36.2,245.6 0,281.8 "/>
<polyline class="st0" points="0.1,198.7 47.1,245.6 0.1,292.6 "/>
<polyline class="st0" points="0,231.2 14.5,245.6 0,260 "/>
<path class="st0" d="M0.1,217.9c0.6,0,1.3,0.2,1.8,0.8c0.9,1,0.9,2.5,0,3.5c-0.5,0.5-1.1,0.7-1.7,0.7"/>
<path class="st0" d="M0.1,234.2c0.2,0,0.5,0.1,0.6,0.3c0.3,0.4,0.3,1,0,1.3c-0.2,0.2-0.4,0.3-0.6,0.3"/>
<path class="st0" d="M0.1,239.5c0.3,0,0.5,0.1,0.6,0.3c0.4,0.3,0.4,0.9,0,1.3c-0.2,0.2-0.4,0.3-0.6,0.3"/>
<path class="st0" d="M3.3,238.5c-0.4,0.4-1,0.4-1.3,0c-0.4-0.4-0.4-1,0-1.3c0.4-0.4,1-0.4,1.3,0C3.7,237.5,3.7,238.1,3.3,238.5z"/>
<path class="st0" d="M0.1,244.7c0.2,0,0.5,0.1,0.6,0.3c0.4,0.3,0.4,0.9,0,1.3c-0.2,0.2-0.4,0.3-0.6,0.3"/>
<path class="st0" d="M3.3,243.7c-0.4,0.4-1,0.4-1.3,0c-0.4-0.4-0.4-1,0-1.3c0.4-0.4,1-0.4,1.3,0C3.7,242.7,3.7,243.3,3.3,243.7z"/>
<path class="st0" d="M5.9,241.1c-0.4,0.4-1,0.4-1.3,0c-0.4-0.4-0.4-1,0-1.3c0.4-0.4,1-0.4,1.3,0C6.3,240.1,6.3,240.7,5.9,241.1z"/>
<path class="st0" d="M0.1,249.9c0.3,0,0.5,0.1,0.6,0.3c0.4,0.4,0.4,0.9,0,1.3c-0.2,0.2-0.4,0.3-0.6,0.3"/>
<path class="st0" d="M3.3,248.9c-0.4,0.4-1,0.4-1.3,0c-0.4-0.4-0.4-1,0-1.3c0.4-0.4,1-0.4,1.3,0C3.7,247.9,3.7,248.5,3.3,248.9z"/>
<path class="st0" d="M5.9,246.3c-0.4,0.4-1,0.4-1.3,0c-0.4-0.4-0.4-1,0-1.3c0.4-0.4,1-0.4,1.3,0C6.3,245.3,6.3,245.9,5.9,246.3z"/>
<path class="st0" d="M8.5,243.7c-0.4,0.4-1,0.4-1.3,0c-0.4-0.4-0.4-1,0-1.3c0.4-0.4,1-0.4,1.3,0C8.9,242.7,8.9,243.3,8.5,243.7z"/>
<path class="st0" d="M0.1,255.1c0.3,0,0.5,0.1,0.7,0.3c0.4,0.4,0.4,1,0,1.3c-0.2,0.2-0.4,0.3-0.6,0.3"/>
<path class="st0" d="M3.3,254.1c-0.4,0.4-1,0.4-1.3,0c-0.4-0.4-0.4-1,0-1.3c0.4-0.4,1-0.4,1.3,0C3.7,253.2,3.7,253.8,3.3,254.1z"/>
<path class="st0" d="M5.9,251.5c-0.4,0.4-1,0.4-1.3,0c-0.4-0.4-0.4-1,0-1.3c0.4-0.4,1-0.4,1.3,0C6.3,250.6,6.3,251.2,5.9,251.5z"/>
<path class="st0" d="M8.5,248.9c-0.4,0.4-1,0.4-1.3,0c-0.4-0.4-0.4-1,0-1.3c0.4-0.4,1-0.4,1.3,0C8.9,248,8.9,248.5,8.5,248.9z"/>
<path class="st0" d="M11.1,246.3c-0.4,0.4-1,0.4-1.3,0c-0.4-0.4-0.4-1,0-1.3c0.4-0.4,1-0.4,1.3,0C11.5,245.3,11.5,245.9,11.1,246.3z
	"/>
<path class="st0" d="M22.8,368.7c0-0.6,0.2-1.3,0.7-1.8c1-1,2.5-1,3.5,0c0.5,0.5,0.7,1.1,0.8,1.8"/>
<line class="st0" x1="0" y1="332.6" x2="36.2" y2="368.7"/>
<line class="st0" x1="0.1" y1="321.7" x2="47.1" y2="368.7"/>
<line class="st0" x1="0" y1="354.2" x2="14.5" y2="368.7"/>
<path class="st0" d="M0.1,340.9c0.6,0,1.3,0.2,1.8,0.8c0.9,1,0.9,2.5,0,3.5c-0.5,0.5-1.1,0.7-1.7,0.7"/>
<path class="st0" d="M0.1,357.3c0.2,0,0.5,0.1,0.6,0.3c0.3,0.4,0.3,1,0,1.3c-0.2,0.2-0.4,0.3-0.6,0.3"/>
<path class="st0" d="M0.1,362.6c0.3,0,0.5,0.1,0.6,0.3c0.4,0.3,0.4,0.9,0,1.3c-0.2,0.2-0.4,0.3-0.6,0.3"/>
<path class="st0" d="M3.3,361.6c-0.4,0.4-1,0.4-1.3,0c-0.4-0.4-0.4-1,0-1.3c0.4-0.4,1-0.4,1.3,0C3.7,360.6,3.7,361.2,3.3,361.6z"/>
<path class="st0" d="M0.1,367.8c0.2,0,0.5,0.1,0.6,0.3c0.2,0.1,0.3,0.4,0.3,0.6"/>
<path class="st0" d="M3.3,366.8c-0.4,0.4-1,0.4-1.3,0c-0.4-0.4-0.4-1,0-1.3c0.4-0.4,1-0.4,1.3,0C3.7,365.8,3.7,366.4,3.3,366.8z"/>
<path class="st0" d="M5.9,364.2c-0.4,0.4-1,0.4-1.3,0c-0.4-0.4-0.4-1,0-1.3c0.4-0.4,1-0.4,1.3,0C6.3,363.2,6.3,363.8,5.9,364.2z"/>
<path class="st0" d="M4.3,368.7c0-0.3,0.1-0.5,0.3-0.6c0.4-0.4,1-0.4,1.3,0c0.2,0.1,0.3,0.4,0.3,0.6"/>
<path class="st0" d="M8.5,366.8c-0.4,0.4-1,0.4-1.3,0c-0.4-0.4-0.4-1,0-1.3c0.4-0.4,1-0.4,1.3,0C8.9,365.8,8.9,366.4,8.5,366.8z"/>
<path class="st0" d="M9.5,368.7c0-0.3,0.1-0.5,0.3-0.6c0.4-0.4,1-0.4,1.3,0c0.2,0.1,0.3,0.4,0.3,0.6"/>
<path class="st0" d="M246.8,345.9c-0.6,0-1.2-0.3-1.6-0.7c-1-1-1-2.6,0-3.5c0.5-0.5,1-0.7,1.6-0.7"/>
<line class="st0" x1="210.8" y1="368.7" x2="246.9" y2="332.6"/>
<line class="st0" x1="199.9" y1="368.7" x2="246.8" y2="321.7"/>
<line class="st0" x1="232.5" y1="368.7" x2="246.9" y2="354.3"/>
<path class="st0" d="M245.9,368.7c0-0.2,0.1-0.5,0.3-0.7s0.4-0.3,0.6-0.3"/>
<path class="st0" d="M246.8,364.4c-0.3,0-0.5-0.1-0.6-0.3c-0.4-0.4-0.4-0.9,0-1.3c0.2-0.2,0.4-0.3,0.6-0.3"/>
<path class="st0" d="M243.6,365.4c0.4-0.4,1-0.4,1.3,0c0.4,0.4,0.4,1,0,1.3c-0.4,0.4-1,0.4-1.3,0
	C243.2,366.4,243.2,365.8,243.6,365.4z"/>
<path class="st0" d="M240.7,368.7c0-0.2,0.1-0.5,0.3-0.7c0.4-0.4,1-0.4,1.3,0c0.2,0.2,0.3,0.4,0.3,0.7"/>
<path class="st0" d="M246.8,359.2c-0.3,0-0.5-0.1-0.7-0.3c-0.4-0.4-0.4-1,0-1.3c0.2-0.2,0.4-0.3,0.7-0.3"/>
<path class="st0" d="M243.6,360.2c0.4-0.4,1-0.4,1.3,0c0.4,0.4,0.4,1,0,1.3c-0.4,0.4-1,0.4-1.3,0
	C243.2,361.1,243.2,360.5,243.6,360.2z"/>
<path class="st0" d="M241,362.8c0.4-0.4,1-0.4,1.3,0c0.4,0.4,0.4,1,0,1.3c-0.4,0.4-1,0.4-1.3,0C240.6,363.7,240.6,363.1,241,362.8z"
	/>
<path class="st0" d="M238.4,365.4c0.4-0.4,1-0.4,1.3,0c0.4,0.4,0.4,1,0,1.3c-0.4,0.4-1,0.4-1.3,0C238,366.3,238,365.8,238.4,365.4z"
	/>
<path class="st0" d="M235.5,368.7c0-0.2,0.1-0.5,0.3-0.7c0.4-0.4,1-0.4,1.3,0c0.2,0.2,0.3,0.4,0.3,0.7"/>
<path class="st0" d="M246.8,273.7c-0.6,0-1.2-0.2-1.8-0.8c-0.9-1-0.9-2.5,0-3.5c0.5-0.5,1.1-0.7,1.7-0.7"/>
<path class="st0" d="M246.8,222.9c-0.6,0-1.2-0.3-1.6-0.7c-1-1-1-2.6,0-3.5c0.5-0.5,1-0.7,1.6-0.7"/>
<polyline class="st0" points="246.9,281.8 210.8,245.6 246.9,209.5 "/>
<polyline class="st0" points="246.8,292.6 199.9,245.6 246.8,198.7 "/>
<polyline class="st0" points="246.9,260.1 232.5,245.7 246.9,231.3 "/>
<path class="st0" d="M246.8,273.4c-0.6,0-1.2-0.2-1.8-0.8c-0.9-1-0.9-2.5,0-3.5c0.5-0.5,1.1-0.7,1.7-0.7"/>
<path class="st0" d="M246.8,257.1c-0.2,0-0.5-0.1-0.6-0.3c-0.3-0.4-0.3-1,0-1.3c0.2-0.2,0.4-0.3,0.6-0.3"/>
<path class="st0" d="M246.8,251.8c-0.3,0-0.5-0.1-0.6-0.3c-0.4-0.3-0.4-0.9,0-1.3c0.2-0.2,0.4-0.3,0.6-0.3"/>
<path class="st0" d="M243.6,252.8c0.4-0.4,1-0.4,1.3,0c0.4,0.4,0.4,1,0,1.3c-0.4,0.4-1,0.4-1.3,0
	C243.2,253.8,243.2,253.2,243.6,252.8z"/>
<path class="st0" d="M246.8,246.6c-0.2,0-0.5-0.1-0.6-0.3c-0.4-0.3-0.4-0.9,0-1.3c0.2-0.2,0.4-0.3,0.6-0.3"/>
<path class="st0" d="M243.6,247.6c0.4-0.4,1-0.4,1.3,0c0.4,0.4,0.4,1,0,1.3c-0.4,0.4-1,0.4-1.3,0C243.2,248.6,243.2,248,243.6,247.6
	z"/>
<path class="st0" d="M241,250.2c0.4-0.4,1-0.4,1.3,0c0.4,0.4,0.4,1,0,1.3c-0.4,0.4-1,0.4-1.3,0C240.6,251.2,240.6,250.6,241,250.2z"
	/>
<path class="st0" d="M246.8,241.4c-0.3,0-0.5-0.1-0.6-0.3c-0.4-0.4-0.4-0.9,0-1.3c0.2-0.2,0.4-0.3,0.6-0.3"/>
<path class="st0" d="M243.6,242.4c0.4-0.4,1-0.4,1.3,0c0.4,0.4,0.4,1,0,1.3c-0.4,0.4-1,0.4-1.3,0
	C243.2,243.4,243.2,242.8,243.6,242.4z"/>
<path class="st0" d="M241,245c0.4-0.4,1-0.4,1.3,0c0.4,0.4,0.4,1,0,1.3c-0.4,0.4-1,0.4-1.3,0C240.6,246,240.6,245.4,241,245z"/>
<path class="st0" d="M238.4,247.6c0.4-0.4,1-0.4,1.3,0c0.4,0.4,0.4,1,0,1.3c-0.4,0.4-1,0.4-1.3,0C238,248.6,238,248,238.4,247.6z"/>
<path class="st0" d="M246.8,236.2c-0.3,0-0.5-0.1-0.7-0.3c-0.4-0.4-0.4-1,0-1.3c0.2-0.2,0.4-0.3,0.7-0.3"/>
<path class="st0" d="M243.6,237.2c0.4-0.4,1-0.4,1.3,0c0.4,0.4,0.4,1,0,1.3c-0.4,0.4-1,0.4-1.3,0
	C243.2,238.1,243.2,237.5,243.6,237.2z"/>
<path class="st0" d="M241,239.8c0.4-0.4,1-0.4,1.3,0c0.4,0.4,0.4,1,0,1.3c-0.4,0.4-1,0.4-1.3,0C240.6,240.7,240.6,240.1,241,239.8z"
	/>
<path class="st0" d="M238.4,242.4c0.4-0.4,1-0.4,1.3,0c0.4,0.4,0.4,1,0,1.3c-0.4,0.4-1,0.4-1.3,0C238,243.3,238,242.8,238.4,242.4z"
	/>
<path class="st0" d="M235.8,245c0.4-0.4,1-0.4,1.3,0c0.4,0.4,0.4,1,0,1.3c-0.4,0.4-1,0.4-1.3,0C235.4,246,235.4,245.4,235.8,245z"/>
<path class="st0" d="M246.8,100.1c-0.6,0-1.2-0.3-1.6-0.7c-1-1-1-2.6,0-3.5c0.5-0.5,1-0.7,1.6-0.7"/>
<polyline class="st0" points="246.9,159 210.8,122.8 246.9,86.7 "/>
<polyline class="st0" points="246.8,169.8 199.9,122.8 246.8,75.9 "/>
<polyline class="st0" points="246.9,137.3 232.5,122.9 246.9,108.5 "/>
<path class="st0" d="M246.8,150.6c-0.6,0-1.2-0.2-1.8-0.8c-0.9-1-0.9-2.5,0-3.5c0.5-0.5,1.1-0.7,1.7-0.7"/>
<path class="st0" d="M246.8,134.3c-0.2,0-0.5-0.1-0.6-0.3c-0.3-0.4-0.3-1,0-1.3c0.2-0.2,0.4-0.3,0.6-0.3"/>
<path class="st0" d="M246.8,129c-0.3,0-0.5-0.1-0.6-0.3c-0.4-0.3-0.4-0.9,0-1.3c0.2-0.2,0.4-0.3,0.6-0.3"/>
<path class="st0" d="M243.6,130c0.4-0.4,1-0.4,1.3,0c0.4,0.4,0.4,1,0,1.3c-0.4,0.4-1,0.4-1.3,0C243.2,131,243.2,130.4,243.6,130z"/>
<path class="st0" d="M246.8,123.8c-0.2,0-0.5-0.1-0.6-0.3c-0.4-0.3-0.4-0.9,0-1.3c0.2-0.2,0.4-0.3,0.6-0.3"/>
<path class="st0" d="M243.6,124.8c0.4-0.4,1-0.4,1.3,0c0.4,0.4,0.4,1,0,1.3c-0.4,0.4-1,0.4-1.3,0
	C243.2,125.8,243.2,125.2,243.6,124.8z"/>
<path class="st0" d="M241,127.4c0.4-0.4,1-0.4,1.3,0c0.4,0.4,0.4,1,0,1.3c-0.4,0.4-1,0.4-1.3,0C240.6,128.4,240.6,127.8,241,127.4z"
	/>
<path class="st0" d="M246.8,118.6c-0.3,0-0.5-0.1-0.6-0.3c-0.4-0.4-0.4-0.9,0-1.3c0.2-0.2,0.4-0.3,0.6-0.3"/>
<path class="st0" d="M243.6,119.6c0.4-0.4,1-0.4,1.3,0c0.4,0.4,0.4,1,0,1.3c-0.4,0.4-1,0.4-1.3,0C243.2,120.6,243.2,120,243.6,119.6
	z"/>
<path class="st0" d="M241,122.2c0.4-0.4,1-0.4,1.3,0c0.4,0.4,0.4,1,0,1.3c-0.4,0.4-1,0.4-1.3,0C240.6,123.2,240.6,122.6,241,122.2z"
	/>
<path class="st0" d="M238.4,124.8c0.4-0.4,1-0.4,1.3,0c0.4,0.4,0.4,1,0,1.3c-0.4,0.4-1,0.4-1.3,0C238,125.8,238,125.2,238.4,124.8z"
	/>
<path class="st0" d="M246.8,113.4c-0.3,0-0.5-0.1-0.7-0.3c-0.4-0.4-0.4-1,0-1.3c0.2-0.2,0.4-0.3,0.7-0.3"/>
<path class="st0" d="M243.6,114.4c0.4-0.4,1-0.4,1.3,0c0.4,0.4,0.4,1,0,1.3c-0.4,0.4-1,0.4-1.3,0
	C243.2,115.3,243.2,114.7,243.6,114.4z"/>
<path class="st0" d="M241,117c0.4-0.4,1-0.4,1.3,0c0.4,0.4,0.4,1,0,1.3c-0.4,0.4-1,0.4-1.3,0C240.6,117.9,240.6,117.3,241,117z"/>
<path class="st0" d="M238.4,119.6c0.4-0.4,1-0.4,1.3,0c0.4,0.4,0.4,1,0,1.3c-0.4,0.4-1,0.4-1.3,0C238,120.5,238,120,238.4,119.6z"/>
<path class="st0" d="M235.8,122.2c0.4-0.4,1-0.4,1.3,0c0.4,0.4,0.4,1,0,1.3c-0.4,0.4-1,0.4-1.3,0
	C235.4,123.2,235.4,122.6,235.8,122.2z"/>
<line class="st0" x1="246.9" y1="36.2" x2="210.8" y2="0.1"/>
<line class="st0" x1="246.8" y1="47" x2="199.9" y2="0.1"/>
<line class="st0" x1="246.9" y1="14.6" x2="232.5" y2="0.1"/>
<path class="st0" d="M246.8,27.9c-0.6,0-1.2-0.2-1.8-0.8c-0.9-1-0.9-2.5,0-3.5c0.5-0.5,1.1-0.7,1.7-0.7"/>
<path class="st0" d="M246.8,11.5c-0.2,0-0.5-0.1-0.6-0.3c-0.3-0.4-0.3-1,0-1.3c0.2-0.2,0.4-0.3,0.6-0.3"/>
<path class="st0" d="M246.8,6.2c-0.3,0-0.5-0.1-0.6-0.3c-0.4-0.3-0.4-0.9,0-1.3c0.2-0.2,0.4-0.3,0.6-0.3"/>
<path class="st0" d="M243.6,7.2c0.4-0.4,1-0.4,1.3,0c0.4,0.4,0.4,1,0,1.3c-0.4,0.4-1,0.4-1.3,0C243.2,8.2,243.2,7.6,243.6,7.2z"/>
<path class="st0" d="M246.8,1c-0.2,0-0.5-0.1-0.6-0.3c-0.2-0.2-0.3-0.4-0.3-0.6"/>
<path class="st0" d="M243.6,2c0.4-0.4,1-0.4,1.3,0c0.4,0.4,0.4,1,0,1.3c-0.4,0.4-1,0.4-1.3,0C243.2,3,243.2,2.4,243.6,2z"/>
<path class="st0" d="M241,4.6c0.4-0.4,1-0.4,1.3,0c0.4,0.4,0.4,1,0,1.3c-0.4,0.4-1,0.4-1.3,0C240.6,5.6,240.6,5,241,4.6z"/>
<path class="st0" d="M242.6,0.1c0,0.3-0.1,0.5-0.3,0.6c-0.4,0.4-1,0.4-1.3,0c-0.2-0.2-0.3-0.4-0.3-0.6"/>
<path class="st0" d="M238.4,2c0.4-0.4,1-0.4,1.3,0c0.4,0.4,0.4,1,0,1.3c-0.4,0.4-1,0.4-1.3,0C238,3,238,2.4,238.4,2z"/>
<path class="st0" d="M237.4,0.1c0,0.3-0.1,0.5-0.3,0.6c-0.4,0.4-1,0.4-1.3,0c-0.2-0.2-0.3-0.4-0.3-0.6"/>
</svg>
