<?xml version="1.0" encoding="utf-8"?>
<!-- Generator: Adobe Illustrator 21.0.0, SVG Export Plug-In . SVG Version: 6.00 Build 0)  -->
<svg version="1.1" id="Layer_1" xmlns="http://www.w3.org/2000/svg" xmlns:xlink="http://www.w3.org/1999/xlink" x="0px" y="0px"
	 viewBox="0 0 143.3 153.4" style="enable-background:new 0 0 143.3 153.4;" xml:space="preserve">
<style type="text/css">
	
		.st0{opacity:0.15;fill:none;stroke:#FFFFFF;stroke-linecap:round;stroke-linejoin:round;stroke-miterlimit:10;stroke-opacity:0.5;enable-background:new    ;}
</style>
<path class="st0" d="M28.1,49.4c0,2.4-1.9,4.3-4.3,4.3s-4.3-1.9-4.3-4.3c0-2.4,1.9-4.3,4.3-4.3S28.1,47,28.1,49.4z"/>
<line class="st0" x1="0" y1="39.4" x2="47.5" y2="14.2"/>
<line class="st0" x1="0" y1="39.4" x2="19.5" y2="49.4"/>
<path class="st0" d="M19.5,4.3c0-2.4,1.9-4.3,4.3-4.3s4.3,1.9,4.3,4.3s-1.9,4.3-4.3,4.3C21.3,8.6,19.5,6.7,19.5,4.3z"/>
<line class="st0" x1="19.5" y1="4.3" x2="0" y2="14.2"/>
<line class="st0" x1="28.1" y1="4.3" x2="47.5" y2="14.2"/>
<line class="st0" x1="23.8" y1="53.7" x2="23.8" y2="76.8"/>
<path class="st0" d="M28.1,126c0,2.4-1.9,4.3-4.3,4.3s-4.3-1.9-4.3-4.3s1.9-4.3,4.3-4.3S28.1,123.6,28.1,126z"/>
<line class="st0" x1="0" y1="115.9" x2="47.5" y2="90.8"/>
<line class="st0" x1="0" y1="115.9" x2="19.5" y2="126"/>
<path class="st0" d="M19.5,80.9c0-2.4,1.9-4.3,4.3-4.3s4.3,1.9,4.3,4.3s-1.9,4.3-4.3,4.3C21.3,85.2,19.5,83.2,19.5,80.9z"/>
<line class="st0" x1="19.5" y1="80.9" x2="0" y2="90.8"/>
<line class="st0" x1="28.1" y1="80.9" x2="47.5" y2="90.8"/>
<line class="st0" x1="23.8" y1="130.3" x2="23.8" y2="153.4"/>
<path class="st0" d="M76.5,49.4c0,2.4-1.9,4.3-4.3,4.3s-4.3-1.9-4.3-4.3c0-2.4,1.9-4.3,4.3-4.3S76.5,47,76.5,49.4z"/>
<line class="st0" x1="76.5" y1="49.4" x2="143.3" y2="14.2"/>
<line class="st0" x1="67.9" y1="49.4" x2="48.5" y2="39.4"/>
<line class="st0" x1="115.4" y1="49.4" x2="95.9" y2="39.4"/>
<path class="st0" d="M67.9,4.3c0-2.4,1.9-4.3,4.3-4.3s4.3,1.9,4.3,4.3s-1.9,4.3-4.3,4.3S67.9,6.7,67.9,4.3z"/>
<line class="st0" x1="67.9" y1="4.3" x2="48.5" y2="14.2"/>
<line class="st0" x1="115.4" y1="4.3" x2="95.9" y2="14.2"/>
<line class="st0" x1="95.9" y1="14.2" x2="76.5" y2="4.3"/>
<path class="st0" d="M124,49.4c0,2.4-1.9,4.3-4.3,4.3s-4.3-1.9-4.3-4.3c0-2.4,1.9-4.3,4.3-4.3C122,45.1,124,47,124,49.4z"/>
<line class="st0" x1="124" y1="49.4" x2="143" y2="39.4"/>
<path class="st0" d="M115.4,4.3c0-2.4,1.9-4.3,4.3-4.3s4.3,1.9,4.3,4.3s-1.9,4.3-4.3,4.3S115.4,6.7,115.4,4.3z"/>
<line class="st0" x1="124" y1="4.3" x2="143.3" y2="14.2"/>
<line class="st0" x1="72.2" y1="53.7" x2="72.2" y2="76.8"/>
<line class="st0" x1="119.7" y1="53.7" x2="119.7" y2="76.8"/>
<path class="st0" d="M76.5,126c0,2.4-1.9,4.3-4.3,4.3s-4.3-1.9-4.3-4.3c0-2.4,1.9-4.3,4.3-4.3S76.5,123.6,76.5,126z"/>
<line class="st0" x1="76.5" y1="126" x2="143.3" y2="90.8"/>
<line class="st0" x1="28.1" y1="49.4" x2="94.9" y2="14.2"/>
<line class="st0" x1="28.1" y1="126" x2="94.9" y2="90.8"/>
<line class="st0" x1="67.9" y1="126" x2="48.5" y2="115.9"/>
<line class="st0" x1="115.4" y1="126" x2="95.9" y2="115.9"/>
<path class="st0" d="M67.9,80.9c0-2.4,1.9-4.3,4.3-4.3s4.3,1.9,4.3,4.3s-1.9,4.3-4.3,4.3C69.8,85.2,67.9,83.2,67.9,80.9z"/>
<line class="st0" x1="67.9" y1="80.9" x2="48.5" y2="90.8"/>
<line class="st0" x1="115.4" y1="80.9" x2="95.9" y2="90.8"/>
<line class="st0" x1="95.9" y1="90.8" x2="76.5" y2="80.9"/>
<path class="st0" d="M124,126c0,2.4-1.9,4.3-4.3,4.3s-4.3-1.9-4.3-4.3c0-2.4,1.9-4.3,4.3-4.3C122,121.6,124,123.6,124,126z"/>
<line class="st0" x1="124" y1="125.8" x2="143.3" y2="115.9"/>
<path class="st0" d="M115.4,80.9c0-2.4,1.9-4.3,4.3-4.3s4.3,1.9,4.3,4.3s-1.9,4.3-4.3,4.3C117.3,85.2,115.4,83.2,115.4,80.9z"/>
<line class="st0" x1="124" y1="80.9" x2="143.3" y2="90.8"/>
<line class="st0" x1="72.2" y1="130.3" x2="72.2" y2="153.4"/>
<line class="st0" x1="119.7" y1="130.3" x2="119.7" y2="153.4"/>
</svg>
