<?xml version="1.0" encoding="UTF-8" standalone="no"?>
<!-- Generator: Adobe Illustrator 22.0.0, SVG Export Plug-In . SVG Version: 6.00 Build 0)  -->

<svg
   xmlns:dc="http://purl.org/dc/elements/1.1/"
   xmlns:cc="http://creativecommons.org/ns#"
   xmlns:rdf="http://www.w3.org/1999/02/22-rdf-syntax-ns#"
   xmlns:svg="http://www.w3.org/2000/svg"
   xmlns="http://www.w3.org/2000/svg"
   xmlns:sodipodi="http://sodipodi.sourceforge.net/DTD/sodipodi-0.dtd"
   xmlns:inkscape="http://www.inkscape.org/namespaces/inkscape"
   version="1.1"
   id="Layer_1"
   x="0px"
   y="0px"
   viewBox="0 0 611.6 522.7"
   style="enable-background:new 0 0 611.6 522.7;"
   xml:space="preserve"
   inkscape:version="0.91 r13725"
   sodipodi:docname="iptvdevices2.svg"><metadata
   id="metadata5913"><rdf:RDF><cc:Work
       rdf:about=""><dc:format>image/svg+xml</dc:format><dc:type
         rdf:resource="http://purl.org/dc/dcmitype/StillImage" /></cc:Work></rdf:RDF></metadata><defs
   id="defs5911" /><sodipodi:namedview
   pagecolor="#ffffff"
   bordercolor="#666666"
   borderopacity="1"
   objecttolerance="10"
   gridtolerance="10"
   guidetolerance="10"
   inkscape:pageopacity="0"
   inkscape:pageshadow="2"
   inkscape:window-width="1920"
   inkscape:window-height="1017"
   id="namedview5909"
   showgrid="false"
   inkscape:zoom="1.27704"
   inkscape:cx="84.264791"
   inkscape:cy="232.25345"
   inkscape:window-x="-8"
   inkscape:window-y="-8"
   inkscape:window-maximized="1"
   inkscape:current-layer="Layer_1" />
<style
   type="text/css"
   id="style5858">
	.iptvdevices0{fill:none;stroke:#FFFFFF;stroke-width:2;stroke-linecap:round;stroke-linejoin:round;stroke-miterlimit:10;}
	.iptvdevices1{fill:none;stroke:#FFFFFF;stroke-linecap:round;stroke-linejoin:round;stroke-miterlimit:10;}
	.iptvdevices2{fill:none;stroke:#EE5586;stroke-width:4;stroke-linecap:round;stroke-linejoin:round;stroke-miterlimit:10;}
	.iptvdevices3{fill:none;stroke:#808080;stroke-width:2;stroke-linecap:round;stroke-linejoin:round;stroke-miterlimit:10;}
	.iptvdevices4{fill:none;stroke:#808080;stroke-width:4;stroke-linecap:round;stroke-linejoin:round;stroke-miterlimit:10;}
	.iptvdevices5{fill:none;stroke:#EE5586;stroke-width:3;stroke-linecap:round;stroke-linejoin:round;stroke-miterlimit:10;}
</style>
<path
   class="iptvdevices0"
   d="M143.3,83.9c0-0.3,0.2-0.5,0.5-0.5H224c0.3,0,0.5,0.2,0.5,0.5v1.6c0,0,0,2-4.1,2h-34.9h-38.1  c-4.1,0-4.1-2-4.1-2L143.3,83.9z"
   id="path5860" />
<path
   class="iptvdevices0"
   d="M215.7,83.3V41.5c0-1.2-0.9-2.1-2.1-2.1h-58.8c-1.2,0-2.1,1-2.1,2.1v41.8H215.7z"
   id="path5862" />
<rect
   id="svg-concept"
   x="159.4"
   y="46.5"
   class="iptvdevices0"
   width="49.2"
   height="31.8" />
<path
   class="iptvdevices0"
   d="M118.6,203.1H69.5c-2.9,0-5.3,2.4-5.3,5.3v91.3c0,2.9,2.4,5.3,5.3,5.3h49.1c2.9,0,5.3-2.4,5.3-5.3v-91.3  C123.8,205.5,121.5,203.1,118.6,203.1z"
   id="path5865" />
<rect
   x="72.4"
   y="213.6"
   class="iptvdevices0"
   width="43.2"
   height="73.7"
   id="rect5867" />
<line
   class="iptvdevices1"
   x1="86.6"
   y1="224.4"
   x2="83.4"
   y2="227.6"
   id="line5869" />
<line
   class="iptvdevices1"
   x1="99.4"
   y1="224.4"
   x2="81.8"
   y2="241.9"
   id="line5871" />

<path
   class="iptvdevices3"
   d="M231.5,32.8C265.4,15.7,303.8,6,344.4,6c37.7,0,73.4,8.3,105.4,23.3"
   id="path5875" />
<path
   class="iptvdevices3"
   d="M107.4,175.5c8.1-23.8,19.8-46.1,34.3-66.1"
   id="path5877" />
<path
   class="iptvdevices3"
   d="M148.8,413c-17.6-22-31.6-47-41-74.2"
   id="path5879" />
<path
   class="iptvdevices3"
   d="M476.4,469.7c-38.3,23.8-83.4,37.5-131.8,37.5c-36.6,0-71.4-7.8-102.7-22"
   id="path5881" />




<g
   id="g5891">
	<path
   id="path5893"
   class="iptvdevices4"
   d="M490.8,53.2C553.9,98.6,595,172.8,595,256.6c0,68.6-27.6,130.7-72.3,176.1" />
	
		<animate
   accumulate="none"
   additive="replace"
   attributeName="opacity"
   begin="1s"
   calcMode="linear"
   dur="2s"
   fill="remove"
   repeatCount="indefinite"
   restart="always"
   values="0;3;0">
		</animate>
</g>
<g
   id="g5895">
	<path
   id="path5897"
   class="iptvdevices4"
   d="M438.7,102.6c55.7,30.3,93.6,89.3,93.6,157.2c0,51.8-22,98.3-57.2,131" />
	
		<animate
   accumulate="none"
   additive="replace"
   attributeName="opacity"
   begin="2s"
   calcMode="linear"
   dur="2s"
   fill="remove"
   repeatCount="indefinite"
   restart="always"
   values="0;3;0">
		</animate>
</g>
<g
   id="g5899">
	<path
   id="path5901"
   class="iptvdevices4"
   d="M405.5,149.8c37.3,22.5,62.1,63.3,62.1,110c0,39.8-18.2,75.5-46.6,99.1" />
	
		<animate
   accumulate="none"
   additive="replace"
   attributeName="opacity"
   begin="3s"
   calcMode="linear"
   dur="2s"
   fill="remove"
   repeatCount="indefinite"
   restart="always"
   values="0;3;0">
		</animate>
</g>
<circle
   id="circle5903"
   class="iptvdevices5"
   cx="94"
   cy="256.6"
   r="82.2" />
<circle
   class="iptvdevices0"
   cx="183.1"
   cy="66.9"
   r="59.2"
   id="circle5905" />
<circle
   class="iptvdevices0"
   cx="191.8"
   cy="453.7"
   r="59.2"
   id="circle5907" />
<g
   id="g5972"
   transform="matrix(4.3677875,0,0,4.3677875,278.92381,187.77176)"><path
     id="path5945"
     d="M 6.45,20.125 C 6.381,20.125 6.306,20.106 6.244,20.069 3.069,18.182 1.1,14.713 1.1,11.025 1.094,5.219 5.813,0.506 11.612,0.506 c 5.799,0 10.519,4.719 10.519,10.519 0,1.95 -0.538,3.85 -1.55,5.5 -0.119,0.188 -0.363,0.25 -0.556,0.131 -0.188,-0.119 -0.25,-0.363 -0.131,-0.556 0.938,-1.525 1.431,-3.281 1.431,-5.081 0,-5.35 -4.356,-9.706 -9.713,-9.706 -5.35,0 -9.706,4.356 -9.706,9.706 0,3.406 1.819,6.606 4.75,8.35 0.194,0.113 0.256,0.363 0.138,0.55 -0.075,0.131 -0.206,0.206 -0.344,0.206 z"
     inkscape:connector-curvature="0"
     style="fill:#808080;fill-opacity:1" /><path
     id="path5947"
     d="m 6.931,16.95 c -0.162,0 -0.319,-0.1 -0.381,-0.269 -0.612,-1.688 -0.931,-3.644 -0.931,-5.662 0,-5.894 2.638,-10.512 5.994,-10.512 3.356,0 5.994,4.619 5.994,10.519 0,1.919 -0.294,3.794 -0.844,5.419 -0.075,0.212 -0.3,0.325 -0.512,0.25 -0.212,-0.069 -0.325,-0.3 -0.25,-0.512 0.525,-1.544 0.806,-3.331 0.806,-5.162 0,-5.356 -2.325,-9.713 -5.188,-9.713 -2.863,0 -5.188,4.356 -5.188,9.713 0,1.925 0.306,3.787 0.881,5.388 0.075,0.212 -0.031,0.438 -0.244,0.519 -0.044,0.019 -0.094,0.025 -0.138,0.025 z"
     inkscape:connector-curvature="0"
     style="fill:#808080;fill-opacity:1" /><path
     id="path5949"
     d="M 11.613,7.838 C 8.444,7.838 5.501,6.95 3.326,5.338 3.145,5.207 3.107,4.95 3.245,4.775 3.376,4.594 3.633,4.556 3.808,4.694 c 2.006,1.487 4.85,2.337 7.806,2.337 2.956,0 5.8,-0.856 7.806,-2.338 0.181,-0.131 0.431,-0.094 0.563,0.081 0.131,0.181 0.094,0.431 -0.081,0.563 -2.175,1.612 -5.113,2.5 -8.287,2.5 z"
     inkscape:connector-curvature="0"
     style="fill:#808080;fill-opacity:1" /><path
     id="path5951"
     d="m 21.731,11.75 -20.231,0 c -0.225,0 -0.406,-0.181 -0.406,-0.406 0,-0.225 0.181,-0.4 0.406,-0.4 l 20.231,0 c 0.225,0 0.406,0.181 0.406,0.4 0,0.219 -0.188,0.406 -0.406,0.406 z"
     inkscape:connector-curvature="0"
     style="fill:#808080;fill-opacity:1" /><path
     id="path5953"
     d="m 11.613,16.712 c -0.225,0 -0.406,-0.181 -0.406,-0.406 l 0,-15.4 c 0,-0.225 0.181,-0.4 0.406,-0.4 0.225,0 0.4,0.181 0.4,0.4 l 0,15.406 c 0.006,0.219 -0.175,0.4 -0.4,0.4 z"
     inkscape:connector-curvature="0"
     style="fill:#808080;fill-opacity:1" /><path
     id="path5955"
     d="m 17.894,31.663 c -0.887,0 -1.613,-0.725 -1.613,-1.613 0,-0.888 0.725,-1.613 1.613,-1.613 0.887,0 1.613,0.725 1.613,1.613 0,0.888 -0.719,1.613 -1.613,1.613 z m 0,-2.419 c -0.444,0 -0.806,0.363 -0.806,0.806 0,0.443 0.363,0.806 0.806,0.806 0.444,0 0.806,-0.363 0.806,-0.806 0,-0.443 -0.356,-0.806 -0.806,-0.806 z"
     inkscape:connector-curvature="0"
     style="fill:#808080;fill-opacity:0.98995095" /><path
     id="path5957"
     d="m 17.894,29.244 c -0.225,0 -0.406,-0.181 -0.406,-0.4 l 0,-2.419 c 0,-0.225 0.181,-0.406 0.406,-0.406 0.225,0 0.406,0.181 0.406,0.406 l 0,2.419 c 0,0.219 -0.181,0.4 -0.406,0.4 z"
     inkscape:connector-curvature="0"
     style="fill:#808080;fill-opacity:0.98995095" /><path
     id="path5959"
     d="m 16.688,30.45 -6.75,0 c -0.225,0 -0.4,-0.181 -0.4,-0.406 0,-0.225 0.181,-0.4 0.4,-0.4 l 6.75,0 c 0.225,0 0.406,0.181 0.406,0.4 -0.006,0.225 -0.181,0.406 -0.406,0.406 z"
     inkscape:connector-curvature="0"
     style="fill:#808080;fill-opacity:0.98995095" /><path
     id="path5961"
     d="m 25.85,30.45 -6.744,0 c -0.225,0 -0.406,-0.181 -0.406,-0.406 0,-0.225 0.181,-0.4 0.406,-0.4 l 6.744,0 c 0.225,0 0.406,0.181 0.406,0.4 0,0.225 -0.181,0.406 -0.406,0.406 z"
     inkscape:connector-curvature="0"
     style="fill:#808080;fill-opacity:0.98995095" /><path
     d="m 24.962,22.169 c -0.887,0 -1.613,-0.725 -1.613,-1.613 0,-0.888 0.725,-1.613 1.613,-1.613 0.888,0 1.613,0.725 1.613,1.613 0,0.894 -0.725,1.613 -1.613,1.613 z m 0,-2.419 c -0.444,0 -0.806,0.363 -0.806,0.806 0,0.443 0.363,0.806 0.806,0.806 0.444,0 0.806,-0.363 0.806,-0.806 0,-0.443 -0.363,-0.806 -0.806,-0.806 z"
     id="svg-ico-3"
     inkscape:connector-curvature="0"
     style="fill:#ee5586" /><path
     d="m 28.738,25.212 -21.044,0 c -0.906,0 -1.65,-0.681 -1.65,-1.525 l 0,-6.256 c 0,-0.844 0.737,-1.525 1.65,-1.525 l 21.044,0 c 0.906,0 1.644,0.681 1.644,1.525 l 0,6.256 c 0.006,0.837 -0.738,1.525 -1.644,1.525 z m -21.044,-8.5 c -0.463,0 -0.844,0.325 -0.844,0.719 l 0,6.256 c 0,0.394 0.375,0.719 0.844,0.719 l 21.044,0 c 0.462,0 0.837,-0.325 0.837,-0.719 l 0,-6.256 c 0,-0.394 -0.375,-0.719 -0.837,-0.719 l -21.044,0 z"
     id="path5964"
     inkscape:connector-curvature="0"
     style="fill:#ee5586" /></g><g
   id="g6000"
   transform="matrix(2.1291464,0,0,2.1291464,155.79467,419.53299)"><path
     id="path5989"
     d="m 27.125,31.844 -21.738,0 c -0.781,0 -1.413,-0.637 -1.413,-1.413 l 0,-28.656 c 0,-0.781 0.631,-1.413 1.413,-1.413 l 21.738,0 c 0.781,0 1.413,0.631 1.413,1.413 l 0,28.656 c 0,0.775 -0.631,1.413 -1.413,1.413 z M 5.388,1.212 c -0.313,0 -0.563,0.25 -0.563,0.563 l 0,28.656 c 0,0.313 0.25,0.563 0.563,0.563 l 21.738,0 c 0.313,0 0.563,-0.25 0.563,-0.563 l 0,-28.656 c 0,-0.313 -0.25,-0.563 -0.563,-0.563 l -21.738,0 z"
     inkscape:connector-curvature="0"
     style="fill:#ffffff;fill-opacity:1" /><path
     d="m 16.256,29.313 c -0.938,0 -1.7,-0.762 -1.7,-1.7 0,-0.938 0.762,-1.7 1.7,-1.7 0.938,0 1.7,0.762 1.7,1.7 0,0.938 -0.762,1.7 -1.7,1.7 z m 0,-2.551 c -0.469,0 -0.85,0.381 -0.85,0.85 0,0.469 0.381,0.85 0.85,0.85 0.469,0 0.85,-0.381 0.85,-0.85 0,-0.469 -0.381,-0.85 -0.85,-0.85 z"
     id="svg-ico"
     inkscape:connector-curvature="0"
     style="fill:#ee5586" /><path
     d="m 17.531,3.725 -2.55,0 c -0.238,0 -0.425,-0.188 -0.425,-0.425 0,-0.237 0.188,-0.425 0.425,-0.425 l 2.55,0 c 0.238,0 0.425,0.188 0.425,0.425 0,0.231 -0.188,0.425 -0.425,0.425 z"
     id="path5992"
     inkscape:connector-curvature="0"
     style="fill:#ee5586" /></g></svg>