<?xml version="1.0" encoding="UTF-8" standalone="no"?>
<!-- Generator: Adobe Illustrator 22.0.0, SVG Export Plug-In . SVG Version: 6.00 Build 0)  -->

<svg
        xmlns:dc="http://purl.org/dc/elements/1.1/"
        xmlns:cc="http://creativecommons.org/ns#"
        xmlns:rdf="http://www.w3.org/1999/02/22-rdf-syntax-ns#"
        xmlns:svg="http://www.w3.org/2000/svg"
        xmlns="http://www.w3.org/2000/svg"
        xmlns:sodipodi="http://sodipodi.sourceforge.net/DTD/sodipodi-0.dtd"
        xmlns:inkscape="http://www.inkscape.org/namespaces/inkscape"
        version="1.1"
        id="Layer_1"
        x="0px"
        y="0px"
        viewBox="0 0 507.20002 507.2"
        xml:space="preserve"
        inkscape:version="0.91 r13725"
        sodipodi:docname="mobile.svg"
        ><metadata
   id="metadata3488"><rdf:RDF><cc:Work
       rdf:about=""><dc:format>image/svg+xml</dc:format><dc:type
        rdf:resource="http://purl.org/dc/dcmitype/StillImage"/><dc:title></dc:title></cc:Work></rdf:RDF></metadata>
    <defs
            id="defs3486"/>
    <sodipodi:namedview
            pagecolor="#ffffff"
            bordercolor="#666666"
            borderopacity="1"
            objecttolerance="10"
            gridtolerance="10"
            guidetolerance="10"
            inkscape:pageopacity="0"
            inkscape:pageshadow="2"
            inkscape:window-width="1920"
            inkscape:window-height="1017"
            id="namedview3484"
            showgrid="false"
            inkscape:zoom="1.0612393"
            inkscape:cx="105.64542"
            inkscape:cy="361.06357"
            inkscape:window-x="-8"
            inkscape:window-y="-8"
            inkscape:window-maximized="1"
            inkscape:current-layer="Layer_1"
            fit-margin-top="0"
            fit-margin-left="0"
            fit-margin-right="0"
            fit-margin-bottom="0"/>
    <style
            type="text/css"
            id="style3429">
	.devices0{fill:none;stroke:#808080;stroke-width:2;stroke-linecap:round;stroke-linejoin:round;stroke-miterlimit:10;}
	.devices1{fill:none;stroke:#EE5586;stroke-width:2;stroke-linecap:round;stroke-linejoin:round;stroke-miterlimit:10;}
	.devices2{fill-rule:evenodd;clip-rule:evenodd;fill:none;stroke:#808080;stroke-width:2;stroke-linecap:round;stroke-linejoin:round;stroke-miterlimit:10;}
	.devices3{fill-rule:evenodd;clip-rule:evenodd;fill:none;stroke:#EE55865;stroke-width:2;stroke-linecap:round;stroke-linejoin:round;stroke-miterlimit:10;}
	.devices4{fill:none;stroke:#808080;stroke-linecap:round;stroke-linejoin:round;stroke-miterlimit:10;}
	.devices5{fill:none;stroke:#EE5586;stroke-width:4;stroke-linecap:round;stroke-linejoin:round;stroke-miterlimit:10;}
	.devices6{fill:none;stroke:#EE5586;stroke-width:3;stroke-linecap:round;stroke-linejoin:round;stroke-miterlimit:10;}
	.devices7{fill:#FFFFFF;stroke:#EE5586;stroke-width:2;stroke-linecap:round;stroke-linejoin:round;stroke-miterlimit:10;}
</style>


    <circle
            id="circle3446"
            class="devices5"
            cx="422.31845"
            cy="248.95772"
            r="82.199997"
            style="fill:none;stroke:#ee5586;stroke-width:4;stroke-linecap:round;stroke-linejoin:round;stroke-miterlimit:10"/>
    <circle
            class="devices0"
            cx="256.41843"
            cy="59.257698"
            r="59.200001"
            id="circle3448"
            style="fill:none;stroke:#808080;stroke-width:2;stroke-linecap:round;stroke-linejoin:round;stroke-miterlimit:10"/>
    <circle
            class="devices0"
            cx="256.41843"
            cy="446.05771"
            r="59.200001"
            id="circle3450"
            style="fill:none;stroke:#808080;stroke-width:2;stroke-linecap:round;stroke-linejoin:round;stroke-miterlimit:10"/>
    <line
            id="line3452"
            class="devices6"
            x1="4.0873003"
            y1="248.95772"
            x2="340.37939"
            y2="248.95772"
            style="fill:none;stroke:#ee5586;stroke-width:2.73202181;stroke-linecap:round;stroke-linejoin:round;stroke-miterlimit:10"/>


    <path
            class="devices0"
            d="m 256.5259,118.34956 c 0,0 -35.64451,131.1163 -255.95623161,131.1163"
            id="path3464"
            inkscape:connector-curvature="0"
            style="fill:none;stroke:#808080;stroke-width:1.78544235;stroke-linecap:round;stroke-linejoin:round;stroke-miterlimit:10"/>
    <path
            class="devices0"
            d="M 1.4102456,249.24789 C 228.99934,248.84725 256.42735,386.96749 256.42735,386.96749"
            id="path3466"
            inkscape:connector-curvature="0"
            style="fill:none;stroke:#808080;stroke-width:1.78211474;stroke-linecap:round;stroke-linejoin:round;stroke-miterlimit:10"/>


    <g
            id="g3480"
            transform="translate(-522.88155,-7.6422997)">
	<path
            id="path3482"
            class="devices7"
            d="m 540.8,257 c 0,4.2 -3.3,7.6 -7.6,7.6 -4.2,0 -7.6,-3.3 -7.6,-7.6 0,-4.3 3.3,-7.6 7.6,-7.6 4.2,0 7.6,3.3 7.6,7.6 z"
            inkscape:connector-curvature="0"
            style="fill:#ffffff;stroke:#ee5586;stroke-width:2;stroke-linecap:round;stroke-linejoin:round;stroke-miterlimit:10"/>

        <animateMotion
                accumulate="none"
                additive="replace"
                begin="0s"
                calcMode="paced"
                dur="5s"
                fill="remove"
                path="M0, 0 320 0 0 0"
                repeatCount="indefinite"
                restart="always">
		</animateMotion>
</g>
    <g
            id="g3503"
            transform="matrix(2.3626232,0,0,2.3626232,220.12108,402.91901)"><path
     d="m 15.975,8.181 0,0 C 15.856,8.181 15.731,8.175 15.612,8.169 15.412,8.157 15.249,8 15.225,7.807 14.944,5.832 16,3.882 17.081,2.713 18.35,1.332 20.468,0.319 22.231,0.257 22.487,0.219 22.644,0.413 22.669,0.632 22.875,2.388 22.194,4.338 20.85,5.857 19.569,7.288 17.7,8.182 15.975,8.182 Z M 21.85,1.137 c -1.45,0.181 -3.137,1.044 -4.15,2.15 -0.844,0.912 -1.744,2.475 -1.669,4.044 1.456,-0.019 3.094,-0.819 4.181,-2.038 1.075,-1.225 1.675,-2.75 1.637,-4.156 z"
     id="svg-ico"
     inkscape:connector-curvature="0"
     style="fill:#ee5586" />
        <path
                id="path3495"
                d="M 10.825,31.756 C 8.6,31.756 6.987,29.837 5.4,27.706 2.237,23.444 0.419,16.419 3.294,11.781 4.813,9.325 7.557,7.775 10.463,7.737 c 0,0 0.088,0 0.088,0 1.25,0 2.425,0.431 3.456,0.813 0.725,0.269 1.406,0.519 1.894,0.519 0.431,0 1.075,-0.238 1.825,-0.512 1.256,-0.463 2.863,-1.044 4.519,-0.894 1.212,0.05 4.306,0.462 6.325,3.206 0.069,0.094 0.1,0.219 0.075,0.338 -0.025,0.119 -0.094,0.219 -0.2,0.281 -0.819,0.469 -3.387,2.206 -3.35,5.469 0.044,4.256 3.975,5.744 4.137,5.8 0.106,0.038 0.194,0.119 0.244,0.219 0.05,0.1 0.056,0.219 0.012,0.325 -0.25,0.731 -0.95,2.575 -2.337,4.469 -1.344,1.825 -2.863,3.894 -5.375,3.938 l -0.106,0 c -1.106,0 -1.869,-0.306 -2.606,-0.606 -0.781,-0.319 -1.525,-0.613 -2.731,-0.613 -1.269,0 -2.044,0.306 -2.869,0.637 -0.725,0.288 -1.469,0.587 -2.513,0.625 l -0.125,0.006 z M 10.55,8.588 c -2.694,0.037 -5.169,1.431 -6.531,3.638 -2.675,4.319 -0.931,10.938 2.063,14.969 1.456,1.956 2.912,3.706 4.744,3.706 l 0.1,0 c 0.894,-0.031 1.544,-0.288 2.231,-0.563 0.819,-0.325 1.75,-0.694 3.181,-0.694 1.375,0 2.262,0.363 3.05,0.675 0.725,0.294 1.35,0.544 2.288,0.544 l 0.094,0 c 2.094,-0.031 3.481,-1.925 4.706,-3.587 1.137,-1.55 1.788,-3.063 2.094,-3.875 -1.125,-0.525 -4.275,-2.369 -4.313,-6.431 -0.038,-3.281 2.212,-5.194 3.356,-5.95 C 25.819,8.895 23.257,8.564 22.201,8.52 22.02,8.501 21.857,8.495 21.695,8.495 c -1.306,0 -2.556,0.463 -3.663,0.869 -0.825,0.3 -1.538,0.563 -2.119,0.563 -0.637,0 -1.356,-0.262 -2.188,-0.575 C 12.744,8.996 11.65,8.59 10.55,8.59 Z"
                inkscape:connector-curvature="0"
                style="fill:#5e686c"/></g>
    <g
            id="g3528"
            transform="matrix(2.8080617,0,0,2.6593957,210.50303,15.35976)"><path
     id="path3511"
     d="m 24.044,10.637 -15.594,0 c -0.231,0 -0.419,0.188 -0.419,0.419 l 0,12.581 c 0,1.231 0.981,2.231 2.181,2.231 l 2.331,0 0,5.387 c 0,0.231 0.188,0.419 0.419,0.419 0.231,0 0.419,-0.188 0.419,-0.419 l 0,-5.387 5.525,0 0,5.387 c 0,0.231 0.188,0.419 0.419,0.419 0.231,0 0.419,-0.188 0.419,-0.419 l 0,-5.387 2.519,0 c 1.206,0 2.188,-1 2.188,-2.231 l 0,-12.575 c 0.012,-0.238 -0.175,-0.425 -0.406,-0.425 z m -0.425,13 c 0,0.769 -0.6,1.387 -1.344,1.387 l -2.775,0 c -0.05,-0.019 -0.106,-0.031 -0.163,-0.031 -0.057,0 -0.113,0.012 -0.163,0.031 l -6.037,0 c -0.05,-0.019 -0.106,-0.031 -0.162,-0.031 -0.056,0 -0.113,0.012 -0.162,0.031 l -2.588,0 c -0.738,0 -1.344,-0.625 -1.344,-1.387 l 0,-12.156 14.75,0 -0.012,12.156 z"
     inkscape:connector-curvature="0"
     style="fill:#5e686c" />
        <path
                d="m 20.431,2.975 1.238,-1.9 C 21.794,0.881 21.744,0.619 21.544,0.494 21.35,0.369 21.088,0.425 20.963,0.619 L 19.65,2.632 C 17.506,1.795 14.981,1.788 12.819,2.638 L 11.525,0.619 C 11.4,0.425 11.138,0.369 10.944,0.494 10.75,0.619 10.694,0.881 10.819,1.075 l 1.231,1.906 c -2.481,1.263 -4.019,3.55 -4.019,6.013 0,0.231 0.188,0.419 0.419,0.419 l 15.587,0 c 0.231,0 0.419,-0.188 0.419,-0.419 0.006,-2.463 -1.525,-4.75 -4.025,-6.019 z M 8.894,8.575 C 9.063,6.538 10.45,4.681 12.588,3.656 l 0.506,-0.225 c 1.975,-0.788 4.35,-0.781 6.3,-0.006 l 0.2,0.087 c 0.031,0.019 0.069,0.038 0.106,0.044 l 0.2,0.087 c 2.15,1.025 3.538,2.888 3.706,4.919 l -14.713,0 z"
                id="svg-ico-1"
                inkscape:connector-curvature="0"
                style="fill:#ee5586"/>
        <path
                d="m 13.175,4.162 c -0.931,0 -1.688,0.756 -1.688,1.681 0,0.931 0.756,1.688 1.688,1.688 0.932,0 1.681,-0.756 1.681,-1.688 0,-0.925 -0.756,-1.681 -1.681,-1.681 z m 0,2.526 c -0.463,0 -0.844,-0.381 -0.844,-0.844 0,-0.463 0.375,-0.838 0.844,-0.838 0.463,0 0.844,0.375 0.844,0.838 0,0.469 -0.381,0.844 -0.844,0.844 z"
                id="path3514"
                inkscape:connector-curvature="0"
                style="fill:#ee5586"/>
        <path
                d="m 19.4,4.162 c -0.931,0 -1.688,0.756 -1.688,1.681 0,0.931 0.756,1.688 1.688,1.688 0.932,0 1.681,-0.756 1.681,-1.688 C 21.087,4.918 20.331,4.162 19.4,4.162 Z m 0,2.526 c -0.462,0 -0.844,-0.381 -0.844,-0.844 0,-0.463 0.381,-0.838 0.844,-0.838 0.462,0 0.844,0.375 0.844,0.838 0,0.469 -0.381,0.844 -0.844,0.844 z"
                id="path3516"
                inkscape:connector-curvature="0"
                style="fill:#ee5586"/>
        <path
                id="path3518"
                d="m 5.588,10.637 c -0.231,0 -0.419,0.188 -0.419,0.419 l 0,10.769 c 0,0.231 0.188,0.419 0.419,0.419 0.231,0 0.419,-0.188 0.419,-0.419 l 0,-10.762 c 0,-0.238 -0.188,-0.425 -0.419,-0.425 z"
                inkscape:connector-curvature="0"
                style="fill:#5e686c"/>
        <path
                id="path3520"
                d="m 26.906,10.637 c -0.231,0 -0.419,0.188 -0.419,0.419 l 0,10.769 c 0,0.231 0.188,0.419 0.419,0.419 0.231,0 0.419,-0.188 0.419,-0.419 l 0,-10.762 c 0.006,-0.238 -0.188,-0.425 -0.419,-0.425 z"
                inkscape:connector-curvature="0"
                style="fill:#5e686c"/></g>
    <g
            id="g3602"
            transform="matrix(2.862144,0,0,2.862144,381.7742,201.42095)"><path
     id="path3589"
     d="m 15.569,31.731 -13.831,0 c -0.775,0 -1.413,-0.631 -1.413,-1.413 l 0,-28.637 C 0.325,0.9 0.956,0.268 1.738,0.268 l 20.744,0 c 0.781,0 1.413,0.631 1.413,1.413 l 0,4.938 c 0,0.231 -0.188,0.425 -0.425,0.425 -0.231,0 -0.425,-0.188 -0.425,-0.425 l 0,-4.938 c 0,-0.313 -0.256,-0.563 -0.563,-0.563 l -20.744,0 c -0.313,0 -0.563,0.256 -0.563,0.563 l 0,28.644 c 0,0.313 0.256,0.563 0.563,0.563 l 13.825,0 c 0.231,0 0.425,0.188 0.425,0.425 0,0.231 -0.188,0.419 -0.419,0.419 z"
     inkscape:connector-curvature="0"
     style="fill:#5e686b" />
        <path
                d="m 30.381,31.731 -10.863,0 c -0.781,0 -1.413,-0.631 -1.413,-1.413 l 0,-19.75 c 0,-0.781 0.631,-1.412 1.413,-1.412 l 10.863,0 c 0.775,0 1.413,0.631 1.413,1.412 l 0,19.756 c 0,0.775 -0.637,1.406 -1.413,1.406 z M 19.519,10.006 c -0.313,0 -0.563,0.256 -0.563,0.563 l 0,19.756 c 0,0.313 0.256,0.563 0.563,0.563 l 10.863,0 c 0.313,0 0.563,-0.256 0.563,-0.563 l 0,-19.756 c 0,-0.313 -0.25,-0.563 -0.563,-0.563 l -10.863,0 z"
                id="svg-ico-9"
                inkscape:connector-curvature="0"
                style="fill:#ee5586"/>
        <path
                id="path3592"
                d="m 12.106,29.544 c -0.931,0 -1.694,-0.756 -1.694,-1.694 0,-0.931 0.756,-1.694 1.694,-1.694 0.938,0 1.694,0.756 1.694,1.694 0,0.938 -0.756,1.694 -1.694,1.694 z m 0,-2.538 c -0.469,0 -0.844,0.381 -0.844,0.844 0,0.469 0.381,0.844 0.844,0.844 0.463,0 0.844,-0.381 0.844,-0.844 0.006,-0.462 -0.375,-0.844 -0.844,-0.844 z"
                inkscape:connector-curvature="0"
                style="fill:#5e686b"/>
        <path
                d="m 24.95,29.544 c -0.931,0 -1.694,-0.756 -1.694,-1.694 0,-0.931 0.756,-1.694 1.694,-1.694 0.938,0 1.694,0.756 1.694,1.694 0,0.938 -0.762,1.694 -1.694,1.694 z m 0,-2.538 c -0.469,0 -0.844,0.381 -0.844,0.844 0,0.469 0.381,0.844 0.844,0.844 0.463,0 0.844,-0.381 0.844,-0.844 0,-0.462 -0.375,-0.844 -0.844,-0.844 z"
                id="path3594"
                inkscape:connector-curvature="0"
                style="fill:#ee5586"/></g></svg>