<?xml version="1.0" encoding="utf-8"?>
<!-- Generator: Adobe Illustrator 21.0.0, SVG Export Plug-In . SVG Version: 6.00 Build 0)  -->
<svg version="1.1" id="Layer_1" xmlns="http://www.w3.org/2000/svg" xmlns:xlink="http://www.w3.org/1999/xlink" x="0px" y="0px"
	 viewBox="0 0 370.6 246.8" style="enable-background:new 0 0 370.6 246.8;" xml:space="preserve">
<style type="text/css">
	.st0{opacity:0.15;fill:none;stroke:#FFFFFF;stroke-miterlimit:10;stroke-opacity:0.5;enable-background:new    ;}
	
		.st1{opacity:0.15;fill:none;stroke:#FFFFFF;stroke-linecap:round;stroke-linejoin:round;stroke-miterlimit:10;stroke-opacity:0.5;enable-background:new    ;}
	.st2{opacity:0.3;}
	.st3{fill:#EE5586;}
	.st4{opacity:7.000000e-02;}
	.st5{fill:#FFFFFF;}
</style>
<path class="st0" d="M31.9,217.6c-2.8,0-5-2.3-5-5c0-2.8,2.3-5,5-5s5,2.3,5,5C36.9,215.4,34.6,217.6,31.9,217.6z"/>
<line class="st1" x1="0.1" y1="244.4" x2="28.3" y2="216.2"/>
<line class="st1" x1="35.4" y1="216.2" x2="66" y2="246.8"/>
<line class="st1" x1="0.1" y1="120.8" x2="28.3" y2="92.5"/>
<line class="st1" x1="28.3" y1="208.4" x2="0.1" y2="180.1"/>
<polyline class="st1" points="35.4,92.5 93.3,150.4 35.4,208.4 "/>
<polyline class="st1" points="65.9,0.1 93.3,27.5 35.4,85.4 "/>
<line class="st1" x1="28.3" y1="85.4" x2="0.1" y2="57.1"/>
<path class="st0" d="M31.9,94c-2.8,0-5-2.3-5-5c0-2.8,2.3-5,5-5s5,2.3,5,5S34.6,94,31.9,94z"/>
<path class="st0" d="M154.9,217.6c-2.8,0-5-2.3-5-5c0-2.8,2.3-5,5-5s5,2.3,5,5C159.9,215.4,157.6,217.6,154.9,217.6z"/>
<line class="st1" x1="120.7" y1="246.8" x2="151.3" y2="216.2"/>
<line class="st1" x1="158.4" y1="216.2" x2="189" y2="246.8"/>
<line class="st1" x1="108.8" y1="135" x2="151.3" y2="92.5"/>
<line class="st1" x1="151.3" y1="208.4" x2="108.8" y2="165.8"/>
<polyline class="st1" points="158.4,92.5 216.3,150.4 158.4,208.4 "/>
<polyline class="st1" points="189,0.2 216.3,27.5 158.4,85.4 "/>
<line class="st1" x1="108.7" y1="12.1" x2="120.7" y2="0.2"/>
<line class="st1" x1="151.3" y1="85.4" x2="108.8" y2="42.9"/>
<path class="st0" d="M154.9,94c-2.8,0-5-2.3-5-5c0-2.8,2.3-5,5-5s5,2.3,5,5S157.6,94,154.9,94z"/>
<line class="st1" x1="243.6" y1="246.8" x2="274.3" y2="216.2"/>
<line class="st1" x1="231.7" y1="135" x2="274.3" y2="92.5"/>
<line class="st1" x1="274.2" y1="208.4" x2="231.7" y2="165.8"/>
<line class="st1" x1="231.7" y1="12.1" x2="243.6" y2="0.2"/>
<line class="st1" x1="274.2" y1="85.4" x2="231.7" y2="42.9"/>
<path class="st0" d="M279.1,217.6c-2.8,0-5-2.3-5-5c0-2.8,2.3-5,5-5c2.8,0,5,2.3,5,5C284.2,215.4,282,217.6,279.1,217.6z"/>
<line class="st1" x1="282.7" y1="216.2" x2="313.4" y2="246.8"/>
<polyline class="st1" points="282.7,92.5 340.6,150.4 282.7,208.4 "/>
<polyline class="st1" points="313.3,0.2 340.6,27.5 282.7,85.4 "/>
<path class="st0" d="M279.1,94c-2.8,0-5-2.3-5-5c0-2.8,2.3-5,5-5c2.8,0,5,2.3,5,5C284.2,91.7,281.9,94,279.1,94z"/>
<line class="st1" x1="367.9" y1="246.8" x2="370.6" y2="244.1"/>
<line class="st1" x1="356" y1="135" x2="370.5" y2="120.5"/>
<line class="st1" x1="370.5" y1="180.4" x2="356" y2="165.8"/>
<line class="st1" x1="355.9" y1="12.1" x2="367.8" y2="0.2"/>
<line class="st1" x1="370.5" y1="57.4" x2="356" y2="42.9"/>
<g class="st2">
	<path class="st3" d="M154.6,170.9H133c-1.2,0-2.2-1-2.2-2.2v-44.6c0-1.2,1-2.2,2.2-2.2h32.3c1.2,0,2.2,1,2.2,2.2v7.7
		c0,0.4-0.3,0.7-0.7,0.7s-0.7-0.3-0.7-0.7v-7.7c0-0.5-0.4-0.9-0.9-0.9H133c-0.5,0-0.9,0.4-0.9,0.9v44.6c0,0.5,0.4,0.9,0.9,0.9h21.5
		c0.4,0,0.7,0.3,0.7,0.7S154.9,170.9,154.6,170.9L154.6,170.9z"/>
	<path id="svg-ico" class="st3" d="M177.6,170.9h-16.9c-1.2,0-2.2-1-2.2-2.2V138c0-1.2,1-2.2,2.2-2.2h16.9c1.2,0,2.2,1,2.2,2.2v30.7
		C179.8,170,178.8,170.9,177.6,170.9L177.6,170.9z M160.7,137.1c-0.5,0-0.9,0.4-0.9,0.9v30.7c0,0.5,0.4,0.9,0.9,0.9h16.9
		c0.5,0,0.9-0.4,0.9-0.9V138c0-0.5-0.4-0.9-0.9-0.9C177.6,137.1,160.7,137.1,160.7,137.1z"/>
	<path class="st3" d="M149.2,167.5c-1.4,0-2.6-1.2-2.6-2.6c0-1.4,1.2-2.6,2.6-2.6s2.6,1.2,2.6,2.6
		C151.8,166.4,150.6,167.5,149.2,167.5z M149.2,163.6c-0.7,0-1.3,0.6-1.3,1.3s0.6,1.3,1.3,1.3s1.3-0.6,1.3-1.3
		C150.5,164.2,149.9,163.6,149.2,163.6z"/>
	<path id="svg-ico_1_" class="st3" d="M169.2,167.5c-1.4,0-2.6-1.2-2.6-2.6c0-1.4,1.2-2.6,2.6-2.6s2.6,1.2,2.6,2.6
		C171.8,166.4,170.6,167.5,169.2,167.5z M169.2,163.6c-0.7,0-1.3,0.6-1.3,1.3s0.6,1.3,1.3,1.3s1.3-0.6,1.3-1.3
		C170.5,164.2,169.9,163.6,169.2,163.6z"/>
</g>
<g class="st4">
	<path class="st5" d="M217,113.7c-13.7,0-24.8-11.1-24.8-24.8s11.1-24.8,24.8-24.8c5.9,0,11.6,2.1,16,5.9c0.3,0.2,0.3,0.7,0.1,0.9
		c-0.2,0.3-0.7,0.3-0.9,0.1c-4.2-3.6-9.6-5.6-15.2-5.6c-12.9,0-23.4,10.5-23.4,23.4s10.5,23.4,23.4,23.4s23.4-10.5,23.4-23.4
		c0-5.5-2-10.9-5.5-15.1c-0.2-0.3-0.2-0.7,0.1-0.9c0.3-0.2,0.7-0.2,0.9,0.1c3.8,4.5,5.9,10.1,5.9,16
		C241.8,102.6,230.7,113.7,217,113.7L217,113.7z"/>
	<path id="svg-ico_6_" class="st5" d="M224.7,95.7c-0.2,0-0.3-0.1-0.5-0.2c-0.3-0.3-0.3-0.7,0-1l5.6-5.6l-5.6-5.6
		c-0.3-0.3-0.3-0.7,0-1s0.7-0.3,1,0l6.1,6.1c0.3,0.3,0.3,0.7,0,1l-6.1,6.1C225,95.7,224.9,95.7,224.7,95.7z"/>
	<path id="svg-ico_5_" class="st5" d="M209.3,95.7c-0.2,0-0.3-0.1-0.5-0.2l-6.1-6.1c-0.3-0.3-0.3-0.7,0-1l6.1-6.1
		c0.3-0.3,0.7-0.3,1,0s0.3,0.7,0,1l-5.6,5.6l5.6,5.6c0.3,0.3,0.3,0.7,0,1C209.6,95.7,209.5,95.7,209.3,95.7z"/>
	<path class="st5" d="M213.7,99.7c-0.1,0-0.1,0-0.2,0c-0.3-0.1-0.5-0.5-0.4-0.9l6.7-20.2c0.1-0.3,0.5-0.5,0.9-0.4
		c0.3,0.1,0.5,0.5,0.4,0.9l-6.7,20.2C214.2,99.5,214,99.7,213.7,99.7L213.7,99.7z"/>
</g>
<g class="st4">
	<path class="st5" d="M106.4,79.8H80c-0.4,0-0.7,0.3-0.7,0.7v21.3c0,2.1,1.7,3.8,3.7,3.8h4v9.1c0,0.4,0.3,0.7,0.7,0.7
		s0.7-0.3,0.7-0.7v-9.1h9.4v9.1c0,0.4,0.3,0.7,0.7,0.7c0.4,0,0.7-0.3,0.7-0.7v-9.1h4.3c2,0,3.7-1.7,3.7-3.8V80.5
		C107.1,80.1,106.8,79.8,106.4,79.8L106.4,79.8z M105.7,101.8c0,1.3-1,2.3-2.3,2.3h-4.7c-0.1,0-0.2-0.1-0.3-0.1
		c-0.1,0-0.2,0-0.3,0.1H88c-0.1,0-0.2-0.1-0.3-0.1c-0.1,0-0.2,0-0.3,0.1H83c-1.3,0-2.3-1.1-2.3-2.3V81.2h25V101.8z"/>
	<path id="svg-ico_9_" class="st5" d="M100.3,66.8l2.1-3.2c0.2-0.3,0.1-0.8-0.2-1c-0.3-0.2-0.8-0.1-1,0.2L99,66.2
		c-3.6-1.4-7.9-1.4-11.6,0l-2.2-3.4c-0.2-0.3-0.7-0.4-1-0.2s-0.4,0.7-0.2,1l2.1,3.2c-4.2,2.1-6.8,6-6.8,10.2c0,0.4,0.3,0.7,0.7,0.7
		h26.4c0.4,0,0.7-0.3,0.7-0.7C107.1,72.8,104.6,69,100.3,66.8z M80.8,76.3c0.3-3.5,2.6-6.6,6.3-8.3l0.9-0.4c3.3-1.3,7.4-1.3,10.7,0
		l0.3,0.1c0.1,0,0.1,0.1,0.2,0.1l0.3,0.1c3.6,1.7,6,4.9,6.3,8.3L80.8,76.3L80.8,76.3z"/>
	<path id="svg-ico_8_" class="st5" d="M88,68.8c-1.6,0-2.9,1.3-2.9,2.8c0,1.6,1.3,2.9,2.9,2.9s2.8-1.3,2.8-2.9
		C90.9,70.1,89.6,68.8,88,68.8z M88,73.1c-0.8,0-1.4-0.6-1.4-1.4s0.6-1.4,1.4-1.4s1.4,0.6,1.4,1.4C89.5,72.5,88.8,73.1,88,73.1z"/>
	<path id="svg-ico_7_" class="st5" d="M98.6,68.8c-1.6,0-2.9,1.3-2.9,2.8c0,1.6,1.3,2.9,2.9,2.9s2.8-1.3,2.8-2.9
		C101.4,70.1,100.1,68.8,98.6,68.8z M98.6,73.1c-0.8,0-1.4-0.6-1.4-1.4s0.6-1.4,1.4-1.4s1.4,0.6,1.4,1.4S99.4,73.1,98.6,73.1z"/>
	<path class="st5" d="M75.2,79.8c-0.4,0-0.7,0.3-0.7,0.7v18.2c0,0.4,0.3,0.7,0.7,0.7s0.7-0.3,0.7-0.7V80.5
		C75.9,80.1,75.6,79.8,75.2,79.8L75.2,79.8z"/>
	<path class="st5" d="M111.3,79.8c-0.4,0-0.7,0.3-0.7,0.7v18.2c0,0.4,0.3,0.7,0.7,0.7c0.4,0,0.7-0.3,0.7-0.7V80.5
		C112,80.1,111.7,79.8,111.3,79.8L111.3,79.8z"/>
</g>
<g class="st4">
	<path class="st5" d="M267,149.2c-0.4,0-0.7-0.3-0.7-0.7v-0.6l-1.2-1.2h-4.7c-0.3,0-0.5-0.2-0.6-0.4l-1.4-3.4
		c-0.1-0.2-0.1-0.5,0.1-0.7l3.3-3.4v-1.6l-3.3-3.3c-0.2-0.2-0.3-0.5-0.1-0.8l1.4-3.4c0.1-0.2,0.4-0.4,0.6-0.4l4.7-0.1l1.2-1.2v-4.7
		c0-0.3,0.2-0.5,0.4-0.6l3.4-1.4c0.2-0.1,0.5-0.1,0.7,0.1l3.4,3.3h1.6l3.3-3.3c0.2-0.2,0.5-0.2,0.8-0.1l3.4,1.4
		c0.2,0.1,0.4,0.4,0.4,0.6l0.1,4.7l1.2,1.2h4.7c0.3,0,0.5,0.2,0.6,0.4l1.4,3.4c0.1,0.2,0.1,0.5-0.1,0.7l-3.3,3.4v1.4
		c0,0.4-0.3,0.7-0.7,0.7l0,0c-0.4,0-0.7-0.3-0.7-0.7v-1.7c0-0.2,0.1-0.4,0.2-0.5l3.1-3.3l-1-2.5h-4.5c-0.2,0-0.4-0.1-0.5-0.2
		l-1.6-1.6c-0.1-0.1-0.2-0.3-0.2-0.5l-0.1-4.6l-2.5-1.1l-3.2,3.2c-0.1,0.1-0.4,0.2-0.5,0.2h-2.2c-0.2,0-0.4-0.1-0.5-0.2l-3.3-3.1
		l-2.5,1.1v4.5c0,0.2-0.1,0.4-0.2,0.5l-1.6,1.6c-0.1,0.1-0.3,0.2-0.5,0.2l-4.6,0.1l-1.1,2.5l3.2,3.2c0.1,0.1,0.2,0.3,0.2,0.5v2.2
		c0,0.2-0.1,0.4-0.2,0.5l-3.1,3.3l1,2.5h4.5c0.2,0,0.4,0.1,0.5,0.2l1.6,1.6c0.1,0.1,0.2,0.3,0.2,0.5v0.9
		C267.7,148.9,267.4,149.2,267,149.2L267,149.2L267,149.2z"/>
	<path class="st5" d="M275.2,144.1c-0.8,0-1.6-0.2-2.4-0.5c-1.5-0.6-2.7-1.9-3.4-3.4c-0.6-1.6-0.6-3.3,0-4.8c1-2.3,3.3-3.9,5.8-3.9
		c0.8,0,1.6,0.2,2.4,0.5c1.5,0.6,2.7,1.9,3.4,3.4c0.6,1.6,0.6,3.3,0,4.8C280,142.6,277.7,144.1,275.2,144.1z M275.2,133
		c-2,0-3.8,1.2-4.5,3c-0.5,1.2-0.5,2.5,0,3.7s1.4,2.1,2.6,2.6c0.6,0.2,1.2,0.4,1.9,0.4c2,0,3.8-1.2,4.5-3c0.5-1.2,0.5-2.5,0-3.7
		s-1.4-2.1-2.6-2.6C276.5,133.1,275.8,133,275.2,133L275.2,133z"/>
	<path class="st5" d="M282.5,155.3c-0.4,0-0.7-0.3-0.7-0.7c0-0.2,0-0.5,0-0.8v-0.1c0.5-5.4,5.4-9.8,10.9-9.8c0.4,0,0.7,0.3,0.7,0.7
		s-0.3,0.7-0.7,0.7c-4.8,0.1-9.1,3.8-9.5,8.4l0,0c0,0.3,0,0.6,0,0.8C283.2,155,282.9,155.3,282.5,155.3L282.5,155.3z"/>
	<path id="svg-ico_10_" class="st5" d="M292.4,172h-21.7c-6.8,0-12.4-5.6-12.4-12.4c0-6.8,5.6-12.4,12.4-12.4c0.4,0,0.7,0.3,0.7,0.7
		s-0.3,0.7-0.7,0.7c-6.1,0-11,4.9-11,11s4.9,11,11,11h21.7c8.8,0,16-7.2,16-16s-7.1-15.9-15.9-16c-7.8,0.1-16.1,5.1-16.1,16
		c0,0.4-0.3,0.7-0.7,0.7c-0.4,0-0.7-0.3-0.7-0.7c0-11.3,8.7-17.3,17.4-17.4c0,0,0,0,0.1,0h0.2c0,0,0,0,0.1,0
		c9.5,0.2,17.1,7.9,17.1,17.4C309.9,164.2,302.1,172,292.4,172L292.4,172z"/>
</g>
<g class="st4">
	<title>apple</title>
	<path id="svg-ico_11_" class="st5" d="M217.5,200.1L217.5,200.1c-0.2,0-0.4,0-0.6,0c-0.3,0-0.6-0.3-0.6-0.6c-0.4-3.2,1.2-6.3,3-8.1
		c2-2.2,5.4-3.8,8.2-3.9c0.4-0.1,0.7,0.2,0.7,0.6c0.3,2.8-0.8,5.9-2.9,8.4C223.2,198.7,220.2,200.1,217.5,200.1L217.5,200.1z
		 M226.9,188.8c-2.3,0.3-5,1.7-6.6,3.4c-1.3,1.5-2.8,4-2.7,6.5c2.3,0,4.9-1.3,6.7-3.3C226,193.5,226.9,191.1,226.9,188.8
		L226.9,188.8z"/>
	<path class="st5" d="M209.2,237.8c-3.6,0-6.1-3.1-8.7-6.5c-5.1-6.8-8-18-3.4-25.5c2.4-3.9,6.8-6.4,11.5-6.5h0.1
		c2,0,3.9,0.7,5.5,1.3c1.2,0.4,2.2,0.8,3,0.8c0.7,0,1.7-0.4,2.9-0.8c2-0.7,4.6-1.7,7.2-1.4c1.9,0.1,6.9,0.7,10.1,5.1
		c0.1,0.2,0.2,0.4,0.1,0.5c0,0.2-0.2,0.4-0.3,0.4c-1.3,0.7-5.4,3.5-5.4,8.7c0.1,6.8,6.4,9.2,6.6,9.3c0.2,0.1,0.3,0.2,0.4,0.4
		c0.1,0.2,0.1,0.4,0,0.5c-0.4,1.2-1.5,4.1-3.7,7.1c-2.1,2.9-4.6,6.2-8.6,6.3h-0.2c-1.8,0-3-0.5-4.2-1s-2.4-1-4.4-1s-3.3,0.5-4.6,1
		c-1.2,0.5-2.3,0.9-4,1L209.2,237.8L209.2,237.8z M208.8,200.7c-4.3,0.1-8.3,2.3-10.4,5.8c-4.3,6.9-1.5,17.5,3.3,23.9
		c2.3,3.1,4.7,5.9,7.6,5.9h0.2c1.4,0,2.5-0.5,3.6-0.9c1.3-0.5,2.8-1.1,5.1-1.1c2.2,0,3.6,0.6,4.9,1.1c1.2,0.5,2.2,0.9,3.7,0.9h0.2
		c3.3,0,5.6-3.1,7.5-5.7c1.8-2.5,2.9-4.9,3.3-6.2c-1.8-0.8-6.8-3.8-6.9-10.3c-0.1-5.2,3.5-8.3,5.4-9.5c-2.9-3.4-7-3.9-8.6-4
		c-0.3,0-0.5,0-0.8,0c-2.1,0-4.1,0.7-5.9,1.4c-1.3,0.5-2.5,0.9-3.4,0.9c-1,0-2.2-0.4-3.5-0.9C212.3,201.4,210.5,200.7,208.8,200.7
		L208.8,200.7z"/>
</g>
<g class="st4">
	<path id="svg-ico_17_" class="st5" d="M24.3,146.1h-9.8c-0.4,0-0.7,0.3-0.7,0.7v16.8c0,0.4,0.3,0.7,0.7,0.7h9.8
		c0.4,0,0.7-0.3,0.7-0.7v-16.8C25,146.4,24.6,146.1,24.3,146.1z M23.6,162.9h-8.4v-15.4h8.4V162.9L23.6,162.9z"/>
	<path class="st5" d="M57.8,140.3C57.8,140.2,57.8,140.2,57.8,140.3v-10.1c0-0.4-0.3-0.7-0.7-0.7H6.6c-0.4,0-0.7,0.3-0.7,0.7v40.4
		c0,0.4,0.3,0.7,0.7,0.7h50.5c0.4,0,0.7-0.3,0.7-0.7V140.3L57.8,140.3L57.8,140.3z M7.3,130.8h49.1v8.7H7.3V130.8z M7.3,169.8v-28.9
		h49.1v28.9H7.3L7.3,169.8z"/>
	<path class="st5" d="M14,132.2c-1.5,0-2.8,1.3-2.8,2.8s1.3,2.8,2.8,2.8s2.8-1.3,2.8-2.8C16.8,133.4,15.5,132.2,14,132.2z M14,136.4
		c-0.8,0-1.4-0.6-1.4-1.4s0.6-1.4,1.4-1.4c0.8,0,1.4,0.6,1.4,1.4C15.4,135.8,14.8,136.4,14,136.4z"/>
	<path class="st5" d="M21.9,132.2c-1.5,0-2.8,1.3-2.8,2.8s1.3,2.8,2.8,2.8s2.8-1.3,2.8-2.8C24.7,133.4,23.5,132.2,21.9,132.2z
		 M21.9,136.4c-0.8,0-1.4-0.6-1.4-1.4s0.6-1.4,1.4-1.4s1.4,0.6,1.4,1.4S22.7,136.4,21.9,136.4z"/>
	<path class="st5" d="M29.8,132.2c-1.5,0-2.8,1.3-2.8,2.8s1.3,2.8,2.8,2.8s2.8-1.2,2.8-2.8S31.4,132.2,29.8,132.2z M29.8,136.4
		c-0.8,0-1.4-0.6-1.4-1.4s0.6-1.4,1.4-1.4s1.4,0.6,1.4,1.4S30.6,136.4,29.8,136.4z"/>
	<path id="svg-ico_16_" class="st5" d="M48.6,151.8H31.8c-0.4,0-0.7,0.3-0.7,0.7s0.3,0.7,0.7,0.7h16.8c0.4,0,0.7-0.3,0.7-0.7
		S49,151.8,48.6,151.8z"/>
	<path id="svg-ico_15_" class="st5" d="M48.6,157.2H31.8c-0.4,0-0.7,0.3-0.7,0.7s0.3,0.7,0.7,0.7h16.8c0.4,0,0.7-0.3,0.7-0.7
		C49.3,157.6,49,157.2,48.6,157.2z"/>
	<path id="svg-ico_14_" class="st5" d="M44.5,162.7H31.9c-0.4,0-0.7,0.3-0.7,0.7s0.3,0.7,0.7,0.7h12.6c0.4,0,0.7-0.3,0.7-0.7
		S44.9,162.7,44.5,162.7z"/>
</g>
<g class="st4">
	<path class="st5" d="M95.2,237.8c-0.1,0-0.2,0-0.3-0.1c-0.9-0.4-21.1-9.8-21.1-21.9v-21.2l0,0l0,0c0-0.4,0.3-0.7,0.7-0.7
		c0.1,0,14.1,0.1,20.2-6.2l0,0l0,0c0,0,0.1-0.1,0.2-0.1l0,0l0,0l0,0l0,0l0,0c0.1,0,0.2-0.1,0.3-0.1l0,0l0,0c0.1,0,0.2,0,0.3,0.1l0,0
		l0,0c0.1,0,0.1,0.1,0.2,0.1l0,0l0,0l0,0c5.8,6,19.8,6.2,21.2,6.2c0.4-0.1,0.8,0.3,0.8,0.7v21.3c0,12.1-21.3,21.5-22.2,21.9
		C95.3,237.8,95.2,237.8,95.2,237.8L95.2,237.8z M75.1,195.2v20.6c0,10.5,17.6,19.4,20,20.6c2.5-1.2,21.1-10.1,21.1-20.6v-20.6
		c-3,0-15.1-0.6-21.1-6.1C89.2,194.5,78,195.1,75.1,195.2L75.1,195.2z"/>
	<path id="svg-ico_4_" class="st5" d="M95.1,230.7c-0.1,0-0.2,0-0.3-0.1c-0.6-0.3-15.5-7.1-15.5-16v-13.8c0-0.4,0.3-0.7,0.7-0.7
		s0.7,0.3,0.7,0.7v13.8c0,7.4,12.5,13.6,14.5,14.6c2.1-0.9,15.5-7.2,15.5-14.6v-13.8c0-0.4,0.3-0.7,0.7-0.7c0.4,0,0.7,0.3,0.7,0.7
		v13.8c0,8.9-15.9,15.7-16.6,16C95.3,230.7,95.2,230.7,95.1,230.7L95.1,230.7z"/>
	<path id="svg-ico_3_" class="st5" d="M80.1,201C80,201,80,201,80.1,201c-0.5,0-0.8-0.3-0.8-0.7s0.3-0.7,0.7-0.7
		c0.1,0,9.9,0.1,14.8-4.9c0.3-0.3,0.7-0.3,1,0s0.3,0.7,0,1C90.7,200.8,81.3,201,80.1,201L80.1,201z"/>
	<path id="svg-ico_2_" class="st5" d="M111.1,201c-1.3,0-11.4-0.2-16.4-5.3c-0.3-0.3-0.3-0.7,0-1s0.7-0.3,1,0
		c4.9,5,15.4,4.9,15.5,4.9l0,0c0.4,0,0.7,0.3,0.7,0.7S111.6,201,111.1,201C111.2,201,111.2,201,111.1,201L111.1,201z"/>
	<path class="st5" d="M85,205.8c-0.2,0-0.3-0.1-0.5-0.2c-0.3-0.3-0.3-0.7,0-1l1.4-1.4c0.3-0.3,0.7-0.3,1,0s0.3,0.7,0,1l-1.4,1.4
		C85.3,205.7,85.2,205.8,85,205.8z"/>
	<path class="st5" d="M84.3,212.2c-0.2,0-0.3-0.1-0.5-0.2c-0.3-0.3-0.3-0.7,0-1l7.8-7.8c0.3-0.3,0.7-0.3,1,0s0.3,0.7,0,1l-7.8,7.8
		C84.6,212.1,84.4,212.2,84.3,212.2z"/>
</g>
<g class="st2">
	<path class="st3" d="M320.6,194.6c0.7,0.8,1.8,1.2,2.8,1.2l0,0c0.8,0,1.6-0.3,2.3-0.7l9.9,9.7c0.1,0.1,0.3,0.2,0.5,0.2
		s0.4-0.1,0.5-0.2c0.3-0.3,0.3-0.7,0-1l-9.9-9.7c1.1-1.6,0.9-3.7-0.4-5.1l-1.2-1.2c-0.3-0.3-0.7-0.3-1,0l-4.6,4.7
		c-0.3,0.3-0.3,0.7,0,1L320.6,194.6L320.6,194.6z M324.6,189.2l0.7,0.7c1,1,1,2.7,0,3.7c-0.5,0.5-1.1,0.8-1.8,0.8
		c-0.7,0-1.3-0.3-1.8-0.8l-0.7-0.7L324.6,189.2L324.6,189.2z"/>
	<path class="st3" d="M351.3,220.5l9,9.1c0.1,0.1,0.3,0.2,0.5,0.2s0.4-0.1,0.5-0.2c0.3-0.3,0.3-0.7,0-1l-9-9.1c-0.3-0.3-0.7-0.3-1,0
		C351.1,219.8,351.1,220.2,351.3,220.5L351.3,220.5z"/>
	<path class="st3" d="M365.9,223.9l-10-10.1c-0.3-0.3-0.7-0.3-1,0s-0.3,0.7,0,1l10,10.1c2.3,2.3,2.3,6.1,0,8.4
		c-1.1,1.1-2.6,1.7-4.2,1.7l0,0c-1.6,0-3-0.6-4.1-1.7l-10-10.1c-0.3-0.3-0.7-0.3-1,0s-0.3,0.7,0,1l10,10.1c1.4,1.4,3.2,2.1,5.1,2.1
		l0,0c1.9,0,3.8-0.8,5.1-2.1C368.8,231.4,368.8,226.7,365.9,223.9z"/>
	<path id="svg-ico_20_" class="st3" d="M355.5,209.8L355.5,209.8c2.8,0,5.5-1.1,7.4-3.1l4.2-3.8l0,0l0.1-0.1l0,0l0,0
		c0.2-0.3,0.2-0.6-0.1-0.9l0,0l-3.6-3.9c-0.1-0.1-0.3-0.2-0.5-0.2s-0.4,0.1-0.5,0.2l-2.3,2.3c-1.6,1.6-4.4,1.6-6,0
		c-1.7-1.7-1.7-4.4,0-6.1l2.3-2.3c0.3-0.3,0.3-0.7,0-1l-3.5-3.6l0,0l0,0l0,0l0,0l0,0l0,0l0,0l0,0l0,0l0,0c0,0,0,0-0.1,0l0,0
		c0,0,0,0-0.1,0l0,0c0,0,0,0-0.1,0l0,0c0,0,0,0-0.1,0l0,0c0,0,0,0-0.1,0l0,0l0,0l0,0l0,0l0,0l0,0l0,0l0,0l0,0l0,0l0,0l0,0l0,0l0,0
		l0,0l0,0l0,0l-4.1,4.2c-4.1,4.1-4.1,10.9,0,15C350.1,208.7,352.7,209.8,355.5,209.8L355.5,209.8z M349,192.6l3.7-3.7l2.5,2.6
		l-1.8,1.9c-2.2,2.2-2.2,5.8,0,8c1.1,1.1,2.5,1.7,4,1.7s2.9-0.6,4-1.7l1.8-1.8l2.6,2.8l-3.7,3.4c-1.7,1.7-4,2.7-6.5,2.7l0,0
		c-2.4,0-4.7-1-6.5-2.7C345.5,202.1,345.5,196.2,349,192.6z"/>
	<path id="svg-ico_19_" class="st3" d="M323.5,229.1c-0.4,0-0.7,0.3-0.7,0.7s0.3,0.7,0.7,0.7h3.3c0.4,0,0.7-0.3,0.7-0.7
		s-0.3-0.7-0.7-0.7H323.5z"/>
	<path class="st3" d="M345.7,214.6c0.1,0.1,0.3,0.2,0.5,0.2s0.4-0.1,0.5-0.2c0.3-0.3,0.3-0.7,0-1l-6.5-6.5c-0.3-0.3-0.7-0.3-1,0
		s-0.3,0.7,0,1L345.7,214.6z"/>
	<path id="svg-ico_18_" class="st3" d="M342.5,216.8c-0.3-0.2-0.7-0.2-1,0.2l-12.3,17.1c-1.1,1.1-2.6,1.7-4.1,1.7l0,0
		c-1.6,0-3-0.6-4.2-1.7c-2.3-2.3-2.3-6.1-0.1-8.3l17-12.5c0.3-0.2,0.4-0.7,0.2-1c-0.2-0.3-0.7-0.4-1-0.2l-17,12.6
		c-2.8,2.9-2.8,7.5,0,10.3c1.4,1.4,3.2,2.1,5.1,2.1l0,0c1.9,0,3.8-0.8,5.2-2.2l12.3-17.1C342.9,217.5,342.8,217.1,342.5,216.8
		L342.5,216.8z"/>
</g>
<g class="st2">
	<title>database</title>
	<path id="svg-ico_22_" class="st3" d="M165.6,24.8c1.3,0,2.3-1,2.3-2.3s-1-2.3-2.3-2.3s-2.3,1-2.3,2.3
		C163.4,23.8,164.4,24.8,165.6,24.8z M165.6,21.6c0.5,0,0.9,0.4,0.9,0.9s-0.4,0.9-0.9,0.9s-0.9-0.4-0.9-0.9
		C164.7,22,165.1,21.6,165.6,21.6z"/>
	<path id="svg-ico_21_" class="st3" d="M165.6,33.2c-1.3,0-2.3,1-2.3,2.3s1,2.3,2.3,2.3s2.3-1,2.3-2.3
		C167.9,34.2,166.9,33.2,165.6,33.2z M165.6,36.4c-0.5,0-0.9-0.4-0.9-0.9s0.4-0.9,0.9-0.9s0.9,0.4,0.9,0.9S166.2,36.4,165.6,36.4z"
		/>
	<path class="st3" d="M175.1,36.1V23.4l0,0l0,0V10.6c0-4.6-10.2-7-19.8-7s-19.8,2.5-19.8,7l0,0v25.6c0,0,0,0,0,0.1
		c0.1,4.5,10.3,6.9,19.8,6.9S175,40.7,175.1,36.1C175.1,36.2,175.1,36.2,175.1,36.1L175.1,36.1C175.1,36.2,175.1,36.2,175.1,36.1
		L175.1,36.1z M136.7,13.2c3.1,2.9,11,4.4,18.5,4.4s15.5-1.5,18.5-4.4v10.1c0,2.7-7.6,5.7-18.5,5.7s-18.5-3-18.5-5.7l0,0V13.2z
		 M155.2,4.9c10.9,0,18.5,3,18.5,5.7l0,0l0,0c0,2.7-7.6,5.7-18.5,5.7s-18.5-3-18.5-5.7S144.3,4.9,155.2,4.9z M155.2,41.8
		c-10.9,0-18.5-3-18.5-5.7l0,0V26c3.1,2.9,11,4.4,18.5,4.4s15.5-1.5,18.5-4.4v10.1C173.7,38.9,166.1,41.8,155.2,41.8z"/>
	<path class="st3" d="M167.8,50.4h-10.5c-0.2-0.9-1-1.7-1.9-1.9v-3.4c0-0.4-0.3-0.7-0.7-0.7s-0.7,0.3-0.7,0.7v3.4
		c-0.9,0.2-1.7,1-1.9,1.9h-10.5c-0.4,0-0.7,0.3-0.7,0.7s0.3,0.7,0.7,0.7h10.5c0.3,1.1,1.3,2,2.6,2c1.2,0,2.3-0.8,2.6-2h10.5
		c0.4,0,0.7-0.3,0.7-0.7C168.4,50.7,168.1,50.4,167.8,50.4L167.8,50.4z M154.7,52.4c-0.7,0-1.3-0.6-1.3-1.3s0.6-1.3,1.3-1.3
		s1.3,0.6,1.3,1.3C156.1,51.8,155.5,52.4,154.7,52.4z"/>
</g>
<g class="st2">
	<path id="svg-ico_25_" class="st3" d="M347.7,100c-1.4,0-2.5,1.1-2.5,2.5s1.1,2.5,2.5,2.5s2.5-1.1,2.5-2.5S349.1,100,347.7,100z
		 M347.7,103.8c-0.7,0-1.3-0.6-1.3-1.3c0-0.7,0.6-1.3,1.3-1.3c0.7,0,1.3,0.6,1.3,1.3C348.9,103.2,348.4,103.8,347.7,103.8z"/>
	<path class="st3" d="M355.9,100c-1.4,0-2.5,1.1-2.5,2.5s1.1,2.5,2.5,2.5s2.5-1.1,2.5-2.5S357.3,100,355.9,100z M355.9,103.8
		c-0.7,0-1.3-0.6-1.3-1.3c0-0.7,0.6-1.3,1.3-1.3s1.3,0.6,1.3,1.3C357.2,103.2,356.6,103.8,355.9,103.8z"/>
	<path class="st3" d="M350.2,87.1c0-1.4-1.1-2.5-2.5-2.5s-2.5,1.1-2.5,2.5s1.1,2.5,2.5,2.5S350.2,88.5,350.2,87.1z M346.4,87.1
		c0-0.7,0.6-1.3,1.3-1.3c0.7,0,1.3,0.6,1.3,1.3c0,0.7-0.6,1.3-1.3,1.3S346.4,87.8,346.4,87.1z"/>
	<path id="svg-ico_24_" class="st3" d="M358.4,87.1c0-1.4-1.1-2.5-2.5-2.5s-2.5,1.1-2.5,2.5s1.1,2.5,2.5,2.5S358.4,88.5,358.4,87.1z
		 M354.6,87.1c0-0.7,0.6-1.3,1.3-1.3s1.3,0.6,1.3,1.3c0,0.7-0.6,1.3-1.3,1.3S354.6,87.8,354.6,87.1z"/>
	<path class="st3" d="M347.7,74.2c1.4,0,2.5-1.1,2.5-2.5s-1.1-2.5-2.5-2.5s-2.5,1.1-2.5,2.5S346.3,74.2,347.7,74.2z M347.7,70.4
		c0.7,0,1.3,0.6,1.3,1.3c0,0.7-0.6,1.3-1.3,1.3c-0.7,0-1.3-0.6-1.3-1.3C346.4,71,347,70.4,347.7,70.4z"/>
	<path id="svg-ico_23_" class="st3" d="M355.9,74.2c1.4,0,2.5-1.1,2.5-2.5s-1.1-2.5-2.5-2.5s-2.5,1.1-2.5,2.5S354.5,74.2,355.9,74.2
		z M355.9,70.4c0.7,0,1.3,0.6,1.3,1.3c0,0.7-0.6,1.3-1.3,1.3c-0.7,0-1.3-0.6-1.3-1.3S355.2,70.4,355.9,70.4z"/>
	<path class="st3" d="M361.7,63.8h-37.5c-1.6,0-2.8,1.2-2.8,2.6v41.4c0,1.4,1.3,2.6,2.8,2.6h3.5v3.2c0,0.4,0.3,0.6,0.6,0.6h6.3
		c0.4,0,0.6-0.3,0.6-0.6v-3.2h15.4v3.2c0,0.4,0.3,0.6,0.6,0.6h6.3c0.4,0,0.6-0.3,0.6-0.6v-3.2h3.5c1.6,0,2.8-1.2,2.8-2.6V66.4
		C364.6,64.9,363.3,63.8,361.7,63.8L361.7,63.8z M334,113h-5.1v-2.5h5.1V113z M357,113h-5.1v-2.5h5.1V113z M363.3,107.8
		c0,0.7-0.7,1.4-1.6,1.4h-37.5c-0.9,0-1.6-0.6-1.6-1.4V66.4c0-0.7,0.7-1.4,1.6-1.4h37.5c0.9,0,1.6,0.6,1.6,1.4V107.8z"/>
	<path class="st3" d="M358.8,79.1h-31.6c-0.4,0-0.6,0.3-0.6,0.6c0,0.4,0.3,0.6,0.6,0.6h31.6c0.4,0,0.6-0.3,0.6-0.6
		S359.1,79.1,358.8,79.1z"/>
	<path class="st3" d="M358.8,93.8h-31.6c-0.4,0-0.6,0.3-0.6,0.6c0,0.4,0.3,0.6,0.6,0.6h31.6c0.4,0,0.6-0.3,0.6-0.6
		C359.4,94.1,359.1,93.8,358.8,93.8z"/>
</g>
<g class="st4">
	<path class="st5" d="M279.1,44.6c-3.5,0-5.4-0.4-6.4-1.4c-0.9-0.9-0.9-2-0.9-3.2c0-1.3,0-2.7-1-4.3c-0.9-1.4-2.1-3-3.3-4.6
		c-3-4.1-6.2-8.2-6.2-11.9c0-9.9,7.9-17.9,17.7-17.9c9.7,0,17.7,8,17.7,17.9c0,3.6-3.1,7.8-6.2,11.9c-1.2,1.6-2.4,3.2-3.3,4.6
		c-1,1.6-1,3-1,4.3c0,1.2,0,2.4-0.9,3.2C284.5,44.2,282.6,44.6,279.1,44.6L279.1,44.6z M279.1,2.7c-9,0-16.3,7.4-16.3,16.5
		c0,3.2,3,7.2,5.9,11c1.2,1.7,2.4,3.2,3.3,4.7c1.2,1.9,1.2,3.6,1.2,5c0,1.1,0,1.8,0.5,2.3c0.7,0.7,2.4,1,5.4,1s4.7-0.3,5.4-1
		c0.5-0.5,0.5-1.1,0.5-2.3c0-1.4,0-3.1,1.2-5c0.9-1.5,2.1-3.1,3.3-4.7c2.9-3.9,5.9-7.9,5.9-11C295.4,10.1,288.1,2.7,279.1,2.7
		L279.1,2.7z"/>
	<path class="st5" d="M283.6,49.1h-9.1c-0.4,0-0.7-0.3-0.7-0.7s0.3-0.7,0.7-0.7h9.1c0.4,0,0.7,0.3,0.7,0.7
		C284.3,48.8,284,49.1,283.6,49.1z"/>
	<path class="st5" d="M283.6,52.5h-9.1c-0.4,0-0.7-0.3-0.7-0.7s0.3-0.7,0.7-0.7h9.1c0.4,0,0.7,0.3,0.7,0.7
		C284.3,52.2,284,52.5,283.6,52.5z"/>
	<path id="svg-ico_13_" class="st5" d="M283.6,21.9c-0.2,0-0.4-0.1-0.5-0.2l-6.3-6.3l-6.3,6.3c-0.3,0.3-0.7,0.3-1,0s-0.3-0.7,0-1
		l6.8-6.8c0.1-0.1,0.3-0.2,0.5-0.2l0,0c0.2,0,0.4,0.1,0.5,0.2l6.8,6.8c0.3,0.3,0.3,0.7,0,1C284,21.9,283.8,21.9,283.6,21.9z"/>
	<path id="svg-ico_12_" class="st5" d="M288.7,21.9c-0.2,0-0.4-0.1-0.5-0.2l-6.3-6.3l-6.3,6.3c-0.3,0.3-0.7,0.3-1,0s-0.3-0.7,0-1
		l6.8-6.8c0.3-0.3,0.7-0.3,1,0l6.8,6.8c0.3,0.3,0.3,0.7,0,1C289.1,21.9,288.9,21.9,288.7,21.9z"/>
</g>
<g class="st4">
	<path id="svg-ico_28_" class="st5" d="M56.4,31.8c-3.6,0-6.4-5.9-9.2-11.7c-1-2-1.9-3.9-2.7-5.3c-0.2-0.3-0.1-0.7,0.2-0.9
		s0.7-0.1,0.9,0.2c0.9,1.5,1.8,3.4,2.8,5.4c2.4,5.1,5.5,11.4,8.3,10.9c0.4-0.1,0.7,0.2,0.8,0.6s-0.2,0.7-0.6,0.8
		C56.8,31.8,56.6,31.8,56.4,31.8z"/>
	<path id="svg-ico_27_" class="st5" d="M27,39.4c-0.2,0-0.3,0-0.4-0.2c-0.3-0.2-0.3-0.7-0.1-1c2.3-2.8,4.5-8.2,6.6-13.4
		c1.6-4,3.1-7.8,4.7-10.3c0.2-0.3,0.6-0.4,0.9-0.2c0.3,0.2,0.4,0.6,0.2,0.9c-1.5,2.4-3,6.1-4.6,10.1C32.2,30.6,30,36.1,27.5,39
		C27.4,39.3,27.2,39.4,27,39.4L27,39.4z"/>
	<path class="st5" d="M8.5,41.5c-0.1,0-0.2,0-0.3-0.1c-0.3-0.2-0.5-0.6-0.3-0.9c1.8-3.2,3.4-4.9,5.1-5.2c1.8-0.3,3.3,0.9,4.9,2.2
		c0.6,0.5,1.1,0.9,1.7,1.4c0.3,0.2,0.4,0.7,0.2,1c-0.2,0.3-0.7,0.4-1,0.2c-0.7-0.5-1.3-0.9-1.8-1.4c-1.4-1.1-2.6-2.1-3.7-1.9
		c-1.2,0.2-2.6,1.7-4.2,4.5C8.9,41.4,8.7,41.5,8.5,41.5L8.5,41.5z"/>
	<path class="st5" d="M56.8,50H8.6c-0.4,0-0.7-0.3-0.7-0.7s0.3-0.7,0.7-0.7h48.3c0.4,0,0.7,0.3,0.7,0.7S57.2,50,56.8,50z"/>
	<path id="svg-ico_26_" class="st5" d="M41.7,16.9c-2.7,0-4.8-2.2-4.8-4.8s2.2-4.8,4.8-4.8c2.7,0,4.8,2.2,4.8,4.8
		S44.4,16.9,41.7,16.9z M41.7,8.6c-1.9,0-3.5,1.5-3.5,3.5s1.5,3.5,3.5,3.5c1.9,0,3.5-1.5,3.5-3.5S43.6,8.6,41.7,8.6z"/>
	<path class="st5" d="M23.4,45.6c-2.7,0-4.8-2.2-4.8-4.8c0-2.7,2.2-4.8,4.8-4.8s4.8,2.2,4.8,4.8C28.3,43.4,26.1,45.6,23.4,45.6z
		 M23.4,37.3c-1.9,0-3.5,1.5-3.5,3.5s1.5,3.5,3.5,3.5c1.9,0,3.5-1.5,3.5-3.5S25.3,37.3,23.4,37.3z"/>
</g>
</svg>
