<?xml version="1.0" encoding="UTF-8" standalone="no"?>
<!-- Generator: Adobe Illustrator 22.0.0, SVG Export Plug-In . SVG Version: 6.00 Build 0)  -->

<svg
   xmlns:dc="http://purl.org/dc/elements/1.1/"
   xmlns:cc="http://creativecommons.org/ns#"
   xmlns:rdf="http://www.w3.org/1999/02/22-rdf-syntax-ns#"
   xmlns:svg="http://www.w3.org/2000/svg"
   xmlns="http://www.w3.org/2000/svg"
   xmlns:sodipodi="http://sodipodi.sourceforge.net/DTD/sodipodi-0.dtd"
   xmlns:inkscape="http://www.inkscape.org/namespaces/inkscape"
   version="1.1"
   id="Layer_1"
   x="0px"
   y="0px"
   viewBox="0 0 1100.6 600.5"
   style="enable-background:new 0 0 1100.6 600.5;"
   xml:space="preserve"
   inkscape:version="0.91 r13725"
   sodipodi:docname="voice2.svg"><metadata
   id="metadata4364"><rdf:RDF><cc:Work
       rdf:about=""><dc:format>image/svg+xml</dc:format><dc:type
         rdf:resource="http://purl.org/dc/dcmitype/StillImage" /><dc:title /></cc:Work></rdf:RDF></metadata><defs
   id="defs4362" /><sodipodi:namedview
   pagecolor="#ffffff"
   bordercolor="#666666"
   borderopacity="1"
   objecttolerance="10"
   gridtolerance="10"
   guidetolerance="10"
   inkscape:pageopacity="0"
   inkscape:pageshadow="2"
   inkscape:window-width="1920"
   inkscape:window-height="1017"
   id="namedview4360"
   showgrid="false"
   inkscape:zoom="1.3220062"
   inkscape:cx="434.94501"
   inkscape:cy="179.22182"
   inkscape:window-x="-8"
   inkscape:window-y="-8"
   inkscape:window-maximized="1"
   inkscape:current-layer="Layer_1" />
<style
   type="text/css"
   id="style4137">
	.voice0{fill:none;stroke:#808080;stroke-linecap:round;stroke-linejoin:round;stroke-miterlimit:10;}
	.voice1{fill:none;stroke:#EE5586;stroke-width:2;stroke-linecap:round;stroke-linejoin:round;stroke-miterlimit:10;}
	.voice2{fill-rule:evenodd;clip-rule:evenodd;fill:none;stroke:#808080;stroke-width:2;stroke-linecap:round;stroke-linejoin:round;stroke-miterlimit:10;}
	.voice3{fill-rule:evenodd;clip-rule:evenodd;fill:none;stroke:#EE5586;stroke-width:2;stroke-linecap:round;stroke-linejoin:round;stroke-miterlimit:10;}
	.voice4{fill:none;stroke:#808080;stroke-width:2;stroke-linecap:round;stroke-linejoin:round;stroke-miterlimit:10;}
	.voice5{fill:none;stroke:#EE5586;stroke-width:3;stroke-linecap:round;stroke-linejoin:round;stroke-miterlimit:10;}
	.voice6{fill:none;stroke:#EE5586;stroke-linecap:round;stroke-linejoin:round;stroke-miterlimit:10;}
	.voice7{fill:none;stroke:#808080;stroke-width:2;stroke-linecap:round;stroke-linejoin:round;stroke-miterlimit:10;stroke-dasharray:14;}
	.voice8{fill:none;stroke:#FFFFFF;stroke-linecap:round;stroke-linejoin:round;stroke-miterlimit:10;}
	.voice9{fill:none;stroke:#EE5586;stroke-width:4;stroke-linecap:round;stroke-linejoin:round;stroke-miterlimit:10;}
	.voice10{fill:none;stroke:#808080;stroke-width:3;stroke-linecap:round;stroke-linejoin:round;stroke-miterlimit:10;}
	.voice11{fill:#FFFFFF;stroke:#EE5586;stroke-width:3;stroke-linecap:round;stroke-linejoin:round;stroke-miterlimit:10;}
</style>
<path
   class="voice0"
   d="M854.9,278.2c-2.3,0-4.1-1.8-4.1-4.1s1.8-4.1,4.1-4.1c2.3,0,4.1,1.8,4.1,4.1S857.3,278.2,854.9,278.2z"
   id="path4139" />
<path
   class="voice0"
   d="M800.6,219.4c-2.3,0-4.1-1.8-4.1-4.1c0-2.3,1.8-4.1,4.1-4.1c2.3,0,4.1,1.8,4.1,4.1  C804.7,217.7,802.8,219.4,800.6,219.4z"
   id="path4141" />
<path
   id="svg-concept"
   class="voice1"
   d="M943.6,81.7c-2.3,0-4.1-1.8-4.1-4.1c0-2.3,1.8-4.1,4.1-4.1c2.3,0,4.1,1.8,4.1,4.1  C947.7,79.8,945.9,81.7,943.6,81.7z" />
<path
   id="path4144"
   class="voice1"
   d="M895.6,33.1c0,3-2.5,5.5-5.5,5.5s-5.5-2.5-5.5-5.5s2.5-5.5,5.5-5.5S895.6,30.1,895.6,33.1  z" />
<path
   id="path4146"
   class="voice1"
   d="M864.5,123c0,3-2.5,5.5-5.5,5.5c-3,0-5.5-2.5-5.5-5.5s2.5-5.5,5.5-5.5  C862.1,117.6,864.5,119.9,864.5,123z" />
<path
   id="path4148"
   class="voice1"
   d="M802,370.4c0,3-2.5,5.5-5.5,5.5s-5.5-2.5-5.5-5.5c0-3,2.5-5.5,5.5-5.5  C799.5,365.1,802,367.4,802,370.4z" />
<path
   class="voice2"
   d="M68.2,239.7H40.6c-1.6,0-3,1.3-3,3V294c0,1.6,1.3,3,3,3h27.7c1.6,0,3-1.3,3-3v-51.4  C71.2,241,69.9,239.7,68.2,239.7z"
   id="path4150" />
<rect
   x="42.2"
   y="245.6"
   id="rect4152"
   class="voice3"
   width="24.3"
   height="41.5" />
<line
   class="voice0"
   x1="50.2"
   y1="251.7"
   x2="48.5"
   y2="253.4"
   id="line4154" />
<line
   class="voice0"
   x1="57.4"
   y1="251.7"
   x2="47.6"
   y2="261.5"
   id="line4156" />
<ellipse
   transform="matrix(8.248048e-02 -0.9966 0.9966 8.248048e-02 36.6339 240.9787)"
   class="voice4"
   cx="149.2"
   cy="100.6"
   rx="35.4"
   ry="35.4"
   id="ellipse4158" />
<circle
   id="circle4160"
   class="voice5"
   cx="54.4"
   cy="267.4"
   r="49.2" />
<ellipse
   transform="matrix(0.2112 -0.9774 0.9774 0.2112 -309.3458 490.3493)"
   class="voice4"
   cx="149.1"
   cy="436.8"
   rx="35.4"
   ry="35.4"
   id="ellipse4162" />

<path
   class="voice4"
   d="M936.6,362.8c15.9,9.9,34.5,15.6,54.6,15.6c57.2,0,103.7-46.7,103.7-104.3s-46.3-104.3-103.7-104.3  c-15.6,0-30.4,3.5-43.6,9.6"
   id="path4166" />

<rect
   x="132.7"
   y="87"
   class="voice4"
   width="33"
   height="22"
   id="rect4170" />
<line
   class="voice4"
   x1="129.9"
   y1="114.3"
   x2="168.4"
   y2="114.3"
   id="line4172" />
<path
   class="voice4"
   d="M149.4,401.5c0,0-1.9,2.7-4.3,3.9c-2.3,1.3,0,3.1,0,3.1l-3.6,3.6l-4.8,2.7l-5.6-0.6l0.6-3.6l3.1-1.9l0.5-2.7  l-0.5-1.6"
   id="path4174" />
<path
   class="voice4"
   d="M125.2,410.8v9.2l-1,0.6l-1,9.7c0,0-3.7,1.5-4.2,1.5l-5.1,2.1"
   id="path4176" />
<path
   class="voice4"
   d="M114.6,444.6l5-2.1l3.7,2.9l-0.6,1l3.7,4.2h1l3.7,2.1l1.6,0.8c0,0-0.2,1,0,1.5c0.2,0.5-1.3,2.5-1.3,2.5v2.7  l2.3,2.7l1,1l4.2,2.1l4.3,5.7"
   id="path4178" />
<path
   class="voice4"
   d="M167.8,406.8c-0.5-0.2-4.6,5.5-4.6,5.5l1.3,3.1l-0.8,0.6l-2.9,1.5l-3.6,1.9c0,0-1.3,2.9-2.3,3.7  c-1,0.8-3.4,2.7-3.4,2.7l-2.7,6.5l-3.6,7.1l0.2,3.7l3.1,3.7l3.7-2.1l2.7,1.3l0.2,4.4l2.1,2.1c0,0-0.5,1.3-0.6,1.6l-1.3,2.7l-1.3,0.6  l0.8,3.7l3.4,3.4c0,0,2.9-1.9,3.1-2.3c0.2-0.2,2.3-5,2.3-5l4.8-4.8l2.7-3.7l2.1-4.8l-1-2.9l-1.5-1.6l1-1.6c0,0,2.5-2.3,2.7-1.6  c0.2,0.6,1.3,4.8,1.3,4.8l3.6-1l0.2-1l4.8-1.1"
   id="path4180" />



<line
   id="line4188"
   class="voice5"
   x1="103.6"
   y1="267.4"
   x2="344.1"
   y2="267.4" />
<line
   class="voice7"
   x1="184.6"
   y1="141.1"
   x2="310.2"
   y2="248.5"
   id="line4190" />
<line
   class="voice7"
   x1="304.1"
   y1="287.8"
   x2="184.6"
   y2="395.7"
   id="line4192" />
<path
   class="voice8"
   d="M913.2,278.1c-2.1,0-3.7-1.6-3.7-3.7s1.6-3.7,3.7-3.7c2.1,0,3.7,1.6,3.7,3.7C917,276.4,915.3,278.1,913.2,278.1  z"
   id="path4194" />
<path
   class="voice0"
   d="M947.3,217.4c-2.1,0-3.7-1.6-3.7-3.7c0-2.1,1.6-3.7,3.7-3.7c2.1,0,3.7,1.6,3.7,3.7  C951.1,215.8,949.3,217.4,947.3,217.4z"
   id="path4196" />
<path
   class="voice4"
   d="M909.5,151.4c-2.1,0-3.7-1.6-3.7-3.7c0-2.1,1.6-3.7,3.7-3.7c2.1,0,3.7,1.6,3.7,3.7  C913.1,149.7,911.5,151.4,909.5,151.4z"
   id="path4198" />
<path
   id="path4200"
   class="voice1"
   d="M939.6,328.7c0,2.7-2.2,5-5,5c-2.7,0-5-2.2-5-5c0-2.7,2.2-5,5-5  C937.3,323.7,939.6,326,939.6,328.7z" />
<path
   id="path4202"
   class="voice1"
   d="M977.7,128c0,2.7-2.2,5-5,5s-5-2.2-5-5c0-2.7,2.2-5,5-5S977.7,125.1,977.7,128z" />
<path
   id="path4204"
   class="voice6"
   d="M867.9,209.9c0,2.7-2.2,5-5,5s-5-2.2-5-5s2.2-5,5-5C865.6,205,867.9,207.2,867.9,209.9z" />
<line
   class="voice0"
   x1="15.6"
   y1="595.4"
   x2="15.6"
   y2="581.1"
   id="line4206" />
<line
   class="voice0"
   x1="31.9"
   y1="595.4"
   x2="31.9"
   y2="551"
   id="line4208" />
<line
   class="voice0"
   x1="48.3"
   y1="595.4"
   x2="48.3"
   y2="561.3"
   id="line4210" />
<line
   class="voice0"
   x1="64.7"
   y1="595.4"
   x2="64.7"
   y2="523"
   id="line4212" />
<line
   class="voice0"
   x1="81.1"
   y1="595.4"
   x2="81.1"
   y2="588.3"
   id="line4214" />
<line
   id="line4216"
   class="voice1"
   x1="97.4"
   y1="595.4"
   x2="97.4"
   y2="559.2" />
<line
   id="line4218"
   class="voice1"
   x1="113.8"
   y1="595.4"
   x2="113.8"
   y2="523" />
<line
   class="voice0"
   x1="130.2"
   y1="595.4"
   x2="130.2"
   y2="544.2"
   id="line4220" />
<line
   class="voice0"
   x1="146.5"
   y1="595.4"
   x2="146.5"
   y2="533.9"
   id="line4222" />
<line
   class="voice0"
   x1="162.8"
   y1="595.4"
   x2="162.8"
   y2="547.6"
   id="line4224" />
<line
   class="voice0"
   x1="179.2"
   y1="595.4"
   x2="179.2"
   y2="564.7"
   id="line4226" />
<line
   id="line4228"
   class="voice1"
   x1="195.6"
   y1="595.4"
   x2="195.6"
   y2="581.1" />
<line
   id="line4230"
   class="voice1"
   x1="212"
   y1="595.4"
   x2="212"
   y2="543.5" />
<line
   id="line4232"
   class="voice1"
   x1="228.4"
   y1="595.4"
   x2="228.4"
   y2="533.9" />
<line
   class="voice0"
   x1="244.7"
   y1="595.4"
   x2="244.7"
   y2="564.7"
   id="line4234" />
<line
   class="voice0"
   x1="261.1"
   y1="594.8"
   x2="261.1"
   y2="523"
   id="line4236" />
<line
   class="voice0"
   x1="277.5"
   y1="595.4"
   x2="277.5"
   y2="543.5"
   id="line4238" />
<line
   class="voice0"
   x1="293.9"
   y1="595.4"
   x2="293.9"
   y2="559.2"
   id="line4240" />
<line
   class="voice0"
   x1="310.2"
   y1="595.4"
   x2="310.2"
   y2="523"
   id="line4242" />
<line
   class="voice0"
   x1="326.6"
   y1="595.4"
   x2="326.6"
   y2="580.1"
   id="line4244" />
<line
   class="voice0"
   x1="342.9"
   y1="595.4"
   x2="342.9"
   y2="569.5"
   id="line4246" />
<line
   class="voice0"
   x1="359.3"
   y1="595.4"
   x2="359.3"
   y2="514"
   id="line4248" />
<line
   class="voice0"
   x1="375.6"
   y1="595.4"
   x2="375.6"
   y2="535.9"
   id="line4250" />
<line
   id="line4252"
   class="voice1"
   x1="392"
   y1="595.4"
   x2="392"
   y2="554.4" />
<line
   id="line4254"
   class="voice1"
   x1="408.4"
   y1="595.4"
   x2="408.4"
   y2="523" />
<line
   id="line4256"
   class="voice1"
   x1="424.8"
   y1="595.4"
   x2="424.8"
   y2="535.9" />
<line
   id="line4258"
   class="voice1"
   x1="441.1"
   y1="595.4"
   x2="441.1"
   y2="565.7" />
<line
   class="voice0"
   x1="457.5"
   y1="595.4"
   x2="457.5"
   y2="554.4"
   id="line4260" />
<line
   class="voice0"
   x1="473.9"
   y1="595.4"
   x2="473.9"
   y2="569.5"
   id="line4262" />
<line
   class="voice0"
   x1="490.3"
   y1="595.4"
   x2="490.3"
   y2="533.9"
   id="line4264" />
<line
   class="voice0"
   x1="506.6"
   y1="595.4"
   x2="506.6"
   y2="516.8"
   id="line4266" />
<line
   class="voice0"
   x1="522.9"
   y1="595.4"
   x2="522.9"
   y2="535.9"
   id="line4268" />
<line
   class="voice0"
   x1="539.3"
   y1="595.4"
   x2="539.3"
   y2="561.3"
   id="line4270" />
<line
   id="line4272"
   class="voice1"
   x1="555.7"
   y1="595.4"
   x2="555.7"
   y2="523" />
<line
   class="voice0"
   x1="572.1"
   y1="595.4"
   x2="572.1"
   y2="544.2"
   id="line4274" />
<line
   class="voice0"
   x1="588.4"
   y1="595.4"
   x2="588.4"
   y2="569.5"
   id="line4276" />
<line
   class="voice0"
   x1="604.4"
   y1="595.4"
   x2="604.4"
   y2="559.2"
   id="line4278" />
<line
   class="voice0"
   x1="620.7"
   y1="595.4"
   x2="620.7"
   y2="543.5"
   id="line4280" />
<line
   class="voice0"
   x1="637.1"
   y1="595.4"
   x2="637.1"
   y2="580.1"
   id="line4282" />
<line
   class="voice0"
   x1="653.5"
   y1="595.4"
   x2="653.5"
   y2="569.5"
   id="line4284" />
<line
   class="voice0"
   x1="669.9"
   y1="595.4"
   x2="669.9"
   y2="514"
   id="line4286" />
<line
   class="voice0"
   x1="686.2"
   y1="595.4"
   x2="686.2"
   y2="535.9"
   id="line4288" />
<line
   id="line4290"
   class="voice1"
   x1="702.6"
   y1="595.4"
   x2="702.6"
   y2="554.4" />
<line
   id="line4292"
   class="voice1"
   x1="719"
   y1="595.4"
   x2="719"
   y2="523" />
<line
   id="line4294"
   class="voice1"
   x1="735.4"
   y1="595.4"
   x2="735.4"
   y2="503.1" />
<line
   id="line4296"
   class="voice1"
   x1="751.7"
   y1="595.4"
   x2="751.7"
   y2="565.7" />
<line
   class="voice0"
   x1="768"
   y1="595.4"
   x2="768"
   y2="554.4"
   id="line4298" />
<line
   class="voice0"
   x1="784.4"
   y1="595.4"
   x2="784.4"
   y2="569.5"
   id="line4300" />
<line
   class="voice0"
   x1="800.8"
   y1="595.4"
   x2="800.8"
   y2="533.9"
   id="line4302" />
<line
   class="voice0"
   x1="817.2"
   y1="595.4"
   x2="817.2"
   y2="516.8"
   id="line4304" />
<line
   class="voice0"
   x1="833.5"
   y1="595.4"
   x2="833.5"
   y2="535.9"
   id="line4306" />
<line
   class="voice0"
   x1="849.9"
   y1="595.4"
   x2="849.9"
   y2="561.3"
   id="line4308" />
<line
   id="line4310"
   class="voice1"
   x1="866.3"
   y1="595.4"
   x2="866.3"
   y2="523" />
<line
   class="voice0"
   x1="882.7"
   y1="595.4"
   x2="882.7"
   y2="544.2"
   id="line4312" />
<line
   class="voice0"
   x1="899"
   y1="595.4"
   x2="899"
   y2="569.5"
   id="line4314" />
<line
   class="voice0"
   x1="899"
   y1="595.4"
   x2="899"
   y2="514"
   id="line4316" />
<line
   class="voice0"
   x1="915.3"
   y1="595.4"
   x2="915.3"
   y2="535.9"
   id="line4318" />
<line
   id="line4320"
   class="voice1"
   x1="931.7"
   y1="595.4"
   x2="931.7"
   y2="554.4" />
<line
   id="line4322"
   class="voice1"
   x1="948"
   y1="595.4"
   x2="948"
   y2="523" />
<line
   id="line4324"
   class="voice1"
   x1="964.4"
   y1="595.4"
   x2="964.4"
   y2="503.1" />
<line
   id="line4326"
   class="voice1"
   x1="980.8"
   y1="595.4"
   x2="980.8"
   y2="565.7" />
<line
   class="voice0"
   x1="997.1"
   y1="595.4"
   x2="997.1"
   y2="554.4"
   id="line4328" />
<line
   class="voice0"
   x1="1013.5"
   y1="595.4"
   x2="1013.5"
   y2="569.5"
   id="line4330" />
<line
   class="voice0"
   x1="1029.9"
   y1="595.4"
   x2="1029.9"
   y2="533.9"
   id="line4332" />
<line
   class="voice0"
   x1="1046.3"
   y1="595.4"
   x2="1046.3"
   y2="516.8"
   id="line4334" />
<line
   class="voice0"
   x1="1062.6"
   y1="595.4"
   x2="1062.6"
   y2="535.9"
   id="line4336" />
<line
   class="voice0"
   x1="1079"
   y1="595.4"
   x2="1079"
   y2="561.3"
   id="line4338" />
<line
   id="line4340"
   class="voice1"
   x1="1095.4"
   y1="595.4"
   x2="1095.4"
   y2="554.4" />
<path
   id="path4342"
   class="voice9"
   d="M667.4,447.9c-32.4,20.1-70.6,31.7-111.4,31.7c-117,0-211.9-94.9-211.9-211.9  S438.9,55.9,555.9,55.9c31.9,0,62.1,7,89.1,19.7" />
<g
   id="g4344">
	<path
   class="voice10"
   d="M679.6,95.8c53.4,38.4,88.1,101.2,88.1,172c0,58-23.3,110.5-61.1,148.9"
   id="path4346" />
	
		<animate
   accumulate="none"
   additive="replace"
   attributeName="opacity"
   begin="1s"
   calcMode="linear"
   dur="2s"
   fill="remove"
   repeatCount="indefinite"
   restart="always"
   values="0;3;0">
		</animate>
</g>
<g
   id="g4348">
	<path
   class="voice10"
   d="M640.1,137.2c47.1,25.6,79.1,75.5,79.1,132.9c0,43.8-18.6,83.1-48.3,110.8"
   id="path4350" />
	
		<animate
   accumulate="none"
   additive="replace"
   attributeName="opacity"
   begin="2s"
   calcMode="linear"
   dur="2s"
   fill="remove"
   repeatCount="indefinite"
   restart="always"
   values="0;3;0">
		</animate>
</g>
<g
   id="g4352">
	<path
   class="voice4"
   d="M612.1,177.1c31.5,19,52.5,53.5,52.5,93.1c0,33.7-15.4,63.8-39.4,83.8"
   id="path4354" />
	
		<animate
   accumulate="none"
   additive="replace"
   attributeName="opacity"
   begin="3s"
   calcMode="linear"
   dur="2s"
   fill="remove"
   repeatCount="indefinite"
   restart="always"
   values="0;3;0">
		</animate>
</g>
<g
   id="g4356">
	<path
   id="path4358"
   class="voice11"
   d="M341.7,267.8c0,3.6-2.8,6.5-6.5,6.5c-3.6,0-6.5-2.8-6.5-6.5s2.8-6.5,6.5-6.5   C338.8,261.3,341.7,264.1,341.7,267.8z" />
	
		<animateMotion
   accumulate="none"
   additive="replace"
   begin="0s"
   calcMode="paced"
   dur="3s"
   fill="remove"
   path="M0, 0 -225 0 0 0"
   repeatCount="indefinite"
   restart="always">
		</animateMotion>
</g>
<path
   style="fill:#ee5586"
   inkscape:connector-curvature="0"
   id="svg-ico"
   d="m 587.51219,300.45956 c -4.56854,0 -8.28048,-3.88836 -8.28048,-8.67403 0,-4.78568 3.71194,-8.67404 8.28048,-8.67404 4.56854,0 8.28048,3.88836 8.28048,8.67404 0,4.78567 -3.71194,8.67403 -8.28048,8.67403 z m 0,-13.85452 c -2.73732,0 -4.97209,2.34099 -4.97209,5.2084 0,2.86742 2.23858,5.20842 4.97209,5.20842 2.73732,0 4.97209,-2.341 4.97209,-5.20842 -0.023,-2.89134 -2.23477,-5.2084 -4.97209,-5.2084 z" /><path
   style="fill:#ee5586"
   inkscape:connector-curvature="0"
   id="path4373"
   d="m 587.86625,275.59714 c -0.90609,0 -1.66752,-0.77368 -1.66752,-1.74677 l 0,-4.68597 c 0,-2.69195 0.81092,-5.10871 2.37946,-7.15458 1.38198,-1.81856 2.90102,-3.61319 4.54569,-5.38389 1.57234,-1.69492 3.00001,-3.51348 4.26017,-5.38388 1.14213,-1.69493 1.7132,-3.68896 1.7132,-6.08179 0,-1.7707 -0.26271,-3.58926 -0.78427,-5.35996 -0.49873,-1.69493 -1.30964,-3.21437 -2.35661,-4.48657 -1.04695,-1.27219 -2.47462,-2.31706 -4.26016,-3.1386 -1.78554,-0.82154 -3.99747,-1.24827 -6.54443,-1.24827 -2.07108,0 -3.99748,0.42274 -5.75637,1.24827 -1.75888,0.82553 -3.30838,1.9701 -4.56854,3.44169 -1.2868,1.49553 -2.33376,3.342 -3.11803,5.43574 -0.78426,2.14158 -1.21446,4.53442 -1.26015,7.10273 -0.023,0.94916 -0.76143,1.69493 -1.66752,1.69493 0,0 -0.023,0 -0.0457,0 -0.90609,-0.0241 -1.64086,-0.82155 -1.61802,-1.7707 0.0723,-2.99105 0.57107,-5.78269 1.47336,-8.27523 0.92894,-2.51647 2.16625,-4.7099 3.73478,-6.50452 1.56852,-1.81856 3.47208,-3.26623 5.66498,-4.28718 2.16626,-1.02093 4.56854,-1.54736 7.11551,-1.54736 3.02285,0 5.66498,0.52243 7.87692,1.54736 2.21193,1.02494 4.04696,2.36891 5.42514,4.03991 1.35534,1.64308 2.37945,3.56533 3.02285,5.73483 0.62057,2.11767 0.95178,4.26324 0.95178,6.3809 0,3.09075 -0.78426,5.80662 -2.30711,8.07583 -1.35533,2.01796 -2.90102,3.96413 -4.56854,5.80661 -1.57234,1.69493 -3.02285,3.41379 -4.32869,5.13264 -1.09645,1.44766 -1.64087,3.09075 -1.64087,4.98508 l 0,4.68597 c 0,0.97308 -0.76143,1.74677 -1.66752,1.74677 z" /><g
   id="g4457"
   transform="matrix(3.1418275,0,0,3.1418275,881.20038,222.6556)"><path
     id="path4444"
     d="M 23.45,27.719 C 17.994,31.181 10.712,30.375 6.137,25.8 1.081,20.744 0.65,12.831 5.087,7.275 l 0,3.894 c 0,0.231 0.188,0.412 0.412,0.412 0.231,0 0.412,-0.188 0.412,-0.412 l 0,-4.781 C 5.911,6.157 5.723,5.976 5.499,5.976 l -4.781,0 c -0.231,0 -0.412,0.188 -0.412,0.412 0,0.231 0.188,0.412 0.412,0.412 l 3.688,0 c -4.662,5.881 -4.194,14.244 1.15,19.581 2.831,2.831 6.644,4.3 10.475,4.3 2.725,0 5.462,-0.744 7.863,-2.269 0.194,-0.125 0.25,-0.375 0.125,-0.569 C 23.9,27.655 23.644,27.599 23.45,27.718 Z"
     inkscape:connector-curvature="0"
     style="fill:#5e686b" /><path
     id="path4446"
     d="m 31.325,25.1 -3.688,0 C 32.306,19.219 31.837,10.856 26.487,5.513 21.637,0.663 13.924,-0.187 8.15,3.482 7.956,3.607 7.9,3.857 8.025,4.051 8.15,4.245 8.4,4.301 8.594,4.176 14.05,0.707 21.325,1.513 25.907,6.095 c 5.056,5.056 5.488,12.975 1.05,18.525 l 0,-3.894 c 0,-0.231 -0.188,-0.413 -0.413,-0.413 -0.231,0 -0.413,0.188 -0.413,0.413 l 0,4.781 c 0,0.231 0.188,0.413 0.413,0.413 l 4.781,0 c 0.231,0 0.413,-0.188 0.413,-0.413 0,-0.225 -0.188,-0.406 -0.413,-0.406 z"
     inkscape:connector-curvature="0"
     style="fill:#5e686b" /><path
     d="m 24.85,12.506 c 0,-0.006 0,-0.012 0,-0.012 0,-0.006 0,-0.019 0,-0.025 0,-0.006 0,-0.006 0,-0.012 0,-0.006 0,-0.019 -0.006,-0.025 0,-0.006 0,-0.012 0,-0.012 0,-0.006 -0.006,-0.012 -0.006,-0.025 0,-0.006 0,-0.012 -0.006,-0.012 0,-0.006 -0.006,-0.012 -0.006,-0.019 0,-0.007 -0.006,-0.012 -0.006,-0.019 -0.006,-0.006 -0.006,-0.012 -0.012,-0.019 0,-0.006 -0.006,-0.012 -0.006,-0.012 -0.006,-0.006 -0.012,-0.019 -0.019,-0.025 0,0 -0.006,-0.006 -0.006,-0.006 -0.006,-0.012 -0.019,-0.025 -0.025,-0.031 l -1.25,-1.375 c -0.075,-0.081 -0.181,-0.131 -0.294,-0.131 -0.125,-0.006 -0.225,0.044 -0.3,0.125 l -0.813,0.819 c -0.244,0.25 -0.575,0.387 -0.925,0.387 l 0,0 c -0.35,0 -0.675,-0.137 -0.925,-0.387 -0.512,-0.519 -0.512,-1.356 0,-1.875 l 0.813,-0.819 c 0.163,-0.162 0.163,-0.419 0,-0.581 L 19.833,7.178 c 0,0 0,0 -0.006,-0.006 0,0 0,0 0,0 0,0 -0.006,0 -0.006,-0.006 0,-0.006 -0.019,-0.013 -0.025,-0.025 C 19.79,7.135 19.784,7.135 19.784,7.128 19.778,7.122 19.772,7.122 19.765,7.115 19.758,7.108 19.753,7.109 19.746,7.102 19.74,7.102 19.734,7.096 19.734,7.096 19.728,7.09 19.722,7.09 19.715,7.083 c -0.006,0 -0.012,-0.006 -0.019,-0.006 -0.007,0 -0.012,-0.006 -0.019,-0.006 -0.006,0 -0.012,-0.006 -0.019,-0.006 -0.007,0 -0.012,0 -0.012,-0.006 -0.006,0 -0.019,-0.006 -0.025,-0.006 -0.006,0 -0.006,0 -0.012,0 -0.012,0 -0.019,-0.006 -0.031,-0.006 0,0 0,0 -0.006,0 -0.119,-0.006 -0.238,0.031 -0.325,0.119 0,0 0,0.006 -0.006,0.006 0,0 0,0 0,0 l -1.444,1.475 c -1.281,1.294 -1.469,3.287 -0.556,4.781 l -9.25,6.763 c -1.056,1.063 -1.056,2.794 0,3.856 0.512,0.519 1.194,0.8 1.919,0.8 l 0,0 c 0.725,0 1.406,-0.281 1.956,-0.85 l 6.65,-9.287 c 0.6,0.375 1.294,0.575 2.012,0.575 0,0 0,0 0,0 1.031,0 2,-0.406 2.712,-1.125 l 1.481,-1.344 c 0.063,-0.056 0.106,-0.131 0.125,-0.206 0,-0.006 0,-0.006 0,-0.012 0,-0.006 0.006,-0.019 0.006,-0.025 0,-0.006 0,-0.012 0,-0.019 0,-0.007 0,-0.012 0,-0.019 0,-0.007 0,-0.019 0,-0.025 z M 11.231,23.469 c -0.356,0.356 -0.825,0.556 -1.325,0.556 0,0 0,0 0,0 -0.5,0 -0.975,-0.2 -1.331,-0.556 -0.737,-0.744 -0.737,-1.95 -0.05,-2.65 l 9.225,-6.725 c 0.019,0.019 0.038,0.037 0.05,0.056 0.019,0.019 0.044,0.037 0.063,0.056 l -6.631,9.262 z m 11.438,-9.906 c -0.569,0.575 -1.331,0.894 -2.137,0.894 0,0 0,0 0,0 -0.675,0 -1.313,-0.219 -1.837,-0.625 -0.012,-0.012 -0.025,-0.019 -0.038,-0.031 0,0 -0.006,0 -0.006,0 -0.094,-0.075 -0.181,-0.15 -0.262,-0.238 -0.081,-0.081 -0.156,-0.169 -0.231,-0.256 -0.006,-0.006 -0.006,-0.012 -0.012,-0.019 -0.006,-0.012 -0.019,-0.025 -0.031,-0.037 -0.906,-1.2 -0.813,-2.925 0.275,-4.019 l 1.15,-1.181 0.644,0.65 -0.525,0.525 c -0.831,0.838 -0.831,2.2 0,3.037 0.406,0.406 0.938,0.631 1.512,0.631 0,0 0,0 0,0 0.569,0 1.106,-0.225 1.512,-0.631 l 0.506,-0.512 0.669,0.725 -1.188,1.088 z"
     id="svg-ico-1"
     inkscape:connector-curvature="0"
     style="fill:#ee5586" /><path
     d="m 10.494,21.688 -1.15,0 c -0.231,0 -0.412,0.188 -0.412,0.413 0,0.231 0.188,0.413 0.412,0.413 l 1.15,0 c 0.231,0 0.412,-0.188 0.412,-0.413 0,-0.231 -0.181,-0.413 -0.412,-0.413 z"
     id="path4449"
     inkscape:connector-curvature="0"
     style="fill:#ee5586" /></g><path
   d="m 1008.7549,322.12241 0,0 c -0.5544,0 -1.2951,-0.3428 -1.6379,-0.76604 -0.343,-0.42323 -0.5288,-1.26968 -0.4232,-1.79872 l 8.9428,-38.06511 c -0.028,0 -0.05,-0.0255 -0.08,-0.0255 l -11.4018,-3.83444 c -1.0834,-0.42323 -1.8241,-1.13848 -2.1161,-2.03573 -0.2921,-0.89724 -0.1311,-1.87913 0.4231,-2.75098 l 33.0922,-50.2837 c 0.3977,-0.63484 1.1089,-1.03268 1.8538,-1.03268 0.5544,0 1.295,0.37245 1.6379,0.82107 0.4231,0.52903 0.5544,1.21466 0.3684,1.90452 l -8.8328,37.48106 11.4272,3.83444 c 1.3501,0.50366 1.8791,1.29508 2.0907,1.90453 0.2666,0.76604 0.161,1.63789 -0.3175,2.40817 l -33.0922,51.13015 c -0.3977,0.66024 -1.1385,1.10886 -1.9299,1.10886 z m -2.9076,-47.79512 10.8727,3.65246 c 0.9523,0.3428 3.28,1.18927 2.6452,3.65245 l -7.1145,30.20578 27.8526,-43.03804 -10.661,-3.62283 c -0.9269,-0.34281 -3.1997,-1.16388 -2.4844,-4.02067 l 6.9282,-29.43973 -28.0388,42.61481 z"
   id="svg-ico-2"
   inkscape:connector-curvature="0"
   style="fill:#ee5586" /><g
   id="g4422"
   transform="matrix(2.7710974,0,0,2.7710975,454.7554,220.96733)"><path
     id="path4407"
     d="M 1.406,26.581 C 1.312,26.581 1.225,26.55 1.144,26.494 0.956,26.35 0.925,26.081 1.069,25.9 l 10.25,-13.181 c 0.144,-0.188 0.412,-0.219 0.594,-0.075 0.188,0.144 0.219,0.412 0.075,0.594 L 1.738,26.419 c -0.081,0.106 -0.206,0.163 -0.331,0.163 z"
     inkscape:connector-curvature="0"
     style="fill:#5e686c" /><path
     id="path4409"
     d="m 30.694,26.581 c -0.125,0 -0.25,-0.056 -0.337,-0.163 L 20.107,13.237 c -0.144,-0.188 -0.113,-0.45 0.075,-0.594 0.181,-0.144 0.45,-0.113 0.594,0.075 l 10.25,13.181 c 0.144,0.188 0.113,0.45 -0.075,0.594 -0.069,0.063 -0.163,0.087 -0.256,0.087 z"
     inkscape:connector-curvature="0"
     style="fill:#5e686c" /><path
     d="m 16.05,16.331 c -0.088,0 -0.175,-0.025 -0.25,-0.081 L 1.888,5.994 C 1.7,5.856 1.657,5.588 1.801,5.4 1.938,5.212 2.207,5.169 2.395,5.312 L 16.058,15.381 29.714,5.312 c 0.188,-0.138 0.456,-0.1 0.594,0.088 0.138,0.188 0.1,0.456 -0.087,0.594 L 16.302,16.25 c -0.075,0.056 -0.163,0.081 -0.25,0.081 z"
     id="svg-ico-5"
     inkscape:connector-curvature="0"
     style="fill:#ee5586" /><path
     id="path4412"
     d="m 29.969,27.313 -27.831,0 c -1.044,0 -1.887,-0.844 -1.887,-1.881 l 0,-18.319 c 0,-1.037 0.844,-1.881 1.887,-1.881 0.231,0 0.425,0.188 0.425,0.425 0,0.231 -0.188,0.425 -0.425,0.425 C 1.563,6.082 1.1,6.545 1.1,7.119 l 0,18.319 c 0,0.569 0.469,1.038 1.038,1.038 l 27.831,0 c 0.575,0 1.038,-0.462 1.038,-1.038 l 0,-18.325 c 0,-0.569 -0.469,-1.037 -1.038,-1.037 -0.231,0 -0.425,-0.188 -0.425,-0.425 0,-0.231 0.188,-0.425 0.425,-0.425 1.038,0 1.887,0.844 1.887,1.881 l 0,18.319 c 0,1.044 -0.85,1.887 -1.887,1.887 z"
     inkscape:connector-curvature="0"
     style="fill:#5e686c" /><path
     d="m 29.969,6.081 -27.831,0 c -0.231,0 -0.425,-0.188 -0.425,-0.425 0,-0.231 0.188,-0.425 0.425,-0.425 l 27.831,0 c 0.231,0 0.425,0.188 0.425,0.425 -0.006,0.231 -0.194,0.425 -0.425,0.425 z"
     id="path4414"
     inkscape:connector-curvature="0"
     style="fill:#ee5586" /></g></svg>