<?xml version="1.0" encoding="UTF-8" standalone="no"?>
<!-- Generator: Adobe Illustrator 22.0.0, SVG Export Plug-In . SVG Version: 6.00 Build 0)  -->

<svg
   xmlns:dc="http://purl.org/dc/elements/1.1/"
   xmlns:cc="http://creativecommons.org/ns#"
   xmlns:rdf="http://www.w3.org/1999/02/22-rdf-syntax-ns#"
   xmlns:svg="http://www.w3.org/2000/svg"
   xmlns="http://www.w3.org/2000/svg"
   xmlns:sodipodi="http://sodipodi.sourceforge.net/DTD/sodipodi-0.dtd"
   xmlns:inkscape="http://www.inkscape.org/namespaces/inkscape"
   version="1.1"
   id="Layer_1"
   x="0px"
   y="0px"
   viewBox="0 0 1100.6 600.5"
   style="enable-background:new 0 0 1100.6 600.5;"
   xml:space="preserve"
   inkscape:version="0.91 r13725"
   sodipodi:docname="voip.svg"><metadata
   id="metadata4492"><rdf:RDF><cc:Work
       rdf:about=""><dc:format>image/svg+xml</dc:format><dc:type
         rdf:resource="http://purl.org/dc/dcmitype/StillImage" /><dc:title></dc:title></cc:Work></rdf:RDF></metadata><defs
   id="defs4490"><clipPath
     id="clipPath5409"
     clipPathUnits="userSpaceOnUse"><path
       inkscape:connector-curvature="0"
       id="path5411"
       d="M 0,144 252,144 252,0 0,0 0,144 Z" /></clipPath><clipPath
     id="clipPath5431"
     clipPathUnits="userSpaceOnUse"><path
       inkscape:connector-curvature="0"
       id="path5433"
       d="M 0,144 252,144 252,0 0,0 0,144 Z" /></clipPath><clipPath
     id="clipPath6921"
     clipPathUnits="userSpaceOnUse"><path
       inkscape:connector-curvature="0"
       id="path6923"
       d="M 0,144 252,144 252,0 0,0 0,144 Z" /></clipPath><clipPath
     id="clipPath6943"
     clipPathUnits="userSpaceOnUse"><path
       inkscape:connector-curvature="0"
       id="path6945"
       d="M 0,144 252,144 252,0 0,0 0,144 Z" /></clipPath></defs><sodipodi:namedview
   pagecolor="#323232"
   bordercolor="#666666"
   borderopacity="1"
   objecttolerance="10"
   gridtolerance="10"
   guidetolerance="10"
   inkscape:pageopacity="0"
   inkscape:pageshadow="2"
   inkscape:window-width="1920"
   inkscape:window-height="1017"
   id="namedview4488"
   showgrid="false"
   inkscape:zoom="1.5073597"
   inkscape:cx="461.92616"
   inkscape:cy="324.92092"
   inkscape:window-x="-8"
   inkscape:window-y="-8"
   inkscape:window-maximized="1"
   inkscape:current-layer="Layer_1" />
<style
   type="text/css"
   id="style3337">
	.voip0{fill:none;stroke:#808080;stroke-linecap:round;stroke-linejoin:round;stroke-miterlimit:10;}
	.voip1{fill:none;stroke:#EE5586;stroke-linecap:round;stroke-linejoin:round;stroke-miterlimit:10;}
	.voip2{fill:none;stroke:#FFFFFF;stroke-width:5;stroke-linecap:round;stroke-linejoin:round;stroke-miterlimit:10;}
	.voip3{fill:none;stroke:#808080;stroke-width:2;stroke-linecap:round;stroke-linejoin:round;stroke-miterlimit:10;}
	.voip4{fill:none;stroke:#EE5586;stroke-width:4;stroke-linecap:round;stroke-linejoin:round;stroke-miterlimit:10;}
	.voip5{fill:none;stroke:#FFFFFF;stroke-width:2;stroke-linecap:round;stroke-linejoin:round;stroke-miterlimit:10;}
	.voip6{fill:none;stroke:#EE5586;stroke-width:2;stroke-linecap:round;stroke-linejoin:round;stroke-miterlimit:10;}
	.voip7{fill:none;stroke:#FFFFFF;stroke-width:3;stroke-linecap:round;stroke-linejoin:round;stroke-miterlimit:10;}
	.voip8{fill:none;stroke:#EE5586;stroke-width:3;stroke-linecap:round;stroke-linejoin:round;stroke-miterlimit:10;}
	.voip9{fill:#FFFFFF;stroke:#EE5586;stroke-width:3;stroke-linecap:round;stroke-linejoin:round;stroke-miterlimit:10;}
</style>
<path
   class="voip0"
   d="M292.2,522.3c0,2.7-2.2,4.9-4.9,4.9c-2.7,0-4.9-2.2-4.9-4.9s2.2-4.9,4.9-4.9  C289.9,517.4,292.2,519.6,292.2,522.3z"
   id="path3339" />
<path
   class="voip0"
   d="M272.1,372.1c0,2.7-2.2,4.9-4.9,4.9c-2.7,0-4.9-2.2-4.9-4.9s2.2-4.9,4.9-4.9  C269.9,367.3,272.1,369.4,272.1,372.1z"
   id="path3341" />
<path
   class="voip0"
   d="M247.1,361.9c0,2.7-2.2,4.9-4.9,4.9s-4.9-2.2-4.9-4.9s2.2-4.9,4.9-4.9S247.1,359.2,247.1,361.9z"
   id="path3343" />
<path
   class="voip0"
   d="M217,340.9c0,2.7-2.2,4.9-4.9,4.9s-4.9-2.2-4.9-4.9s2.2-4.9,4.9-4.9S217,338.2,217,340.9z"
   id="path3345" />
<path
   class="voip0"
   d="M191.8,331.8c0,2.7-2.2,4.9-4.9,4.9s-4.9-2.2-4.9-4.9s2.2-4.9,4.9-4.9S191.8,329.1,191.8,331.8z"
   id="path3347" />
<path
   class="voip0"
   d="M180.2,306.3c0,2.7-2.2,4.9-4.9,4.9s-4.9-2.2-4.9-4.9s2.2-4.9,4.9-4.9S180.2,303.6,180.2,306.3z"
   id="path3349" />
<path
   class="voip0"
   d="M207.2,309c0,2.7-2.2,4.9-4.9,4.9s-4.9-2.2-4.9-4.9s2.2-4.9,4.9-4.9S207.2,306.3,207.2,309z"
   id="path3351" />
<path
   class="voip0"
   d="M226.9,293.3c0,2.7-2.2,4.9-4.9,4.9s-4.9-2.2-4.9-4.9s2.2-4.9,4.9-4.9S226.9,290.6,226.9,293.3z"
   id="path3353" />
<path
   class="voip0"
   d="M260.9,308.4c0,2.7-2.2,4.9-4.9,4.9c-2.7,0-4.9-2.2-4.9-4.9s2.2-4.9,4.9-4.9  C258.7,303.6,260.9,305.7,260.9,308.4z"
   id="path3355" />
<path
   class="voip0"
   d="M254.7,323.8c0,2.7-2.2,4.9-4.9,4.9s-4.9-2.2-4.9-4.9s2.2-4.9,4.9-4.9C252.5,319,254.7,321.1,254.7,323.8z"
   id="path3357" />
<path
   class="voip0"
   d="M273.6,329.5c0,2.7-2.2,4.9-4.9,4.9c-2.7,0-4.9-2.2-4.9-4.9s2.2-4.9,4.9-4.9  C271.4,324.7,273.6,326.8,273.6,329.5z"
   id="path3359" />
<path
   class="voip0"
   d="M256,289.8c0,2.7-2.2,4.9-4.9,4.9s-4.9-2.2-4.9-4.9s2.2-4.9,4.9-4.9C253.9,285,256,287.1,256,289.8z"
   id="path3361" />
<path
   class="voip0"
   d="M233,258c0,2.7-2.2,4.9-4.9,4.9s-4.9-2.2-4.9-4.9c0-2.7,2.2-4.9,4.9-4.9S233,255.3,233,258z"
   id="path3363" />
<path
   class="voip0"
   d="M260.9,246c0,2.7-2.2,4.9-4.9,4.9c-2.7,0-4.9-2.2-4.9-4.9s2.2-4.9,4.9-4.9C258.6,241.1,260.9,243.3,260.9,246z"
   id="path3365" />
<path
   class="voip0"
   d="M278.1,239.2c0,2.7-2.2,4.9-4.9,4.9c-2.7,0-4.9-2.2-4.9-4.9s2.2-4.9,4.9-4.9S278.1,236.5,278.1,239.2z"
   id="path3367" />
<path
   class="voip0"
   d="M203.9,230.8c0,2.7-2.2,4.9-4.9,4.9s-4.9-2.2-4.9-4.9s2.2-4.9,4.9-4.9C201.7,226,203.9,228.1,203.9,230.8z"
   id="path3369" />
<path
   class="voip0"
   d="M206.4,196.4c0,2.7-2.2,4.9-4.9,4.9s-4.9-2.2-4.9-4.9s2.2-4.9,4.9-4.9C204.3,191.5,206.4,193.7,206.4,196.4z"
   id="path3371" />
<path
   class="voip0"
   d="M221,169c0,2.7-2.2,4.9-4.9,4.9s-4.9-2.2-4.9-4.9s2.2-4.9,4.9-4.9S221,166.3,221,169z"
   id="path3373" />
<path
   class="voip0"
   d="M236,140.7c0,2.7-2.2,4.9-4.9,4.9s-4.9-2.2-4.9-4.9s2.2-4.9,4.9-4.9C233.9,135.8,236,138,236,140.7z"
   id="path3375" />
<path
   class="voip0"
   d="M206.2,133.4c0,2.7-2.2,4.9-4.9,4.9s-4.9-2.2-4.9-4.9s2.2-4.9,4.9-4.9C204,128.6,206.2,130.7,206.2,133.4z"
   id="path3377" />
<path
   class="voip0"
   d="M181.5,120.4c0,2.7-2.2,4.9-4.9,4.9s-4.9-2.2-4.9-4.9s2.2-4.9,4.9-4.9S181.5,117.7,181.5,120.4z"
   id="path3379" />
<path
   class="voip0"
   d="M140.4,93c0,2.7-2.2,4.9-4.9,4.9s-4.9-2.2-4.9-4.9s2.2-4.9,4.9-4.9S140.4,90.3,140.4,93z"
   id="path3381" />
<path
   class="voip0"
   d="M135,116.4c0,2.7-2.2,4.9-4.9,4.9s-4.9-2.2-4.9-4.9s2.2-4.9,4.9-4.9C132.8,111.5,135,113.7,135,116.4z"
   id="path3383" />
<path
   class="voip0"
   d="M159.7,144.8c0,2.7-2.2,4.9-4.9,4.9s-4.9-2.2-4.9-4.9s2.2-4.9,4.9-4.9C157.6,139.9,159.7,142.1,159.7,144.8z"
   id="path3385" />
<path
   class="voip0"
   d="M175.5,171.2c0,2.7-2.2,4.9-4.9,4.9s-4.9-2.2-4.9-4.9s2.2-4.9,4.9-4.9S175.5,168.5,175.5,171.2z"
   id="path3387" />
<path
   class="voip0"
   d="M178.3,202.9c0,2.7-2.2,4.9-4.9,4.9s-4.9-2.2-4.9-4.9s2.2-4.9,4.9-4.9S178.3,200.2,178.3,202.9z"
   id="path3389" />
<path
   class="voip0"
   d="M277,274.6c0,2.7-2.2,4.9-4.9,4.9c-2.7,0-4.9-2.2-4.9-4.9s2.2-4.9,4.9-4.9C274.9,269.8,277,271.9,277,274.6z"
   id="path3391" />
<path
   class="voip0"
   d="M305.8,162.7c0,2.7-2.2,4.9-4.9,4.9c-2.7,0-4.9-2.2-4.9-4.9s2.2-4.9,4.9-4.9C303.6,157.8,305.8,160,305.8,162.7  z"
   id="path3393" />
<path
   class="voip0"
   d="M309.9,144.1c0,2.7-2.2,4.9-4.9,4.9c-2.7,0-4.9-2.2-4.9-4.9s2.2-4.9,4.9-4.9  C307.9,139.3,309.9,141.4,309.9,144.1z"
   id="path3395" />
<path
   class="voip0"
   d="M328.3,133.6c0,2.7-2.2,4.9-4.9,4.9c-2.7,0-4.9-2.2-4.9-4.9s2.2-4.9,4.9-4.9C326,128.8,328.3,130.9,328.3,133.6  z"
   id="path3397" />
<path
   class="voip0"
   d="M535.9,67.3c0,2.7-2.2,4.9-4.9,4.9s-4.9-2.2-4.9-4.9c0-2.7,2.2-4.9,4.9-4.9S535.9,64.6,535.9,67.3z"
   id="path3399" />
<path
   class="voip0"
   d="M591.6,44.9c0,2.7-2.2,4.9-4.9,4.9s-4.9-2.2-4.9-4.9s2.2-4.9,4.9-4.9S591.6,42.2,591.6,44.9z"
   id="path3401" />
<path
   class="voip0"
   d="M611.9,37.8c0,2.7-2.2,4.9-4.9,4.9s-4.9-2.2-4.9-4.9s2.2-4.9,4.9-4.9S611.9,35.1,611.9,37.8z"
   id="path3403" />
<path
   class="voip0"
   d="M678.9,20.3c0,2.7-2.2,4.9-4.9,4.9s-4.9-2.2-4.9-4.9s2.2-4.9,4.9-4.9S678.9,17.6,678.9,20.3z"
   id="path3405" />
<path
   class="voip0"
   d="M710.9,35.2c0,2.7-2.2,4.9-4.9,4.9s-4.9-2.2-4.9-4.9s2.2-4.9,4.9-4.9S710.9,32.5,710.9,35.2z"
   id="path3407" />
<path
   class="voip0"
   d="M805.4,34.3c0,2.7-2.2,4.9-4.9,4.9s-4.9-2.2-4.9-4.9s2.2-4.9,4.9-4.9S805.4,31.6,805.4,34.3z"
   id="path3409" />
<path
   class="voip0"
   d="M828.1,29.4c0,2.7-2.2,4.9-4.9,4.9s-4.9-2.2-4.9-4.9s2.2-4.9,4.9-4.9C825.9,24.6,828.1,26.7,828.1,29.4z"
   id="path3411" />
<path
   class="voip0"
   d="M821.6,46.6c0,2.7-2.2,4.9-4.9,4.9s-4.9-2.2-4.9-4.9s2.2-4.9,4.9-4.9C819.4,41.8,821.6,43.9,821.6,46.6z"
   id="path3413" />
<path
   class="voip0"
   d="M693.6,32.9c0,2.7-2.2,4.9-4.9,4.9s-4.9-2.2-4.9-4.9s2.2-4.9,4.9-4.9C691.4,28.1,693.6,30.2,693.6,32.9z"
   id="path3415" />
<path
   class="voip0"
   d="M460.2,64.1c0,2.7-2.2,4.9-4.9,4.9c-2.7,0-4.9-2.2-4.9-4.9s2.2-4.9,4.9-4.9C458,59.2,460.2,61.4,460.2,64.1z"
   id="path3417" />
<path
   class="voip0"
   d="M475.8,41.4c0,2.7-2.2,4.9-4.9,4.9c-2.7,0-4.9-2.2-4.9-4.9s2.2-4.9,4.9-4.9C473.6,36.6,475.8,38.7,475.8,41.4z"
   id="path3419" />
<path
   class="voip0"
   d="M455.9,46.3c0,2.7-2.2,4.9-4.9,4.9c-2.7,0-4.9-2.2-4.9-4.9s2.2-4.9,4.9-4.9C453.8,41.4,455.9,43.6,455.9,46.3z"
   id="path3421" />
<path
   class="voip0"
   d="M458,25.6c0,2.7-2.2,4.9-4.9,4.9c-2.7,0-4.9-2.2-4.9-4.9s2.2-4.9,4.9-4.9C455.9,20.7,458,22.9,458,25.6z"
   id="path3423" />
<path
   class="voip0"
   d="M442.7,15.8c0,2.7-2.2,4.9-4.9,4.9c-2.7,0-4.9-2.2-4.9-4.9s2.2-4.9,4.9-4.9S442.7,13.1,442.7,15.8z"
   id="path3425" />
<path
   class="voip0"
   d="M397.4,30.8c0,2.7-2.2,4.9-4.9,4.9c-2.7,0-4.9-2.2-4.9-4.9s2.2-4.9,4.9-4.9C395.3,25.9,397.4,28.1,397.4,30.8z"
   id="path3427" />
<path
   class="voip0"
   d="M378.3,48.6c0,2.7-2.2,4.9-4.9,4.9c-2.7,0-4.9-2.2-4.9-4.9s2.2-4.9,4.9-4.9C376,43.8,378.3,45.9,378.3,48.6z"
   id="path3429" />
<path
   class="voip0"
   d="M358.8,56.8c0,2.7-2.2,4.9-4.9,4.9c-2.7,0-4.9-2.2-4.9-4.9s2.2-4.9,4.9-4.9S358.8,54,358.8,56.8z"
   id="path3431" />
<path
   class="voip0"
   d="M360.2,72.2c0,2.7-2.2,4.9-4.9,4.9c-2.7,0-4.9-2.2-4.9-4.9c0-2.7,2.2-4.9,4.9-4.9S360.2,69.5,360.2,72.2z"
   id="path3433" />
<path
   class="voip0"
   d="M379.3,77.3c0,2.7-2.2,4.9-4.9,4.9c-2.7,0-4.9-2.2-4.9-4.9s2.2-4.9,4.9-4.9S379.3,74.6,379.3,77.3z"
   id="path3435" />
<path
   class="voip0"
   d="M368.8,108.2c1-0.8,2.2-1.4,3.3-2c0.1-0.1,0.3-0.2,0.4-0.4c0.7-0.8,1.5-1.3,2.4-1.7c-0.9-1.3-2.4-2.2-4.1-2.2  c-2.7,0-4.9,2.2-4.9,4.9c0,1.2,0.4,2.2,1.1,3.1C367.5,109.2,368.1,108.7,368.8,108.2z"
   id="path3437" />
<path
   class="voip0"
   d="M410.3,84.4c0,2.7-2.2,4.9-4.9,4.9c-2.7,0-4.9-2.2-4.9-4.9s2.2-4.9,4.9-4.9S410.3,81.7,410.3,84.4z"
   id="path3439" />
<path
   class="voip0"
   d="M421.9,57.7c0,2.7-2.2,4.9-4.9,4.9c-2.7,0-4.9-2.2-4.9-4.9s2.2-4.9,4.9-4.9C419.8,52.8,421.9,55,421.9,57.7z"
   id="path3441" />
<path
   class="voip0"
   d="M339.4,118.1c0,2.7-2.2,4.9-4.9,4.9c-2.7,0-4.9-2.2-4.9-4.9c0-2.7,2.2-4.9,4.9-4.9  C337.3,113.2,339.4,115.4,339.4,118.1z"
   id="path3443" />
<path
   class="voip0"
   d="M319.6,112.5c0,2.7-2.2,4.9-4.9,4.9c-2.7,0-4.9-2.2-4.9-4.9c0-2.7,2.2-4.9,4.9-4.9  C317.4,107.7,319.6,109.8,319.6,112.5z"
   id="path3445" />
<path
   class="voip0"
   d="M323.9,91c0,2.7-2.2,4.9-4.9,4.9c-2.7,0-4.9-2.2-4.9-4.9s2.2-4.9,4.9-4.9S323.9,88.3,323.9,91z"
   id="path3447" />
<path
   class="voip0"
   d="M307.8,86c0,2.7-2.2,4.9-4.9,4.9c-2.7,0-4.9-2.2-4.9-4.9s2.2-4.9,4.9-4.9S307.8,83.3,307.8,86z"
   id="path3449" />
<path
   class="voip0"
   d="M305.2,69c0,2.7-2.2,4.9-4.9,4.9c-2.7,0-4.9-2.2-4.9-4.9s2.2-4.9,4.9-4.9S305.2,66.3,305.2,69z"
   id="path3451" />
<path
   class="voip0"
   d="M288.4,60c0,2.7-2.2,4.9-4.9,4.9c-2.7,0-4.9-2.2-4.9-4.9s2.2-4.9,4.9-4.9C286.2,55.1,288.4,57.3,288.4,60z"
   id="path3453" />
<path
   class="voip0"
   d="M307.8,41.2c0,2.7-2.2,4.9-4.9,4.9c-2.7,0-4.9-2.2-4.9-4.9s2.2-4.9,4.9-4.9C305.6,36.3,307.8,38.5,307.8,41.2z"
   id="path3455" />
<path
   class="voip0"
   d="M324.2,32.2c0,2.7-2.2,4.9-4.9,4.9c-2.7,0-4.9-2.2-4.9-4.9s2.2-4.9,4.9-4.9C321.9,27.4,324.2,29.5,324.2,32.2z"
   id="path3457" />
<path
   class="voip0"
   d="M317.9,56.8c0,2.7-2.2,4.9-4.9,4.9c-2.7,0-4.9-2.2-4.9-4.9s2.2-4.9,4.9-4.9C315.9,51.9,317.9,54,317.9,56.8z"
   id="path3459" />
<path
   class="voip0"
   d="M296.8,32.9c0,2.7-2.2,4.9-4.9,4.9c-2.7,0-4.9-2.2-4.9-4.9s2.2-4.9,4.9-4.9C294.6,28,296.8,30.2,296.8,32.9z"
   id="path3461" />
<path
   class="voip0"
   d="M310.4,24c0,2.7-2.2,4.9-4.9,4.9c-2.7,0-4.9-2.2-4.9-4.9s2.2-4.9,4.9-4.9C308.2,19.2,310.4,21.3,310.4,24z"
   id="path3463" />
<path
   class="voip0"
   d="M278.7,30.1c0,2.7-2.2,4.9-4.9,4.9c-2.7,0-4.9-2.2-4.9-4.9s2.2-4.9,4.9-4.9S278.7,27.4,278.7,30.1z"
   id="path3465" />
<path
   id="svg-concept"
   class="voip1"
   d="M271,37.8c0,2.7-2.2,4.9-4.9,4.9c-2.7,0-4.9-2.2-4.9-4.9s2.2-4.9,4.9-4.9  C268.9,32.9,271,35.1,271,37.8z" />
<path
   id="path3468"
   class="voip1"
   d="M284.4,44.1c0,2.7-2.2,4.9-4.9,4.9c-2.7,0-4.9-2.2-4.9-4.9s2.2-4.9,4.9-4.9  C282.2,39.2,284.4,41.4,284.4,44.1z" />
<path
   class="voip0"
   d="M268.7,56.8c0,2.7-2.2,4.9-4.9,4.9c-2.7,0-4.9-2.2-4.9-4.9s2.2-4.9,4.9-4.9C266.6,51.9,268.7,54,268.7,56.8z"
   id="path3470" />
<path
   class="voip0"
   d="M254.6,52.9c0,2.7-2.2,4.9-4.9,4.9s-4.9-2.2-4.9-4.9s2.2-4.9,4.9-4.9C252.4,48.1,254.6,50.2,254.6,52.9z"
   id="path3472" />
<path
   class="voip0"
   d="M252.9,37.8c0,2.7-2.2,4.9-4.9,4.9s-4.9-2.2-4.9-4.9s2.2-4.9,4.9-4.9C250.7,32.9,252.9,35.1,252.9,37.8z"
   id="path3474" />
<path
   class="voip0"
   d="M290.8,81.5c0,2.7-2.2,4.9-4.9,4.9c-2.7,0-4.9-2.2-4.9-4.9s2.2-4.9,4.9-4.9C288.6,76.6,290.8,78.8,290.8,81.5z"
   id="path3476" />
<path
   class="voip0"
   d="M278.7,101.6c0,2.7-2.2,4.9-4.9,4.9c-2.7,0-4.9-2.2-4.9-4.9s2.2-4.9,4.9-4.9C276.5,96.8,278.7,98.9,278.7,101.6  z"
   id="path3478" />
<path
   class="voip0"
   d="M275.9,84.5c0,2.7-2.2,4.9-4.9,4.9c-2.7,0-4.9-2.2-4.9-4.9c0-2.7,2.2-4.9,4.9-4.9  C273.7,79.6,275.9,81.8,275.9,84.5z"
   id="path3480" />
<path
   class="voip0"
   d="M261.4,74.8c0,2.7-2.2,4.9-4.9,4.9c-2.7,0-4.9-2.2-4.9-4.9s2.2-4.9,4.9-4.9C259.2,69.9,261.4,72,261.4,74.8z"
   id="path3482" />
<path
   class="voip0"
   d="M255.7,102.9c0,2.7-2.2,4.9-4.9,4.9s-4.9-2.2-4.9-4.9s2.2-4.9,4.9-4.9C253.5,98.1,255.7,100.2,255.7,102.9z"
   id="path3484" />
<path
   class="voip0"
   d="M245.4,90.5c0,2.7-2.2,4.9-4.9,4.9s-4.9-2.2-4.9-4.9c0-2.7,2.2-4.9,4.9-4.9S245.4,87.7,245.4,90.5z"
   id="path3486" />
<path
   class="voip0"
   d="M225.4,95.9c0,2.7-2.2,4.9-4.9,4.9s-4.9-2.2-4.9-4.9s2.2-4.9,4.9-4.9S225.4,93.2,225.4,95.9z"
   id="path3488" />
<path
   class="voip0"
   d="M228.3,81.5c0,2.7-2.2,4.9-4.9,4.9s-4.9-2.2-4.9-4.9s2.2-4.9,4.9-4.9S228.3,78.8,228.3,81.5z"
   id="path3490" />
<path
   class="voip0"
   d="M242.2,75.7c0,2.7-2.2,4.9-4.9,4.9s-4.9-2.2-4.9-4.9c0-2.7,2.2-4.9,4.9-4.9S242.2,73,242.2,75.7z"
   id="path3492" />
<path
   class="voip0"
   d="M231.5,63c0,2.7-2.2,4.9-4.9,4.9s-4.9-2.2-4.9-4.9s2.2-4.9,4.9-4.9S231.5,60.3,231.5,63z"
   id="path3494" />
<path
   class="voip0"
   d="M215,75.7c0,2.7-2.2,4.9-4.9,4.9s-4.9-2.2-4.9-4.9c0-2.7,2.2-4.9,4.9-4.9S215,73,215,75.7z"
   id="path3496" />
<path
   class="voip0"
   d="M323.9,74.8c0,2.7-2.2,4.9-4.9,4.9c-2.7,0-4.9-2.2-4.9-4.9c0-2.7,2.2-4.9,4.9-4.9S323.9,72.1,323.9,74.8z"
   id="path3498" />
<path
   class="voip0"
   d="M335.7,61.9c0,2.7-2.2,4.9-4.9,4.9c-2.7,0-4.9-2.2-4.9-4.9c0-2.7,2.2-4.9,4.9-4.9S335.7,59.2,335.7,61.9z"
   id="path3500" />
<path
   class="voip0"
   d="M391.3,20.3c0,2.7-2.2,4.9-4.9,4.9c-2.7,0-4.9-2.2-4.9-4.9s2.2-4.9,4.9-4.9S391.3,17.6,391.3,20.3z"
   id="path3502" />
<path
   class="voip0"
   d="M340.3,14.4c0,2.7-2.2,4.9-4.9,4.9c-2.7,0-4.9-2.2-4.9-4.9s2.2-4.9,4.9-4.9S340.3,11.7,340.3,14.4z"
   id="path3504" />
<path
   class="voip0"
   d="M369.9,8.4c0,2.7-2.2,4.9-4.9,4.9c-2.7,0-4.9-2.2-4.9-4.9s2.2-4.9,4.9-4.9C367.7,3.6,369.9,5.7,369.9,8.4z"
   id="path3506" />
<path
   class="voip0"
   d="M297.4,102.9c0,2.7-2.2,4.9-4.9,4.9c-2.7,0-4.9-2.2-4.9-4.9s2.2-4.9,4.9-4.9  C295.3,98.1,297.4,100.2,297.4,102.9z"
   id="path3508" />
<path
   class="voip0"
   d="M290.9,199.3c0,2.7-2.2,4.9-4.9,4.9c-2.7,0-4.9-2.2-4.9-4.9s2.2-4.9,4.9-4.9  C288.7,194.4,290.9,196.6,290.9,199.3z"
   id="path3510" />
<path
   class="voip0"
   d="M279.9,218.1c0,2.7-2.2,4.9-4.9,4.9c-2.7,0-4.9-2.2-4.9-4.9s2.2-4.9,4.9-4.9  C277.7,213.3,279.9,215.4,279.9,218.1z"
   id="path3512" />
<path
   class="voip0"
   d="M272.1,198.6c0,2.7-2.2,4.9-4.9,4.9c-2.7,0-4.9-2.2-4.9-4.9s2.2-4.9,4.9-4.9  C269.9,193.8,272.1,195.9,272.1,198.6z"
   id="path3514" />
<path
   class="voip0"
   d="M265,125.9c0,2.7-2.2,4.9-4.9,4.9c-2.7,0-4.9-2.2-4.9-4.9c0-2.7,2.2-4.9,4.9-4.9C262.9,121,265,123.2,265,125.9  z"
   id="path3516" />
<path
   class="voip0"
   d="M242.2,116.4c0,2.7-2.2,4.9-4.9,4.9s-4.9-2.2-4.9-4.9s2.2-4.9,4.9-4.9S242.2,113.7,242.2,116.4z"
   id="path3518" />
<path
   class="voip0"
   d="M222.9,115.2c0,2.7-2.2,4.9-4.9,4.9s-4.9-2.2-4.9-4.9s2.2-4.9,4.9-4.9C220.8,110.3,222.9,112.5,222.9,115.2z"
   id="path3520" />
<path
   class="voip0"
   d="M195.2,88.5c0,2.7-2.2,4.9-4.9,4.9s-4.9-2.2-4.9-4.9c0-2.7,2.2-4.9,4.9-4.9S195.2,85.8,195.2,88.5z"
   id="path3522" />
<path
   class="voip0"
   d="M168.5,92.3c0,2.7-2.2,4.9-4.9,4.9s-4.9-2.2-4.9-4.9s2.2-4.9,4.9-4.9S168.5,89.6,168.5,92.3z"
   id="path3524" />
<path
   class="voip0"
   d="M133.2,58.1c0,2.7-2.2,4.9-4.9,4.9s-4.9-2.2-4.9-4.9s2.2-4.9,4.9-4.9C131,53.3,133.2,55.4,133.2,58.1z"
   id="path3526" />
<path
   class="voip0"
   d="M99.9,67.4c0,2.7-2.2,4.9-4.9,4.9c-2.7,0-4.9-2.2-4.9-4.9s2.2-4.9,4.9-4.9S99.9,64.7,99.9,67.4z"
   id="path3528" />
<path
   class="voip0"
   d="M69.7,118.9c0,2.7-2.2,4.9-4.9,4.9c-2.7,0-4.9-2.2-4.9-4.9s2.2-4.9,4.9-4.9C67.5,114,69.7,116.2,69.7,118.9z"
   id="path3530" />
<path
   class="voip0"
   d="M83.5,142.2c0,2.7-2.2,4.9-4.9,4.9c-2.7,0-4.9-2.2-4.9-4.9s2.2-4.9,4.9-4.9S83.5,139.5,83.5,142.2z"
   id="path3532" />
<path
   class="voip0"
   d="M47.5,161.5c0,2.7-2.2,4.9-4.9,4.9s-4.9-2.2-4.9-4.9s2.2-4.9,4.9-4.9C45.3,156.7,47.5,158.8,47.5,161.5z"
   id="path3534" />
<path
   class="voip0"
   d="M107.5,125c0,2.7-2.2,4.9-4.9,4.9s-4.9-2.2-4.9-4.9c0-2.7,2.2-4.9,4.9-4.9S107.5,122.3,107.5,125z"
   id="path3536" />
<path
   class="voip0"
   d="M132.9,145.6c0,2.7-2.2,4.9-4.9,4.9c-2.7,0-4.9-2.2-4.9-4.9s2.2-4.9,4.9-4.9  C130.8,140.7,132.9,142.9,132.9,145.6z"
   id="path3538" />
<path
   class="voip0"
   d="M143.5,184.4c0,2.7-2.2,4.9-4.9,4.9s-4.9-2.2-4.9-4.9s2.2-4.9,4.9-4.9S143.5,181.7,143.5,184.4z"
   id="path3540" />
<path
   class="voip0"
   d="M154.3,214.9c0,2.7-2.2,4.9-4.9,4.9s-4.9-2.2-4.9-4.9s2.2-4.9,4.9-4.9S154.3,212.1,154.3,214.9z"
   id="path3542" />
<path
   class="voip0"
   d="M145.1,244.8c0,2.7-2.2,4.9-4.9,4.9s-4.9-2.2-4.9-4.9s2.2-4.9,4.9-4.9C142.9,239.9,145.1,242.1,145.1,244.8z"
   id="path3544" />
<path
   class="voip0"
   d="M156.3,279.5c0,2.7-2.2,4.9-4.9,4.9s-4.9-2.2-4.9-4.9s2.2-4.9,4.9-4.9C154.2,274.6,156.3,276.8,156.3,279.5z"
   id="path3546" />
<path
   class="voip0"
   d="M168.4,316c0,2.7-2.2,4.9-4.9,4.9s-4.9-2.2-4.9-4.9s2.2-4.9,4.9-4.9S168.4,313.3,168.4,316z"
   id="path3548" />
<path
   class="voip0"
   d="M236.7,333.6c0,2.7-2.2,4.9-4.9,4.9s-4.9-2.2-4.9-4.9s2.2-4.9,4.9-4.9S236.7,330.9,236.7,333.6z"
   id="path3550" />
<path
   class="voip0"
   d="M261.4,411c0,2.7-2.2,4.9-4.9,4.9c-2.7,0-4.9-2.2-4.9-4.9s2.2-4.9,4.9-4.9C259.2,406.1,261.4,408.3,261.4,411z"
   id="path3552" />
<path
   class="voip0"
   d="M318.6,435.2c0,2.7-2.2,4.9-4.9,4.9c-2.7,0-4.9-2.2-4.9-4.9s2.2-4.9,4.9-4.9  C316.4,430.3,318.6,432.5,318.6,435.2z"
   id="path3554" />
<path
   class="voip0"
   d="M338.4,462c0,2.7-2.2,4.9-4.9,4.9c-2.7,0-4.9-2.2-4.9-4.9s2.2-4.9,4.9-4.9C336.3,457.1,338.4,459.3,338.4,462z"
   id="path3556" />
<path
   class="voip0"
   d="M322.9,484.5c0,2.7-2.2,4.9-4.9,4.9c-2.7,0-4.9-2.2-4.9-4.9s2.2-4.9,4.9-4.9S322.9,481.8,322.9,484.5z"
   id="path3558" />
<line
   class="voip0"
   x1="309.6"
   y1="586.2"
   x2="289.9"
   y2="561.8"
   id="line3560" />
<line
   class="voip0"
   x1="308"
   y1="555.9"
   x2="312.4"
   y2="536.7"
   id="line3562" />
<line
   class="voip0"
   x1="309"
   y1="530"
   x2="291.8"
   y2="524.2"
   id="line3564" />
<line
   class="voip0"
   x1="316"
   y1="527.6"
   x2="324.7"
   y2="519.2"
   id="line3566" />
<line
   class="voip0"
   x1="323.9"
   y1="512.1"
   x2="319.4"
   y2="489.2"
   id="line3568" />
<line
   class="voip0"
   x1="330.9"
   y1="511.6"
   x2="346"
   y2="492.6"
   id="line3570" />
<line
   class="voip0"
   x1="346.3"
   y1="483.7"
   x2="335.7"
   y2="466.4"
   id="line3572" />
<path
   class="voip0"
   d="M338.4,460.5c1.2,0,2.4,0,3.6,0"
   id="path3574" />
<line
   class="voip0"
   x1="315.7"
   y1="480.2"
   x2="283"
   y2="451.7"
   id="line3576" />
<line
   class="voip0"
   x1="309.6"
   y1="437.9"
   x2="285.6"
   y2="448.3"
   id="line3578" />
<line
   class="voip0"
   x1="280.9"
   y1="441.9"
   x2="282.5"
   y2="396.9"
   id="line3580" />
<path
   class="voip0"
   d="M286.5,394.8c2.9,1.4,5.7,2.7,8.6,4.1"
   id="path3582" />
<line
   class="voip0"
   x1="316.4"
   y1="439.3"
   x2="330.3"
   y2="458.4"
   id="line3584" />
<line
   class="voip0"
   x1="277.4"
   y1="443.4"
   x2="259.2"
   y2="415"
   id="line3586" />
<line
   class="voip0"
   x1="256.4"
   y1="406.1"
   x2="265.4"
   y2="376.6"
   id="line3588" />
<line
   class="voip0"
   x1="246.6"
   y1="364"
   x2="262.4"
   y2="370.1"
   id="line3590" />
<path
   class="voip0"
   d="M271.4,369.6c2.2-1.8,4.5-3.7,6.7-5.5"
   id="path3592" />
<line
   class="voip0"
   x1="278.2"
   y1="389.7"
   x2="270.4"
   y2="375.9"
   id="line3594" />
<line
   class="voip0"
   x1="287.2"
   y1="552.8"
   x2="287.2"
   y2="527.2"
   id="line3596" />
<line
   class="voip0"
   x1="287.2"
   y1="517.4"
   x2="290"
   y2="488.5"
   id="line3598" />
<line
   class="voip0"
   x1="291"
   y1="518.2"
   x2="315.2"
   y2="488.5"
   id="line3600" />
<path
   class="voip0"
   d="M351.6,484.5c3-2.9,6-5.8,9-8.8"
   id="path3602" />
<line
   class="voip0"
   x1="283"
   y1="451.7"
   x2="290"
   y2="478.8"
   id="line3604" />
<path
   class="voip0"
   d="M353.7,488.5c0,2.7-2.2,4.9-4.9,4.9c-2.7,0-4.9-2.2-4.9-4.9s2.2-4.9,4.9-4.9  C351.4,483.7,353.7,485.8,353.7,488.5z"
   id="path3606" />
<path
   class="voip0"
   d="M318.6,589.8c0,2.7-2.2,4.9-4.9,4.9c-2.7,0-4.9-2.2-4.9-4.9s2.2-4.9,4.9-4.9C316.4,585,318.6,587.1,318.6,589.8  z"
   id="path3608" />
<path
   class="voip0"
   d="M285.9,446.8c0,2.7-2.2,4.9-4.9,4.9c-2.7,0-4.9-2.2-4.9-4.9s2.2-4.9,4.9-4.9  C283.7,441.9,285.9,444.1,285.9,446.8z"
   id="path3610" />
<path
   class="voip0"
   d="M287.4,392c0,2.7-2.2,4.9-4.9,4.9c-2.7,0-4.9-2.2-4.9-4.9s2.2-4.9,4.9-4.9C285.2,387.2,287.4,389.3,287.4,392z"
   id="path3612" />
<line
   class="voip0"
   x1="312.2"
   y1="585.2"
   x2="308"
   y2="565.7"
   id="line3614" />
<line
   class="voip0"
   x1="304.9"
   y1="557.1"
   x2="289.9"
   y2="526.4"
   id="line3616" />
<line
   class="voip0"
   x1="292"
   y1="558.9"
   x2="303.2"
   y2="560.8"
   id="line3618" />
<path
   class="voip0"
   d="M292.2,557.6c0,2.7-2.2,4.9-4.9,4.9c-2.7,0-4.9-2.2-4.9-4.9s2.2-4.9,4.9-4.9  C289.9,552.8,292.2,554.9,292.2,557.6z"
   id="path3620" />
<path
   class="voip0"
   d="M312.9,560.8c0,2.7-2.2,4.9-4.9,4.9c-2.7,0-4.9-2.2-4.9-4.9s2.2-4.9,4.9-4.9  C310.8,555.9,312.9,558.1,312.9,560.8z"
   id="path3622" />
<line
   class="voip0"
   x1="231.8"
   y1="338.5"
   x2="238.4"
   y2="359"
   id="line3624" />
<line
   class="voip0"
   x1="216"
   y1="343.8"
   x2="238.4"
   y2="359"
   id="line3626" />
<line
   class="voip0"
   x1="226.9"
   y1="335.7"
   x2="216.8"
   y2="339.4"
   id="line3628" />
<line
   class="voip0"
   x1="190.8"
   y1="334.7"
   x2="207.2"
   y2="339.4"
   id="line3630" />
<line
   class="voip0"
   x1="204"
   y1="313.6"
   x2="209.6"
   y2="336.7"
   id="line3632" />
<line
   class="voip0"
   x1="178.1"
   y1="310.3"
   x2="184.6"
   y2="327.5"
   id="line3634" />
<line
   class="voip0"
   x1="155.2"
   y1="282.7"
   x2="172.5"
   y2="302.3"
   id="line3636" />
<line
   class="voip0"
   x1="185.5"
   y1="283.9"
   x2="177.9"
   y2="302.1"
   id="line3638" />
<line
   class="voip0"
   x1="140.2"
   y1="249.7"
   x2="149.6"
   y2="275"
   id="line3640" />
<line
   class="voip0"
   x1="147.7"
   y1="219.7"
   x2="141.4"
   y2="240.1"
   id="line3642" />
<line
   class="voip0"
   x1="140.2"
   y1="189"
   x2="148.4"
   y2="210"
   id="line3644" />
<line
   class="voip0"
   x1="130.2"
   y1="150"
   x2="138.6"
   y2="179.5"
   id="line3646" />
<line
   class="voip0"
   x1="106.4"
   y1="128.1"
   x2="125.3"
   y2="141.5"
   id="line3648" />
<line
   class="voip0"
   x1="82.7"
   y1="139.5"
   x2="98.4"
   y2="127.4"
   id="line3650" />
<line
   class="voip0"
   x1="76.1"
   y1="138"
   x2="67.2"
   y2="123.2"
   id="line3652" />
<line
   class="voip0"
   x1="153.6"
   y1="283.9"
   x2="161"
   y2="311.2"
   id="line3654" />
<line
   class="voip0"
   x1="199"
   y1="312.6"
   x2="190"
   y2="328.1"
   id="line3656" />
<line
   class="voip0"
   x1="47.4"
   y1="160.2"
   x2="75"
   y2="145.6"
   id="line3658" />
<line
   class="voip0"
   x1="68.4"
   y1="115.6"
   x2="83.5"
   y2="109.6"
   id="line3660" />
<line
   class="voip0"
   x1="101.4"
   y1="120.1"
   x2="97"
   y2="98.3"
   id="line3662" />
<line
   class="voip0"
   x1="92.1"
   y1="93.4"
   x2="81.9"
   y2="92.6"
   id="line3664" />
<line
   class="voip0"
   x1="97"
   y1="88.5"
   x2="96.1"
   y2="72.1"
   id="line3666" />
<line
   class="voip0"
   x1="99.8"
   y1="66.1"
   x2="123.5"
   y2="59.2"
   id="line3668" />
<line
   class="voip0"
   x1="131.8"
   y1="61.6"
   x2="161.7"
   y2="87.8"
   id="line3670" />
<line
   class="voip0"
   x1="168.4"
   y1="91.3"
   x2="185.4"
   y2="89.6"
   id="line3672" />
<line
   class="voip0"
   x1="193.7"
   y1="92"
   x2="215.6"
   y2="111"
   id="line3674" />
<line
   class="voip0"
   x1="232.4"
   y1="116.4"
   x2="222.9"
   y2="115.2"
   id="line3676" />
<line
   class="voip0"
   x1="245.9"
   y1="102.9"
   x2="225.4"
   y2="98.1"
   id="line3678" />
<line
   class="voip0"
   x1="222.4"
   y1="90.5"
   x2="223.4"
   y2="86.4"
   id="line3680" />
<line
   class="voip0"
   x1="227.7"
   y1="79.2"
   x2="232.4"
   y2="75.7"
   id="line3682" />
<line
   class="voip0"
   x1="213.8"
   y1="72.5"
   x2="222.6"
   y2="65.9"
   id="line3684" />
<line
   class="voip0"
   x1="250.9"
   y1="98.1"
   x2="253.9"
   y2="78.9"
   id="line3686" />
<line
   class="voip0"
   x1="245.4"
   y1="88.4"
   x2="253.9"
   y2="78.9"
   id="line3688" />
<line
   class="voip0"
   x1="255.5"
   y1="124.2"
   x2="242.2"
   y2="118.1"
   id="line3690" />
<line
   class="voip0"
   x1="271.5"
   y1="118.1"
   x2="264.6"
   y2="123"
   id="line3692" />
<line
   class="voip0"
   x1="293.8"
   y1="122.5"
   x2="281.4"
   y2="131.8"
   id="line3694" />
<path
   class="voip0"
   d="M317.6,153.7c-3-2-5.9-4.1-8.9-6.1"
   id="path3696" />
<path
   class="voip0"
   d="M323.4,138.5c0,3.3,0,6.5,0,9.8"
   id="path3698" />
<path
   class="voip0"
   d="M336,122.8c1,2.7,2.1,5.3,3.1,8"
   id="path3700" />
<line
   class="voip0"
   x1="372.2"
   y1="102"
   x2="374.4"
   y2="82.2"
   id="line3702" />
<line
   class="voip0"
   x1="369.7"
   y1="76.2"
   x2="360.2"
   y2="72.2"
   id="line3704" />
<line
   class="voip0"
   x1="355.3"
   y1="67.3"
   x2="353.9"
   y2="61.6"
   id="line3706" />
<line
   class="voip0"
   x1="369.3"
   y1="51.2"
   x2="358.4"
   y2="55"
   id="line3708" />
<line
   class="voip0"
   x1="388.8"
   y1="33.8"
   x2="376.9"
   y2="44.7"
   id="line3710" />
<line
   class="voip0"
   x1="413.9"
   y1="28.9"
   x2="397.4"
   y2="30.8"
   id="line3712" />
<line
   class="voip0"
   x1="434"
   y1="19"
   x2="423.6"
   y2="24.9"
   id="line3714" />
<line
   class="voip0"
   x1="448.9"
   y1="23.3"
   x2="439.9"
   y2="30.5"
   id="line3716" />
<line
   class="voip0"
   x1="432"
   y1="31.2"
   x2="423.2"
   y2="29.6"
   id="line3718" />
<line
   class="voip0"
   x1="447.4"
   y1="43"
   x2="439.3"
   y2="37.5"
   id="line3720" />
<line
   class="voip0"
   x1="466.8"
   y1="44.1"
   x2="455.9"
   y2="44.8"
   id="line3722" />
<line
   class="voip0"
   x1="468"
   y1="45.5"
   x2="458.4"
   y2="60.3"
   id="line3724" />
<line
   class="voip0"
   x1="685.1"
   y1="29.6"
   x2="677.3"
   y2="23.9"
   id="line3726" />
<path
   class="voip0"
   d="M332.3,137.5c-1.5-0.6-3-1.3-4.5-1.9"
   id="path3728" />
<line
   class="voip0"
   x1="273.9"
   y1="138.5"
   x2="256.4"
   y2="149.8"
   id="line3730" />
<line
   class="voip0"
   x1="248.9"
   y1="156.1"
   x2="241.4"
   y2="166.3"
   id="line3732" />
<line
   class="voip0"
   x1="241.5"
   y1="174.5"
   x2="264.1"
   y2="194.9"
   id="line3734" />
<line
   class="voip0"
   x1="268.9"
   y1="203.3"
   x2="273"
   y2="213.7"
   id="line3736" />
<line
   class="voip0"
   x1="283.6"
   y1="203.5"
   x2="277.7"
   y2="213.7"
   id="line3738" />
<line
   class="voip0"
   x1="298.6"
   y1="167"
   x2="288.5"
   y2="194.4"
   id="line3740" />
<path
   class="voip0"
   d="M303.3,167c0.8,1.8,1.6,3.5,2.4,5.3"
   id="path3742" />
<line
   class="voip0"
   x1="268.7"
   y1="278.1"
   x2="255.2"
   y2="287.2"
   id="line3744" />
<line
   class="voip0"
   x1="252.2"
   y1="294.6"
   x2="254.9"
   y2="303.4"
   id="line3746" />
<line
   class="voip0"
   x1="246.5"
   y1="291.5"
   x2="226.9"
   y2="293.3"
   id="line3748" />
<line
   class="voip0"
   x1="217.3"
   y1="294.7"
   x2="205.2"
   y2="305.1"
   id="line3750" />
<line
   class="voip0"
   x1="218.3"
   y1="290"
   x2="192.7"
   y2="281.2"
   id="line3752" />
<line
   class="voip0"
   x1="248.9"
   y1="285"
   x2="230.3"
   y2="262.3"
   id="line3754" />
<line
   class="voip0"
   x1="263.9"
   y1="327.5"
   x2="254.7"
   y2="323.8"
   id="line3756" />
<line
   class="voip0"
   x1="223.2"
   y1="258"
   x2="200"
   y2="256.6"
   id="line3758" />
<line
   class="voip0"
   x1="190.3"
   y1="255.2"
   x2="180.1"
   y2="250.9"
   id="line3760" />
<line
   class="voip0"
   x1="196.7"
   y1="250.3"
   x2="199"
   y2="235.7"
   id="line3762" />
<line
   class="voip0"
   x1="191.4"
   y1="276.2"
   x2="224.1"
   y2="260.7"
   id="line3764" />
<line
   class="voip0"
   x1="185.2"
   y1="275.4"
   x2="175.2"
   y2="255.7"
   id="line3766" />
<line
   class="voip0"
   x1="170.3"
   y1="250.9"
   x2="145.1"
   y2="244.8"
   id="line3768" />
<line
   class="voip0"
   x1="194.1"
   y1="229.1"
   x2="175.3"
   y2="207.4"
   id="line3770" />
<line
   class="voip0"
   x1="199"
   y1="226"
   x2="201.6"
   y2="201.3"
   id="line3772" />
<line
   class="voip0"
   x1="203.9"
   y1="230.8"
   x2="239.2"
   y2="218.2"
   id="line3774" />
<line
   class="voip0"
   x1="233"
   y1="256.6"
   x2="252.9"
   y2="249.7"
   id="line3776" />
<line
   class="voip0"
   x1="273.2"
   y1="234.3"
   x2="273.7"
   y2="223.1"
   id="line3778" />
<line
   class="voip0"
   x1="229.3"
   y1="253.2"
   x2="241.5"
   y2="219.9"
   id="line3780" />
<line
   class="voip0"
   x1="246.9"
   y1="212.1"
   x2="263.5"
   y2="201.8"
   id="line3782" />
<line
   class="voip0"
   x1="205.5"
   y1="193.5"
   x2="234"
   y2="173.3"
   id="line3784" />
<line
   class="voip0"
   x1="203.9"
   y1="191.5"
   x2="212.7"
   y2="173.3"
   id="line3786" />
<line
   class="voip0"
   x1="175.5"
   y1="171.2"
   x2="211.2"
   y2="169"
   id="line3788" />
<line
   class="voip0"
   x1="157.4"
   y1="149"
   x2="168.5"
   y2="166.3"
   id="line3790" />
<line
   class="voip0"
   x1="143.5"
   y1="184.4"
   x2="170.6"
   y2="198.6"
   id="line3792" />
<line
   class="voip0"
   x1="143.1"
   y1="182.4"
   x2="165.7"
   y2="173.3"
   id="line3794" />
<line
   class="voip0"
   x1="157.7"
   y1="140.8"
   x2="173.1"
   y2="123.8"
   id="line3796" />
<line
   class="voip0"
   x1="173.8"
   y1="116.4"
   x2="165.7"
   y2="96.8"
   id="line3798" />
<line
   class="voip0"
   x1="130.1"
   y1="111.5"
   x2="135.5"
   y2="97.9"
   id="line3800" />
<line
   class="voip0"
   x1="128.1"
   y1="140.7"
   x2="130.1"
   y2="121.3"
   id="line3802" />
<line
   class="voip0"
   x1="226.3"
   y1="140.7"
   x2="206.2"
   y2="133.4"
   id="line3804" />
<line
   class="voip0"
   x1="237.4"
   y1="121.3"
   x2="231.1"
   y2="135.8"
   id="line3806" />
<line
   class="voip0"
   x1="150"
   y1="144.8"
   x2="132.3"
   y2="143.1"
   id="line3808" />
<line
   class="voip0"
   x1="130.6"
   y1="93"
   x2="101.9"
   y2="93.4"
   id="line3810" />
<line
   class="voip0"
   x1="135.5"
   y1="88.1"
   x2="130.1"
   y2="62.5"
   id="line3812" />
<line
   class="voip0"
   x1="318.9"
   y1="95.9"
   x2="334.6"
   y2="113.2"
   id="line3814" />
<line
   class="voip0"
   x1="321.9"
   y1="129"
   x2="316.7"
   y2="117"
   id="line3816" />
<line
   class="voip0"
   x1="310.2"
   y1="110.5"
   x2="296.9"
   y2="106.2"
   id="line3818" />
<line
   class="voip0"
   x1="314.2"
   y1="74.8"
   x2="304.9"
   y2="70.7"
   id="line3820" />
<line
   class="voip0"
   x1="325.9"
   y1="61.9"
   x2="317.6"
   y2="58.7"
   id="line3822" />
<line
   class="voip0"
   x1="346.4"
   y1="45.5"
   x2="333.9"
   y2="58.2"
   id="line3824" />
<line
   class="voip0"
   x1="382.4"
   y1="23.3"
   x2="354.4"
   y2="39.2"
   id="line3826" />
<line
   class="voip0"
   x1="381.4"
   y1="20.3"
   x2="353.9"
   y2="24.2"
   id="line3828" />
<line
   class="voip0"
   x1="384.4"
   y1="15.9"
   x2="369.2"
   y2="10.8"
   id="line3830" />
<line
   class="voip0"
   x1="360"
   y1="8.4"
   x2="340.3"
   y2="14.4"
   id="line3832" />
<line
   class="voip0"
   x1="318.9"
   y1="95.9"
   x2="316.2"
   y2="107.4"
   id="line3834" />
<line
   class="voip0"
   x1="339"
   y1="17.5"
   x2="345"
   y2="22.5"
   id="line3836" />
<line
   class="voip0"
   x1="350.4"
   y1="37"
   x2="348.9"
   y2="30.5"
   id="line3838" />
<line
   class="voip0"
   x1="345.9"
   y1="39.2"
   x2="338.4"
   y2="37.8"
   id="line3840" />
<line
   class="voip0"
   x1="331.4"
   y1="40.2"
   x2="315.6"
   y2="52.4"
   id="line3842" />
<line
   class="voip0"
   x1="421.9"
   y1="59.2"
   x2="450.4"
   y2="64.1"
   id="line3844" />
<line
   class="voip0"
   x1="414.4"
   y1="61.9"
   x2="406.9"
   y2="79.5"
   id="line3846" />
<line
   class="voip0"
   x1="379.3"
   y1="78.5"
   x2="400.4"
   y2="83.2"
   id="line3848" />
<line
   class="voip0"
   x1="409.6"
   y1="80.9"
   x2="451"
   y2="66.5"
   id="line3850" />
<line
   class="voip0"
   x1="378.3"
   y1="51.2"
   x2="412.2"
   y2="57.7"
   id="line3852" />
<line
   class="voip0"
   x1="395.6"
   y1="34.7"
   x2="413.9"
   y2="53.8"
   id="line3854" />
<line
   class="voip0"
   x1="418.9"
   y1="32.2"
   x2="417"
   y2="52.8"
   id="line3856" />
<line
   class="voip0"
   x1="446.7"
   y1="48.6"
   x2="421.2"
   y2="55"
   id="line3858" />
<line
   class="voip0"
   x1="943.6"
   y1="525.8"
   x2="949.7"
   y2="512.7"
   id="line3860" />
<line
   class="voip0"
   x1="988.9"
   y1="577.2"
   x2="1003.1"
   y2="565.1"
   id="line3862" />
<line
   class="voip0"
   x1="949.7"
   y1="505.3"
   x2="930.7"
   y2="489.7"
   id="line3864" />
<line
   class="voip0"
   x1="960.1"
   y1="479.4"
   x2="940.2"
   y2="442.2"
   id="line3866" />
<line
   class="voip0"
   x1="934.8"
   y1="456.5"
   x2="937.4"
   y2="443.1"
   id="line3868" />
<line
   class="voip0"
   x1="915.7"
   y1="452.3"
   x2="929.9"
   y2="459.4"
   id="line3870" />
<line
   class="voip0"
   x1="915.6"
   y1="440.5"
   x2="913.7"
   y2="445.3"
   id="line3872" />
<line
   class="voip0"
   x1="913"
   y1="436.3"
   x2="893.6"
   y2="443.9"
   id="line3874" />
<line
   class="voip0"
   x1="954.3"
   y1="422.4"
   x2="946"
   y2="414.8"
   id="line3876" />
<line
   class="voip0"
   x1="937.6"
   y1="410.1"
   x2="914.6"
   y2="404.9"
   id="line3878" />
<line
   class="voip0"
   x1="855.2"
   y1="382"
   x2="841.3"
   y2="389.2"
   id="line3880" />
<line
   class="voip0"
   x1="818.4"
   y1="404.9"
   x2="799.2"
   y2="384.1"
   id="line3882" />
<line
   class="voip0"
   x1="814.9"
   y1="380.4"
   x2="804.8"
   y2="357.2"
   id="line3884" />
<line
   class="voip0"
   x1="823.4"
   y1="358.6"
   x2="808.4"
   y2="353"
   id="line3886" />
<line
   class="voip0"
   x1="828.3"
   y1="353.7"
   x2="820.1"
   y2="331.9"
   id="line3888" />
<line
   class="voip0"
   x1="800.7"
   y1="348.4"
   x2="782.6"
   y2="322.8"
   id="line3890" />
<line
   class="voip0"
   x1="774.9"
   y1="318.7"
   x2="769.5"
   y2="319.9"
   id="line3892" />
<line
   class="voip0"
   x1="672.7"
   y1="139.3"
   x2="661.4"
   y2="106.9"
   id="line3894" />
<line
   class="voip0"
   x1="859.3"
   y1="384.3"
   x2="856.9"
   y2="399.6"
   id="line3896" />
<line
   class="voip0"
   x1="842.4"
   y1="395.6"
   x2="852.4"
   y2="402.5"
   id="line3898" />
<line
   class="voip0"
   x1="955"
   y1="504.1"
   x2="961.6"
   y2="488.6"
   id="line3900" />
<path
   class="voip0"
   d="M933.9,553.8c0,2.7-2.2,4.9-4.9,4.9s-4.9-2.2-4.9-4.9s2.2-4.9,4.9-4.9S933.9,551.1,933.9,553.8z"
   id="path3902" />
<path
   class="voip0"
   d="M990.6,582.1c0,2.7-2.2,4.9-4.9,4.9s-4.9-2.2-4.9-4.9s2.2-4.9,4.9-4.9S990.6,579.4,990.6,582.1z"
   id="path3904" />
<path
   class="voip0"
   d="M1010.8,561.1c0,2.7-2.2,4.9-4.9,4.9s-4.9-2.2-4.9-4.9s2.2-4.9,4.9-4.9S1010.8,558.4,1010.8,561.1z"
   id="path3906" />
<path
   id="path3908"
   class="voip1"
   d="M1026,546.2c0,2.7-2.2,4.9-4.9,4.9s-4.9-2.2-4.9-4.9s2.2-4.9,4.9-4.9  S1026,543.5,1026,546.2z" />
<path
   class="voip0"
   d="M1009.6,467.7c0,2.7-2.2,4.9-4.9,4.9s-4.9-2.2-4.9-4.9s2.2-4.9,4.9-4.9S1009.6,465,1009.6,467.7z"
   id="path3910" />
<path
   class="voip0"
   d="M1016.5,446.6c0,2.7-2.2,4.9-4.9,4.9s-4.9-2.2-4.9-4.9s2.2-4.9,4.9-4.9C1014.2,441.7,1016.5,443.9,1016.5,446.6  z"
   id="path3912" />
<path
   class="voip0"
   d="M998.6,425.7c0,2.7-2.2,4.9-4.9,4.9s-4.9-2.2-4.9-4.9s2.2-4.9,4.9-4.9C996.4,420.9,998.6,423,998.6,425.7z"
   id="path3914" />
<path
   class="voip0"
   d="M984.4,414.8c0,2.7-2.2,4.9-4.9,4.9s-4.9-2.2-4.9-4.9s2.2-4.9,4.9-4.9C982.3,409.9,984.4,412.1,984.4,414.8z"
   id="path3916" />
<path
   class="voip0"
   d="M968.8,412c0,2.7-2.2,4.9-4.9,4.9s-4.9-2.2-4.9-4.9s2.2-4.9,4.9-4.9S968.8,409.3,968.8,412z"
   id="path3918" />
<path
   class="voip0"
   d="M947.2,411.7c0,2.7-2.2,4.9-4.9,4.9s-4.9-2.2-4.9-4.9s2.2-4.9,4.9-4.9S947.2,409,947.2,411.7z"
   id="path3920" />
<path
   class="voip0"
   d="M962.9,425.6c0,2.7-2.2,4.9-4.9,4.9s-4.9-2.2-4.9-4.9s2.2-4.9,4.9-4.9S962.9,422.9,962.9,425.6z"
   id="path3922" />
<path
   class="voip0"
   d="M915.6,402.5c0,2.7-2.2,4.9-4.9,4.9s-4.9-2.2-4.9-4.9s2.2-4.9,4.9-4.9S915.6,399.8,915.6,402.5z"
   id="path3924" />
<path
   class="voip0"
   d="M901.7,405.8c0,2.7-2.2,4.9-4.9,4.9s-4.9-2.2-4.9-4.9s2.2-4.9,4.9-4.9C899.6,400.9,901.7,403.1,901.7,405.8z"
   id="path3926" />
<path
   class="voip0"
   d="M897.9,390.7c0,2.7-2.2,4.9-4.9,4.9s-4.9-2.2-4.9-4.9s2.2-4.9,4.9-4.9S897.9,388,897.9,390.7z"
   id="path3928" />
<path
   class="voip0"
   d="M878.3,401.5c0,2.7-2.2,4.9-4.9,4.9s-4.9-2.2-4.9-4.9s2.2-4.9,4.9-4.9S878.3,398.8,878.3,401.5z"
   id="path3930" />
<path
   class="voip0"
   d="M889.2,370.5c0,2.7-2.2,4.9-4.9,4.9s-4.9-2.2-4.9-4.9s2.2-4.9,4.9-4.9S889.2,367.8,889.2,370.5z"
   id="path3932" />
<path
   class="voip0"
   d="M882.7,358.6c0,2.7-2.2,4.9-4.9,4.9s-4.9-2.2-4.9-4.9s2.2-4.9,4.9-4.9C880.6,353.7,882.7,355.9,882.7,358.6z"
   id="path3934" />
<path
   class="voip0"
   d="M826.7,408.4c0,2.7-2.2,4.9-4.9,4.9s-4.9-2.2-4.9-4.9s2.2-4.9,4.9-4.9C824.6,403.5,826.7,405.7,826.7,408.4z"
   id="path3936" />
<path
   class="voip0"
   d="M801,380.3c0,2.7-2.2,4.9-4.9,4.9s-4.9-2.2-4.9-4.9s2.2-4.9,4.9-4.9S801,377.6,801,380.3z"
   id="path3938" />
<path
   class="voip0"
   d="M823.6,384.3c0,2.7-2.2,4.9-4.9,4.9s-4.9-2.2-4.9-4.9s2.2-4.9,4.9-4.9S823.6,381.6,823.6,384.3z"
   id="path3940" />
<path
   class="voip0"
   d="M808.2,352.5c0,2.7-2.2,4.9-4.9,4.9s-4.9-2.2-4.9-4.9s2.2-4.9,4.9-4.9C806.1,347.6,808.2,349.8,808.2,352.5z"
   id="path3942" />
<path
   class="voip0"
   d="M833.2,358.6c0,2.7-2.2,4.9-4.9,4.9s-4.9-2.2-4.9-4.9s2.2-4.9,4.9-4.9S833.2,355.9,833.2,358.6z"
   id="path3944" />
<path
   class="voip0"
   d="M823.6,327.2c0,2.7-2.2,4.9-4.9,4.9s-4.9-2.2-4.9-4.9s2.2-4.9,4.9-4.9S823.6,324.5,823.6,327.2z"
   id="path3946" />
<path
   class="voip0"
   d="M784.7,318.7c0,2.7-2.2,4.9-4.9,4.9s-4.9-2.2-4.9-4.9s2.2-4.9,4.9-4.9C782.6,313.8,784.7,316,784.7,318.7z"
   id="path3948" />
<path
   class="voip0"
   d="M825.8,288.2c0,2.7-2.2,4.9-4.9,4.9s-4.9-2.2-4.9-4.9s2.2-4.9,4.9-4.9S825.8,285.5,825.8,288.2z"
   id="path3950" />
<path
   class="voip0"
   d="M808.8,237.4c0,2.7-2.2,4.9-4.9,4.9s-4.9-2.2-4.9-4.9s2.2-4.9,4.9-4.9S808.8,234.7,808.8,237.4z"
   id="path3952" />
<path
   class="voip0"
   d="M864.6,102.5c0,2.7-2.2,4.9-4.9,4.9s-4.9-2.2-4.9-4.9s2.2-4.9,4.9-4.9C862.4,97.7,864.6,99.8,864.6,102.5z"
   id="path3954" />
<path
   class="voip0"
   d="M787.9,120.5c0,2.7-2.2,4.9-4.9,4.9s-4.9-2.2-4.9-4.9s2.2-4.9,4.9-4.9S787.9,117.8,787.9,120.5z"
   id="path3956" />
<path
   class="voip0"
   d="M742.4,152.5c0,2.7-2.2,4.9-4.9,4.9s-4.9-2.2-4.9-4.9s2.2-4.9,4.9-4.9S742.4,149.8,742.4,152.5z"
   id="path3958" />
<path
   class="voip0"
   d="M783,145.1c0,2.7-2.2,4.9-4.9,4.9s-4.9-2.2-4.9-4.9s2.2-4.9,4.9-4.9S783,142.4,783,145.1z"
   id="path3960" />
<path
   class="voip0"
   d="M762.4,193c0,2.7-2.2,4.9-4.9,4.9s-4.9-2.2-4.9-4.9s2.2-4.9,4.9-4.9C760.3,188.1,762.4,190.3,762.4,193z"
   id="path3962" />
<path
   class="voip0"
   d="M905.7,86.4c0,2.7-2.2,4.9-4.9,4.9s-4.9-2.2-4.9-4.9s2.2-4.9,4.9-4.9C903.6,81.5,905.7,83.7,905.7,86.4z"
   id="path3964" />
<path
   class="voip0"
   d="M700.6,77.1c0,2.7-2.2,4.9-4.9,4.9s-4.9-2.2-4.9-4.9s2.2-4.9,4.9-4.9C698.3,72.2,700.6,74.4,700.6,77.1z"
   id="path3966" />
<path
   class="voip0"
   d="M720,48.6c0,2.7-2.2,4.9-4.9,4.9s-4.9-2.2-4.9-4.9s2.2-4.9,4.9-4.9S720,45.9,720,48.6z"
   id="path3968" />
<path
   class="voip0"
   d="M792.8,66.9c0,2.7-2.2,4.9-4.9,4.9s-4.9-2.2-4.9-4.9s2.2-4.9,4.9-4.9C790.6,62.1,792.8,64.2,792.8,66.9z"
   id="path3970" />
<path
   class="voip0"
   d="M813.8,83.4c0,2.7-2.2,4.9-4.9,4.9s-4.9-2.2-4.9-4.9s2.2-4.9,4.9-4.9S813.8,80.7,813.8,83.4z"
   id="path3972" />
<path
   class="voip0"
   d="M833,58.8c0,2.7-2.2,4.9-4.9,4.9s-4.9-2.2-4.9-4.9s2.2-4.9,4.9-4.9C830.8,54,833,56.1,833,58.8z"
   id="path3974" />
<path
   class="voip0"
   d="M875.7,58.8c0,2.7-2.2,4.9-4.9,4.9s-4.9-2.2-4.9-4.9s2.2-4.9,4.9-4.9C873.6,53.9,875.7,56.1,875.7,58.8z"
   id="path3976" />
<path
   class="voip0"
   d="M918.7,55.6c0,2.7-2.2,4.9-4.9,4.9s-4.9-2.2-4.9-4.9s2.2-4.9,4.9-4.9C916.6,50.7,918.7,52.9,918.7,55.6z"
   id="path3978" />
<path
   class="voip0"
   d="M967.6,56.4c0,2.7-2.2,4.9-4.9,4.9s-4.9-2.2-4.9-4.9s2.2-4.9,4.9-4.9S967.6,53.7,967.6,56.4z"
   id="path3980" />
<path
   class="voip0"
   d="M940.6,122.5c0,2.7-2.2,4.9-4.9,4.9s-4.9-2.2-4.9-4.9c0-2.7,2.2-4.9,4.9-4.9S940.6,119.8,940.6,122.5z"
   id="path3982" />
<path
   class="voip0"
   d="M928.6,106.4c0,2.7-2.2,4.9-4.9,4.9s-4.9-2.2-4.9-4.9s2.2-4.9,4.9-4.9S928.6,103.7,928.6,106.4z"
   id="path3984" />
<path
   class="voip0"
   d="M910.6,136.2c0,2.7-2.2,4.9-4.9,4.9s-4.9-2.2-4.9-4.9s2.2-4.9,4.9-4.9C908.4,131.3,910.6,133.5,910.6,136.2z"
   id="path3986" />
<path
   class="voip0"
   d="M882,145.1c0,2.7-2.2,4.9-4.9,4.9s-4.9-2.2-4.9-4.9s2.2-4.9,4.9-4.9S882,142.4,882,145.1z"
   id="path3988" />
<path
   class="voip0"
   d="M871.2,178.3c0,2.7-2.2,4.9-4.9,4.9s-4.9-2.2-4.9-4.9s2.2-4.9,4.9-4.9S871.2,175.6,871.2,178.3z"
   id="path3990" />
<path
   class="voip0"
   d="M893.8,184.1c0,2.7-2.2,4.9-4.9,4.9s-4.9-2.2-4.9-4.9s2.2-4.9,4.9-4.9C891.6,179.3,893.8,181.4,893.8,184.1z"
   id="path3992" />
<path
   class="voip0"
   d="M898.7,204.2c0,2.7-2.2,4.9-4.9,4.9s-4.9-2.2-4.9-4.9s2.2-4.9,4.9-4.9C896.6,199.3,898.7,201.5,898.7,204.2z"
   id="path3994" />
<path
   class="voip0"
   d="M889.8,231c0,2.7-2.2,4.9-4.9,4.9s-4.9-2.2-4.9-4.9s2.2-4.9,4.9-4.9C887.6,226.2,889.8,228.3,889.8,231z"
   id="path3996" />
<path
   class="voip0"
   d="M873.1,247.3c0,2.7-2.2,4.9-4.9,4.9s-4.9-2.2-4.9-4.9s2.2-4.9,4.9-4.9S873.1,244.6,873.1,247.3z"
   id="path3998" />
<path
   class="voip0"
   d="M884.7,268c0,2.7-2.2,4.9-4.9,4.9s-4.9-2.2-4.9-4.9s2.2-4.9,4.9-4.9C882.6,263.1,884.7,265.3,884.7,268z"
   id="path4000" />
<path
   class="voip0"
   d="M894.3,281.4c0,2.7-2.2,4.9-4.9,4.9s-4.9-2.2-4.9-4.9s2.2-4.9,4.9-4.9S894.3,278.7,894.3,281.4z"
   id="path4002" />
<path
   class="voip0"
   d="M906.9,271.6c0,2.7-2.2,4.9-4.9,4.9s-4.9-2.2-4.9-4.9s2.2-4.9,4.9-4.9C904.7,266.8,906.9,268.9,906.9,271.6z"
   id="path4004" />
<path
   class="voip0"
   d="M918.2,264.7c0,2.7-2.2,4.9-4.9,4.9s-4.9-2.2-4.9-4.9c0-2.7,2.2-4.9,4.9-4.9S918.2,262,918.2,264.7z"
   id="path4006" />
<path
   class="voip0"
   d="M918.2,245.5c0,2.7-2.2,4.9-4.9,4.9s-4.9-2.2-4.9-4.9s2.2-4.9,4.9-4.9S918.2,242.8,918.2,245.5z"
   id="path4008" />
<path
   class="voip0"
   d="M918.2,229.7c0,2.7-2.2,4.9-4.9,4.9s-4.9-2.2-4.9-4.9s2.2-4.9,4.9-4.9S918.2,227,918.2,229.7z"
   id="path4010" />
<path
   class="voip0"
   d="M846.6,261.2c0,2.7-2.2,4.9-4.9,4.9s-4.9-2.2-4.9-4.9s2.2-4.9,4.9-4.9S846.6,258.5,846.6,261.2z"
   id="path4012" />
<path
   class="voip0"
   d="M865,290.1c0,2.7-2.2,4.9-4.9,4.9s-4.9-2.2-4.9-4.9s2.2-4.9,4.9-4.9S865,287.4,865,290.1z"
   id="path4014" />
<path
   class="voip0"
   d="M845.1,317.4c0,2.7-2.2,4.9-4.9,4.9s-4.9-2.2-4.9-4.9s2.2-4.9,4.9-4.9C842.9,312.6,845.1,314.7,845.1,317.4z"
   id="path4016" />
<path
   class="voip0"
   d="M946.9,181.1c0,2.7-2.2,4.9-4.9,4.9s-4.9-2.2-4.9-4.9s2.2-4.9,4.9-4.9S946.9,178.4,946.9,181.1z"
   id="path4018" />
<path
   class="voip0"
   d="M938.9,153.9c0,2.7-2.2,4.9-4.9,4.9s-4.9-2.2-4.9-4.9s2.2-4.9,4.9-4.9S938.9,151.2,938.9,153.9z"
   id="path4020" />
<path
   class="voip0"
   d="M683.2,106.5c0,2.7-2.2,4.9-4.9,4.9s-4.9-2.2-4.9-4.9s2.2-4.9,4.9-4.9S683.2,103.8,683.2,106.5z"
   id="path4022" />
<path
   class="voip0"
   d="M704.7,110.9c0,2.7-2.2,4.9-4.9,4.9s-4.9-2.2-4.9-4.9s2.2-4.9,4.9-4.9C702.6,106,704.7,108.2,704.7,110.9z"
   id="path4024" />
<path
   class="voip0"
   d="M678.9,144.2c0,2.7-2.2,4.9-4.9,4.9s-4.9-2.2-4.9-4.9s2.2-4.9,4.9-4.9S678.9,141.5,678.9,144.2z"
   id="path4026" />
<path
   class="voip0"
   d="M665,102.5c0,2.7-2.2,4.9-4.9,4.9s-4.9-2.2-4.9-4.9s2.2-4.9,4.9-4.9C662.8,97.7,665,99.8,665,102.5z"
   id="path4028" />
<path
   class="voip0"
   d="M627.8,93.4c0,2.7-2.2,4.9-4.9,4.9s-4.9-2.2-4.9-4.9s2.2-4.9,4.9-4.9S627.8,90.7,627.8,93.4z"
   id="path4030" />
<path
   class="voip0"
   d="M645.2,70.4c0,2.7-2.2,4.9-4.9,4.9s-4.9-2.2-4.9-4.9s2.2-4.9,4.9-4.9C643,65.6,645.2,67.7,645.2,70.4z"
   id="path4032" />
<path
   class="voip0"
   d="M875.7,344.4c0,2.7-2.2,4.9-4.9,4.9s-4.9-2.2-4.9-4.9s2.2-4.9,4.9-4.9C873.6,339.5,875.7,341.6,875.7,344.4z"
   id="path4034" />
<path
   class="voip0"
   d="M872.6,316.8c0,2.7-2.2,4.9-4.9,4.9s-4.9-2.2-4.9-4.9s2.2-4.9,4.9-4.9C870.3,312,872.6,314.1,872.6,316.8z"
   id="path4036" />
<path
   class="voip0"
   d="M865.6,422.4c0,2.7-2.2,4.9-4.9,4.9s-4.9-2.2-4.9-4.9s2.2-4.9,4.9-4.9S865.6,419.7,865.6,422.4z"
   id="path4038" />
<path
   class="voip0"
   d="M843.1,419.9c0,2.7-2.2,4.9-4.9,4.9s-4.9-2.2-4.9-4.9s2.2-4.9,4.9-4.9C841,415,843.1,417.2,843.1,419.9z"
   id="path4040" />
<path
   class="voip0"
   d="M887.1,423.8c0,2.7-2.2,4.9-4.9,4.9s-4.9-2.2-4.9-4.9c0-2.7,2.2-4.9,4.9-4.9C885,419,887.1,421.1,887.1,423.8z"
   id="path4042" />
<path
   class="voip0"
   d="M914.4,419c0,2.7-2.2,4.9-4.9,4.9s-4.9-2.2-4.9-4.9s2.2-4.9,4.9-4.9S914.4,416.3,914.4,419z"
   id="path4044" />
<path
   class="voip0"
   d="M911.3,513c0,2.7-2.2,4.9-4.9,4.9s-4.9-2.2-4.9-4.9c0-2.7,2.2-4.9,4.9-4.9S911.3,510.2,911.3,513z"
   id="path4046" />
<path
   class="voip0"
   d="M897.4,499.2c0,2.7-2.2,4.9-4.9,4.9s-4.9-2.2-4.9-4.9s2.2-4.9,4.9-4.9S897.4,496.5,897.4,499.2z"
   id="path4048" />
<path
   class="voip0"
   d="M850.6,513c0,2.7-2.2,4.9-4.9,4.9s-4.9-2.2-4.9-4.9c0-2.7,2.2-4.9,4.9-4.9C848.3,508.1,850.6,510.2,850.6,513z"
   id="path4050" />
<path
   class="voip0"
   d="M853.3,470.6c0,2.7-2.2,4.9-4.9,4.9s-4.9-2.2-4.9-4.9s2.2-4.9,4.9-4.9S853.3,467.9,853.3,470.6z"
   id="path4052" />
<path
   class="voip0"
   d="M893.6,443.9c0,2.7-2.2,4.9-4.9,4.9s-4.9-2.2-4.9-4.9s2.2-4.9,4.9-4.9S893.6,441.2,893.6,443.9z"
   id="path4054" />
<path
   class="voip0"
   d="M922.8,436.3c0,2.7-2.2,4.9-4.9,4.9s-4.9-2.2-4.9-4.9s2.2-4.9,4.9-4.9S922.8,433.6,922.8,436.3z"
   id="path4056" />
<path
   class="voip0"
   d="M916.2,450.2c0,2.7-2.2,4.9-4.9,4.9s-4.9-2.2-4.9-4.9s2.2-4.9,4.9-4.9S916.2,447.5,916.2,450.2z"
   id="path4058" />
<path
   class="voip0"
   d="M939.7,461.4c0,2.7-2.2,4.9-4.9,4.9s-4.9-2.2-4.9-4.9s2.2-4.9,4.9-4.9C937.6,456.5,939.7,458.7,939.7,461.4z"
   id="path4060" />
<path
   class="voip0"
   d="M931.6,487.1c0,2.7-2.2,4.9-4.9,4.9s-4.9-2.2-4.9-4.9c0-2.7,2.2-4.9,4.9-4.9  C929.3,482.2,931.6,484.4,931.6,487.1z"
   id="path4062" />
<path
   class="voip0"
   d="M889.8,473.9c0,2.7-2.2,4.9-4.9,4.9s-4.9-2.2-4.9-4.9s2.2-4.9,4.9-4.9S889.8,471.2,889.8,473.9z"
   id="path4064" />
<path
   class="voip0"
   d="M942.3,438.2c0,2.7-2.2,4.9-4.9,4.9s-4.9-2.2-4.9-4.9s2.2-4.9,4.9-4.9S942.3,435.5,942.3,438.2z"
   id="path4066" />
<path
   class="voip0"
   d="M967.4,483.6c0,2.7-2.2,4.9-4.9,4.9s-4.9-2.2-4.9-4.9s2.2-4.9,4.9-4.9C965.2,478.8,967.4,480.9,967.4,483.6z"
   id="path4068" />
<line
   class="voip0"
   x1="884.2"
   y1="446.7"
   x2="852.3"
   y2="467.7"
   id="line4070" />
<line
   class="voip0"
   x1="881.1"
   y1="477"
   x2="848.6"
   y2="509"
   id="line4072" />
<line
   class="voip0"
   x1="889.8"
   y1="495.1"
   x2="886.8"
   y2="478.8"
   id="line4074" />
<line
   class="voip0"
   x1="902.4"
   y1="509"
   x2="896.1"
   y2="502.6"
   id="line4076" />
<line
   class="voip0"
   x1="848.4"
   y1="475.5"
   x2="845.6"
   y2="508.1"
   id="line4078" />
<line
   class="voip0"
   x1="935.9"
   y1="529.8"
   x2="923.6"
   y2="529.8"
   id="line4080" />
<line
   class="voip0"
   x1="909.8"
   y1="509"
   x2="923.6"
   y2="490.9"
   id="line4082" />
<line
   class="voip0"
   x1="929"
   y1="482.2"
   x2="932.6"
   y2="466.3"
   id="line4084" />
<line
   class="voip0"
   x1="888.7"
   y1="448.8"
   x2="884.9"
   y2="469"
   id="line4086" />
<line
   class="voip0"
   x1="908.9"
   y1="454.4"
   x2="889.8"
   y2="471.5"
   id="line4088" />
<line
   class="voip0"
   x1="921.7"
   y1="487.1"
   x2="895.9"
   y2="495.7"
   id="line4090" />
<line
   class="voip0"
   x1="887.9"
   y1="500.8"
   x2="850.6"
   y2="511.9"
   id="line4092" />
<line
   class="voip0"
   x1="915.6"
   y1="526"
   x2="909.2"
   y2="517"
   id="line4094" />
<line
   class="voip0"
   x1="676"
   y1="139.3"
   x2="678.3"
   y2="111.4"
   id="line4096" />
<line
   class="voip0"
   x1="694.9"
   y1="110.9"
   x2="682.7"
   y2="108.6"
   id="line4098" />
<line
   class="voip0"
   x1="699.8"
   y1="106"
   x2="695.6"
   y2="82"
   id="line4100" />
<line
   class="voip0"
   x1="713"
   y1="53.1"
   x2="698.6"
   y2="72.7"
   id="line4102" />
<line
   class="voip0"
   x1="737.6"
   y1="55.9"
   x2="719.6"
   y2="50.6"
   id="line4104" />
<line
   class="voip0"
   x1="738.8"
   y1="76.2"
   x2="741.2"
   y2="61.9"
   id="line4106" />
<line
   class="voip0"
   x1="742.2"
   y1="79.4"
   x2="758"
   y2="74.6"
   id="line4108" />
<line
   class="voip0"
   x1="767"
   y1="70.9"
   x2="783"
   y2="66.9"
   id="line4110" />
<line
   class="voip0"
   x1="791.4"
   y1="70.4"
   x2="804.4"
   y2="81.5"
   id="line4112" />
<line
   class="voip0"
   x1="811.8"
   y1="79.5"
   x2="825.1"
   y2="62.7"
   id="line4114" />
<line
   class="voip0"
   x1="833"
   y1="58.8"
   x2="865.9"
   y2="58.8"
   id="line4116" />
<line
   class="voip0"
   x1="875.8"
   y1="60.3"
   x2="908.9"
   y2="55.6"
   id="line4118" />
<line
   class="voip0"
   x1="950.6"
   y1="78.5"
   x2="960"
   y2="60.5"
   id="line4120" />
<line
   class="voip0"
   x1="918.7"
   y1="55.6"
   x2="957.8"
   y2="56.4"
   id="line4122" />
<line
   class="voip0"
   x1="955.3"
   y1="94.3"
   x2="950.1"
   y2="87.6"
   id="line4124" />
<line
   class="voip0"
   x1="954.9"
   y1="102.4"
   x2="939.6"
   y2="119.6"
   id="line4126" />
<line
   class="voip0"
   x1="934"
   y1="127.1"
   x2="934"
   y2="149"
   id="line4128" />
<line
   class="voip0"
   x1="935.6"
   y1="158.5"
   x2="940.6"
   y2="176.4"
   id="line4130" />
<line
   class="voip0"
   x1="920.1"
   y1="109.7"
   x2="908.1"
   y2="131.3"
   id="line4132" />
<line
   class="voip0"
   x1="926.8"
   y1="110.2"
   x2="932.9"
   y2="118.5"
   id="line4134" />
<line
   class="voip0"
   x1="901"
   y1="137.5"
   x2="881.7"
   y2="143.4"
   id="line4136" />
<line
   class="voip0"
   x1="875.7"
   y1="149.8"
   x2="868.1"
   y2="173.4"
   id="line4138" />
<line
   class="voip0"
   x1="889.8"
   y1="189"
   x2="892.8"
   y2="199.3"
   id="line4140" />
<line
   class="voip0"
   x1="870.8"
   y1="180.3"
   x2="884"
   y2="183.1"
   id="line4142" />
<line
   class="voip0"
   x1="887.4"
   y1="226.8"
   x2="893.8"
   y2="209.1"
   id="line4144" />
<line
   class="voip0"
   x1="871.7"
   y1="243.9"
   x2="882"
   y2="235"
   id="line4146" />
<line
   class="voip0"
   x1="870.6"
   y1="251.5"
   x2="877.6"
   y2="263.6"
   id="line4148" />
<line
   class="voip0"
   x1="843.8"
   y1="256.9"
   x2="863.6"
   y2="245.5"
   id="line4150" />
<line
   class="voip0"
   x1="857.2"
   y1="286.2"
   x2="844.2"
   y2="266.1"
   id="line4152" />
<line
   class="voip0"
   x1="857.6"
   y1="294.3"
   x2="843.6"
   y2="313.8"
   id="line4154" />
<line
   class="voip0"
   x1="836.2"
   y1="320.2"
   x2="822.6"
   y2="324.4"
   id="line4156" />
<line
   class="voip0"
   x1="735.3"
   y1="157.4"
   x2="729.9"
   y2="172.5"
   id="line4158" />
<line
   class="voip0"
   x1="820.9"
   y1="293.1"
   x2="818.6"
   y2="322.3"
   id="line4160" />
<line
   class="voip0"
   x1="816.1"
   y1="286.3"
   x2="772.8"
   y2="280.3"
   id="line4162" />
<line
   class="voip0"
   x1="755.2"
   y1="255.3"
   x2="762.9"
   y2="245.1"
   id="line4164" />
<line
   class="voip0"
   x1="770.4"
   y1="239.5"
   x2="799"
   y2="237.4"
   id="line4166" />
<line
   class="voip0"
   x1="808.2"
   y1="239.6"
   x2="837.8"
   y2="257.6"
   id="line4168" />
<line
   class="voip0"
   x1="806.2"
   y1="242.3"
   x2="820.9"
   y2="283.3"
   id="line4170" />
<line
   class="voip0"
   x1="783.3"
   y1="315.3"
   x2="817"
   y2="291.1"
   id="line4172" />
<line
   class="voip0"
   x1="865"
   y1="243.6"
   x2="847.7"
   y2="213.9"
   id="line4174" />
<line
   class="voip0"
   x1="806.4"
   y1="233.2"
   x2="841"
   y2="212.4"
   id="line4176" />
<line
   class="voip0"
   x1="847.8"
   y1="204.2"
   x2="864.1"
   y2="183.1"
   id="line4178" />
<line
   class="voip0"
   x1="850"
   y1="209.7"
   x2="888.9"
   y2="204.2"
   id="line4180" />
<line
   class="voip0"
   x1="842.6"
   y1="204.8"
   x2="827.2"
   y2="172.2"
   id="line4182" />
<line
   class="voip0"
   x1="827.3"
   y1="163.6"
   x2="872.2"
   y2="145.1"
   id="line4184" />
<line
   class="voip0"
   x1="829.1"
   y1="167.4"
   x2="861.4"
   y2="176.2"
   id="line4186" />
<line
   class="voip0"
   x1="761.6"
   y1="190.2"
   x2="820"
   y2="169.8"
   id="line4188" />
<line
   class="voip0"
   x1="820.4"
   y1="164.3"
   x2="783"
   y2="147.6"
   id="line4190" />
<line
   class="voip0"
   x1="741.8"
   y1="150"
   x2="773.2"
   y2="145.1"
   id="line4192" />
<line
   class="voip0"
   x1="740.2"
   y1="156.6"
   x2="755.6"
   y2="188.5"
   id="line4194" />
<line
   class="voip0"
   x1="759.6"
   y1="197.9"
   x2="765.8"
   y2="236.3"
   id="line4196" />
<line
   class="voip0"
   x1="761.6"
   y1="195.8"
   x2="801.7"
   y2="233"
   id="line4198" />
<path
   class="voip0"
   d="M718.4,235.5c12.8,1.3,29.2,3.9,42.5,5.7"
   id="path4200" />
<line
   class="voip0"
   x1="737.6"
   y1="147.6"
   x2="733.8"
   y2="111.3"
   id="line4202" />
<line
   class="voip0"
   x1="704.7"
   y1="110.9"
   x2="729"
   y2="108.3"
   id="line4204" />
<line
   class="voip0"
   x1="678.9"
   y1="144.2"
   x2="733.3"
   y2="150"
   id="line4206" />
<line
   class="voip0"
   x1="778.1"
   y1="140.2"
   x2="783"
   y2="125.4"
   id="line4208" />
<line
   class="voip0"
   x1="764"
   y1="76.8"
   x2="780.6"
   y2="115.6"
   id="line4210" />
<line
   class="voip0"
   x1="806.4"
   y1="88.3"
   x2="786.1"
   y2="116.2"
   id="line4212" />
<line
   class="voip0"
   x1="813.1"
   y1="86"
   x2="854.8"
   y2="100.5"
   id="line4214" />
<line
   class="voip0"
   x1="869.2"
   y1="63.7"
   x2="861.4"
   y2="97.7"
   id="line4216" />
<line
   class="voip0"
   x1="874"
   y1="62.5"
   x2="897.8"
   y2="82.5"
   id="line4218" />
<line
   class="voip0"
   x1="904.2"
   y1="89.9"
   x2="920.7"
   y2="102.5"
   id="line4220" />
<line
   class="voip0"
   x1="861.4"
   y1="107.4"
   x2="877.1"
   y2="140.2"
   id="line4222" />
<line
   class="voip0"
   x1="864.6"
   y1="102.5"
   x2="896.8"
   y2="89.2"
   id="line4224" />
<line
   class="voip0"
   x1="903.6"
   y1="81.5"
   x2="913.8"
   y2="60.5"
   id="line4226" />
<line
   class="voip0"
   x1="905.7"
   y1="86.4"
   x2="942.7"
   y2="83.4"
   id="line4228" />
<line
   class="voip0"
   x1="275.9"
   y1="120.1"
   x2="277.5"
   y2="130"
   id="line4230" />
<path
   class="voip0"
   d="M192.7,279.5c0,2.7-2.2,4.9-4.9,4.9s-4.9-2.2-4.9-4.9s2.2-4.9,4.9-4.9S192.7,276.8,192.7,279.5z"
   id="path4232" />
<path
   class="voip0"
   d="M923.6,529.8c0,2.7-2.2,4.9-4.9,4.9s-4.9-2.2-4.9-4.9s2.2-4.9,4.9-4.9S923.6,527.1,923.6,529.8z"
   id="path4234" />
<path
   class="voip0"
   d="M829.1,167.4c0,2.7-2.2,4.9-4.9,4.9s-4.9-2.2-4.9-4.9s2.2-4.9,4.9-4.9S829.1,164.7,829.1,167.4z"
   id="path4236" />
<path
   class="voip0"
   d="M738.7,106.4c0,2.7-2.2,4.9-4.9,4.9s-4.9-2.2-4.9-4.9s2.2-4.9,4.9-4.9C736.6,101.5,738.7,103.7,738.7,106.4z"
   id="path4238" />
<path
   class="voip0"
   d="M770.7,241.2c0,2.7-2.2,4.9-4.9,4.9s-4.9-2.2-4.9-4.9s2.2-4.9,4.9-4.9C768.6,236.3,770.7,238.5,770.7,241.2z"
   id="path4240" />
<path
   class="voip0"
   d="M243.4,170.7c0,2.7-2.2,4.9-4.9,4.9s-4.9-2.2-4.9-4.9s2.2-4.9,4.9-4.9S243.4,168,243.4,170.7z"
   id="path4242" />
<path
   class="voip0"
   d="M257.4,152.9c0,2.7-2.2,4.9-4.9,4.9s-4.9-2.2-4.9-4.9s2.2-4.9,4.9-4.9C255.4,148,257.4,150.2,257.4,152.9z"
   id="path4244" />
<path
   class="voip0"
   d="M355.3,41.9c0,2.7-2.2,4.9-4.9,4.9c-2.7,0-4.9-2.2-4.9-4.9s2.2-4.9,4.9-4.9S355.3,39.2,355.3,41.9z"
   id="path4246" />
<path
   class="voip0"
   d="M338.8,36c0,2.7-2.2,4.9-4.9,4.9c-2.7,0-4.9-2.2-4.9-4.9s2.2-4.9,4.9-4.9C336.6,31.1,338.8,33.3,338.8,36z"
   id="path4248" />
<path
   class="voip0"
   d="M353.9,25.6c0,2.7-2.2,4.9-4.9,4.9c-2.7,0-4.9-2.2-4.9-4.9s2.2-4.9,4.9-4.9C351.7,20.7,353.9,22.9,353.9,25.6z"
   id="path4250" />
<path
   class="voip2"
   d="M719.4,347.5c-1.2,5.4-1.7,7.1-3.3,12.3"
   id="path4252" />
<path
   class="voip2"
   d="M716.9,233.3c1.4,4.8,1.9,6.9,3,11.8"
   id="path4254" />

<path
   id="path4258"
   class="voip4"
   d="M683.3,426.5c-40.9,57.4-107.3,94-183.1,94c-124.5,0-225.4-100.9-225.4-225.4  S375.7,69.6,500.2,69.7c76.8,0,145.9,40.3,184.6,96"
   style="stroke:#ee5586;stroke-opacity:1" />



<circle
   class="voip5"
   cx="703.8"
   cy="198"
   r="36.4"
   id="circle4266" />




<circle
   class="voip5"
   cx="703.8"
   cy="395.3"
   r="36.4"
   id="circle4276" />


























<path
   id="path4430"
   class="voip1"
   d="M282.4,134.9c0,2.7-2.2,4.9-4.9,4.9c-2.7,0-4.9-2.2-4.9-4.9s2.2-4.9,4.9-4.9  C280.2,130,282.4,132.2,282.4,134.9z" />
<path
   id="path4432"
   class="voip1"
   d="M300.9,118.1c0,2.7-2.2,4.9-4.9,4.9c-2.7,0-4.9-2.2-4.9-4.9c0-2.7,2.2-4.9,4.9-4.9  C298.7,113.2,300.9,115.4,300.9,118.1z" />
<path
   id="path4434"
   class="voip1"
   d="M280.9,115.2c0,2.7-2.2,4.9-4.9,4.9c-2.7,0-4.9-2.2-4.9-4.9s2.2-4.9,4.9-4.9  C278.7,110.3,280.9,112.5,280.9,115.2z" />
<path
   id="path4436"
   class="voip1"
   d="M248.1,215.3c0,2.7-2.2,4.9-4.9,4.9s-4.9-2.2-4.9-4.9s2.2-4.9,4.9-4.9  C245.9,210.5,248.1,212.6,248.1,215.3z" />
<path
   id="path4438"
   class="voip1"
   d="M101.9,93.4c0,2.7-2.2,4.9-4.9,4.9s-4.9-2.2-4.9-4.9c0-2.7,2.2-4.9,4.9-4.9  S101.9,90.7,101.9,93.4z" />
<path
   id="path4440"
   class="voip1"
   d="M92.5,107.1c0,2.7-2.2,4.9-4.9,4.9c-2.7,0-4.9-2.2-4.9-4.9s2.2-4.9,4.9-4.9  S92.5,104.4,92.5,107.1z" />
<path
   id="path4442"
   class="voip1"
   d="M82.1,91.3c0,2.7-2.2,4.9-4.9,4.9c-2.7,0-4.9-2.2-4.9-4.9s2.2-4.9,4.9-4.9  S82.1,88.6,82.1,91.3z" />
<path
   id="path4444"
   class="voip1"
   d="M180.1,250.9c0,2.7-2.2,4.9-4.9,4.9s-4.9-2.2-4.9-4.9s2.2-4.9,4.9-4.9  S180.1,248.2,180.1,250.9z" />
<path
   id="path4446"
   class="voip1"
   d="M200,255.2c0,2.7-2.2,4.9-4.9,4.9s-4.9-2.2-4.9-4.9s2.2-4.9,4.9-4.9  C197.9,250.3,200,252.5,200,255.2z" />
<path
   id="path4448"
   class="voip1"
   d="M294.9,483.6c0,2.7-2.2,4.9-4.9,4.9c-2.7,0-4.9-2.2-4.9-4.9s2.2-4.9,4.9-4.9  C292.8,478.8,294.9,480.9,294.9,483.6z" />
<path
   id="path4450"
   class="voip1"
   d="M332.6,515.3c0,2.7-2.2,4.9-4.9,4.9c-2.7,0-4.9-2.2-4.9-4.9s2.2-4.9,4.9-4.9  S332.6,512.6,332.6,515.3z" />
<path
   id="path4452"
   class="voip1"
   d="M318.6,531.8c0,2.7-2.2,4.9-4.9,4.9c-2.7,0-4.9-2.2-4.9-4.9s2.2-4.9,4.9-4.9  C316.4,526.9,318.6,529.1,318.6,531.8z" />
<path
   id="path4454"
   class="voip1"
   d="M441,33.7c0,2.7-2.2,4.9-4.9,4.9c-2.7,0-4.9-2.2-4.9-4.9s2.2-4.9,4.9-4.9  C438.9,28.9,441,31,441,33.7z" />
<path
   id="path4456"
   class="voip1"
   d="M423.8,27.4c0,2.7-2.2,4.9-4.9,4.9c-2.7,0-4.9-2.2-4.9-4.9s2.2-4.9,4.9-4.9  C421.6,22.5,423.8,24.7,423.8,27.4z" />
<path
   id="path4458"
   class="voip1"
   d="M747.3,57.2c0,2.7-2.2,4.9-4.9,4.9s-4.9-2.2-4.9-4.9s2.2-4.9,4.9-4.9  S747.3,54.5,747.3,57.2z" />
<path
   id="path4460"
   class="voip1"
   d="M767.1,72.2c0,2.7-2.2,4.9-4.9,4.9s-4.9-2.2-4.9-4.9s2.2-4.9,4.9-4.9  S767.1,69.5,767.1,72.2z" />
<path
   id="path4462"
   class="voip1"
   d="M742.4,81.1c0,2.7-2.2,4.9-4.9,4.9s-4.9-2.2-4.9-4.9s2.2-4.9,4.9-4.9  S742.4,78.4,742.4,81.1z" />
<path
   id="path4464"
   class="voip1"
   d="M850,209.7c0,2.7-2.2,4.9-4.9,4.9s-4.9-2.2-4.9-4.9s2.2-4.9,4.9-4.9S850,207,850,209.7z" />
<path
   id="path4466"
   class="voip1"
   d="M952.6,83.4c0,2.7-2.2,4.9-4.9,4.9s-4.9-2.2-4.9-4.9s2.2-4.9,4.9-4.9  S952.6,80.7,952.6,83.4z" />
<path
   id="path4468"
   class="voip1"
   d="M962.7,98.5c0,2.7-2.2,4.9-4.9,4.9s-4.9-2.2-4.9-4.9s2.2-4.9,4.9-4.9  C960.6,93.6,962.7,95.8,962.7,98.5z" />
<path
   id="path4470"
   class="voip1"
   d="M864.1,379.4c0,2.7-2.2,4.9-4.9,4.9s-4.9-2.2-4.9-4.9s2.2-4.9,4.9-4.9  C862,374.5,864.1,376.7,864.1,379.4z" />
<path
   id="path4472"
   class="voip1"
   d="M861.8,404.4c0,2.7-2.2,4.9-4.9,4.9s-4.9-2.2-4.9-4.9s2.2-4.9,4.9-4.9  C859.6,399.6,861.8,401.7,861.8,404.4z" />
<path
   id="path4474"
   class="voip1"
   d="M843.1,393c0,2.7-2.2,4.9-4.9,4.9s-4.9-2.2-4.9-4.9s2.2-4.9,4.9-4.9  C841,388.1,843.1,390.3,843.1,393z" />
<path
   id="path4476"
   class="voip1"
   d="M957.9,509c0,2.7-2.2,4.9-4.9,4.9s-4.9-2.2-4.9-4.9c0-2.7,2.2-4.9,4.9-4.9  S957.9,506.3,957.9,509z" />
<path
   id="path4478"
   class="voip1"
   d="M945.6,529.8c0,2.7-2.2,4.9-4.9,4.9s-4.9-2.2-4.9-4.9s2.2-4.9,4.9-4.9  S945.6,527.1,945.6,529.8z" />
<g
   id="g4480">
	<circle
   id="circle4482"
   class="voip8"
   cx="725.1"
   cy="296"
   r="50.6" />
	
		<animate
   accumulate="none"
   additive="replace"
   attributeName="opacity"
   calcMode="linear"
   dur="1s"
   fill="remove"
   repeatCount="indefinite"
   restart="always"
   values="0;1;0">
		</animate>
</g>
<g
   id="g4484">
	<path
   id="path4486"
   class="voip9"
   d="M687,160.4c0,3.1-2.5,5.7-5.7,5.7c-3.1,0-5.7-2.5-5.7-5.7s2.5-5.7,5.7-5.7   S687,157.2,687,160.4z" />
	
		<animateTransform
   accumulate="none"
   additive="replace"
   attributeName="transform"
   calcMode="linear"
   dur="5s"
   fill="remove"
   from="0 495 305"
   repeatCount="indefinite"
   restart="always"
   to="-285 510 295"
   type="rotate">
		</animateTransform>
</g>
<g
   id="g4534"
   transform="matrix(1.9999949,0,0,1.9999949,693.43901,263.66967)"><path
     id="path4521"
     d="M 16,31.587 C 7.4,31.587 0.412,24.593 0.412,15.999 0.412,7.405 7.399,0.405 16,0.405 c 3.7,0 7.281,1.319 10.087,3.706 0.175,0.15 0.2,0.419 0.05,0.594 -0.15,0.181 -0.419,0.2 -0.594,0.05 -2.656,-2.256 -6.044,-3.5 -9.544,-3.5 -8.131,0 -14.744,6.612 -14.744,14.744 0,8.125 6.612,14.737 14.744,14.737 8.125,0 14.744,-6.613 14.744,-14.738 0,-3.488 -1.238,-6.869 -3.488,-9.519 -0.15,-0.175 -0.131,-0.444 0.05,-0.594 0.175,-0.15 0.444,-0.131 0.594,0.05 2.381,2.806 3.688,6.381 3.688,10.069 0,8.587 -6.994,15.581 -15.588,15.581 z"
     inkscape:connector-curvature="0"
     style="fill:#ffffff;fill-opacity:1" /><path
     d="m 20.844,20.269 c -0.106,0 -0.219,-0.044 -0.3,-0.125 -0.163,-0.163 -0.163,-0.431 0,-0.6 L 24.088,16 20.544,12.456 c -0.163,-0.162 -0.163,-0.431 0,-0.6 0.163,-0.162 0.431,-0.162 0.6,0 l 3.844,3.844 c 0.163,0.162 0.163,0.431 0,0.6 l -3.844,3.844 c -0.081,0.081 -0.194,0.125 -0.3,0.125 z"
     id="svg-ico-2"
     inkscape:connector-curvature="0"
     style="fill:#ee5586" /><path
     d="m 11.15,20.269 c -0.106,0 -0.219,-0.044 -0.3,-0.125 L 7.006,16.3 c -0.162,-0.163 -0.162,-0.431 0,-0.6 l 3.844,-3.844 c 0.162,-0.162 0.431,-0.162 0.6,0 0.162,0.162 0.162,0.431 0,0.6 L 7.906,16 11.45,19.544 c 0.162,0.163 0.162,0.431 0,0.6 -0.081,0.081 -0.188,0.125 -0.3,0.125 z"
     id="path4524"
     inkscape:connector-curvature="0"
     style="fill:#ee5586" /><path
     id="path4526"
     d="m 13.919,22.769 c -0.044,0 -0.088,-0.006 -0.131,-0.019 -0.219,-0.075 -0.344,-0.313 -0.269,-0.538 L 17.75,9.518 c 0.075,-0.219 0.319,-0.344 0.538,-0.269 0.219,0.075 0.344,0.313 0.269,0.537 L 14.326,22.48 c -0.063,0.175 -0.231,0.288 -0.406,0.288 z"
     inkscape:connector-curvature="0"
     style="fill:#ffffff;fill-opacity:1" /></g><g
   id="g4563"
   transform="matrix(1.2132282,0,0,1.2132282,685.86579,375.91158)"><path
     id="path4544"
     d="m 2.119,5.213 c 0.462,0.469 1.087,0.731 1.744,0.731 0,0 0,0 0,0 0.513,0 1.006,-0.156 1.419,-0.45 l 6.162,5.994 c 0.081,0.081 0.194,0.119 0.3,0.119 0.113,0 0.225,-0.044 0.306,-0.131 0.162,-0.169 0.162,-0.444 -0.006,-0.606 L 5.888,4.883 C 6.557,3.914 6.463,2.57 5.613,1.708 L 4.888,0.983 C 4.726,0.821 4.438,0.821 4.276,0.983 L 1.401,3.889 c -0.169,0.169 -0.169,0.438 0,0.606 L 2.12,5.214 Z M 4.581,1.894 5,2.313 C 5.625,2.944 5.625,3.976 5,4.613 4.7,4.919 4.294,5.088 3.869,5.088 3.438,5.088 3.038,4.919 2.738,4.613 L 2.313,4.188 4.582,1.894 Z"
     inkscape:connector-curvature="0"
     style="fill:#ffffff;fill-opacity:1" /><path
     id="path4546"
     d="m 21.137,21.275 5.556,5.613 c 0.081,0.087 0.194,0.125 0.306,0.125 0.106,0 0.219,-0.044 0.3,-0.125 0.169,-0.169 0.169,-0.438 0.006,-0.606 L 21.749,20.669 C 21.58,20.5 21.311,20.5 21.143,20.663 c -0.169,0.169 -0.175,0.444 -0.006,0.613 z"
     inkscape:connector-curvature="0"
     style="fill:#ffffff;fill-opacity:1" /><path
     id="path4548"
     d="m 30.181,23.369 -6.175,-6.238 c -0.169,-0.169 -0.438,-0.169 -0.606,-0.006 -0.169,0.169 -0.169,0.438 -0.006,0.606 l 6.175,6.238 c 1.425,1.438 1.425,3.775 0.006,5.213 -0.688,0.694 -1.6,1.081 -2.575,1.081 0,0 0,0 0,0 -0.969,0 -1.875,-0.381 -2.563,-1.069 L 18.249,22.95 c -0.169,-0.169 -0.438,-0.169 -0.606,-0.006 -0.169,0.169 -0.169,0.438 -0.006,0.606 l 6.188,6.244 c 0.85,0.856 1.975,1.325 3.175,1.325 0,0 0,0 0,0 1.2,0 2.331,-0.475 3.181,-1.331 1.756,-1.769 1.756,-4.65 0,-6.419 z"
     inkscape:connector-curvature="0"
     style="fill:#ffffff;fill-opacity:1" /><path
     d="m 23.719,14.656 c 0.006,0 0.006,0 0,0 1.744,0 3.387,-0.688 4.6,-1.919 l 2.619,-2.381 c 0,0 0.006,0 0.006,-0.006 0.019,-0.019 0.031,-0.031 0.044,-0.05 0.006,-0.006 0.006,-0.006 0.012,-0.012 0,0 0,-0.006 0.006,-0.006 0.113,-0.162 0.1,-0.381 -0.031,-0.531 0,0 -0.006,-0.006 -0.006,-0.006 l -2.2,-2.394 C 28.688,7.263 28.581,7.213 28.463,7.213 28.35,7.207 28.232,7.257 28.15,7.338 l -1.438,1.45 c -0.988,1 -2.719,1 -3.706,0 -1.025,-1.031 -1.025,-2.713 0,-3.75 l 1.438,-1.45 c 0.163,-0.169 0.163,-0.438 0,-0.606 l -2.169,-2.2 c 0,0 0,0 0,0 0,0 0,0 0,-0.006 C 22.269,0.77 22.263,0.764 22.256,0.764 22.25,0.758 22.25,0.758 22.244,0.752 22.238,0.746 22.232,0.74 22.225,0.74 22.219,0.734 22.219,0.734 22.213,0.728 22.207,0.722 22.194,0.716 22.188,0.716 22.182,0.716 22.182,0.71 22.176,0.71 22.17,0.704 22.157,0.704 22.151,0.698 22.145,0.698 22.145,0.692 22.139,0.692 22.127,0.686 22.12,0.686 22.108,0.68 c -0.006,0 -0.006,0 -0.012,-0.006 -0.012,0 -0.019,-0.006 -0.031,-0.006 0,0 -0.006,0 -0.006,0 -0.012,0 -0.019,-0.006 -0.031,-0.006 -0.006,0 -0.006,0 -0.012,0 -0.012,0 -0.019,0 -0.031,0 -0.006,0 -0.006,0 -0.012,0 -0.012,0 -0.019,0 -0.031,0 -0.006,0 -0.006,0 -0.012,0 -0.006,0 -0.019,0 -0.025,0.006 -0.006,0 -0.012,0 -0.012,0 -0.006,0 -0.012,0.006 -0.025,0.006 -0.006,0 -0.012,0 -0.019,0.006 -0.006,0 -0.012,0.006 -0.019,0.006 -0.007,0 -0.012,0.006 -0.019,0.006 -0.006,0 -0.012,0.006 -0.019,0.006 -0.006,0.006 -0.012,0.006 -0.025,0.012 -0.006,0 -0.006,0.006 -0.012,0.006 -0.006,0.006 -0.019,0.006 -0.025,0.012 -0.006,0 -0.006,0.006 -0.006,0.006 -0.006,0.006 -0.019,0.012 -0.025,0.019 0,0 -0.006,0.006 -0.006,0.006 -0.006,0.006 -0.012,0.012 -0.025,0.019 0,0 0,0.006 -0.006,0.006 0,0 0,0 0,0 l -2.563,2.619 c -2.544,2.569 -2.544,6.75 0,9.319 1.244,1.25 2.881,1.938 4.625,1.938 z M 19.712,4.013 21.974,1.7 23.537,3.281 22.4,4.431 c -1.356,1.369 -1.356,3.594 0,4.963 0.656,0.662 1.531,1.031 2.462,1.031 0.931,0 1.806,-0.369 2.462,-1.031 l 1.119,-1.131 1.606,1.75 -2.319,2.106 c -1.069,1.081 -2.494,1.675 -4.006,1.675 0,0 0,0 0,0 -1.512,0 -2.938,-0.594 -4.012,-1.681 -2.219,-2.225 -2.219,-5.862 0,-8.1 z"
     id="svg-ico"
     inkscape:connector-curvature="0"
     style="fill:#ee5586" /><path
     d="m 3.9,26.613 c -0.237,0 -0.431,0.194 -0.431,0.431 0,0.237 0.194,0.431 0.431,0.431 l 2.038,0 c 0.237,0 0.431,-0.194 0.431,-0.431 0,-0.237 -0.194,-0.431 -0.431,-0.431 l -2.038,0 z"
     id="path4551"
     inkscape:connector-curvature="0"
     style="fill:#ee5586" /><path
     id="path4553"
     d="m 17.637,17.637 c 0.081,0.081 0.194,0.125 0.306,0.125 0.112,0 0.219,-0.044 0.306,-0.125 0.169,-0.169 0.169,-0.438 0,-0.606 l -4.037,-4.025 c -0.169,-0.169 -0.438,-0.169 -0.606,0 -0.168,0.169 -0.169,0.438 0,0.606 l 4.031,4.025 z"
     inkscape:connector-curvature="0"
     style="fill:#ffffff;fill-opacity:1" /><path
     d="m 15.662,19.012 c -0.194,-0.137 -0.463,-0.094 -0.6,0.1 L 11.716818,23.760334 7.456,29.681 c -0.688,0.694 -1.6,1.075 -2.569,1.075 l 0,0 c -0.969,0 -1.888,-0.381 -2.575,-1.075 -1.425,-1.438 -1.425,-3.769 -0.05,-5.163 l 10.525,-7.719 c 0.194,-0.137 0.231,-0.406 0.094,-0.6 -0.144,-0.194 -0.412,-0.231 -0.6,-0.094 L 5.7983024,20.860571 1.7,23.867 c -1.75,1.769 -1.756,4.644 0,6.412 0.85,0.856 1.981,1.331 3.181,1.331 l 0,0 c 1.2,0 2.331,-0.475 3.225,-1.381 l 7.65,-10.619 c 0.137,-0.194 0.094,-0.462 -0.094,-0.6 z"
     id="path4555"
     inkscape:connector-curvature="0"
     style="fill:#ee5586"
     sodipodi:nodetypes="cccccccccccccccccccc" /></g><g
   id="g4589"
   transform="matrix(1.3021473,0,0,1.3021473,683.6886,176.38503)"><path
     id="path4576"
     d="m 5.756,17.569 c -0.225,0 -0.412,-0.181 -0.419,-0.413 L 5.331,16.769 4.625,16.069 1.794,16.05 c -0.169,0 -0.319,-0.106 -0.387,-0.262 L 0.569,13.738 C 0.506,13.588 0.538,13.407 0.65,13.288 L 2.619,11.213 2.625,10.225 0.637,8.206 C 0.518,8.087 0.481,7.906 0.549,7.75 L 1.399,5.712 C 1.462,5.562 1.611,5.456 1.774,5.456 L 4.63,5.381 5.336,4.681 5.355,1.85 c 0,-0.169 0.106,-0.319 0.263,-0.387 L 7.662,0.619 C 7.812,0.556 7.993,0.588 8.112,0.7 l 2.075,1.975 0.994,0.006 2.013,-1.988 c 0.119,-0.119 0.3,-0.15 0.456,-0.088 l 2.037,0.85 c 0.15,0.063 0.256,0.212 0.256,0.375 l 0.075,2.862 0.7,0.7 2.831,0.019 c 0.169,0 0.319,0.106 0.387,0.263 l 0.844,2.044 c 0.063,0.15 0.031,0.331 -0.087,0.45 l -1.975,2.069 0,0.869 c 0,0.231 -0.188,0.419 -0.419,0.419 0,0 0,0 0,0 -0.231,0 -0.419,-0.188 -0.419,-0.419 l 0,-1.037 c 0,-0.106 0.044,-0.213 0.119,-0.287 l 1.9,-1.994 -0.631,-1.537 -2.725,-0.019 c -0.113,0 -0.219,-0.044 -0.294,-0.125 L 15.311,5.169 C 15.236,5.094 15.192,4.988 15.186,4.882 L 15.117,2.126 13.586,1.489 11.648,3.401 C 11.567,3.476 11.423,3.52 11.348,3.52 L 10.017,3.514 C 9.911,3.514 9.804,3.47 9.73,3.402 l -2,-1.9 L 6.199,2.139 6.18,4.864 c 0,0.112 -0.044,0.219 -0.125,0.294 L 5.111,6.096 C 5.036,6.171 4.936,6.215 4.824,6.221 L 2.068,6.29 1.431,7.821 3.343,9.758 c 0.075,0.081 0.119,0.188 0.119,0.294 l -0.006,1.331 c 0,0.106 -0.044,0.213 -0.112,0.287 l -1.9,2 0.631,1.537 2.725,0.019 c 0.112,0 0.219,0.044 0.294,0.125 l 0.944,0.944 c 0.075,0.075 0.119,0.181 0.125,0.288 l 0.013,0.556 c 0.006,0.231 -0.175,0.425 -0.412,0.431 0,0 -0.006,0 -0.006,0 z"
     inkscape:connector-curvature="0"
     style="fill:#ffffff;fill-opacity:1" /><path
     id="path4578"
     d="m 10.669,14.512 c -0.5,0 -0.988,-0.1 -1.45,-0.294 C 8.288,13.831 7.569,13.099 7.182,12.168 6.801,11.23 6.801,10.205 7.188,9.274 7.776,7.862 9.151,6.949 10.682,6.949 c 0.5,0 0.988,0.1 1.45,0.294 0.931,0.388 1.656,1.119 2.037,2.05 0.381,0.938 0.381,1.963 -0.006,2.894 -0.588,1.412 -1.963,2.325 -3.494,2.325 z m 0.012,-6.718 c -1.194,0 -2.263,0.712 -2.719,1.806 -0.3,0.725 -0.306,1.525 -0.006,2.25 0.3,0.725 0.863,1.294 1.581,1.594 0.363,0.15 0.738,0.225 1.131,0.225 1.194,0 2.263,-0.706 2.719,-1.806 0.3,-0.725 0.306,-1.525 0.006,-2.25 C 13.093,8.888 12.53,8.319 11.805,8.019 11.449,7.869 11.067,7.794 10.68,7.794 Z"
     inkscape:connector-curvature="0"
     style="fill:#ffffff;fill-opacity:1" /><path
     id="path4580"
     d="m 15.1,21.231 c -0.231,0 -0.419,-0.188 -0.419,-0.419 0,-0.15 -0.006,-0.306 -0.012,-0.456 l -0.006,-0.075 c 0.294,-3.269 3.238,-5.894 6.556,-5.938 0.219,-0.006 0.425,0.181 0.425,0.412 0.006,0.231 -0.181,0.425 -0.413,0.425 -2.9,0.037 -5.475,2.319 -5.731,5.094 l 0.012,0.019 c 0.006,0.188 0.012,0.35 0.012,0.512 -0.006,0.238 -0.194,0.425 -0.425,0.425 z"
     inkscape:connector-curvature="0"
     style="fill:#ffffff;fill-opacity:1" /><path
     d="m 21.087,31.313 -13.094,0 c -4.125,0 -7.475,-3.356 -7.475,-7.475 0,-4.125 3.356,-7.475 7.475,-7.475 0.231,0 0.419,0.188 0.419,0.419 0,0.231 -0.188,0.419 -0.419,0.419 -3.663,0 -6.638,2.975 -6.638,6.637 0,3.662 2.975,6.637 6.638,6.637 l 13.094,0 c 5.325,0 9.663,-4.331 9.663,-9.663 0,-5.3 -4.294,-9.619 -9.587,-9.662 -4.706,0.031 -9.738,3.063 -9.738,9.662 0,0.231 -0.188,0.419 -0.419,0.419 -0.231,0 -0.419,-0.188 -0.419,-0.419 0,-6.813 5.238,-10.419 10.469,-10.5 0.012,0 0.025,0 0.038,0 l 0.15,0 c 0.012,0 0.025,0 0.038,0 5.706,0.1 10.313,4.775 10.313,10.5 0,5.794 -4.713,10.5 -10.506,10.5 z"
     id="svg-ico-7"
     inkscape:connector-curvature="0"
     style="fill:#ee5586" /></g><g
   transform="matrix(1.6240068,0,0,-1.6240068,291.26446,407.2248)"
   inkscape:label="My LoGO FInal"
   id="g6915"><g
   id="g6917"><g
     clip-path="url(#clipPath6921)"
     id="g6919"><g
       style="stroke:#ee5586;stroke-width:0.80000001;stroke-miterlimit:4;stroke-dasharray:none;stroke-opacity:1"
       transform="translate(9.96,87.9287)"
       id="g6925"><path
         inkscape:connector-curvature="0"
         id="path6927"
         style="fill:none;stroke:#ee5586;stroke-width:0.80000001;stroke-linecap:butt;stroke-linejoin:miter;stroke-miterlimit:4;stroke-dasharray:none;stroke-opacity:1"
         d="m 0,0 c 0,0 3.266,-7.25 17.211,-5.803 10.539,1.094 23.58,27.555 27.877,32.551 4.295,4.998 11.662,4.596 14.728,2.397 3.071,-2.198 4.096,-10.59 4.096,-10.59" /></g><g
       style="fill:none;stroke:#ee5586;stroke-width:0.80000001;stroke-miterlimit:4;stroke-dasharray:none;stroke-opacity:1"
       transform="translate(95.3779,55.4961)"
       id="g6929"><path
         inkscape:connector-curvature="0"
         id="path6931"
         style="fill:none;fill-opacity:1;fill-rule:nonzero;stroke:#ee5586;stroke-width:0.80000001;stroke-miterlimit:4;stroke-dasharray:none;stroke-opacity:1"
         d="m 0,0 c -1.068,-3.617 -2.713,-7.451 -8.428,-12.09 -2.797,-2.273 -9.513,-4.951 -13.138,-5.06 l -0.02,0 c -3.709,0.109 -10.578,2.787 -13.441,5.06 -5.85,4.639 -7.534,8.473 -8.623,12.09 -0.957,3.17 -1.17,12.387 -1.17,12.387 l 45.959,0 C 1.139,12.387 0.932,3.17 0,0 m -37.945,31.011 c 1.232,1.873 3.679,5.646 6.131,7.685 3.017,2.508 7.652,3.209 7.652,3.209 l 0,-6.746 c 0,0 -1.953,-1.562 -2.246,-2.531 -0.594,-1.965 -0.883,-6.356 0,-8.207 0.34,-0.707 2.246,-2.192 2.246,-2.192 l 0,-6.016 -19.397,0 c 0,0 1.69,8.825 5.614,14.798 m 18.109,-8.782 c 0,0 1.949,1.485 2.295,2.192 0.9,1.851 0.607,6.242 0,8.207 -0.303,0.969 -2.295,2.531 -2.295,2.531 l 0,6.746 c 0,0 4.736,-0.701 7.82,-3.209 2.5,-2.039 5.004,-5.812 6.264,-7.685 4.008,-5.973 5.734,-14.798 5.734,-14.798 l -19.818,0 0,6.016 z m -3.463,28.532 c -19.867,0 -37.687,-18.891 -37.687,-39.077 0,-20.182 17.25,-37.67 37.117,-37.67 25.035,0 40.262,16.457 40.262,38.513 0,19.322 -14.108,38.234 -39.692,38.234" /></g></g></g><text
   id="text6933"
   style="font-variant:normal;font-weight:normal;font-stretch:normal;font-size:70.84190369px;font-family:Impact;-inkscape-font-specification:Impact;writing-mode:lr-tb;fill:#ec1c3a;fill-opacity:1;fill-rule:nonzero;stroke:none;stroke-width:0.80000001;stroke-miterlimit:4;stroke-dasharray:none"
   transform="matrix(1,0,0,-1,116.6826,40.6123)"><tspan
     style="fill:none;stroke:#ffffff;stroke-width:0.80000001;stroke-miterlimit:4;stroke-dasharray:none;stroke-opacity:1"
     id="tspan6935"
     sodipodi:role="line"
     y="0"
     x="0 21.606779">te</tspan><tspan
     style="fill:none;stroke:#ee5586;stroke-width:0.80000001;stroke-miterlimit:4;stroke-dasharray:none;stroke-opacity:1"
     id="tspan6937"
     y="0"
     x="57.806992">K</tspan></text>

<g
   transform="matrix(0.59423418,0,0,0.59423418,4.0996611,35.634275)"
   style="fill:#ee5586;fill-opacity:1;stroke:none;stroke-opacity:1"
   id="g6939"><g
     style="fill:#ee5586;fill-opacity:1;stroke:none;stroke-opacity:1"
     clip-path="url(#clipPath6943)"
     id="g6941"><g
       style="fill:#ee5586;fill-opacity:1;stroke:none;stroke-opacity:1"
       transform="translate(9.292,87.6104)"
       id="g6947"><path
         inkscape:connector-curvature="0"
         id="path6949"
         style="fill:#ee5586;fill-opacity:1;fill-rule:nonzero;stroke:none;stroke-opacity:1"
         d="m 0,0 1.195,0.633 c 0,0 -1.58,2.683 -2.265,2.267 C -1.717,2.508 0,0 0,0" /></g><g
       style="fill:#ee5586;fill-opacity:1;stroke:none;stroke-opacity:1"
       transform="translate(9.292,87.6104)"
       id="g6951"><path
         inkscape:connector-curvature="0"
         id="path6953"
         style="fill:#ee5586;fill-opacity:1;stroke:none;stroke-width:0.33700001;stroke-linecap:butt;stroke-linejoin:miter;stroke-miterlimit:10;stroke-dasharray:none;stroke-opacity:1"
         d="m 0,0 1.195,0.633 c 0,0 -1.58,2.683 -2.265,2.267 C -1.717,2.508 0,0 0,0 Z" /></g></g></g></g></svg>